<?xml version="1.0" standalone="no"?>
<!DOCTYPE svg PUBLIC "-//W3C//DTD SVG 1.1//EN" "http://www.w3.org/Graphics/SVG/1.1/DTD/svg11.dtd" >
<svg xmlns="http://www.w3.org/2000/svg" xmlns:xlink="http://www.w3.org/1999/xlink" version="1.1">
<metadata>
Created by FontForge 20161013 at Mon Mar 12 14:47:23 2012
 By ,,,
</metadata>
<defs>
<font id="PopulaireW00-Regular" horiz-adv-x="295" >
  <font-face 
    font-family="PopulaireW00-Regular"
    font-weight="400"
    font-stretch="normal"
    units-per-em="1024"
    panose-1="2 0 6 3 0 0 0 0 0 0"
    ascent="894"
    descent="-130"
    x-height="744"
    cap-height="754"
    bbox="-15 -286.087 1304.12 909"
    underline-thickness="51"
    underline-position="-253"
    unicode-range="U+000D-E081"
  />
<missing-glyph horiz-adv-x="1024" 
 />
    <glyph glyph-name=".notdef" horiz-adv-x="1024" 
 />
    <glyph glyph-name="glyph1" horiz-adv-x="0" 
 />
    <glyph glyph-name="uni000D" unicode="&#xd;" horiz-adv-x="341" 
 />
    <glyph glyph-name="space" unicode=" " horiz-adv-x="204" 
 />
    <glyph glyph-name="exclam" unicode="!" horiz-adv-x="134" 
d="M89 86q14 0 14 -27q0 -12 -1 -19q0 -31 -29 -36h-6q-10 0 -16 3q-9 3 -16 15q-5 15 -5 21q2 19 6 29q7 16 13 19l2 1h3q3 0 6 1t6 1h2l1 -1l2 -1h3q3 -2 9 -2q1 0 3 -2zM98 771v-3v-48q-1 -24 -1 -54q1 -8 1 -36q0 -5 0.5 -12.5t1 -20t0.5 -22.5v-58v-34v-58v-26v-48v-21
v-17q1 -7 1 -15t-2 -38v-19q0 -8 1 -19v-27q0 -27 -3 -32q-17 -4 -24 -4q-2 0 -28 2q-6 1 -6 16v10q0 12 -1 15q0 3 -0.5 10.5t-1 22.5t-0.5 29q0 15 -1 26v27q-1 7 -1 31v33q-1 17 -1 80v34v6q1 3 1 6q0 10 -3 19q1 4 1 17v16q0 8 1 15v15v81q0 10 -0.5 27t-0.5 24
q0 8 0.5 21.5t0.5 18.5q0 1 -1 2v1v1l4 6q16 3 43 3q19 0 19 -3z" />
    <glyph glyph-name="quotedbl" unicode="&#x22;" horiz-adv-x="201" 
d="M127 762q52 -1 54 -6q3 0 6 -29q0 -30 -2 -36v-1q1 -1 1 -4v-8q-1 -4 -1 -19q-1 -7 -1 -25l-2 -11h-3q-5 0 -10 -1t-11 -1q-2 0 -10 2q-3 1 -2 2q-4 0 -7 -1h-4q-4 0 -4 3q-2 16 -2 46l-1 32q-1 2 -1 11v14q-1 5 -1 19v2q-1 2 -1 4q-2 3 -2 5t3 2h1zM26 762q52 -1 54 -6
q3 0 6 -29q0 -30 -2 -36v-2q0 -2 -3 -20q-4 -16 -4 -34l-2 -11h-4q-3 0 -6 -1h-8q-1 0 -9 2l1 1h-1h-11q-6 0 -6 3q-2 16 -2 44l-2 32q-1 2 -1 11v14q-1 5 -1 19q0 3 -2 6q0 2 -1 3v2q0 2 3 2h1z" />
    <glyph glyph-name="numbersign" unicode="#" horiz-adv-x="502" 
d="M290 752l-19 -79q-4 -20 -8 -34q-1 -1 -1 -7l-2 -6q-3 -15 -6 -27q0 -2 -2 -9t-3 -13q-1 -4 -2.5 -11.5t-2.5 -10.5l-14 -49l-7 -30h119q0 2 2 8t2 9q1 1 1.5 3.5t0.5 3.5q0 5 1 7l10 38q0 1 2.5 7t3.5 11q1 7 4 20l19 75q12 45 15 62l6 19q5 12 5 13v2v2h-1q0 1 6 1h6
q3 1 8 1h10h3q14 -3 14 -6l-19 -79q-4 -20 -8 -34q-1 -1 -1 -7l-2 -6q-1 -2 -3 -13q-1 -3 -2.5 -8t-1.5 -6q0 -2 -2 -9t-3 -13q-1 -4 -2.5 -11.5t-2.5 -10.5l-13 -49l-7 -30q33 -1 90 -1l4 -56q-1 1 -51 1h-56l-9 -35l-13 -51q45 -1 117 -1l4 -57q-2 2 -43 2q-44 0 -92 -2
q-1 -1 -1 -6l-13 -48l-52 -208l-2 -3q-1 -3 -2 -4q0 -5 -2 -7q-1 -4 -15 -7q-1 1 -6 1h-5q-8 0 -14 2q-10 4 -10 11v2l69 267h-10q-52 0 -54 2l-13 -2l-32 -1q-7 0 -8 -1v-2l-1 -2l-13 -48q-50 -203 -51 -208q-1 -1 -3 -7t-3 -7q-1 -4 -15 -7q-1 1 -7 1h-5q-8 0 -14 2
q-10 4 -10 11v2l68 264l-67 1q0 7 -1 16l-2 12v2q-1 5 -1 15q-1 6 -1 14q14 -2 86 -2l12 47q0 1 2.5 7.5t3.5 11.5l5 20q-14 0 -17 -1h-11l-82 1q0 6 -1 15l-2 12v2q-1 5 -1 16q-1 6 -1 13q16 -2 93 -2h5q8 3 22 3h9h1l4 17q1 1 1.5 3.5t0.5 3.5q0 5 1 7l11 38l2 7q2 6 3 11
q1 7 4 20l19 75q12 45 15 62l7 19l2 6q0 5 2 7v2v2h-1q0 1 7 1h5q3 1 9 1h10h4q12 -3 12 -6zM210 419l-9 -34l-13 -51h9h32h76l11 44q0 2 2.5 8.5t3.5 11.5q1 4 2.5 11t2.5 10h-56q-52 0 -53 1z" />
    <glyph glyph-name="dollar" unicode="$" horiz-adv-x="247" 
d="M181 759q9 -5 15 -13q9 -9 11 -19q1 -1 2 -3l2 -4q2 -3 4 -9q1 -2 1 -9q3 -9 4 -16q2 -11 3 -14q3 -18 3 -39l2 -39v-15q0 -1 -1 -3t-1 -3q0 -2 1 -2v-3q-5 -5 -18 -5h-5q-6 0 -27 3q-7 4 -7 8v4v2v1q-2 12 -2 53q0 28 -4 43q-3 13 -7 17q-3 4 -11 6l-7 2v-26v-13v-27
q0 -12 1 -21v-23v-49v-54v-33q18 -34 31 -64q1 -2 3 -7t4 -8q3 -7 6 -16q6 -12 13 -31q0 -7 1 -11q0 -2 0.5 -5t1.5 -5q4 -4 8 -15q2 -10 9 -38q0 -2 6 -39q5 -43 5 -66q0 -49 -11 -90q-5 -20 -11 -30q-3 -11 -16 -22q-1 -4 -17 -15q-11 -5 -23 -6q-8 0 -10 -1q0 -13 -1 -16
v-14q0 -4 -5 -6q-3 0 -4 -1q-1 1 -5 1h-2q-4 0 -10 2q-9 9 -9 13v24q-46 7 -61 30q-15 24 -16 83q0 37 1 50q0 2 -1 5q-1 4 -1 5l2 14q-2 4 -2 9q0 6 2 10q-1 1 -1 6v5q0 2 -1 3q1 3 18 8h5q3 1 6 1t17 -2q10 -2 11 -8q0 -10 -1 -19v-21v-18q-1 -10 -1 -25q0 -18 1 -24
q2 -26 22 -54v330l-15 34q-5 10 -8 18q-5 12 -8 19l-8 17q-1 3 -4.5 9.5t-4.5 9.5l-15 34q-26 72 -29 99q-2 26 -2 29l2 16q2 6 2 12q1 6 11 24q7 12 17 24q23 23 57 36q6 2 7 2v15q0 6 2 12l-2 5q0 1 5 1h4q1 1 5 1h7h2q9 -5 9 -7q0 -15 1 -22h3q26 0 39 -7zM106 702
q-9 -4 -16 -13l-12 -20q-4 -10 -6 -25v-7q0 -24 9 -57q7 -22 14 -38q0 -3 4 -11q4 -6 6 -13v11v15v38q0 11 1 19v19v82zM140 43q12 7 18 24t6 36q1 3 1.5 11.5t0.5 12.5v20v26q-1 11 -1 29q-1 21 -25 90v-33v-216z" />
    <glyph glyph-name="percent" unicode="%" horiz-adv-x="428" 
d="M381 752q-1 -1 -27 -79l-10 -34q-1 -1 -1 -3q-1 -3 -1 -4l-2 -6q0 -1 -2 -6t-3 -8t-3 -7.5t-2 -5.5q-7 -24 -15 -44l-16 -49l-18 -53l-23 -68q-10 -27 -20 -61q-11 -24 -15 -38q-4 -9 -4 -16l-18 -48q-44 -135 -72 -208q-1 -3 -2.5 -6l-2.5 -5t-1 -3q0 -3 -24 -7
q-1 1 -8 1h-4q-8 0 -14 2q-12 7 -12 11q0 1 0.5 1t0.5 1l129 369q4 13 17 44l14 43l10 28q1 1 1.5 3.5t0.5 3.5q1 3 3 7l14 38q10 34 12 38l28 83q5 15 9.5 27.5t7.5 19.5l2 7l8 19q4 11 7 13q-1 1 -1 2v2h-1q0 1 8 1h6q3 1 15 1h13h2q14 -3 14 -6zM364 206q0 16 -3 43
q0 6 -3 18q-5 14 -10 17q0 3 -8 3q-5 -2 -8 -7q-2 -2 -4 -9q-1 -1 -1.5 -4t-0.5 -5v-7v-3v-1v-3v-2v-35q0 -10 -1 -12q0 -113 7 -131q6 -14 17 -14q3 0 8 5q4 7 5 15l3 15q2 10 2 32q1 6 1 10v2q0 3 -1 6v4v35l-2 10v10q0 1 -1 4v4zM273 73q-5 40 -5 70v38q0 12 1 20v17
q0 9 1 14v14v5q0 43 17 69t43 30h5q2 0 3 -1h3q1 0 1 1h2q27 0 47 -31q20 -33 21 -63q0 -5 1 -8t1 -9q1 -2 1 -6v-16q1 -3 1 -17v-13q0 -14 0.5 -20.5t0.5 -22.5v-20q0 -15 -1 -19q1 -3 1 -10v-6v-16v-3q0 -54 -45 -67q-8 -2 -13 -2q-39 0 -48 6q-17 11 -32 35q0 1 -1.5 4
t-1.5 4l-1 4q0 5 -1 9t-1 10zM122 610q0 24 -2 42q0 7 -3 19q-4 13 -11 16q-3 3 -9 3q-4 -1 -8 -7q-3 -3 -3 -8q-1 -2 -1 -9l-1 -8v-4q0 -4 -1 -5v-23q0 -21 -1 -23q0 -119 6 -132t17 -13q7 0 11 8q5 15 5 18q1 9 3 21q1 7 1 40v2v6q-1 2 -1 5q1 12 0.5 15t-0.5 10v4l-2 6v9
v4v4zM35 470q-4 25 -4 71v25l1 19v37q0 9 1 14v13v5q0 44 15.5 70t40.5 30h5q2 0 3 -1h4l1 1h1q12 0 26 -8t22 -22q16 -28 21 -65q3 -21 4 -22q-1 -4 -1 -16q1 -3 1 -18v-12v-49q0 -6 1 -11v-10q0 -2 -2 -18q2 -6 2 -10v-7q-1 -4 -1 -16v-9q0 -49 -46 -61q-8 -2 -12 -2h-26
q-5 1 -13 3q-3 1 -11 6q-1 1 -3 2t-3.5 2t-2.5 2q-4 3 -7 7q-1 1 -2.5 3.5t-2.5 3.5q0 1 -1.5 3t-2.5 4q-2 6 -3 7l-2 6l-1 5q0 5 -1 9t-1 9z" />
    <glyph glyph-name="ampersand" unicode="&#x26;" horiz-adv-x="392" 
d="M139 329q-19 0 -22 -6q-3 -3 -13 -39q-6 -24 -6 -54v-13q1 -5 1 -11q1 -9 1 -27v-6v-15q0 -48 12 -81.5t34 -33.5h27q15 0 27 5t16.5 9.5t11.5 12.5l6 9q16 17 16 60q0 14 -1 26v18q0 37 -1 48l3 49l1 47q-2 -1 -7 -1l-36 1q-23 1 -43 1.5t-27 0.5zM272 616l-22 -1
l-25 -1q-12 -3 -16 2q-2 3 -1.5 10.5t1.5 15.5l1 7l-2 13l1 10l-2 14l1 3h-13q-1 0 -11 0.5t-12 0.5t-5 1t-5 1q-4 0 -12 -1t-11 -1h7q-3 0 -4 -1q-6 -1 -14 -9l-20 -18q-1 -2 -3 -7t-3 -7q-2 -2 -5 -9l-2 -12q-2 -12 -2 -20v-22q0 -116 6 -140q5 -23 16 -34q2 -4 9 -9l7 -5
q3 -3 12 -5q2 0 5 -1q3 0 4 -1q17 -5 30 -5q15 0 26 1q5 1 5 2q3 0 19 -2l17 3l2 33q-4 9 0 12l21 5l17 -3q17 1 19 0q5 -2 6 -18v-20v-5v-4l23 -2q8 1 20 1q2 0 2.5 -4t-0.5 -8l-1 -3v-15q5 -29 -1 -29h-45l1 -16l2 -29q1 -11 1 -23v-1q-1 -7 -1 -26q0 -52 -2 -102
q-1 -13 -0.5 -34t0.5 -32q0 -9 0.5 -25.5t0 -26.5t-3.5 -14q-1 -4 -23 -0.5t-29 0.5q-3 -1 -5 10q-3 18 -4 18q-5 -4 -13 -12t-11 -9.5t-11.5 -6t-19 -7.5t-29.5 -7h-7q-1 0 -27 2q-6 0 -11 0.5t-8 1.5h-3q-6 2 -12.5 4t-9.5 3l-3 1q-8 1 -16 12q-10 10 -15 23q-7 17 -10 28
q-14 90 -14 160l2 57q5 25 9 35l5 20q5 10 5 13q5 12 16 23q-12 11 -16 22q0 3 -5 13l-5 20q-4 9 -9 36q-2 34 -2 66q0 70 14 160q3 14 10 29q4 11 15 22q8 12 16 13l3 1q3 1 9.5 3t12.5 4q5 0 10 1q6 1 15 1q8 0 18 -1h12l20 2l21 -4l37 1q24 0 26 -1q3 0 3 -23v-27
q0 -11 1 -17v-1v-13v-23v-27v-5v-5z" />
    <glyph glyph-name="quotesingle" unicode="'" horiz-adv-x="108" 
d="M79 764v-4v-7v-8v-8q1 -3 1 -14q1 -6 1 -14v-17v-16l-1 -58q0 -3 0.5 -6.5t0.5 -4.5q0 -7 -10 -5h-4q-7 0 -16 -0.5t-15 -0.5q-4 0 -7 3q-2 4 -2 23v16v21q0 87 4 102q2 2 6 2q5 2 9 0q6 0 9 1t6 1v0l1 -1q2 -1 6.5 -1.5t7.5 -1t3 -2.5z" />
    <glyph glyph-name="parenleft" unicode="(" horiz-adv-x="174" 
d="M166 -32q-6 -2 -10 -2q-32 0 -41 12q-18 10 -36 34q-4 7 -11 26q0 1 -2.5 6t-3.5 9q-4 11 -6 15q0 2 -2 18t-2 19q0 1 -0.5 3.5t-1 7t-0.5 8.5q-2 14 -3 24q0 2 -3 50q-1 10 -1 48v15v36v61q-1 6 -1 15q0 8 1 14v14v64q0 23 1 39v35q0 17 1 29t1 26q0 35 1 42
q3 54 22 102q26 57 75 64q2 1 11 1l3 -43q-5 -1 -16 -14q-9 -13 -12 -19q-4 -4 -5 -10q-1 -5 -3 -19l-2 -14l-4 -32q0 -5 -1 -10q0 -3 -0.5 -8t-1.5 -8q0 -3 1 -6v-6q0 -1 -2 -17q0 -27 -1 -36q0 -29 -1 -38v-41q-1 -18 -1 -42v-49v-15v-79q1 -172 8 -196q7 -23 10 -29
q7 -14 13 -23q20 -29 27 -31z" />
    <glyph glyph-name="parenright" unicode=")" horiz-adv-x="174" 
d="M8 -32l-1 50q7 2 27 31q6 9 13 23q3 6 10 29q8 28 9 196v79v15v49q0 24 -1 42v41q-2 18 -2 38q-1 9 -1 36q-2 16 -2 17v6q1 3 1 6q-1 3 -1.5 8t-0.5 8q-1 5 -1 10l-4 32l-2 14q-2 14 -3 19q-1 6 -5 10q-3 6 -12 19q-11 13 -16 14l3 43q9 0 11 -1q49 -7 75 -64
q19 -48 22 -102q1 -7 1 -42q0 -14 1 -26t1 -29v-35q1 -16 1 -39v-64v-14q1 -6 1 -14q0 -9 -1 -15v-61v-36v-15q0 -38 -1 -48q-3 -48 -3 -50q-1 -10 -3 -24q0 -4 -0.5 -8.5t-1 -7t-0.5 -3.5q0 -3 -2 -19t-2 -18q-2 -4 -6 -15q-1 -4 -3.5 -9t-2.5 -6q-7 -19 -11 -26
q-18 -24 -36 -34q-9 -12 -41 -12q-4 0 -10 2z" />
    <glyph glyph-name="asterisk" unicode="*" horiz-adv-x="223" 
d="M177 588q-4 10 -42 48q2 -10 2 -22l2 -22q1 -5 1 -10h-46q1 2 4 26q2 22 3 27l-1 12q-10 -9 -28 -30q-19 -20 -21 -25l-33 33l4 3q3 2 10 7t14 11q7 5 14 11l10.5 9t4.5 3l8 9l4 3q-1 1 -1 2l-3 2q-4 4 -35 20l-12 6t-9.5 5t-6.5 3.5t-4 2.5l-2 1l17 16l8 9l9 9l49 -39
l-4 57q5 0 12 1h13h7h15q0 -4 -1 -10q-2 -14 -2 -22l-3 -19l46 36l9 -9l9 -8l16 -16q-2 -2 -17 -10l-33 -18q-5 -2 -9.5 -4.5t-6.5 -3.5l-3 -2l-3 -3q0 -1 -6 -7l9 -6l9 -9q1 0 4 -3t10 -9t15 -12q24 -18 27 -21z" />
    <glyph glyph-name="plus" unicode="+" horiz-adv-x="269" 
d="M248 345v-56h-2h-4q-1 1 -5 1q-10 0 -18 -1h-19q-15 0 -17 1l-15 -1h-4q1 -2 1 -8v-13l-1 -64q-7 0 -16 -1h-14h-10h-19q3 24 3 77v5v2q-2 -1 -9 -1h-12l-64 1q0 6 -1 15v14v11v18q16 -2 76 -2h5h1v4v47q1 23 1 35h57v-1q0 -3 -1 -5v-5v-19q1 -8 1 -18q0 -14 -1 -16
l1 -16v-3h4h47q23 -1 35 -1z" />
    <glyph glyph-name="comma" unicode="," horiz-adv-x="116" 
d="M92 75q2 0 2 -3v-5q-1 -2 -1 -6q0 -13 -1 -18v-31l-3 -31l-2 -8l-2.5 -5t-1.5 -4q-3 -8 -8 -13q-7 -7 -15 -10t-26 -4l-2 11l1 1l-1 1l-1 1q2 2 9 5q12 4 12 31v6v8q-1 -1 -5 -1l-2 -1q-2 0 -3 1h-3q-1 1 -3 1q-1 0 -2 -1h-2q-6 0 -7 4q-2 6 -2 36q4 38 6 38q5 10 19 8
q16 0 29 -6z" />
    <glyph glyph-name="hyphen" unicode="-" horiz-adv-x="274" 
d="M245 356l9 1v-17q0 -6 1 -10q1 -3 1 -9l-1 -32h-1h-4q-2 1 -6 1q-10 0 -18 -1h-19q-15 0 -17 1l-15 -1l-34 -1q-10 0 -17 -1q-15 0 -18 -1h-12l-64 1v15q-1 9 -1 14v11v27q16 -2 76 -2h6q9 3 23 3h10h17h12q24 0 42 1h30z" />
    <glyph glyph-name="period" unicode="." horiz-adv-x="115" 
d="M82 83q8 0 10 -8q3 -9 3 -19q0 -13 -1 -18q0 -4 -5 -21q-2 -9 -8 -12q-10 -3 -15 -4h-7q-9 0 -15 3q-10 3 -16 14q-5 13 -5 22q2 19 6 29q7 16 13 19h2q1 1 3 1q3 0 6 1t5 1t3 -1q4 0 7 -2q1 0 3.5 -0.5t4.5 -0.5l3 -2z" />
    <glyph glyph-name="slash" unicode="/" horiz-adv-x="400" 
d="M406 752q-1 -2 -5 -11.5l-12 -28.5t-17 -39q-12 -29 -15 -34q-4 -6 -6 -13l-6 -15q-2 -6 -5 -12q-15 -31 -19 -44l-22 -49l-24 -53l-29 -68l-27 -61q-3 -4 -10 -21q-2 -4 -3.5 -7.5t-3 -6t-1.5 -3.5l-6 -16l-22 -48l-93 -208l-4 -8l-4 -6q-1 -4 -19 -7q-1 1 -8 1h-5
q-9 0 -15 2q-12 8 -11 13l167 369q2 4 5 10.5t8 16.5t8 17l19 43l12 28q0 1 1.5 3t2.5 4q1 3 3 7l17 38q5 10 8 18l8 20l36 77l27 60l9 19q4 10 7 13v3q0 1 -1 1q0 1 8 1h7q3 1 10 1h12h3q15 -3 15 -6z" />
    <glyph glyph-name="zero" unicode="0" horiz-adv-x="323" 
d="M216 663q-4 17 -17 29q-3 7 -21 14q-18 -4 -26 -12q-10 -5 -11 -9q-5 -5 -8 -11l-1 -2q-2 -2 -4 -6t-4 -7l-9 -14q-7 -15 -11 -32q-4 -16 -6 -31q-2 -14 -3 -39q-1 -16 -1 -35v-41v-36v-13q0 -9 1 -12q0 -10 -1 -18v-18q0 -45 -1 -84t-1 -87v-9q2 -22 2 -47q0 -31 4 -44
q1 -7 5 -14q6 -6 7 -8q3 -1 9 -6q7 -5 9 -6q11 -8 20 -8q21 0 30 3q13 4 22 15q8 10 13 22q2 4 10 30q7 24 8 196v31v16v49q0 24 -1 42v41q-1 9 -1 38q-1 9 -1 35q-2 16 -2 18v5q1 3 1 6q-1 2 -1 8t-1 8q-1 6 -1 11q0 4 -3.5 14.5t-4.5 17.5zM32 317v41v37v31q1 7 1 30
q0 19 1 24q0 22 2 36q0 41 3 53q1 2 1.5 7t0.5 7q1 5 1 9q4 34 12 57q12 43 26 63q15 24 36 43q11 11 25 17q14 8 25 8q4 1 15 1q8 0 10 -1q50 -7 76 -63q19 -48 22 -103q1 -7 1 -42q0 -13 1 -25t1 -30v-35q1 -16 1 -39v-63v-14q1 -6 1 -15q0 -8 -1 -15v-13v-36v-16
q0 -38 -1 -48q-3 -48 -3 -49q-1 -9 -3 -26q0 -4 -0.5 -8t-1 -6t-0.5 -3q0 -3 -2 -19t-2 -19q0 -1 -2.5 -5.5t-4.5 -8.5q-2 -7 -5 -16q-6 -16 -11 -25q-18 -24 -36 -34q-2 -1 -6 -2.5t-6 -2.5q-3 -1 -6 -3t-5 -2q-18 -6 -28 -7h-10h-23h-5q-14 0 -26 4q-13 5 -28 13
q-14 9 -21 20q-9 14 -13 33q-2 10 -8 37q-2 11 -4 47q-1 23 -1 44v47v21q1 9 1 21v43z" />
    <glyph glyph-name="one" unicode="1" horiz-adv-x="200" 
d="M164 752q2 -24 2 -79v-17q1 -7 1 -17v-13v-27q0 -11 1 -21v-23v-49v-53v-68v-32q1 -13 1 -29q-2 -34 -2 -38q0 -13 1 -16v-48q0 -188 -1 -208q0 -5 -1 -8v-6v-3q0 -1 -1 -1t-2 -1l-4 -1h-5q-2 -1 -7 -1q-1 1 -9 1h-6q-10 0 -18 2q-19 8 -19 13l2 369q0 35 1 44v43v28v14
v38q0 11 1 19v13q0 67 1 86q-4 -4 -8 -7q-1 -1 -3 -2.5t-3 -2.5l-2 -1q-1 0 -3 -1.5t-5.5 -4.5t-7.5 -5q-4 -4 -9 -6l-2 -1l-8 -4q-2 -1 -5.5 -3.5t-5.5 -4t-4 -2.5q-3 -1 -6 -3t-5 -3.5t-3 -1.5h-1q-1 -1 -2 1v4q-1 4 -1 7v61q6 4 18.5 10.5t32.5 20.5q13 6 17 10
q4 3 10 19q1 2 1.5 5t1 5t1.5 3t11 1h7q3 1 11 1h14h3q20 -3 20 -6z" />
    <glyph glyph-name="two" unicode="2" 
d="M120 -10h-4q-20 -1 -57 -1h-20q-14 2 -15 2q-2 1 -2 5v12l2 17q1 17 1 33v12l-1 15v12v24q0 5 2 35q11 92 23 119q5 10 13.5 35t19.5 46q1 2 2.5 6t2.5 6t1.5 7t2.5 8q1 3 5 6t5 6q3 6 9 25q4 10 14 24l9 14q6 15 8 21l9 18q2 1 6 12q2 4 11 16.5t9 14.5l12 26l12 24
q4 8 4 14q3 21 3 41q0 27 -9 44q-8 18 -24 20q-40 4 -49 -17q-6 -9 -9 -22q0 -3 -4 -15q-1 -6 -4 -22q0 -1 -1 -7t-2.5 -18t-2.5 -25q-2 -8 -20 -8q-15 0 -30 5q-13 4 -13 10q2 18 3 28q0 3 2 17q3 11 3 15v3q6 33 7 35l13 33q7 15 18 24q31 29 91 29q42 0 67 -28
q10 -10 14 -18q8 -10 18 -42q6 -18 7 -29v-9q0 -18 -6 -33q0 -3 -2 -7t-2 -7q-12 -46 -26 -78l-19 -38q-9 -24 -24 -48q-1 -3 -4 -9t-4 -9l-11 -24q-6 -13 -9 -21q-4 -8 -20.5 -38.5t-24.5 -51.5q-30 -78 -31 -144q0 -2 -1.5 -6t-1.5 -7q-2 -12 -2 -14l1 -37v-5v-4
q1 -1 1 -2t1 -2l2 -2q10 -2 74 -2q9 0 24 -1t30 -1h5q7 0 12 1t12 1h5h10q6 0 8 -2t0 -12l-1 -27q0 -17 -3 -23q-3 -5 -14 -5h-29q-16 -1 -27 -1q-21 0 -30 1h-40q-4 1 -8 1z" />
    <glyph glyph-name="three" unicode="3" horiz-adv-x="304" 
d="M144 719q-1 0 -9 -2l-6 -2q-7 -1 -21 -9q-2 -1 -6 -5t-5 -7q-1 -4 -6 -14.5t-7 -17.5q0 -10 -2 -10q0 -3 -10 -3q-17 0 -29 1q-21 0 -21 4v1l1 2q1 5 1.5 17t1.5 21t4 16l4 10q30 63 109 63q61 0 80 -28q21 -18 31 -64q10 -48 12 -75q1 -18 1 -65l-2 -31q-6 -26 -11 -36
q-1 -2 -12 -32q-14 -22 -15 -23q15 -17 18 -22q17 -38 23 -69q2 -52 2 -92q0 -107 -17 -192q-4 -16 -12 -28q-5 -13 -18 -23q-8 -11 -19 -12l-4 -1q-3 -1 -11 -3t-15 -4q-5 0 -12 -1t-19 -1q-7 0 -12 1q-9 0 -12 1q-13 0 -23 3q-11 1 -17 5q-3 0 -14 8q-9 2 -16 8q0 1 -8 12
q-13 29 -14 39l-1 7v15.5v16.5v22q0 4 10.5 4.5t28 -0.5t19.5 -1q4 0 4 -2l2 -17q0 -4 0.5 -11.5t0.5 -11t0.5 -9t1 -8.5t1.5 -6.5t2.5 -5.5t3.5 -3q14 -8 48 -8q5 0 6 1q24 4 36 49q5 17 10 77q2 44 2 46l-2 15q-1 14 -1 37v12q-1 6 -1 14q0 32 -5 57q-6 22 -16 30
q-13 9 -16 10q-8 2 -15 2t-14 1h-13q-7 0 -9 -1h-1q-9 0 -9 38q0 26 9 28q3 0 6 -0.5t5 -1t4 -0.5h1q7 0 13 2q2 1 10 1h2q15 0 27 14q9 10 17 35q7 21 7 61v42q0 108 -51 108q-3 0 -4 1h-2z" />
    <glyph glyph-name="four" unicode="4" horiz-adv-x="305" 
d="M37 369q0 6 -1 15v14q-1 8 -1 37q0 49 -1 75l-2 76q-1 26 -1 46q0 7 -1 14q0 14 -1 17v19v10v4v10q1 5 1 10q-2 16 -2 17q-1 11 -1 28q0 6 26 6q38 0 38 -9v-8q1 -4 1 -10v-5q1 -2 1 -4q0 -1 -0.5 -2.5t-1 -4.5t-0.5 -6q1 -4 1 -17q1 -7 1 -14q1 -2 1 -10v-13v-8v-43
q1 -24 1 -52q1 -19 1 -84q0 -20 1 -26q-1 -5 -1 -24q16 -2 17 -2h5q9 3 23 3h11h13q5 1 28 1v13q1 6 1 14v11v19v31v17q1 8 1 18v35q0 14 -1 39t0 41q0 15 -1 28t-2 22t-1 11v18q0 8 4 16q0 2 16 8q16 0 23 -3h4q17 0 17 -6q1 -2 1 -8v-10v-68q0 -25 1 -32v-28q2 -30 2 -38
v-23q1 -9 1 -23q0 -7 1 -34.5t2 -47.5q0 -20 0.5 -44t0.5 -27v-1l4 -166l1 -56v-19q1 -7 1 -16v-6q1 -3 1 -13v-12v-6v-11q1 -4 1 -9l3 -47q0 -4 -15 -9q-5 -1 -33 -5h-5q-13 0 -13 4q-1 13 -3 42q0 12 -1 20v19q-1 8 -1 35q-1 3 -1 15q0 13 -1 17v6v17v6l-1 29v28
q-1 13 -1 29v32l-1 2q0 2 -0.5 5.5t-0.5 6.5q-2 16 -2 20q1 3 1 17q0 15 -1 20l-16 -1l-31 -1q-10 0 -17 -1q-14 0 -17 -1h-13z" />
    <glyph glyph-name="five" unicode="5" horiz-adv-x="335" 
d="M292 754q3 -16 3 -26q0 -2 -0.5 -6t-0.5 -6q0 -5 2 -17v-7q1 -8 0 -9t-6 -1h-3h-63h-26h-2q-9 0 -20 1q-10 1 -17 1t-8 -1h-22q-5 0 -13 -5q-1 -13 -1 -26q-7 -82 -9 -132v-4.5t-0.5 -9t-0.5 -11.5q0 -26 1 -27q2 -2 12 -2h10q8 0 13 -1t16 -1q7 0 9 -1q79 -3 91 -7
q5 -5 12 -10q12 -10 13 -11q19 -35 19 -79v-12v-11q-3 -35 -3 -222q0 -5 -2 -23q-3 -26 -5 -37q-4 -12 -6 -20q0 -2 -2 -6l-8 -8q-5 -5 -6 -7q-12 -12 -42 -19q-25 -7 -42 -7q-3 -1 -12 -1q-5 -1 -7 -1q-12 0 -19 1t-12 1q-27 6 -31 8q-10 1 -19 12q-12 11 -17 23
q-10 15 -17 46q-6 25 -10 55q-2 18 -2 52l1 24l72 5q0 -1 1 -18t1.5 -37.5t1.5 -28.5q4 -29 9 -45q13 -34 39 -38q1 -1 5 -1q1 0 9 2q2 1 5 1q1 1 2 1q9 2 21 9q22 14 23 50q1 3 3 29v99q0 6 1 12q1 7 1 11l-1 29v4v6q1 4 1 9q0 3 1 10.5t1 11.5l-3 15q-1 3 -2 12.5
t-3.5 16.5t-7.5 12q-9 10 -38 10h-8l-79 -1h-4q-6 0 -13 -1h-16q-16 0 -21 5q-2 8 -2 64v26q0 2 1 11t0 16q1 20 2.5 43.5t1.5 40.5q0 4 0.5 8t0.5 9q0 15 3.5 50t4.5 55q1 1 1 7l-1 4q-1 5 0 9q1 12 3 14.5t9 2.5h27q12 0 30.5 1t30.5 1q6 0 13 1t18 1q21 0 54 -2
q48 0 54 -2z" />
    <glyph glyph-name="six" unicode="6" horiz-adv-x="328" 
d="M217 110q0 8 3 21q2 16 2 22q2 11 3 36q0 14 1 26v29q1 27 1 71q0 32 -1 35q0 71 -51 74h-4q-25 0 -41 -14q-13 -11 -20 -32q-11 -36 -11 -94q0 -90 1 -129v-8q0 -24 9 -60q4 -16 10.5 -24t23.5 -14q9 -3 18 -3q3 0 6 1h5q4 1 7.5 2.5t6.5 3t5.5 5t4 4.5t4 6.5t3 7
t3.5 8.5t4 9q0 2 1 3t1 4zM294 201q0 -45 -5 -85q-4 -31 -19 -68q-12 -30 -43 -48q-28 -16 -72 -16h-13q-5 -1 -10 -1h-3q-44 3 -67 34q-27 37 -27 134v12v15q0 12 -1 15v9q0 18 -1 23v35q0 21 2 39q-2 32 -2 37q1 5 1 22q0 13 -1 16q1 4 1 18v177q0 12 1 20q0 14 1 18
q0 18 2 28q0 12 5 30q5 17 6 21q1 1 4 12q4 12 7 15q17 25 44 38q27 15 60 15q2 1 8 1q34 0 59 -9q5 -1 23 -14l6 -3l5 -5q12 -9 20 -27q6 -13 8 -29q0 -3 1 -7t1 -5t0.5 -3t-1.5 -2t-3 -0.5t-5 -1t-7 -1.5l-39 -7q-11 -2 -12 -0.5t-3 14.5t-11 18q-2 1 -4 2.5t-4 2.5
q-6 2 -7 3q-11 4 -22 5h-10q-2 0 -5.5 -0.5t-5.5 -1.5q-3 -1 -8 -2.5t-8.5 -2.5t-4.5 -2q-20 -6 -29 -53q-2 -20 -3.5 -35.5t-2 -20.5t-0.5 -6v-31q0 -21 -1 -28q-1 -13 -1 -55l13 9q29 24 86 24q26 0 44 -16q45 -39 52 -107q3 -16 3 -40q0 -7 1 -12v-13v-12q-1 -5 -1 -12
q-1 -5 -1 -21v-19q0 -31 -1 -40z" />
    <glyph glyph-name="seven" unicode="7" horiz-adv-x="244" 
d="M228 702l-41 -206q-5 -22 -8 -46q-4 -20 -7 -38q-3 -5 -5 -16q0 -3 -1 -5q0 -4 -1 -5q0 -2 -1 -3v-2v-2q-2 -3 -3 -9q-1 -3 -1 -8l-6 -33l-12 -49l-16 -82q-2 -10 -5 -25.5t-5 -26.5t-3 -20q-1 -8 -10 -55l-5 -38q0 -4 -0.5 -7.5t-1.5 -5.5v-2l-4 -18h-43q-8 0 -14 -1
t-12 -1q-5 0 -5 2t2 12q1 3 3 11t3 11l6 21q0 9 3 19q0 3 3 21v2q1 1 1 3q0 4 1 8q0 2 0.5 5t1.5 5q0 2 1 3t1 3q1 1 1 3q1 2 1 4q1 3 3 11v3q1 2 1 5l15 58l14 56l44 235q2 12 8 42q1 1 1.5 4t0.5 5l2 8q1 4 3 15q1 4 2.5 9.5t1.5 6.5v1v3q1 1 1 5q1 2 1 5q0 2 1 3q1 2 1 4
l5 25l5 21q0 1 1 5.5t2 7.5q0 3 0.5 5t0.5 4v1q2 2 2 3v3q-14 2 -15 2q-6 0 -10 -1h-8q-24 3 -55 3q-41 2 -51 5q0 2 1 4q2 5 0 8q-2 8 0 21q1 9 1 23q0 11 2 13l3 1q2 1 6 1h4q31 0 35 1q2 -1 50 -1q12 0 17 1q26 0 33 -1q30 0 39 -1q5 0 8 -1h8q3 0 3 -10q0 -1 -2 -27
q-3 -18 -3 -24z" />
    <glyph glyph-name="eight" unicode="8" horiz-adv-x="312" 
d="M116 695q-1 -3 -7 -13q-2 -3 -5 -10l-2 -6q-2 -4 -2 -14q-2 -7 -2 -26q-1 -10 -1 -55q0 -40 7 -61q5 -20 21 -38.5t34 -18.5q41 0 55 42q9 26 9 68v39q0 23 -8 53q-16 48 -27 56q-9 7 -33 7q-4 0 -5 -1q-19 -2 -34 -22zM156 -18q-11 0 -18 1t-12 1l-14 4t-10 3l-4 1
q-10 1 -19 12q-11 10 -17 23q-5 8 -12 28q-20 109 -20 174v26q0 111 29 151q5 9 17 22q-10 11 -17 23q-18 40 -22 68q-3 7 -3 31q0 64 6 101q2 13 10 46q8 22 12 29q6 13 17 23q15 18 47 27q5 0 12 1t18 1h11q2 0 6 -0.5t6 -1.5q39 0 61 -24q18 -18 30 -58q18 -62 20 -148
v-4q-1 -4 -3 -16l-2 -13q-1 -15 -7 -32q-4 -11 -15 -30l-16 -23q3 -2 16 -22q8 -16 15 -31t7 -22q9 -29 9 -88q0 -57 -2 -98q-2 -48 -6 -72q-3 -23 -10 -48q-4 -11 -11 -24q-2 -4 -9 -14q-22 -25 -77 -25q-2 -1 -6 -1.5t-6 -0.5h-11zM133 58q7 -7 17 -9q1 -1 5 -1
q58 0 63 56q1 3 1 15q1 6 1 14q0 3 1.5 34t1.5 64v6v16q1 7 1 13l1 51q-5 39 -21 58q-2 3 -21 14q-16 7 -29 7q-37 0 -50 -49q-7 -21 -7 -57v-14q1 -5 1 -11q0 -23 -1 -37q-1 -8 -1 -10v-4q0 -28 10 -88q9 -45 27 -68z" />
    <glyph glyph-name="nine" unicode="9" horiz-adv-x="339" 
d="M50 73q-5 21 -5 41q0 13 3 22q1 4 4.5 4t9 -1.5t8.5 -1.5q6 0 14 -1.5t11 -1.5q8 -1 21 -1q4 -34 8 -41q11 -16 12 -16q15 -11 24 -11q8 0 26 6q15 6 17 7q5 1 13 11q8 8 11 17q19 50 17 140q0 5 -0.5 20.5t-0.5 27.5l-13 -9q-21 -17 -77 -17h-8q-26 0 -44 16
q-45 39 -52 107q-3 17 -3 40q0 6 -1 11v14v12q1 5 1 12q1 5 1 21v19q0 31 1 40q0 29 1 38q1 4 1 18q1 7 1 18q2 22 5 33q6 31 20 61q12 22 37 35q19 9 30 10q13 4 44 4q8 0 13 1h10h3q42 -3 68 -28q27 -25 29 -73l1 -37q0 -57 1 -80q1 -24 1 -52v-7q0 -21 -2 -39
q2 -32 2 -37q-1 -5 -1 -23q0 -12 1 -15q-1 -4 -1 -18v-19v-23v-12v-15v-39v-13v-50q0 -37 -7 -86q-1 -8 -4 -17l-2 -6q0 -1 -0.5 -4t-1.5 -4q-10 -20 -15 -27q-8 -11 -20 -21q-20 -15 -24 -17q-3 -2 -17 -6q-3 -1 -7 -3q-4 -1 -5 -2q-11 -4 -31 -4q-2 -1 -8 -1
q-1 0 -4.5 0.5t-9.5 1t-11 0.5h-3q-8 0 -26 6q-27 8 -32 12q-16 15 -34 53zM112 517q-1 -27 -1 -72q0 -39 1 -42q0 -17 3 -29q3 -16 9 -24q15 -22 43 -23h4q29 0 46 19q23 23 29 41q1 3 1 14v24v29v35q0 60 -1 99q1 9 1 30q0 12 -1 19v15v1v6q0 12 -10.5 30t-23.5 23
q-9 3 -17 3h-7q-2 -1 -5 -1q-16 0 -25.5 -2t-17 -10t-9.5 -11.5t-10 -20.5q0 -3 -0.5 -8.5t-1.5 -8.5l-2 -9q0 -3 -1 -6v-6q0 -3 -1 -7v-13q0 -10 -1 -19q0 -21 -1 -31q0 -4 -1 -15v-30z" />
    <glyph glyph-name="colon" unicode=":" horiz-adv-x="143" 
d="M127 557q0 -20 -4 -29q-2 -12 -21 -16q-15 -3 -28 3q-9 1 -18 14q-4 12 -4 24q0 23 6.5 33.5t22.5 15.5q27 10 39 -12q5 -10 7 -33zM126 201q8 -6 7.5 -31t-6.5 -36q-9 -14 -36 -14q-23 0 -35 18q-4 11 -4 24q0 19 6 31q10 20 33 23q21 2 35 -15z" />
    <glyph glyph-name="semicolon" unicode=";" horiz-adv-x="118" 
d="M92 75h1q3 0 3 -2t-1 -5q-2 -6 -2 -7q0 -13 -1 -18q0 -17 -3 -26l-3 -31q0 -4 -3 -22q-3 -8 -8 -13q-7 -7 -15 -10t-26 -4l-2 11l1 1l-1 1l-1 1q2 2 9 5q12 4 12 31v6v8q-1 -1 -5 -1l-2 -1q-2 0 -3 1h-3q-1 1 -3 1q-1 0 -2 -1h-2q-4 0 -7 4q-2 6 -2 36q3 29 6 29
q0 3 16 3q10 2 31 2zM82 364q8 0 10 -9l5 -17q0 -14 -1 -19q0 -6 -1 -9q-2 -4 -3 -7q-2 -4 -3 -5q-2 -9 -8 -12q-10 -3 -15 -4h-7q-9 0 -15 3q-10 3 -16 14q-5 13 -5 22q1 17 6 28q8 17 13 20h2q1 1 3 1q3 0 6 1t5 1t3 -1q4 0 7 -2q1 0 3.5 -0.5t4.5 -0.5l3 -2z" />
    <glyph glyph-name="less" unicode="&#x3c;" horiz-adv-x="260" 
d="M42 323l49 73q11 17 11 18q10 12 14 18l12 19l10 13l8 13h4q3 1 9 1q4 1 12 1h17q21 0 26 -1h4q9 0 9 -2v-1q0 -2 -5 -5q-2 -2 -3 -4l-4 -4q-3 -3 -5 -6q-1 -1 -2 -3l-2 -2l-24 -29q-1 -1 -5 -7t-5 -7l-2 -3q-2 -3 -4 -5t-4 -4.5t-3 -3.5l-12 -14l-39 -49l46 -57l14 -18
l8 -8q1 -2 2.5 -3.5l2.5 -2.5l2 -2t1 -2l14 -18l29 -36l2 -2v-1q-5 -1 -19 -1q-5 -1 -23 -1h-15q-19 0 -25 2q0 1 -5 9q-2 2 -4 6t-3 5l-6 12l-1 2q-2 2 -5 5.5t-6 6.5q-3 6 -6 8q-1 2 -3.5 5.5t-2.5 4.5l-13 17q-12 18 -30 36z" />
    <glyph glyph-name="equal" unicode="=" horiz-adv-x="299" 
d="M268 308v-56h-2h-4q-1 1 -5 1q-9 0 -18 -1h-19q-14 0 -16 1l-16 -1l-33 -1q-11 0 -19 -1q-13 0 -16 -1h-12l-65 1q0 6 -1 15v15v10v18q16 -2 77 -2h5q9 3 23 3h11h16h12h47q23 -1 35 -1zM268 416v-57h-2h-4q-1 1 -5 1q-9 0 -18 -1h-19q-14 0 -16 1l-16 -1l-33 -1
q-11 0 -19 -1q-13 0 -16 -1h-12l-65 1q0 7 -1 16v14v10v19q16 -2 77 -2h5q9 3 23 3h11h16h12q25 0 47 -1h35z" />
    <glyph glyph-name="greater" unicode="&#x3e;" horiz-adv-x="256" 
d="M225 319q-42 -48 -63 -75l-11 -16q-7 -13 -9 -13l-8 -12l-12 -18q-3 -3 -23 -4q-30 0 -37 -1l-18 2v1l1 1l2 2q1 2 4 5q1 1 4 5.5t5 6.5l9 10l1 2l4 4q1 1 2 3l2 2q3 3 4 6q4 6 6 7l10 12l38 48q10 10 11 13q7 8 8 9q2 4 4 4q-13 13 -15 16l-13 17l-25 33l-11 15
q-6 6 -10 16l-5 5q-3 3 -5 7q-5 9 -8 12q-23 30 -25 32q0 1 17 3h17q19 0 24 -1q18 0 24 -2v-3l9 -9l1 -2l2.5 -5t3.5 -6l20 -31l10 -18q4 -8 11 -14l7 -14l8 -12l6 -10z" />
    <glyph glyph-name="question" unicode="?" horiz-adv-x="252" 
d="M120 -9q-2 -11 -8 -13q-9 -3 -16 -4h-6q-9 0 -15 3q-10 3 -17 15q-5 13 -5 21q2 19 6 29q7 16 14 19h2q1 1 3 1q3 0 6 1q2 1 3 1q1 1 2 1t3 -2q29 -4 33 -36v-7q0 -12 -5 -29zM100 117h-37q-7 2 -7 13v39v8q0 8 1 45.5t1 40.5q0 33 9 67q9 35 22 63q4 9 9.5 21t9.5 20
t6 13q1 4 7 18l6 16q1 4 7 23l5 16l5 14l6 16l9 27q1 4 3.5 11.5l3.5 10.5q0 2 1.5 7.5t2.5 9.5q2 14 2 24q0 15 -1 19q-5 56 -31 58h-5q-17 0 -25 -15q-7 -14 -8 -22v-2q-1 -2 -1.5 -5.5t-0.5 -7.5q-3 -12 -3 -22q0 -37 -1 -50q-1 -7 -18 -7q-39 0 -41 14q0 7 1 13v16v4
q0 6 1 11t1 12v4v4q4 32 4 34q5 20 9 33q6 15 16 25q25 28 64 28q41 0 65 -27q9 -9 14 -19q11 -14 11 -22q8 -14 8 -21t-1 -9q6 -16 7 -24v-14q-1 -32 -6 -49q-6 -21 -23 -65l-14 -38q-9 -27 -20 -49q-2 -7 -21 -63q-1 -3 -11 -24t-15.5 -35.5t-8.5 -29.5q-4 -18 -5 -41.5
t0 -58.5t1 -38v-26q0 -5 -1 -7.5t-2 -3t-5.5 -2t-5.5 -1.5z" />
    <glyph glyph-name="at" unicode="@" horiz-adv-x="537" 
d="M282 203q28 0 40 24v36v10q-1 5 -1 13q0 11 1 14q0 17 1 29v14q0 45 -13 71q-13 22 -50 22h-4q-28 -2 -37 -22q-9 -18 -9 -59q0 -28 4 -57q0 -10 3 -20q2 -14 2 -19q1 -4 4 -8q0 -2 1 -3t1 -3q13 -38 46 -41h5q2 -1 6 -1zM168 559q6 57 18 72q7 9 19 15t19 7.5t10 1.5h4
h11q5 1 10 1q6 0 7 -1q42 0 76 -28q19 -16 32 -43q10 -40 10 -46q1 -4 1 -25q2 -22 2 -27v-78q0 -14 1 -17q-1 -3 -1 -14q0 -15 1 -20q0 -30 -2 -50v-38l-1 -32v-39q0 -19 14.5 -30.5t26.5 -11.5q8 0 21 6q3 21 3 40q1 11 1 41v51q1 5 1 28v17l-1 3v1q0 27 -1 34v62
q0 21 -3 51q2 12 2 24q0 17 1 21v36q-1 34 -8 63q-7 22 -20 32q-9 7 -85 18q-54 8 -107 8q-60 0 -93 -12q-31 -10 -36 -41l-1 -3q-2 -4 -2 -6q0 -11 -2 -21q-3 -3 -3 -8v-5q0 -7 -2 -13q0 -6 1 -9t1 -7v-5q0 -2 -2 -18q2 -8 2 -20v-173q0 -30 3 -57q0 -36 -1 -68
q-1 -18 -1 -44v-16q1 -5 3 -19q1 -12 3 -21q1 -9 3 -16q0 -19 18 -33t43 -20q6 -2 18 -2h13q4 0 10.5 0.5t9.5 0.5t7 -0.5t5 -0.5q11 -3 147 -3h134q12 0 12 -29q0 -15 -3 -26q-5 -12 -9 -12h-254q-84 1 -120 5q-43 5 -53 11h-3q-2 0 -5 1t-4 3q-1 1 -7.5 6.5t-9.5 8.5
q-4 5 -14 41q-13 47 -7 125q-2 14 -3 19q1 3 1 14v13q-1 6 -1 14v5q-1 5 -1 22q0 19 -1 24v97q0 39 1 49v11q0 12 1 21v21q5 103 10 154q3 13 4 18q0 3 0.5 6t1 5.5t0.5 3.5q4 8 8 17q5 15 10 20q7 8 30 22q51 11 151 14q28 0 126 -4q77 -11 87 -16q19 -11 38 -46
q8 -15 13 -45q4 -34 5 -102q0 -13 1 -24v-25q0 -15 1 -29q0 -25 1 -34v-72q1 -19 1 -70v-42v-28q0 -6 -1.5 -25t-2.5 -24.5t-3.5 -20t-5 -19.5t-8.5 -14.5t-13 -12.5t-17.5 -6t-24.5 -3q-111 0 -115 74v7l-14 -13q-13 -16 -37 -16q-30 0 -54 11q-25 12 -37 26q-11 14 -20 43
t-10 53q-3 25 -3 62l-3 11q0 17 4 35q7 62 47 97q14 14 40 14q35 0 73 -29l11 -8v44l-4 20l-2 10q-1 10 -2 17q0 3 -1 6q-2 6 -2 7l-2 6q0 1 -1 4q0 2 -1 3t-1 2q-1 2 -1 3q-1 5 -3 6l-4 4l-4 4q-1 1 -5 3q-1 0 -7 3t-10.5 4.5t-12 2.5t-11.5 -3q-15 -2 -22 -46v-6.5
t-0.5 -5.5l-1.5 -3t-4 -2.5t-7 -0.5l-29 1q-15 0 -16 1q-1 3 0 14z" />
    <glyph glyph-name="A" unicode="A" horiz-adv-x="356" 
d="M285 -11q-9 20 -9 53q-2 18 -2 23q0 2 -1 6t0 6q0 1 -2.5 24t-4.5 45q-4 54 -6 60q-17 3 -40 4q-5 0 -13 1h-17h-8q-7 0 -13 1h-11h-10q-4 -1 -9 -1q-26 0 -28 -2t-5 -13q0 -4 -1 -14.5t-1 -16.5q-1 -4 -1.5 -8t-0.5 -7t-0.5 -5t-0.5 -3q-3 -15 -4 -19q-1 -5 -2.5 -11.5
t-1.5 -8.5v-6q0 -16 -4 -32q-5 -53 -14 -75q-9 -3 -18 -3h-13q-29 0 -30 7v2l2 20q3 14 3 21q8 46 11 82q7 65 10 84q3 23 4 27l2 10l2 10t1 6l4 28l6 37q5 17 6 35q0 1 2 17l4 17l5 33q6 44 20 107.5t17 80.5q0 1 1.5 9t2.5 13q2 14 3 17q5 26 16.5 61t13.5 46q3 6 12 9
q7 4 23 4q37 0 85 -18q9 -29 9 -44v-7q5 -15 6 -25l2 -14q1 -7 1 -16l2 -34q2 -24 2 -29q3 -11 3 -30q2 -16 2 -33l3 -49l3 -35q2 -33 10 -108l10 -73q4 -38 6 -55q5 -43 5 -44v-4q0 -20 4 -44q3 -22 5 -49t4 -49v-5q0 -4 1 -8.5t0 -6.5t-10 -5q-8 -2 -19 -3q-8 -4 -13 -4
q-21 0 -21 10v1zM187 281h22h14q12 0 15 1l15 1l-2 43q-2 9 -3 41q0 8 -1 15v16l-3 36q0 12 -3 38l-9 69q-12 108 -19 151q-1 3 -5 4l-5 2l-1 -4q-2 -4 -4 -10l-3 -9l-8 -21q-3 -6 -10 -39q-28 -139 -29 -149l-7 -56q-1 -5 -2 -10.5t-1.5 -8.5l-1 -6t-0.5 -5v-1q0 -2 1 -3
v-3q-1 -1 -1 -4t-1 -5q0 -1 -0.5 -4.5t-1.5 -4.5q0 -3 -1 -4q0 -5 -4 -28t-4 -35v-4q17 -4 39 -4q2 1 11 1h13z" />
    <glyph glyph-name="B" unicode="B" horiz-adv-x="276" 
d="M45 403v66v40v25v24v48q-1 5 -1 21q0 21 1 26v42v66q0 4 10 7h3q7 0 12 1t11 1h4h9h8q10 0 20 -2q37 -7 39 -7q22 -3 33 -9q8 -2 19 -13q8 -6 14 -19q9 -17 12 -32q3 -10 4 -13q2 -16 2 -17q3 -21 4 -40q2 -14 3 -46q0 -14 1 -26v-29q-3 -42 -4 -66l-3 -34q-4 -14 -6 -29
q0 -1 -2.5 -5t-3.5 -7q-1 -2 -2.5 -6t-2.5 -6q-6 -9 -13 -13q-4 -6 -13 -13l-18 -11q-7 -4 -7 -8q0 -1 6 -4l14 -7q7 -3 9 -5q6 -4 16 -17q6 -12 10 -28q7 -27 8 -37q2 -16 2 -19q0 -4 1 -9v-11q1 -1 1 -5v-4q-1 -2 -1 -5q0 -5 1 -6q-1 -1 -1 -5v-7q-1 -3 -1 -8v-14
q-1 -3 -1 -15q-2 -18 -2 -21v-4q0 -2 -1 -5t-1 -4t-1 -4t-1 -5q-2 -4 -2 -7q-4 -11 -6 -18q-6 -13 -14 -21q-21 -23 -73 -26q-6 -1 -28 -1q-3 1 -18 1q-14 0 -18 -1q-14 2 -30 2q-1 1 -3 6q2 8 2 15v13v7q-2 8 -2 10q0 5 1 8v8v24v4v14q0 7 -1 10v15q0 11 -1 14q1 4 1 17
q0 2 1 3v5v3q-1 2 -1 5q0 4 1 8q0 8 1 10q0 2 -0.5 4t-1.5 4v1q0 2 1 3v4v10v20v31q0 24 1 31q-1 3 -1 17v16v6v13q1 5 1 14q-1 7 -1 31zM184 146v40q-4 39 -13 56q-3 9 -10 16q-6 6 -14 8q-23 9 -32 9h-1q-3 -1 -3 -44q-1 -28 -1 -100q0 -65 -1 -80l1 -1q2 0 4.5 -0.5
t5.5 -0.5h9l9 1q14 3 22 11q11 10 16 30q8 22 8 55zM116 706q0 -20 1 -31v-30v-6q0 -5 -2 -29q0 -8 1 -15v-15v-9q0 -31 -1 -40q-1 -59 -3 -64q0 -3 1 -6v-5q0 -10 -1 -17t-1 -14v-30q0 -15 1 -22t1 -15h2q7 0 15 3q7 3 15 11q12 8 17 20q7 8 18 29q8 38 9 49q0 1 0.5 2.5
l1 3t0.5 3.5v10v23v26q0 5 -2 31v15q-1 7 -1 14l-2 24q-2 19 -3 26q-1 2 -1.5 7.5t-0.5 7.5t-1 5q-1 4 -1 5q-1 3 -1 9v3q-14 14 -18 16q-12 5 -21 5q-2 1 -11 1t-12 -1z" />
    <glyph glyph-name="C" unicode="C" 
d="M238 739q7 -7 13 -19q1 -2 2.5 -6t2.5 -6q4 -10 5 -13q0 -2 2 -16q2 -12 3 -17l2 -42v-21v-15v-6q0 -3 1 -4v-4q0 -6 -3 -10q-4 -5 -19 -10q-6 -2 -9 -2q-8 0 -10 1q-7 1 -11 4q-5 1 -10 6v4q-1 1 -1 4q0 5 1 7v10q-1 5 -1 11v8v14q0 23 -3 39q-4 19 -17 34t-26 15
t-24 -8q-16 -10 -19 -22q-11 -24 -14 -41q-3 -20 -3 -56v-40q-1 -19 -1 -41v-29q0 -13 1 -23v-21v-15v-30q3 -113 3 -121q0 -33 1 -42v-18q0 -15 1 -18q1 -5 1 -22v-8q3 -32 7 -47q1 -9 11 -27q7 -15 22 -23q2 -2 7 -2q4 -1 11 0h7q9 0 23 11q2 2 7 10q3 10 4 15q5 17 5 25
q2 10 2 29q1 3 1 16v13q0 34 4 46q2 6 15 7q4 0 7 1h7h7q3 -1 7 -1q13 0 14 -2q0 -25 1 -31q1 -3 1 -12v-13v-8q0 -50 -11 -88q-1 -1 -2 -5t-1 -6q-3 -8 -4 -10q-2 -4 -4 -10q-6 -17 -11 -25q-7 -12 -16 -17q-6 -6 -20 -8q-7 -4 -25 -4q-7 1 -30 1q-25 5 -29 7
q-43 17 -60 60q-19 48 -19 98q0 13 -2 47q0 21 -1 40v10v28q-1 5 0 16t1 16q-1 9 -1 39q0 40 -1 70q-1 31 -1 72v39v18q1 8 1 18q0 73 10 111q2 10 9 31q3 8 14 25q6 11 17 20q7 7 28 14q5 4 15 5q12 2 13 3h11q13 0 21 -3q21 -3 33 -10q15 -8 27 -20z" />
    <glyph glyph-name="D" unicode="D" horiz-adv-x="306" 
d="M47 -2q0 11 -1 24v34v22q0 7 -1 12v13v14q1 6 1 14q-1 7 -1 32v25q0 20 -1 27v19v11v30v29v4q0 5 -1 10v12v5v14q0 3 0.5 9t1.5 9q-2 26 -2 32v36v24v12q0 12 -1 21v19v39v37v22v12v15q0 11 1 14v9v18v21q0 4 0.5 8.5t1 7.5t0.5 5q1 2 1.5 5t0.5 5q1 4 1 9q0 9 1 11
q2 5 11 8q14 2 26 2q9 0 17 1h21q32 -2 34 -2q19 0 24 -1q13 -2 23 -8q5 -2 20 -15q14 -10 26 -32q9 -19 14 -53q5 -37 5 -56q2 -16 2 -66q0 -46 1 -56q1 -3 1 -11q1 -5 1 -13v-22q1 -5 1 -22q0 -12 2 -22q1 -9 1 -43v-25q-1 -10 -1 -21q1 -3 1 -12v-14q-1 -5 -1 -13v-7v-6
v-25v-11l-8 -76l-4 -16q-2 -11 -3 -14t-18 -48q-2 -4 -4 -7.5t-3 -5.5l-1 -2q-7 -12 -23 -22q-10 -9 -27 -12q-6 -1 -27 -5h-7q-3 -1 -9 -1q-5 0 -9 1h-7h-7q-3 -1 -8 -1q-2 0 -12 2q-14 -2 -16 -2q-7 0 -9 1q-3 0 -29 2zM103 694q0 -5 -1 -8q1 -4 1 -26v-22v-13
q0 -6 -1 -10v-11q0 -12 2 -22v-13q0 -10 -1 -13q1 -1 1 -7q0 -8 -2 -14v-8q1 -3 1 -6v-12q0 -2 -1 -5v-6v-6q1 -3 1 -6v-24v-21v-35v-25v-9v-7v-13q0 -8 1 -11v-15q0 -12 -1 -15q1 -3 1 -14v-13v-28v-34v-4q0 -18 1 -23q-2 -16 -2 -21v-7v-26v-22q0 -20 -1 -27q0 -2 -1 -3
v-4q0 -5 3 -11q0 -1 -1 -2v-2q0 -4 3 -8v-1q2 0 2 1q5 -5 14 -5q6 0 7 1q1 -1 5 -1q2 0 17 3q5 2 20 12q12 8 20 21q6 6 7 9q4 7 4 13q4 3 5 14t3 19v14q1 7 1 15q2 66 2 95q0 27 -1 36v19q1 9 1 21v8q0 10 -1 18v18v102q0 9 -2 41q1 9 1 36q0 8 -1 15q0 13 -1 16q0 8 -1 13
v13q-3 34 -7 41q-7 16 -17 21t-38 5h-22q-6 0 -9 -1h-9h-3z" />
    <glyph glyph-name="E" unicode="E" horiz-adv-x="262" 
d="M39 4v15v23q-1 19 -1 121q0 30 -1 39q1 4 1 22q0 15 -1 19q1 3 1 19q0 32 0.5 87t0.5 86v51q2 38 2 88v75q0 31 1 38q-1 3 -1 13v40v5l-1 3q0 2 54 4q66 0 77 -1q4 1 20 1q18 -2 19 -2q13 -1 17 -5l1 -1v-2l2 -5v-2q0 -4 1 -7t1 -6v-7q0 -29 -3 -29l-1 -1l-6 -2h-6
q-3 -1 -8 -1h-21q-3 0 -19 -2q-54 2 -55 3v-2q0 -2 -2 -4q-1 -3 -0.5 -7.5t0.5 -5.5v-24q0 -8 -1 -15l-1 -182q1 -22 1 -44.5v-39.5h14q36 0 41 1h13q13 0 20 -4q4 -2 5 -15v-5q0 -5 0.5 -13t0.5 -14v-5q-2 -15 -6 -15q-8 -3 -24 -3h-52q-12 0 -13 -2q0 -1 0.5 -7t-0.5 -8
q-3 -21 -3 -35v-64q0 -9 -1 -16v-91q10 2 16 2q46 0 49 1h14q6 -1 12 -1h42q7 -1 7 -35q0 -36 -4 -36q-7 -4 -21 -4h-10q-4 1 -13 1h-8q-7 1 -65 1h-40q-3 -1 -15 -1q-18 0 -29 7v2q-1 2 -1 4z" />
    <glyph glyph-name="F" unicode="F" horiz-adv-x="214" 
d="M191 754q7 -2 9 -16q1 -3 1 -16q0 -14 -1 -16l-2 -14q-5 0 -9 -1q-7 0 -10 -1q-10 2 -19 2q-8 0 -13 1t-12 1l-35 3l-1 -53l1 -38v-14v-23q1 -1 1 -6l-2 -9q1 -9 1 -36v-28q0 -38 1 -44v-6v-4v-3v-5v-2v-2.5v-4.5h14q5 1 12 1h28q3 -1 18 -1q7 0 7 -15v-3q1 -4 1 -25v-9
q-3 -18 -8 -20q-7 -1 -21 -1h-15h-11h-5q-3 0 -4 -1q-9 -3 -13 -7v-8v-9v-14v-21v-18v-10v-9q0 -8 -1 -25t-1 -29v-13v-44v-38q-1 -5 -1 -26v-9v-13v-19v-22v-8q-7 -4 -15 -4h-3h-10h-5h-13q-11 0 -14 -1l-4 4l-3 2q0 2 -1 3v5v5q1 3 1 8t1 12t1 21q1 3 1 19v21v18v27
q1 12 1 80v161l2 37l-1 37v37q0 24 -0.5 70.5t-0.5 72.5q1 5 1 26v10q0 4 -0.5 30t-0.5 39q0 20 1 20h33q24 -2 30 -2q14 -2 17 -2q5 0 8 1h9q2 -1 32 -4q4 0 8 -0.5t7 -1t5 -0.5h3z" />
    <glyph glyph-name="G" unicode="G" horiz-adv-x="286" 
d="M258 571q0 -5 -15 -6q-24 0 -29 -1q-14 0 -17 6v9v11q1 5 1 13q0 34 -7 62q-5 24 -15 34q-11 16 -29 16q-11 0 -14 -1l-12 -5l-1 -3q-2 -3 -4 -5q-5 -5 -6 -7q-18 -38 -18 -181v-33q1 -15 1 -36q0 -14 1 -34q0 -8 0.5 -25.5t1.5 -23.5v-16l1 -16q0 -18 2 -30v-10v-18
q1 -7 1 -17v-8q-1 -2 -1 -8v-10q1 -3 1 -7l1 -50q1 -9 1 -38v-15q0 -2 0.5 -5t1 -5.5t0.5 -3.5q1 -24 14 -42q11 -19 29 -19h3q11 1 23 10t16 25q6 28 8 46q1 6 1 18v23v14v9q0 7 -0.5 15.5t-0.5 9.5q1 7 1 14v18q0 1 1 2h-28q-11 1 -19 1q-10 0 -10 28q0 29 6 29q10 0 14 1
h13q11 0 14 1h5q8 0 10 -1q9 3 16 3q3 -1 12 -1h6q2 0 4 -1h6q5 0 6 1l2 -2q2 -1 3 -2q3 -8 3 -31t-2 -49v-8v-26q0 -41 -6 -96q-1 -4 -3 -19q0 -3 -0.5 -7.5t-1 -7.5t-0.5 -5q-3 -11 -10 -28q-5 -13 -15 -23q-8 -11 -16 -12l-3 -1q-3 -1 -9.5 -3t-12.5 -4q-5 0 -11 -1
q-5 -1 -24 -1h-10l-10 2q-9 0 -18 3q-12 2 -15 5q-4 0 -12 8q-6 2 -12 8q-1 3 -8 12l-6 19q-2 3 -3 10l-2 10q0 1 -4 17l-4 20q-2 18 -2 23t-1 9v9v5q0 15 -2 29v29q-1 28 -1.5 61t-1.5 53t-1 32q0 28 -1 37q0 12 -1 16q0 22 -1 27t-1 53q-1 5 -1 22v11v23l2 30v32
q0 25 1 31l2 14l2 14q2 17 6 32q6 17 12 31l5 9q3 6 10 13q9 13 20 19q22 15 58 15q23 0 37 -7q18 -8 27 -19q12 -14 20 -30q0 -1 6 -13l5 -20q4 -9 9 -36q6 -36 6 -79z" />
    <glyph glyph-name="H" unicode="H" horiz-adv-x="318" 
d="M222 763h18q27 0 32 -5q0 -11 1 -14q0 -15 -1 -19q2 -10 2 -28l1 -163v-64q0 -18 1 -32v-29q0 -3 2 -27v-29q0 -41 1 -52q0 -17 1 -30v-28q0 -13 1 -25q0 -21 1 -28q0 -13 1 -23v-22q1 -11 1 -47q0 -10 2 -36q0 -5 1 -8v-19q0 -6 1 -10v-15q0 -2 -18 -7h-12q-34 0 -34 9
v1q0 10 -3 19v28q-1 7 -1 32v14q-1 7 -1 16v26q-1 9 -1 20q-1 9 -1 40v32q0 5 -0.5 15t-1.5 14q0 3 -1 13t-1 12v7q0 18 -1 22l-22 2q-5 0 -10 -1h-24q-2 0 -5 -0.5t-5.5 -1t-3.5 -0.5h-27v-140v-52q-1 -5 -1 -21v-109q0 -5 -44 -5q-17 0 -17 6q0 3 -1 7v30q1 9 1 19
q0 3 -1 5v86q1 24 1 58v33q0 11 -1.5 61t-1.5 62q-1 7 -1 29v1l-2 93l-2 74q0 18 -1 31v25q-1 10 -1 43q0 20 -1 37.5t-2 33.5t-1 23q0 8 32 8q9 1 16 3h5q8 0 9.5 -1.5t1.5 -9.5v-2q0 -13 2 -31q0 -21 1 -29q0 -6 2 -36q0 -26 1 -33v-35q0 -15 1 -17v-19q-1 -3 -1 -7t1 -7
v-39q1 -5 1 -25v-13q-1 -6 -1 -14q2 -16 2 -17v-8v-29h2q12 0 15 -1l34 -3l49 2l-1 39q0 16 -2 32q0 5 1 14q0 11 2 21q-3 5 -3 18v11l-1 30q0 21 -1 37q0 29 -1 36q0 17 -1 22q0 20 -1 25q0 2 -0.5 10.5t-0.5 12.5v44q1 7 1 16q0 5 18 6z" />
    <glyph glyph-name="I" unicode="I" horiz-adv-x="145" 
d="M111 754l-1 -13q0 -13 -0.5 -41.5t-0.5 -61.5q0 -32 -1 -63t-1.5 -48.5t-0.5 -23.5q0 -21 -1 -38v-38v-15q1 -8 1 -17v-7q0 -18 3 -39q0 -9 -1 -18.5t-1.5 -14.5t-0.5 -7v-38v-69q0 -21 2 -35v-11q-2 -10 -2 -13v-6q-1 -5 -1 -22v-9v-26q-1 -5 -1 -23q0 -6 1 -14.5
t0 -11.5q0 -13 -2 -19q1 -1 1 -5v-1q-3 -4 -11 -4h-7q-19 0 -25 -1q-13 5 -15 6q-4 5 -4 44v61q0 11 -1 21v26q1 7 1 38v18v19v42v47v24v70v87v38q0 39 1 50v26v126q0 10 36 10h32z" />
    <glyph glyph-name="J" unicode="J" horiz-adv-x="313" 
d="M167 56q12 0 20 4.5t12.5 16.5t6 19t3 26t2.5 23q2 24 2 38q1 9 1 47v75q0 23 1 30q0 8 -1 13v11v7q-1 3 -1.5 9.5t-0.5 9.5v16v35q0 14 -1 24q0 18 -1 23q0 36 1 45q-2 20 -2 44q0 14 -1 25v23v40l-1 36v28q-1 10 -1 29q2 9 21 12q3 0 9.5 0.5t8.5 0.5q7 0 15 -2
q13 -1 13 -6q0 -1 -1 -1q2 -4 2 -9q0 -9 1 -11v-26v-8q1 -4 1 -9v-19v-8q2 -6 2 -8v-16v-19q0 -17 1 -20q0 -35 1 -45q0 -39 1 -50v-54q1 -11 1 -54q1 -5 1 -27q0 -23 -1 -30v-22q1 -9 1 -22q0 -140 -3 -180q-1 -8 -3 -19t-2 -12q0 -11 -5 -23q-1 -8 -7 -18q-5 -9 -10 -14
l-5 -5q-2 -2 -4 -3l-2 -2l-10 -10q-9 -10 -19 -14q-20 -8 -47 -10h-9q-17 0 -21 1q-17 2 -30 7q-16 5 -26 13q-51 37 -53 125v9v6v55l-1 4v2q0 7 -1 16q-1 5 0 13.5t1 10.5q0 11 13 14q1 0 7 -1.5t11 -2.5q4 -1 10.5 -2.5t7.5 -1.5q20 -8 20 -14q0 -21 1 -36l1 -7
q0 -1 -0.5 -5.5t-0.5 -8.5v-11q1 -13 1 -29l3 -22q1 -9 1 -16q2 -12 9 -30q5 -12 12 -16q5 -3 19 -5q8 -2 26 -2z" />
    <glyph glyph-name="K" unicode="K" horiz-adv-x="293" 
d="M109 748v-2q0 -6 1 -9q-1 -2 -1 -12v-16q0 -11 1 -20v-21l2 -128v-39v-8v-14q0 -8 1 -11v-21v-8q2 6 10 17q7 10 9 15q5 12 11 31l11 29l10 29q0 1 1.5 5.5l2.5 7.5q2 12 3 15q12 42 16 48q4 11 8 23q4 9 8.5 21.5t5.5 14.5l22 61q1 4 17 6h10q20 0 26 -1q15 -5 15 -6
q0 -3 -7 -18l-14 -37l-16 -37l-6 -18l-3 -8q-1 -1 -4 -11q-1 -2 -2 -5t-1 -5l-1 -2q-1 -2 -1.5 -5t-0.5 -5q-2 -6 -2 -7q-2 -9 -9 -22l-2 -10q-2 -7 -3 -9q-1 -3 -2 -6.5t-2 -5.5t-1.5 -4.5t-1.5 -4.5l-26 -86l-12 -35q-3 -18 -9 -25q-1 -1 -1 -5t1 -5q0 -1 1.5 -7.5
t3.5 -12.5q1 -4 3.5 -11.5l3.5 -10.5l13 -43l7 -21l6 -21q1 -12 13 -40q1 -10 4 -19q1 -2 3 -10q0 -1 0.5 -4t1.5 -4q10 -30 13 -43q1 -4 6 -19q1 -5 3 -11t2 -8l9 -33q11 -38 22 -63v-1q0 -4 -18 -6q-4 0 -7 -1h-9l-16 2q-26 3 -27 4q-6 27 -8 32t-7 25q-10 33 -15 64
l-8 27l-10 30l-9 35q-2 8 -6 22l-5 14q-9 35 -10 42q-6 18 -9 28q-8 13 -12 13q2 -18 2 -38v-26v-55q0 -43 -1 -54q1 -6 3 -26v-18q-1 -5 -1 -19v-16q1 -10 1 -38q0 -21 -1 -25q0 -9 -19 -11q-12 -4 -34 -4q-16 1 -18 8q2 0 2 3q0 1 -2 11v39q0 27 -1 36q2 22 2 30
q0 11 -1 14q0 10 1 20v22v33q0 26 1 33q-1 7 -1 32v14q0 10 1 13v20q1 4 1 17q-1 2 -1 9v8v5q0 3 -1 4v2q0 1 2 3q-1 5 -1 24v49v35v12v22v7v14q0 9 -1 12q1 5 1 30v78v32v9q0 14 1 18v2v7q-1 3 -1 5q0 3 1 4q0 10 -2 14l1 3h1h1l-1 1q0 4 16 5q1 -1 8 -1q3 -1 7 -1
q13 0 25 -3q1 -1 3 -2q3 -1 3 -2z" />
    <glyph glyph-name="L" unicode="L" horiz-adv-x="268" 
d="M106 756v-2q0 -4 2 -6v-6q1 -3 1 -7q-3 -57 -3 -60v-43v-23v-18v-10v-9v-20v-7q3 -21 3 -39q1 -24 1 -125q0 -9 0.5 -30t0.5 -33v-14v-9v-68q1 -5 1 -22q0 -14 -2 -24q2 -38 2 -45v-32l1 -38h16h16q14 0 17 1q13 0 15 2q8 -1 33 -1h10q4 1 9 1q17 0 23 -3q4 0 4 -26v-5
q0 -32 -4 -32t-11 -3h-18q-5 -1 -28 -1h-22h-15h-10q-3 1 -15 1h-6q-4 -1 -14 -1h-7h-6h-11q-13 0 -20 -1h-14h-7q-7 1 -7 9v10v22q-1 2 -1 9q0 1 2 19q-1 9 -1 37q-1 9 -1 44v48q0 25 2 45q-1 6 -1 25q-1 11 -1 22q1 9 1 46v96q0 16 1 28v28q0 22 -1 29q1 9 1 40q0 22 1 37
v35v44v17v14q-1 5 -1 14q0 4 0.5 9t1 8t0.5 4l2 17v2v2q0 5 11 5q16 2 17 2q7 0 9 -1q18 0 23 -8z" />
    <glyph glyph-name="M" unicode="M" horiz-adv-x="404" 
d="M134 730q2 -16 5 -25q0 -2 2 -13t4 -20q1 -4 3 -19l3 -12l3 -12q9 -52 17 -84l4 -18t3 -12.5t1 -4.5q1 -3 3 -13q3 -9 3 -13l4 -10l1 -4q4 -4 8 -14l4 -15l3 15q3 8 3 11v2q8 29 26 85.5t27 91.5l7 31q9 31 22 64q3 9 7 16q1 1 1 3q1 3 1 4l4 8q2 2 5 2h4q3 -1 6 -1
q6 0 10 1h6q9 0 13 -2q1 -1 2 -1q2 -1 3 -1h4l2 -1l2 -1l2 -2l2 -2q1 -1 1 -10v-6q0 -8 -1 -11q2 -8 2 -22q0 -1 2 -27q0 -26 1 -33v-45q1 -23 1 -51v-36q2 -16 2 -21q0 -4 -1 -8v-9v-12v-24v-100q0 -9 -1 -15v-17q0 -26 1 -33q0 -7 -1 -14v-15v-29q0 -8 -1 -14v-13
q0 -27 -1 -47t-1 -48q-1 -10 -3 -51q-1 -37 -5 -48q0 -6 -18 -6q-10 -2 -13 -2h-9h-7q-11 2 -12 4v3v6q0 5 -1 6v27q0 28 1 37v16q1 7 1 18v6q0 2 2 32v19q0 17 1 22q1 7 1 31q1 14 1 32v15q1 7 1 18v6v12q1 6 1 15q-1 8 -1 32q1 8 1 35v33v42q0 11 -1 20v20q0 16 -1 31
t-1 29l-4 -6l-8 -30l-2 -6v-2q-3 -5 -11 -33q-2 -6 -4.5 -15t-4.5 -15t-3 -10q-18 -59 -23 -70q-9 -21 -16 -61q-7 -39 -13 -53q-2 -5 -12 -5q-6 0 -9 3q-8 10 -9 14q0 1 -1.5 5t-2.5 7q-3 5 -5 11q0 1 -1.5 3.5t-1.5 4.5q-1 2 -2 6q-1 3 -2 5l-2 11v1q-1 1 -1.5 2.5t-1 4
t-1.5 5.5q-4 7 -6 19l-11 36l-12 45l-19 77l-15 49v-41v-16v-9q-1 -9 -1 -31q0 -26 1 -40v-41q0 -18 1 -32v-33v-31q-1 -14 -1 -31q0 -12 -0.5 -56t-0.5 -76q-2 -59 -2 -126q0 -8 -16 -8l-16 -2q-9 0 -11 1q-15 4 -17 9v5q-1 2 -1 7v9v6v14q0 24 -1 50v64q0 10 -1 18v19v10
q0 21 -1 28q2 14 2 39q-1 9 -1 40q1 12 1 56v26q0 15 0.5 35t1 30.5t0.5 16.5q1 10 1.5 37t0.5 40q1 42 3 88q1 27 5 70q0 4 1 8l2 8q1 1 1 5v4v3v9v7q0 4 22 4q14 2 21 2q12 0 15 -1q20 -5 20 -9t4 -22z" />
    <glyph glyph-name="N" unicode="N" horiz-adv-x="354" 
d="M101 732l2 -8q2 -6 3 -8q0 -1 2.5 -6t3.5 -9q1 -5 4 -15q2 -8 8 -27q1 -2 4 -16q5 -22 5 -23q5 -14 13 -45l15 -56q0 -2 6 -23l10 -35q15 -47 16 -57q2 -19 8 -35q1 -4 7 -25l6 -17q40 -124 46 -124l2 21q0 3 1 6v8q0 1 -2 11q1 6 1 33q-1 8 -1 37v26q-1 12 -1 29l-1 27
q0 9 -1 15t-1 14l-8 271q0 8 -1 10q0 5 1 9q0 8 1 10v16q0 7 15 10q1 1 7 1q3 0 21 -3q15 0 17 -9q1 -1 1 -8q0 -4 -2 -10q3 -17 3 -29q3 -106 5.5 -198t3.5 -130.5t1 -39.5q0 -7 1 -12v-10q0 -9 -2 -19q1 -5 1 -25q0 -1 -1 -7t-2 -10q3 -30 3 -44v-22q-1 -9 -1 -20
q0 -32 1 -41v-39q1 -4 1 -18q0 -13 -1 -16v-5v-13q0 -8 1 -10q-1 -9 -6 -17q1 0 1 -1q0 -3 -6 -4h-13h-8q-13 2 -25 6q-3 1 -8 6q-2 2 -7 14q-4 8 -6 14q-1 2 -3.5 8t-3.5 9q-3 8 -6 17l-15 45l-15 42l-15 40l-16 44q-8 21 -21 67l-5 15q-5 17 -8 22q0 4 -3 15t-3 16
q-1 3 -3 11q-2 4 -4 10q0 1 -0.5 4.5t-1.5 4.5l-12 52l-2 6q-4 0 -5 -32v-50q0 -38 1 -49q-4 -61 -4 -190q-2 -137 -2 -141q0 -2 -13 -2q-9 0 -35 2q-14 2 -14 6q-1 4 -1 22q0 22 -1 29q0 3 1 5v5v3v5q0 1 0.5 2.5t1.5 2.5q-1 3 -1 14t1 14l2 324q1 13 1 61q1 7 1 31
q1 2 0 6.5t-1 6.5v13v8v21v11v15v30q0 7 -1 12v12q0 4 1 15t1 19q-1 13 -1 33q0 3 1 3v1q0 6 10 7q6 2 14 2h15q18 -6 21 -10z" />
    <glyph glyph-name="O" unicode="O" horiz-adv-x="297" 
d="M148 756q11 -1 34 -4q16 -7 30 -16q12 -9 21 -20q11 -16 17 -26q15 -28 18 -147v-23q1 -11 1 -26v-29q0 -6 0.5 -17.5t1.5 -16.5v-21v-51q1 -19 1 -81v-25v-45q0 -16 -1 -28v-26q-1 -24 -4 -58q0 -2 -1 -9.5t-2 -12.5q0 -5 -0.5 -11.5t-0.5 -7.5q-7 -22 -10 -26
q-5 -14 -10 -20l-5 -5q-3 -2 -9 -4q-3 -3 -8 -4t-8 -4q-21 -7 -52 -7h-9q-22 1 -34 5q-20 6 -29 11q-3 3 -5 6t-5 6q-7 7 -11 20q-5 10 -10 26q-7 22 -13 72q0 1 -2 17q0 3 -0.5 10t-1.5 9q0 2 -0.5 4.5t-1 7t-0.5 7.5q-2 14 -3 19q1 3 1 14q0 7 -1 13v14v5q-1 5 -1 22
q0 19 -1 24v50v47q0 39 1 49v11v21q1 9 1 21q3 67 6 115q1 3 4 39q1 5 3 19q2 11 3 14q3 6 4 11q3 8 4 9q6 12 11 17q8 9 29 22q15 8 25 10q17 4 23 4zM104 639v-3q-1 -2 -1 -6q0 -16 -1 -21q-1 -2 -1 -8v-5q0 -7 -2 -13q0 -6 1 -9t1 -7v-2v-3q0 -2 -2 -18q2 -8 2 -20v-20
v-45v-46v-42v-20q0 -15 1 -19q-1 -3 -1 -17q0 -16 1 -21q0 -44 3 -115q2 -21 6 -46q3 -24 10 -36q0 -5 9 -26q10 -13 14 -16q7 -7 20 -7q8 0 15 3q12 5 18 21q5 19 8 66q1 7 1 40q1 11 1 53v25v17v10q1 5 1 27q0 11 -1 18v15q0 27 -1 34v62q0 41 -1 51v24q0 17 1 21v36
q-2 79 -11 95q-5 9 -21 18q-14 8 -29 8q-38 0 -41 -53z" />
    <glyph glyph-name="P" unicode="P" horiz-adv-x="262" 
d="M227 720q15 -25 17 -119v-37v-21q0 -47 -1 -58q0 -9 -2 -47q0 -22 -3 -38q0 -3 -2 -17l-2 -8t-1 -5l-1 -2q-1 -2 -1.5 -4.5t-1.5 -4.5l-2.5 -7.5t-1.5 -5.5q-1 -4 -6 -10q-1 -2 -3 -5t-2 -4q-10 -16 -31 -29q-19 -12 -63 -12h-9q-7 0 -7 -62q0 -11 1 -20v-23v-5l-2 -88
q1 -44 1 -80q0 -2 -20 -7q-9 -1 -15 -1h-8q-17 1 -17 5v1l-3 12q-1 11 -1 65v40v31v11v23q0 1 0.5 13t0.5 23q1 11 1 29v15v20v10v5v8q1 4 1 11q0 6 -1 8v34q0 25 1 32l2 230v18q1 8 1 21v8v19v14q0 2 0.5 5t1 5t0.5 3q0 33 2 43q0 9 37 10q28 0 37 -1q36 -7 39 -7
q20 -7 37 -18q18 -10 27 -26zM117 705q-2 -5 -4 -23q0 -26 -1 -45q0 -30 -1 -43v-12q0 -13 1 -29t1 -18q0 -1 -2 -19q-1 -10 -1 -22v-7q1 -3 1 -6q0 -6 -1 -11v-11v-10q1 -5 1 -11q0 -42 1 -57v-1v-10q0 -12 3 -16q2 -2 5 -2h5l3 1q17 0 22 5q14 14 19 26q5 9 10 38
q2 32 2 45q0 24 -1 46t-1 46q0 16 0.5 38t0.5 30v13q-3 38 -10 49q-15 18 -31 18q-8 0 -22 -2z" />
    <glyph glyph-name="Q" unicode="Q" horiz-adv-x="337" 
d="M303 -48v-2q0 -4 -12 -6h-6q-3 -1 -6 -1q-5 0 -19 2q-18 1 -18 4v1l-1 -1q-1 0 -2 2l-2 4l-5 4q0 9 -9 28l-5 11q-10 -3 -16 -4q-22 -2 -25 -2h-8q-21 2 -28 6q-15 1 -28 13q-9 2 -15 15q-4 4 -14 22q-17 41 -25 93l-2 15q-2 12 -3 15q-4 33 -4 38q-7 60 -10 172
q-1 5 -1 22v9v15q0 10 -1 13v19v9q1 6 1 26q0 19 1 24q0 35 4 55q0 20 4 47q3 13 4 20q0 4 4 18q1 5 12 41q12 25 16 31q13 21 38 34q10 4 22 6q10 3 24 3q5 0 7 -1q5 0 8 -1t8 -1l8 -3l8 -2l6 -2q9 -3 18 -10q22 -17 38 -54q5 -14 7 -25q4 -9 5 -12q5 -20 15 -84
q2 -24 2 -28q2 -24 2 -30q2 -16 2 -31q2 -14 2 -34v-17q1 -8 1 -18q1 -8 1 -37q1 -17 1 -39l1 -53q0 -26 -2 -46q3 -24 3 -27q0 -8 -1 -11q1 -9 1 -33q-1 -60 -8 -88l-6 -18q-2 -2 -4 -8l-4 -8l-13 -13q-2 -5 -6 -9l1 -3l7 -19l4 -8t3.5 -6.5t1.5 -4.5l13 -27zM158 707
q-14 0 -32 -18q-7 -5 -9 -11q-6 -16 -8 -24q-1 -9 -2.5 -16.5t-2.5 -11.5v-3q-1 -5 -1 -23q-1 -11 -1 -25q0 -47 -1 -93t-1 -101q0 -12 1 -21t1 -20v-5q-1 -3 -1 -5q0 -9 1 -15t1 -14q9 -148 21 -203q2 -6 14 -25t24 -20l4 -2q3 -3 5 -3q5 0 6 1h3l16 2q-4 8 -7 16
q-5 12 -9 18q0 1 -2 7t-2 7q-1 1 -5 12.5t-8 11.5l-2 6l-1 3l-2 7q-2 2 -2 4q0 5 10 9q4 0 8 1h9q8 0 10 -1q17 0 22 -12q1 0 5 -11q1 -2 13 -27l4 -6q15 48 15 58q0 28 1 36q-3 34 -3 36q0 5 -2 37q-3 36 -3 64q0 54 1 67q-2 34 -2 64q-1 26 -2 50.5t-1.5 38t-0.5 17.5
l-2 38q-1 8 -2.5 15t-3 12.5t-1.5 6.5q-1 2 -1.5 6t-0.5 6q-5 25 -13 37q-16 22 -58 22z" />
    <glyph glyph-name="R" unicode="R" horiz-adv-x="269" 
d="M118 381q1 -1 3 -1q15 0 32 12q7 5 13 16q4 10 8 36q3 19 3 84l-1 22q0 29 -6 73q-2 19 -10 29q-8 26 -10 28l-9 9q-3 4 -7 8q-10 6 -22 6q-4 0 -6 -5q-3 -9 -3 -36q0 -3 0.5 -10t1 -20t0.5 -24q3 -44 3 -65q2 -41 0 -56l1 -45v-6v-17v-6q2 -26 6 -32h3zM171 754
q2 -1 18 -15q10 -10 14 -16q21 -26 30 -112q1 -3 2 -10t2 -13v-25q0 -13 1 -23l1 -22v-9v-23q1 -22 -1 -54q-1 -47 -34 -80l-29 -25l21 -24q18 -29 26 -46q10 -20 16 -52q7 -39 9 -101l1 -59q0 -8 1.5 -17.5t1.5 -11.5q1 -3 2 -8q2 -5 1 -6t-6 -1h-8q-32 -2 -41 -1
q-18 0 -18 5q0 11 2 21v2q0 3 0.5 8.5t0.5 10.5q1 6 1 35v20q-2 53 -15 96q-6 26 -14 43q-1 3 -5 9l-5 10q-2 4 -3 7q-5 7 -17 14q-7 4 -13 4q-1 0 -2 -1h-2q-3 -6 -4 -10q1 -1 1 -13q-2 -19 -1 -27v-40v-58l3 -86q0 -28 1 -33q-1 -12 -3 -12q1 -5 -3.5 -7.5t-14.5 -3.5
q-3 -1 -10 -1q-4 -1 -13 -1q-5 -1 -12 -1q-18 0 -18 4t3 77q1 24 2 54.5t1 37.5q-2 21 0 32v7q-1 3 -1 7q0 3 2 19q-1 3 -3 11q0 6 1 10v8v5q2 15 0 41q1 25 0 79v80l-1 47v22v24l-1 42q0 128 2 153q0 9 1 12t2.5 4t6.5 1t9 1q21 3 38 3q7 1 16 -1q48 -8 58 -17z" />
    <glyph glyph-name="S" unicode="S" horiz-adv-x="271" 
d="M198 759q7 -4 14 -13q9 -9 11 -19q9 -19 9 -25q5 -14 5 -16q2 -11 3 -14q3 -18 3 -39l2 -39v-15q0 -1 -1 -3t-1 -3v-2q1 -1 1 -3q-5 -5 -19 -5h-5q-5 0 -26 3q-18 10 -18 14v1q-2 12 -2 53q0 30 -4 43q-5 19 -14 25q-6 6 -14 6h-4q-1 -1 -4 -1q-18 -5 -28 -18l-12 -20
q-4 -10 -6 -25v-7q0 -24 9 -57q5 -16 15 -38q11 -25 40 -77q7 -13 35 -73q1 -2 3 -7t4 -8q1 -3 2.5 -6.5t3 -6t1.5 -3.5q2 -4 12 -31q0 -7 1 -11q0 -2 0.5 -5t1.5 -5q4 -4 8 -15q2 -10 9 -38l1 -4q1 -5 2.5 -14.5t3.5 -20.5q5 -43 5 -66q0 -45 -12 -90q-5 -20 -11 -30
q-3 -12 -15 -22q-1 -3 -18 -15q-11 -5 -23 -6h-7q-3 -1 -7 -1q-5 0 -9 1h-8q-74 10 -88 29q-16 22 -18 86q0 37 1 50q0 2 -1 5q-1 4 -1 5l2 14q-2 4 -2 9q0 6 2 10q-1 1 -1 6v5q0 2 -1 3q1 3 18 8q2 0 5 1h6q3 0 17 -2t16 -8q0 -10 -1 -18v-22q0 -22 2 -48q8 -76 33 -76
q16 0 26 2q7 1 13 9q4 5 7 20q5 12 5 27q1 5 1 24q1 10 1 20q0 15 -1 26v29q-3 70 -71 210q-5 10 -8 18q-5 12 -8 19l-8 17q-7 18 -8 19l-16 34q-24 68 -28 99q-2 26 -2 29q0 47 23 80q19 27 59 34q25 5 50 5q26 0 39 -7z" />
    <glyph glyph-name="T" unicode="T" horiz-adv-x="315" 
d="M156 745q5 0 9 -1h9q3 0 27 2l18 -2q8 -1 14 -1h21h9q18 0 22 -1q5 -1 15 -4q3 -2 3 -12v-5q1 -4 3 -16q0 -12 1 -15q0 -5 -8 -5h-2q-2 -2 -5 -2q-1 0 -2.5 0.5t-4.5 1t-6 0.5q-2 -1 -11 -1h-18h-7h-15h-42l4 -188q0 -4 3 -46v-54v-10v-3v-30v-16q0 -9 0.5 -20t0.5 -14
v-23q4 -171 4 -266v-1q0 -13 -30 -13q-33 0 -33 9q-2 12 -2 46q-1 3 -1 19v21v5v8q-1 4 -1 10v6q1 1 1 7v11v8q-1 7 -1 32q-2 64 -3 126l-2 191q0 12 -1 21v21v17v31l-1 4v-6v7v22v22q0 9 -1 19v17q1 1 1 3v3l-16 2h-11q-4 -1 -9 -1l-2 1h-3.5h-5.5q-7 2 -15 2q-36 1 -49 5
q-2 8 -2 11q0 12 1 13v5q0 4 2 14q1 9 4 12l4 1q2 1 6 1h4q7 0 15 2q6 -2 12 -2q9 0 19 2q20 0 36 -2q33 0 42 -1z" />
    <glyph glyph-name="U" unicode="U" horiz-adv-x="340" 
d="M300 750q1 -1 4 -107q0 -1 0.5 -5.5t1 -12.5t0.5 -17v-8v-16q0 -13 1 -16q0 -11 1 -20v-8q0 -10 1 -17l-1 -17q0 -1 0.5 -4t1 -6.5t0.5 -6.5v-16l-1 -34q0 -18 0.5 -45t0.5 -35q0 -14 -1 -20v-39q2 -8 0 -26v-11q0 -8 -1 -17q-1 -8 -1 -17l-1 -30q-2 -43 -6 -71l-7 -31
q-1 -3 -11 -27q-16 -24 -18 -26q-1 -2 -8 -11q-6 -3 -10 -10q-5 -5 -23 -16q-28 -13 -55 -13h-2q-20 0 -32 3q-14 3 -28 12q-15 11 -26 32q-16 42 -20 59q-6 34 -7 41q-1 4 -3 23t-3 29q-6 63 -6 135q-1 52 -2.5 139.5t-1.5 126.5l-2 101v15q-1 6 -1 13q0 9 1 12l-1 17
q0 2 17 5l14 -2q17 -2 21 -4h4q5 0 8 -2.5t2 -6.5v-6q1 -6 1.5 -20t0.5 -31v-14v-19v-9v-104v-25q1 -10 1 -24q0 -13 -1 -24q-2 -17 0 -27v-7q0 -9 1 -16l-1 -17v-8l2 -50q3 -57 6 -93q0 -7 0.5 -21.5t1.5 -21.5q2 -18 2 -20v-1q1 -2 1.5 -4t0.5 -4q2 -7 1 -9v-3q0 -5 1 -8
t1 -6q1 -1 1.5 -4.5t0.5 -4.5q1 -3 1 -6l3 -16v-10q4 -21 10 -31q12 -17 32 -17l14 2q13 4 23 14q18 18 22 24q7 16 11 36q0 3 1 5v9q2 28 4 83v44v25v21l1 26v14v22v18v14v27q0 67 -1 125q0 22 -0.5 52.5t-0.5 39.5q0 18 1 24q0 52 1 63q0 1 3 3h2.5h3.5l2 -1h1h16l9 -1
q20 2 20 0z" />
    <glyph glyph-name="V" unicode="V" horiz-adv-x="333" 
d="M327 734l1 -2v-3v-3q-1 -1 -1 -3q-13 -81 -33 -267q-19 -181 -22 -193q-5 -34 -8 -40q0 -14 -5 -42q0 -21 -3 -37l-11 -76q-2 -18 -6 -28q0 -9 -2 -23q-1 -9 -4 -12q-6 -6 -15 -7q-6 -2 -16 -2h-14q-11 1 -27 4q-12 3 -16 10q-35 93 -46 198q-10 83 -26 186q-1 8 -2 15.5
t-2 14t-1 8.5q-7 20 -9 37q-14 61 -24 148q-1 5 -3 17l-4 14l-5 30q-5 22 -5 28q-1 10 -7 19q5 6 20 11q18 6 35 6q20 0 21 -6q5 -9 8 -18q0 -4 1 -8.5t2 -11.5t2 -12q1 -6 2.5 -17t2.5 -14q2 -9 23 -166l8 -40q2 -6 3 -21q2 -16 3 -22q0 -26 5 -41v-9q0 -9 6 -33
q0 -3 3 -41q9 -97 19 -145q3 -14 6 -14q12 0 24 131q1 4 3 21t3 27l3 27q3 27 10.5 94t15.5 143q1 6 3 25q0 4 0.5 13.5t1.5 12.5q0 4 2 24q0 4 0.5 8t1 6t0.5 3q1 1 4 30q1 7 1 25v17v7q2 5 15 6q33 0 38 -1l10 -4t7 -3z" />
    <glyph glyph-name="W" unicode="W" horiz-adv-x="531" 
d="M519 753h-1q-1 0 -1 -2l-1 -1q0 -2 -1 -2q2 -6 2 -7l-2 -8q1 -2 1 -8q0 -5 -1 -10q-2 -10 -2 -12v-8q0 -19 -1 -25q-7 -81 -12 -143q-1 -3 -1.5 -10t-0.5 -11q-2 -20 -2 -22q0 -7 -1 -19q-2 -22 -2 -26l-6 -46q-18 -199 -41 -334q-4 -25 -6 -27q0 -6 -6 -28q-1 -1 -13 -6
h-3q-1 1 -3 1q-3 0 -13 -2q-2 0 -4 -0.5t-4 -0.5l-1 -1q-4 1 -8 1.5t-6.5 1t-5.5 0.5t-5 0.5t-3.5 0.5t-2.5 1h-1q-13 5 -14 10q-37 103 -47 198q-1 9 -12 148q-10 121 -19 176q-5 -43 -12 -154q-10 -130 -13 -155l-3 -40q-3 -19 -3 -39q-2 -7 -5 -33l-3 -32q-6 -63 -10 -74
q-2 -2 -18 -2q-3 -1 -17 -1t-17 1h-6q-10 0 -16 1q-7 1 -14 1l-14 5q-2 2 -7 19q-1 5 -6 24q-11 74 -19 155l-2 18l-4 26q0 8 -1 15l-3 18l-2 13q-1 14 -3 25l-23 170q-4 28 -6 47q-4 8 -4 25q0 3 1 6v7q0 1 -1.5 7t-3 14.5t-3.5 18.5l-15 110q0 3 -0.5 6.5t-1 5.5t-0.5 3v3
v5q0 2 -1 2h-1q0 7 18 10q21 6 27 6h3q1 -1 3 -1q1 1 8 1q12 0 14 -5q5 -7 20 -138q0 -3 1.5 -10t2.5 -15t1 -16l3 -17q1 -7 4 -24q1 -3 1.5 -11t0.5 -12q1 -14 3 -22l10 -91q3 -20 3 -39v-9q4 -14 5 -26q2 -16 3 -21l5 -43q10 -102 15 -120q3 -17 6 -17q9 0 32 287l5 69
q1 8 7 75q3 56 5 74q1 28 5 44l6 33q1 6 27 6q41 0 41 -8v-6q0 -29 12 -83q9 -39 16 -81q1 -2 1.5 -8.5t0.5 -9.5q2 -12 3 -16q5 -18 5 -38q0 -2 1.5 -13t3.5 -21l4 -38q9 -63 14 -114q4 -41 12 -95q3 -15 3 -27q3 -11 3 -25l2 -8q0 -2 1 -5q1 -1 1 -2l3 -11q1 0 2 -2l1 -2
q1 1 1 2l1 1l2 8v2q1 1 1.5 4t0.5 5q2 6 3 7v3v7q1 3 1 9v4q0 7 1 14l3 15q0 3 1.5 18.5t2.5 24.5l6 62l5 63q2 26 6 35q0 7 -1 11v11v10q1 4 1 9q1 5 1 22l2 21q2 31 3 44q3 10 3 30v15q2 23 6 55q1 14 18 136q2 5 17 6q3 0 33 -2q13 -1 15 -7z" />
    <glyph glyph-name="X" unicode="X" horiz-adv-x="360" 
d="M269 1q-22 73 -31 120l-4 13l-4 16q-1 4 -3 10t-2 8l-11 44q-5 13 -12 42l-18 46l-4 -13q0 -1 -1.5 -6.5t-2.5 -9.5l-5 -18q-10 -37 -10 -38l-14 -46l-34 -132q-9 -29 -10 -34l-3 -11q-5 -5 -25 -8h-20q-16 0 -20 1q-18 2 -18 6q0 1 1 2q0 1 1.5 3.5t2.5 5t1 5.5q0 1 3 8
t5 13l9 28l48 158l13 40l14 42l13 43q1 3 3 10.5t5 16t6 16.5l-1 1v3q-1 0 -1 2t-1 2q-3 7 -7 23q-3 13 -5 17q-2 5 -5 19l-14 43l-26 85l-13 43q-8 21 -12 42l-10 34q-5 9 -9 26l-7 24q0 6 42 6q29 0 31 -3l12 -38l11 -34v-4q0 -2 6 -20q2 -14 7 -28q1 -5 3.5 -15l3.5 -14
q15 -58 42 -135q16 49 21 74q6 26 14 57l26 81q7 25 11 34q1 6 6 15l4 10q0 5 1 7q0 1 1 2t1 2l1 1v1q0 2 23 4q3 1 17 1q16 0 19 -1q18 -1 18 -6l-39 -93l-21 -68q-1 -1 -6 -19q-5 -15 -7 -23q0 -1 -1.5 -4.5t-3 -8t-2.5 -8.5q-5 -12 -7 -23l-14 -42l-22 -70l52 -167
q8 -28 11 -39q10 -33 11 -36q4 -18 8 -32l10 -30q21 -73 23 -77v-1q0 -7 -32 -7q-38 0 -43 6z" />
    <glyph glyph-name="Y" unicode="Y" horiz-adv-x="328" 
d="M198 369v-130v-64v-41q0 -2 -0.5 -7t-0.5 -8t0.5 -9t0.5 -10v-16v-12v-31q-1 -3 -1 -13v-13q-3 -13 -4 -14v-1q0 -7 -12 -7h-5q-3 0 -6.5 -0.5t-5.5 -1t-3 -0.5h-10q-3 1 -8 1q-16 3 -16 9l1 160l1 51v41q1 14 1 35q1 9 1 16v36v32l-14 35q0 1 -1 3t-2 4.5t-1 4.5
q-1 6 -4 12l-4 9q0 1 -1 3.5t-1.5 4.5t-1.5 4q-1 7 -3 10l-11 35q-46 146 -74 251q0 7 41 7q30 0 31 -6q0 -3 5 -21v-2l2 -10q2 -10 2 -13v-3q11 -23 14 -37l11 -43l19 -72q10 -38 22 -73q7 -22 10 -22q2 0 3 7l5 18q4 14 5 17l11 27q2 14 9 33q1 8 9 44l11 52l3 18l7 29
q3 5 4 12q1 2 2 5.5t2 5.5t1 4v2q0 3 2 9q2 8 2 9q2 3 23 5q22 2 32 2h8q12 0 12 -2v-1q-1 -6 -10 -37q-9 -32 -10 -36q-15 -56 -31 -110l-1 -2q-1 -2 -2 -6.5t-2 -8.5q-4 -18 -6 -24q-1 -1 -6 -12q-4 -9 -4 -15v-3q1 -1 1 -2q-6 -10 -14 -35t-38 -89z" />
    <glyph glyph-name="Z" unicode="Z" horiz-adv-x="322" 
d="M282 638l-7 -18q-2 -4 -4 -11.5t-3 -9.5q0 -4 -13 -44l-14 -44l-59 -185q-1 -3 -3 -13q-5 -8 -8 -29q-8 -12 -15 -41q-15 -39 -18 -46l-21 -59q-1 -4 -4.5 -13t-5.5 -16t-3 -10q-1 -2 -3 -8q-1 -3 -3 -7q-1 -2 -1 -5q-1 -1 -1 -2q-1 -2 -1 -3l-1 -2h1l20 -3q7 1 15 1h8
h22h21q26 1 91 1h15q6 0 6 -47q0 -23 -5 -23l-84 -1q-38 0 -49 -1h-21q-9 1 -19 1h-10h-22q-9 1 -20 1q-9 0 -14 -1t-10 -1h-3q-1 1 -3 1q-12 0 -13 1q-1 2 -1 12q0 11 1 14v18v8l89 270l17 49l14 45q0 1 1.5 7t3.5 11q4 12 8 22l44 125l32 91l-77 1l-66 1h-8q-10 0 -17 -1
h-13l-15 -1q-4 15 -4 24q0 7 -1 14l-2 14v4q-2 8 -2 9q0 2 2 8q36 0 45 -1q27 3 41 3h115q10 -2 14 -2h6q1 0 3 1t3 1t7 -2h8h12q7 0 11 2q8 0 10 -2.5t1 -11.5q0 -3 0.5 -6.5t1.5 -5.5v-2q0 -2 -1 -5v-6q0 -19 -21 -71z" />
    <glyph glyph-name="bracketleft" unicode="[" horiz-adv-x="261" 
d="M113 735l-1 -11q-1 -11 -1 -22v-9v-63v-80q-2 -32 -2 -36q0 -2 2 -34v-77v-171v-95q1 -6 1 -27q0 -16 -1 -21q2 -14 2 -15q0 -4 -2 -22q1 -7 1 -26v-10h45q8 0 46 2q36 2 37 2h3q1 0 2 -6t2 -15.5t1 -16.5q0 -18 -5 -18h-1l-6 -2q-8 -2 -11 -3q-8 2 -10 2q-3 0 -6 -1h-6
h-3q-1 -1 -4 -1q-2 0 -3 1h-5q-12 0 -16 1q-18 -2 -24 -2q-13 0 -18 1q-9 -1 -41 -1q-8 0 -14 -1h-13q-12 0 -14 3l-2 8v6q-1 3 -1 10v2v6q-1 3 -1 6q0 5 1 6q-1 3 -1 14q0 14 -1 17t-1 13q0 17 1 22v39q0 234 1 290v24q0 17 -1 21q2 14 2 31v19q0 15 1 20q0 16 -2 22
q2 18 2 35q1 7 1 60q0 23 0.5 48.5t1 39t0.5 19.5q0 7 1 12q0 10 1 13q-1 3 -1 11q0 3 1 3q-1 2 -1 6q0 3 -1 4q3 5 19 5q87 0 144 -1q8 0 15.5 0.5t11 1t4.5 0.5h3q3 0 12 -29q-2 -25 -6 -25h-1l-6 -2q-8 -2 -11 -3q-8 2 -10 2q-3 0 -6 -1h-6h-3q-1 -1 -4 -1q-2 0 -3 1h-4
q-13 0 -17 1q-18 -2 -23 -2q-14 0 -19 1q-6 -1 -26 -1z" />
    <glyph glyph-name="backslash" unicode="\" horiz-adv-x="391" 
d="M13 752q0 3 15 6h3h12q7 0 10 -1h6q9 0 9 -1q-1 0 -1 -1v-3q3 -3 7 -13l9 -19l28 -60l34 -77l9 -20q3 -8 8 -18l17 -38q2 -4 3 -7t3 -7l13 -28l19 -43q3 -7 8 -17t8 -16.5t5 -10.5l166 -369q1 -6 -10 -13q-6 -2 -15 -2h-5q-7 0 -8 -1q-18 3 -19 7l-4 6l-4 8l-93 208
l-22 48l-6 16q0 1 -1.5 3.5t-3 6t-3.5 7.5q-7 17 -10 21l-27 61l-30 68l-23 53l-22 49l-19 44q0 1 -1.5 5t-3.5 7q-3 6 -6 15q-1 3 -7 13l-14 34q-9 20 -17 39l-12 28.5t-5 11.5z" />
    <glyph glyph-name="bracketright" unicode="]" horiz-adv-x="261" 
d="M148 735q-20 0 -26 1q-5 -1 -19 -1q-5 0 -23 2q-4 -1 -17 -1h-4q-1 -1 -3 -1q-3 0 -4 1h-3h-6q-3 1 -6 1q-2 0 -10 -2q-3 1 -11 3l-6 2h-1q-4 0 -6 25q9 29 12 29h3q1 0 4.5 -0.5t11 -1t15.5 -0.5q57 1 145 1q15 0 18 -5q-1 -1 -1 -4q0 -4 -1 -6q1 0 1 -3q0 -8 -1 -11
q1 -3 1 -13q1 -5 1 -12q0 -6 0.5 -19.5t1 -39t0.5 -48.5q0 -53 1 -60q0 -17 2 -35q-2 -6 -2 -22q1 -5 1 -20v-19q0 -17 2 -31q-1 -4 -1 -21v-24q1 -56 1 -290v-39q1 -5 1 -22q0 -10 -1 -13t-1 -17q0 -11 -1 -14q1 -1 1 -6q0 -3 -1 -6v-6v-2q0 -7 -1 -10v-6l-2 -8
q-1 -3 -14 -3h-13q-6 1 -14 1q-32 0 -41 1q-5 -1 -18 -1q-6 0 -24 2q-4 -1 -16 -1h-4q-1 -1 -3 -1q-4 0 -5 1h-3h-6q-3 1 -6 1q-2 0 -10 -2q-6 2 -10 3q-1 0 -4 1q-2 0 -3 1h-1q-5 0 -5 18q0 7 1 16.5t2 15.5t2 6h4l36 -2q38 -2 46 -2h46v10q0 19 1 26q0 4 -1.5 11.5
t-1.5 10.5q0 2 1 7t2 8q-1 5 -1 21q0 21 1 27v95v171v77q2 32 2 34q0 4 -2 36v80v63v9q0 11 -1 22z" />
    <glyph glyph-name="asciicircum" unicode="^" horiz-adv-x="238" 
d="M89 762l84 6l4 -14q1 -3 2 -6.5t2 -6t1 -3.5q10 -24 11 -31l15 -63l-54 -5q-1 6 -7 20q-1 4 -2 10.5t-2 7.5q0 1 -8 25q-5 9 -6 9q-9 0 -26 -69q0 -8 -22 -8q-18 0 -39 3q8 35 12 44q2 5 9 31q2 6 3 8q0 1 1 2.5t1 2.5q2 0 2 4l3 6q5 27 15 27h1z" />
    <glyph glyph-name="underscore" unicode="_" horiz-adv-x="435" 
d="M404 -11v-57h-5q-2 1 -6 1q-9 0 -18 -1h-20q-14 0 -15 1l-152 -1l-33 -1q-11 0 -18 -1q-14 0 -17 -1h-12l-65 1v16q-1 9 -1 14v10v19q16 -2 77 -2h5q9 3 23 3h11h16h27h75h89q26 -1 39 -1z" />
    <glyph glyph-name="grave" unicode="`" horiz-adv-x="174" 
d="M25 800v2q0 5 25 5q31 0 39 -4q6 -2 11 -9q4 -5 13 -18q2 -1 13 -15q12 -17 20 -33q-29 -4 -32 -4q-27 0 -31 10q-15 17 -27 30t-16.5 18t-8.5 9.5t-6 8.5z" />
    <glyph glyph-name="a" unicode="a" horiz-adv-x="322" 
d="M183 551q-1 5 -3 18l-4 20q-1 2 -1.5 8t-0.5 9q-2 14 -2 16q-9 64 -14 64q-2 0 -3 1q-3 0 -4 1q-3 0 -5 -2q-2 -1 -4 -7q-3 -12 -17 -145l-5 -67l-1 -13q0 -13 -2.5 -38.5t-2.5 -33.5v-8q0 -6 -2 -32q0 -12 -2 -34v-7q0 -6 -1 -7h27q1 0 47 -2l31 -1l-6 59q0 5 -1 10
q0 2 -0.5 5.5t-1.5 5.5v13q0 3 -0.5 8.5t-1.5 7.5q-4 14 -5 36q0 10 -1 19q-1 12 -3 18q-1 4 -3 19q-3 20 -3 22l-2 17q-2 17 -3 20zM200 764q5 -7 7 -22q9 -16 9 -28q0 -1 1 -3.5t1.5 -6.5t1.5 -7q1 -11 3 -20q1 -6 3.5 -18.5l3.5 -17.5v-4q0 -11 4 -34q0 -1 1 -3t2 -4.5
t1 -4.5q0 -3 1 -8t1 -8l2 -15l7 -50l7 -59q0 -1 1 -4.5t2 -9t2 -11.5q3 -20 3 -30l9 -57l12 -91l2 -20t2 -17.5t1 -10.5q3 -19 5 -45l4 -33l1 -13q4 -27 5 -32l6 -31q0 -7 1 -13q0 -2 0.5 -5t1 -5.5t0.5 -3.5q2 -10 2 -12v-4v-1q0 -2 -12 -4h-9q-3 -1 -6 -1l-14 2
q-2 -1 -8 -1q-13 0 -14 2l-2 7q-1 2 -1 5.5v4.5q-8 76 -11 88q0 7 -1 15q-2 16 -2 17v4q-5 28 -5 32v4q0 5 -2 13l-4 21l-4 20h-7h-9q-4 0 -7 1h-11h-11q-6 -1 -12 -1q-11 1 -43 1l-17 1l-3 -32q-4 -20 -4 -27q-1 -4 -1 -18q0 -3 -0.5 -7.5t-1 -7.5t-0.5 -5q-2 -10 -2 -22
q0 -4 -0.5 -8.5t-1 -7.5t-0.5 -5q-3 -21 -4 -40q-4 -42 -8 -48q-2 -5 -18 -6q-14 -2 -27 -2q-15 2 -17 7l2 10q0 8 1 10q0 3 1.5 10.5t1.5 10.5l4 38q2 30 2 35q2 22 5 32l3 28l5 49q4 32 6 35q-1 2 -1 9q0 6 1 10v8q0 4 0.5 8t1 6t0.5 3v6l3 16q0 8 0.5 15t1.5 11v3l7 72
l5 34q2 30 7 75q0 16 3 29l6 57l3 31q1 4 3 16l4 16q-1 2 -1 9q0 9 3 18l3 21q5 23 9 32q0 6 23 6h8h17q7 -1 16 -1q30 -7 30 -8z" />
    <glyph glyph-name="b" unicode="b" horiz-adv-x="301" 
d="M131 773q23 -2 29 -3q10 -2 23 -6q17 -6 20 -9q16 -9 18 -14q3 -7 5 -9t5 -9l3 -6q3 -3 4 -5q2 -4 5 -12q6 -22 8 -33q3 -12 5 -39q3 -20 9 -106v-13q0 -44 -11 -72t-25 -36q-21 -12 -24 -13q-11 -5 -11 -7q0 -1 4 -2l8 -4q6 -4 8 -6q52 -47 53 -84q0 -21 3 -54t3 -55
q0 -3 -0.5 -9.5t-1 -18.5t-0.5 -23v-27q0 -5 -0.5 -11.5t-1 -10.5t-0.5 -7q-1 -3 -5 -26q-5 -16 -12 -26q-5 -7 -21 -17q-10 -6 -45 -11h-14q-7 -1 -16 -1q-7 1 -34 1h-6q-10 0 -20 3h-5q-5 0 -15 2q-12 2 -24 6q-6 0 -6 70v94q0 14 1 25v28v11q0 2 2 52q-1 14 -1 70
q-4 92 -6 216v47v15q0 26 1 34q-1 3 -1 16q0 10 1 17v17q0 14 1 25q0 20 1 25q1 0 6.5 1.5t10.5 3.5q15 4 26 5q18 2 28 2h8q3 -1 7 -1zM103 705q-2 -8 0 -16v-32v-41v-46q-1 -4 -1 -19v-22v-15v-29q0 -69 4 -72q1 -1 6 -1q19 0 44 11q36 17 41 37q7 25 7 66l-1 32
q-6 117 -26 137q-15 12 -54 12q-18 0 -20 -2zM170 318q-8 10 -17 15h-2q-6 0 -21 6q-5 1 -19 1q-2 -4 -2 -13v-9q0 -12 1 -25v-37v-42q-2 -26 -2 -53v-24q0 -4 -0.5 -8.5t-1 -7.5t-0.5 -4q0 -18 -1 -29q-2 -22 -2 -23q0 -8 2 -14q13 -4 50 -4h18q10 1 15 5q7 6 13 14
q2 9 4 32q2 24 2 29v12q-1 5 -1 14q0 17 -1 30t-1 28q-1 5 -1 23q0 4 -0.5 12t-1.5 11l-4 17q-1 3 -2.5 9t-1.5 8q-2 5 -8 13q-10 11 -15 14z" />
    <glyph glyph-name="c" unicode="c" horiz-adv-x="287" 
d="M228 750q10 -10 16 -26l5 -17q3 -7 6 -16q3 -21 3 -41q0 -3 0.5 -6t1 -4.5t0.5 -2.5q0 -4 -2 -20q0 -8 -2 -24q0 -4 -15 -4q-3 1 -13 3t-14 3q-16 6 -16 8q-2 8 0 28q1 12 1 24q-1 27 -14 45q-12 15 -24 15q-4 0 -10 -3q-9 -7 -20 -25q-9 -14 -20 -63q-11 -50 -11 -110
q0 -2 -2 -18t-2 -20v-4q0 -5 0.5 -13t1 -20.5t0.5 -22.5l3 -60l3 -52q2 -24 2 -28q0 -5 -1 -10v-9q1 -5 1 -15v-21q1 -4 2 -19t1 -19l2 -22q0 -56 10 -83q10 -28 35 -35q10 0 17 6q25 21 25 96v18v38v9l1 29h11q3 1 15 1q13 0 16 -1q17 -2 17 -7q0 -17 2 -29q1 -7 1 -35v-26
q0 -49 -5 -74q-13 -53 -66 -73q-15 -6 -31 -6h-5q-7 0 -12 1h-10h-5q-17 3 -29 13q-12 6 -22 22q-12 13 -16 29q-9 41 -13 76q0 1 -0.5 2.5t-0.5 3t-0.5 4t-0.5 4.5v15q-2 14 -2 30q0 4 -2 34q0 28 -1 36q0 6 -1 22t-2 45.5t-2 58.5q-1 7 -1 31v12q-1 6 -1 29v10q-1 9 -1 38
q2 104 17 160q1 4 3 14q1 2 2 5l1.5 4.5t0.5 2.5q6 15 10 22q29 51 61 63q15 4 26 4h4q44 0 71 -30z" />
    <glyph glyph-name="d" unicode="d" horiz-adv-x="291" 
d="M105 700q0 -23 1 -42v-45q0 -2 2 -18v-20v-9v-23q0 -18 1 -23q-1 -10 -1 -46q0 -193 1 -240v-40v-4v-24q0 -12 2 -32q0 -8 1 -13v-13v-18v-12q0 -10 2 -16q1 -1 19 -1q4 0 14 4q14 4 23 16q17 14 20 29q4 4 4 8l-1 1v2q0 6 2 11q0 3 0.5 7.5t0.5 5.5q3 37 3 88q1 4 1 20
q0 24 -1 43v44v21q2 74 2 108q0 36 -2 104q-4 104 -28 109q-15 12 -66 18zM260 423q2 -66 2 -70v-31q1 -13 1 -29v-53q-2 -110 -13 -156q-10 -48 -38 -71q-26 -15 -65 -15h-13q-9 1 -30 1h-21q-3 0 -11 2q-1 0 -6 1t-9 2t-6 2q-3 8 -3.5 32.5t-1 86.5t-1.5 112v6v16
q1 7 1 15v7q0 1 -0.5 8.5t-0.5 13.5q-2 10 -2 25q-1 22 -1 95v43q0 33 -1 42q1 9 1 41v44q1 5 1 19v24q0 4 2 36q-1 3 -1 15t1 15v19v25q0 13 1 15q2 8 10 8h9q3 -1 7 -1q9 0 20 -1q4 0 9.5 -0.5t9 -1t5.5 -0.5q16 -3 30 -3q18 -7 31 -10q7 -7 20 -12q5 -2 11 -6l8 -8l7 -9
l6 -10q10 -10 10 -21q2 -4 8 -30q6 -37 9 -79q0 -14 3 -32q-1 -3 -1 -14v-14v-9q1 -9 1 -41z" />
    <glyph glyph-name="e" unicode="e" 
d="M265 756h1q3 0 5 -14q1 -3 1 -15q0 -9 -1 -12q-2 -19 -3 -22q-2 -3 -20 -3h-9q-43 0 -49 -1l-87 -3v-108q0 -5 2 -39q2 -5 0 -15q-1 -6 -1 -12v-9q1 -8 1 -33v-29q1 -11 1 -23l4 -61q12 -4 56 -4h30h7q17 0 19 -2q3 -1 5 -22q2 -8 2 -17q0 -4 -2 -12q0 -15 -3 -15
l-116 -5l-4 -200l84 -2q57 0 77 -2q8 -2 8 -45q0 -23 -4 -23q-6 -1 -29 -1q-3 -1 -30 -1h-45l-124 2q-5 0 -5 45v32v26q0 5 2 65v25v52q1 23 1 53q0 37 -1 48v10q1 3 1 8q0 12 -1 21t-1 21q0 5 1 8v7q-1 15 -1 66q0 36 -0.5 71.5t-1 53.5t-0.5 23q0 94 9 112q2 4 44 5h8
q8 0 30 -0.5t29 -0.5q65 0 73 1q3 -1 10 -1.5t11 -0.5q10 0 16 -2z" />
    <glyph glyph-name="f" unicode="f" horiz-adv-x="272" 
d="M116 53q2 -38 2 -61q0 -4 -21 -6q-28 0 -37 -1l-9 3q-1 0 -3.5 0.5t-3.5 1.5l-2 2v6q0 6 0.5 18.5t0.5 29t0.5 41.5t0.5 52q0 25 -2 45q1 3 1.5 13t0.5 15q1 11 1 19q-1 6 -1 27q0 20 1 26v53v49q1 3 1 10q0 2 -2 18q1 5 1 28v5v13q1 5 1 12q1 28 1 129v30v13
q0 8 0.5 17.5t1 14.5t0.5 7v7q-1 3 -1 6q0 12 3 21q-1 4 -1 14t1 13v9q0 1 1 4q0 2 1 3l2 6q57 3 99 3h18h9q5 1 24 1q15 0 20 -1h8h5h3h6q3 -3 4 -15q2 -6 2 -28v-10q-5 -14 -9 -14h-1h-24q-14 0 -35 1.5t-28 1.5h-42l1 -141v-42v-68v-47q-1 -11 -1 -21t3 -10q4 1 33 1h9
h19q3 0 5 -1h4h3q2 1 4 1q4 -4 4 -16v-4q3 -18 3 -20q0 -7 -1 -8q0 -3 1 -5v-6q0 -5 -2 -5h-16h-32l-42 -2l2 -126q0 -62 5 -132z" />
    <glyph glyph-name="g" unicode="g" horiz-adv-x="345" 
d="M312 638q2 -36 2 -74v-14q0 -10 -1 -13v-7q1 -3 1 -6q0 -4 -1 -5q0 -2 -2 -2q-1 -1 -6 -1q-1 0 -3.5 -0.5t-3.5 -1.5q-3 1 -12 1.5t-12 0.5h-14q-8 2 -9 5v19v30q0 1 -0.5 3.5t-1 6t-0.5 6.5v15q-2 46 -17 71.5t-55 27.5q-15 0 -19 -1q-10 -1 -15 -3q-4 -1 -12 -7
q-4 -4 -9 -11q-2 -2 -4 -7q-2 -7 -3 -8q0 -6 -6 -24q0 -2 -1.5 -6t-1.5 -7l-2 -17q-2 -13 -2 -67v-55v-68q0 -43 -1 -73v-59q0 -130 14 -169q3 -10 5 -13q6 -15 22 -31q15 -13 22 -15q3 -1 12 -1q23 0 39 18q17 20 24 60q3 8 6 29q1 3 1 15q1 6 1 15t1 16t1 15q-1 3 -1 15
v12v10h-12q-13 0 -16 1q-6 0 -13 1q-12 0 -17 1h-8q-4 -1 -8 -1q-6 0 -7 1q-1 -1 -3 -1l-2 2q-3 3 -3 23v12q-1 3 -1 11q0 7 2 13q2 3 4 3t6 1h9q4 0 9 1q10 0 13 1q3 -1 13 -1q17 0 22 1q9 1 33 1q4 0 10 1t7.5 1t4.5 -1q1 -1 8.5 -2t9.5 -6q3 -6 3 -38q0 -11 -0.5 -41.5
t-0.5 -48.5q0 -155 -74 -191q-3 -1 -26 -9q-8 -2 -17 -2q-14 0 -17 -1h-4q-2 -1 -4 -1t-14 2q-6 1 -14 1q-24 6 -29 9q-47 21 -64 86q-4 15 -6 32q-3 12 -3 24v8v19q0 3 -0.5 10t-1.5 10v38v40q1 17 1 82v20q-1 8 -1 18q0 11 1 19v17v16q-1 7 -1 17v31v13v25v48q3 19 3 36
q2 14 2 31q3 20 6 26q0 9 5 21l6 16q12 25 42 42q30 18 62 19q7 1 33 1q7 -2 13 -4t9.5 -3t4.5 -1q19 -11 29 -14q11 -8 22 -22q35 -36 38 -89z" />
    <glyph glyph-name="h" unicode="h" horiz-adv-x="316" 
d="M43 755v1q0 2 12 2h5q8 4 24 4q3 0 15 -2q14 0 14 -5q0 -15 1 -24v-17v-5l1 -21q-1 -11 -1 -64v-32v-69v-28l1 -31q-2 -4 -2 -11q0 -10 -1 -12q2 -4 2 -12l1 -21h2h12h7t10 -1h18h34l17 -3v66v32v28v29v29v6v17v6q0 10 1 17v15q0 27 1 35q0 10 1 18l-1 21q2 34 2 42
q0 4 13 4h6q14 -1 29 -4q17 -5 17 -9l-3 -47l1 -10q-1 -4 -1 -10v-6v-12q0 -10 -1 -13v-6l1 -16q-1 -7 -1 -19v-56l-1 -166v-1v-70q0 -23 -3 -83l5 -222v-9q0 -6 -1 -8q1 -3 -2.5 -4.5t-8.5 -1.5h-3q-10 -4 -30 -4q-18 7 -19 8q-3 6 -3 15v19q0 3 -0.5 11t-1 22t-0.5 27
q-1 9 -1 27q0 7 0.5 20.5t0.5 19.5q0 16 -1 23l2 35q0 11 -2 18v17v31l-1 19v11v14q-1 5 -1 13h-25h-16h-10q-12 0 -24 2h-5l-16 -2v-24v-26q1 -26 1 -65v-19l1 -52v-22v-31v-7v-13q0 -8 -1 -10v-15q0 -12 -1 -16q0 -3 0.5 -6t1 -4.5t0.5 -2.5v-4q-1 -2 -1 -6q0 -5 -1 -9v-8
v-1q0 -8 -43 -9q-26 0 -28 6q0 17 1 28q0 1 2 17v10q-2 4 -2 9v5v10v19q1 3 1 17v14v55l1 76v26v49q0 4 -0.5 11t-0.5 10t0.5 8.5t0.5 7.5v7q0 2 0.5 12.5t0.5 19.5v19q-1 8 -1 19l-1 42l-1 43l1 47l-1 16q0 14 2 28q0 6 -1 11.5t-1.5 8.5t-0.5 4v34v13l-1 15q0 10 -1 12v3
q1 3 1 5q2 3 2 8v2q-1 2 -1 3q2 4 2 7q0 4 -1 6z" />
    <glyph glyph-name="i" unicode="i" horiz-adv-x="148" 
d="M109 746q2 -24 2 -78q0 -10 1 -17v-17v-13v-27v-22q1 -9 1 -22v-49v-54v-67q0 -19 1 -32v-30q-2 -34 -2 -37q0 -13 1 -16v-48q0 -188 -1 -208v-7q-1 -3 -1 -7q0 -6 -17 -6h-10q-17 0 -25 2q-18 7 -18 13l3 369q0 35 1 44v43v27v15v38q0 11 1 19v19l-1 78q1 31 1 59v19
q0 6 2 12q-2 2 -2 4q0 1 -1 1q0 1 9 1h7q3 1 18 1q10 0 14 -1q16 0 16 -6z" />
    <glyph glyph-name="j" unicode="j" horiz-adv-x="307" 
d="M212 197v23q0 18 1 26v14v44v50v15v22v199q0 34 1 44v4q1 2 1 5l-3 31q2 34 2 37v29q1 12 1 24v1q0 4 9 4t15 -1q7 -1 13 -1h11q15 0 15 -7v-20q2 -36 2 -42q-1 -3 -1 -16v-14q1 -7 1 -15v-19v-26v-29v-12v-21v-7v-21v-7v-38q0 -134 1 -164v-23q0 -38 -1 -53
q0 -28 -1 -39q0 -2 -3 -32q0 -4 -0.5 -12.5t-1.5 -11.5q-3 -13 -4 -18q-2 -13 -3 -15q0 -3 -3 -12q-3 -11 -4 -12q-7 -24 -15 -36q-9 -14 -22 -27q-11 -14 -25 -17q-64 -24 -119 30q-31 31 -39 54q0 1 -1.5 4.5t-3.5 8.5t-3 8q-9 21 -12 58q-1 7 -1 32v17q0 26 1 31
q2 8 14 8h6q3 -1 5 -1q38 -3 38 -11q0 -3 2 -29q9 -87 20 -107t30 -30.5t34 -8.5q40 3 43 132z" />
    <glyph glyph-name="k" unicode="k" horiz-adv-x="297" 
d="M100 738q2 -6 2 -7q0 -3 -1 -4l2 -6q1 -4 1 -10q-1 -3 -1 -13v-12q1 -6 1 -30q1 -7 1 -34q0 -42 1 -54v-29q0 -2 2 -14q0 -12 1 -16v-22v-11q-1 -7 -1 -32q3 1 9 17l15 40q7 21 13 36q1 4 6 19t8 26q12 47 26 82q0 1 1 4.5t3.5 10.5t4.5 15q0 6 1 9l3 10q1 3 1 6l2 6
q0 1 0.5 2.5t1.5 2.5q0 3 1 4t1 3q2 6 3 7q11 4 21 5h19q13 -1 19 -3q2 2 6 2l10 -3l1 -1q0 -2 -1 -4q-2 -4 -2 -5q-6 -9 -9 -24q-2 -4 -6 -16q-2 -5 -6 -19q-6 -21 -8 -25q-5 -20 -11 -30q0 -1 -1.5 -7l-2.5 -10q-3 -11 -5 -13l-41 -121q-7 -23 -9 -36l-10 -28
q-8 -14 -8 -18v-1l-2 -6l14 -43q5 -12 11 -40q4 -19 16 -42q2 -11 11 -40l14 -44l12 -38l6 -18q1 -3 2 -6.5t2 -5.5t1.5 -4.5t1.5 -4.5l9 -32q12 -39 22 -61v-1q0 -4 -18 -6q-5 -1 -27 -1h-15q-21 3 -22 7q-3 6 -5 11l-8 32l-35 125l-4 16q-2 12 -13 39q0 1 -1.5 9t-3.5 14
q-3 10 -5 26l-13 38l-4 17q0 -41 -1 -52v-32v-18q1 -3 1.5 -10t0.5 -11v-23v-38q1 -36 1 -119v-25q0 -6 -18 -11q-2 -1 -8 -1.5t-9 -0.5q-9 -1 -17 -4q-17 6 -17 10v3v2q-1 1 -1 8q0 6 1 7v11v19l1 116v35v17q1 6 1 27v24v45l1 71v55v101q0 29 -1 34q0 2 -1 5q-1 4 -1 5
t3 40q0 8 -0.5 16t-1 12.5t-0.5 6.5q-3 81 -3 88q0 3 16 3q22 0 29 -1q4 -3 12 -3l2 -1v-1z" />
    <glyph glyph-name="l" unicode="l" horiz-adv-x="267" 
d="M109 746v-11v-90v-55v-53q0 -8 -1.5 -20t-1.5 -16q0 -3 1 -14.5t2 -19.5v-77q0 -6 0.5 -15t0.5 -15q0 -4 -1 -10t-1 -10q0 -67 1 -110l1 -51v-27q0 -16 -1 -21q2 -14 2 -15q0 -4 -2 -22q1 -4 1 -7v-3v-9h46q8 0 46 2q8 0 15 0.5t10.5 1t4.5 0.5h4q4 0 5 -9
q0 -2 1.5 -10.5t2.5 -13.5q2 -15 3 -19q-2 -25 -6 -25h-1q-1 -1 -3 -1q-3 -1 -4 -1q-4 -1 -10 -3q-8 2 -10 2q-3 0 -6 -1h-6h-3q-1 -1 -4 -1t-5 1h-3q-12 0 -16 1q-18 -2 -24 -2q-13 0 -18 1q-9 -1 -41 -1q-8 0 -14 -1h-13q-13 0 -14 3l-2 8v6q-1 3 -1 10v2q0 3 -1 6v6
q0 5 1 6q-1 3 -1 14q0 14 -1 17t-1 13q0 17 1 22v38q0 184 1 240v24q0 17 -1 21q2 14 2 31v18q0 16 1 21q0 15 -2 21q2 18 2 36q1 7 1 33q0 23 0.5 48.5t1 39t0.5 19.5q0 7 1 12q0 10 1 13q-1 3 -1 11q0 3 1 3q-1 2 -1 6t-1 5q4 6 19 6q19 -3 23 -4q2 2 5 0l3 -1q7 0 11 -4z
" />
    <glyph glyph-name="m" unicode="m" horiz-adv-x="410" 
d="M359 734l2 -10q1 -12 3 -31t2 -25l2 -14l3 -68q3 -162 4 -283v-22q1 -10 1 -23v-15v-28v-12q0 -24 -1 -29q2 -10 2 -51v-14v-70v-21q-1 -1 -1 -5v-2l2 -4q-2 -3 -19 -7q-22 0 -31 3q-18 7 -18 10v20q0 6 -1 11v13v31q1 3 1 16q0 16 -1 20v70l-2 181v48q0 12 -1 21v22v7
v14q1 6 1 15q-1 7 -1 28l2 59l-6 -44q-2 -15 -6 -31q-1 -2 -1.5 -6t-0.5 -6q0 -3 -0.5 -8.5t-1.5 -8.5q-2 -10 -3 -14l-3 -15q-4 -14 -7 -29l-9 -41q-4 -18 -6 -29q-7 -29 -33 -92q-15 -5 -29 -5q-6 0 -7 1q-3 2 -14 38q-2 8 -6 20q-3 12 -5 19q-11 37 -12 47q-1 3 -2 6.5
t-2.5 9.5l-2.5 10q-2 5 -4.5 12t-2.5 9l-12 46l-11 44l-11 41q-5 15 -6 16l4 -22q0 -10 1 -22q1 -7 1.5 -25t0.5 -27q5 -104 8 -258q1 -96 4 -176v-12q1 -5 1 -10v-2v-5v-2v-3v-1q-1 -4 -19 -10q-5 -1 -30 -1q-18 2 -20 5q0 192 -5 334l-2 59q-2 27 -2.5 76t-1.5 68
q0 4 -2 38l-1 32l2 69q0 7 -0.5 30t-0.5 31v4q5 5 15 5h4q8 2 12 2q1 0 11 -2q10 0 19 -9l14 -26q1 -3 2.5 -8t4 -13t4.5 -14q14 -33 31 -89q0 -1 1.5 -7t3.5 -11q4 -12 6 -22l10 -39q6 -26 8 -30l8 -27q6 -20 7 -23q3 -9 6 -16q2 -5 4 -5q3 1 10 26q3 12 10 55q0 1 0.5 3
t1.5 6.5t1 8.5q4 22 5 26q0 6 7 45q4 20 4 23q1 6 2 14t1 10q25 110 30 116q1 3 4 4q4 2 12 2q10 0 13 -1q16 0 28 -5q11 -8 17 -14z" />
    <glyph glyph-name="n" unicode="n" horiz-adv-x="369" 
d="M270 526q0 22 -1 40t-1 41q0 29 -1 53q-2 48 -2 52q-1 19 -1 53q2 6 14 6h2q7 0 14 1q12 0 16 1q14 -3 16 -5l4 -2l3 -2v-22q-1 -10 -1 -26q1 -4 1 -11q0 -21 1 -35q1 -15 1 -35q0 -12 1 -23v-26q0 -16 1 -29v-33q1 -31 1 -129v-74v-20q-1 -8 -1 -18v-34v-32
q-1 -13 -1 -30q0 -49 1 -85t1 -80v-5l-4 -16q0 -2 -6 -2t-11 1h-12h-4q-8 -2 -17 -2q-38 0 -46 12q-13 23 -32 106q-15 61 -30 112q-6 18 -15 74q-5 5 -5 23q0 2 1 4v3q-5 4 -9 21l-4 23q0 2 -9 47q-1 9 -3 26q-1 4 -1.5 8t-1.5 7t-1 4l-17 102l-2 35l-3 -41q-2 -40 -2 -79
v-50q0 -24 1 -31q-1 -10 -1 -44v-93q1 -42 1 -90q0 -15 3 -42v-37q-2 -6 -2 -15t2 -15v-50q0 -3 -12 -5q-12 -3 -19 -3q-5 0 -9 1h-11q-15 5 -15 6v1q-2 6 -2 8v4q1 1 1 5q0 5 -1 6q0 4 -1 7v8q0 39 1 55q0 21 1 27q-1 3 -1 14v9q0 7 -1 10q2 44 2 89v3l1 59v79q0 3 2 55
q-1 8 -1 39q0 33 1 42v91q1 40 1 98v20l2 9q1 3 1 14l5 1h9h6q16 2 23 2q34 0 37 -11q8 -15 18 -51q27 -149 61 -327l8 -40q1 -2 1.5 -6.5t0.5 -6.5q2 -12 3 -16l3 -10l8 -38l28 -108l4 -16l5 -21q3 -10 4 -10q1 2 1 11q0 18 -1 25q3 9 3 73q0 73 -1 98v24q-1 10 -1 22v32
q0 14 1 18q0 7 -1 12t-1 12v25q0 14 -1 25t-1 24v14z" />
    <glyph glyph-name="o" unicode="o" horiz-adv-x="323" 
d="M109 663q-1 -4 -2.5 -15.5t-2.5 -16.5q0 -5 -1 -11q-1 -2 -1 -8t-1 -8q0 -3 1 -6v-5q0 -2 -2 -18q0 -26 -1 -35q0 -29 -1 -38v-41q-1 -18 -1 -42v-49v-16v-31q1 -172 8 -196q6 -21 11 -30q5 -12 13 -22q9 -11 22 -15q9 -3 25 -3q10 0 21 8q1 1 9 6q6 5 9 6q2 4 6 8
q4 7 5 14q4 13 4 44q0 25 2 47v9q0 48 -1 87t-1 84v18q-1 8 -1 18q1 3 1 12v13v36v41q0 19 -1 35q-1 25 -3 39q-2 15 -6 31q-5 22 -10 32l-9 14q-8 13 -10 15q-3 6 -8 11q-2 5 -10 9q-7 8 -27 12q-17 -6 -20 -14q-12 -12 -17 -29zM293 317v-43q0 -12 1 -21v-21v-47
q0 -21 -1 -44q-2 -36 -4 -47q-6 -27 -8 -37q-3 -16 -14 -33q-8 -12 -20 -20q-12 -7 -29 -13q-12 -4 -25 -4h-6h-22h-10q-11 1 -28 7q-1 0 -5 2l-6 3q-10 4 -13 5q-17 9 -35 34q-8 15 -12 25q-3 9 -5 16q-1 3 -2.5 6l-2.5 5t-1 3q0 3 -2 19t-2 19q0 1 -0.5 3t-1 6t-0.5 8
q-2 17 -3 26q0 1 -3 49q-1 10 -1 48v16v36v13q-1 7 -1 15q0 9 1 15v14v63q0 23 1 39v35q0 18 1 30t1 25q0 35 1 42q3 58 21 103q26 56 76 63q2 1 10 1q12 0 16 -1q10 0 24 -8q16 -7 26 -17q21 -19 36 -43q12 -17 25 -63q9 -28 13 -57q0 -4 1 -9q0 -2 0.5 -7t1.5 -7
q3 -12 3 -53q2 -14 2 -36q1 -5 1 -24q0 -23 1 -30v-31v-37v-41z" />
    <glyph glyph-name="p" unicode="p" horiz-adv-x="287" 
d="M94 684v-2v-13v-4q0 -39 1 -47l2 -89q1 -178 6 -189q9 -6 12 -6h12q15 0 29 6q34 13 45 73q0 1 0.5 4t1 7.5t0.5 7.5q0 7 2 17q1 5 1 14v18q1 2 1 14v19q0 7 -0.5 14.5t-0.5 11.5l-1 3v26v15q-1 18 -5 39q-8 38 -44 55q-16 8 -34 8q-28 0 -28 -2zM258 656l2 -6
q1 -6 3 -11q7 -27 7 -81v-24q-1 -4 -1 -19q-1 -8 -1 -18q0 -2 1 -4v-4v-11q-1 -5 -1 -11v-9q-3 -27 -4 -37q-6 -47 -20 -84q-6 -13 -15 -26q-11 -13 -20 -20q-3 -8 -20 -13q-4 -4 -24 -11l-1 -1q-2 0 -5 -0.5t-5 -0.5t-7.5 -0.5t-7.5 -1.5q-7 -1 -36 -1v-7v-102
q0 -30 2 -106v-24v-1q0 -5 1 -8v-5q0 -6 -1 -7q-1 -3 -13 -3q-5 0 -7 -1q-3 -1 -7 -1q-1 0 -9 2q-1 -1 -4 -1q-27 0 -27 4l-2 9v3v10v6v32v8q0 5 0.5 21t0.5 28t1 23v11q0 3 -0.5 8.5t-0.5 7.5q0 14 1 26v26v10v76l-2 90q-1 12 -1 33v15.5t0.5 13t1 9.5t0.5 6v2q1 3 0 13
t-1 15q0 29 -1 36v40v9q0 6 0.5 14t0.5 10v11v14q0 7 -0.5 16t-0.5 14q0 6 -0.5 14t-0.5 13v3v8q2 45 9 45h28q3 1 12 1h17q6 0 13 -2l16 -4q15 -2 31 -6q23 -6 46 -20q14 -10 20 -17q16 -12 17 -20l8 -12q6 -12 7 -15z" />
    <glyph glyph-name="q" unicode="q" horiz-adv-x="344" 
d="M160 114q4 4 18 9q7 4 20 4q12 0 22 -2l18 -39q14 36 15 174q0 11 1 20v19v13v31v46q0 128 1 172v39q0 68 -15 87q-17 21 -77 22h-2q-23 0 -35 -17q-14 -17 -21 -68q-8 -58 -8 -152q0 -40 -1 -51q0 -8 1 -15v-16q0 -12 -1 -16v-16v-29q0 -156 20 -218q4 -15 7 -19
q1 -1 10 -17q13 -13 20 -14q12 -6 27 -6h7q-5 10 -9 15q-7 16 -11 30zM37 446q0 4 3 63q2 38 3 55q7 108 32 154q22 41 79 44h16h30q14 -2 36 -9q12 -6 27 -14q51 -37 51 -150q0 -32 -1 -58q-2 -52 -2 -56q0 -8 2 -42q1 -14 1 -63q0 -46 1 -58q0 -15 -1 -26t-1 -27v-14v-30
v-24q0 -4 -0.5 -8.5t-1 -8t-0.5 -5.5q-2 -27 -3 -39q-1 -2 -1.5 -8t-0.5 -9q-2 -14 -3 -17q0 -4 -6 -26q-3 -12 -6 -23q-8 -18 -20 -30l9 -17q7 -16 16 -31q5 -17 8 -19q0 -4 -11 -9q-1 0 -6 -1.5t-8 -2.5q-8 -2 -17 -5q-4 -1 -9 -2h-3q-4 0 -6 2q-4 9 -6 17l-14 27l-7 16
q-15 -4 -38 -4q-9 0 -33 3q-6 4 -10 6q-4 1 -7 4q-9 3 -16 10q-7 4 -16 15q-31 38 -46 115q-3 23 -4 32l-1 2q0 2 -0.5 5.5t-0.5 7.5l-2.5 12.5t-1.5 9.5v20q0 16 -1 20q-2 34 -2 43q-1 19 -1 97v37v19z" />
    <glyph glyph-name="r" unicode="r" horiz-adv-x="281" 
d="M111 718q-7 -2 -8 -11q-2 -16 -2 -24q0 -11 3 -67q4 -74 4 -99q0 -120 1 -137q1 -4 1 -19v-7q1 -2 2.5 -5.5t1.5 -4.5l4 -2q17 7 33 35q11 19 27 69q5 20 7 50v16q0 5 1 17t1 19q0 2 -0.5 6.5t-0.5 6.5q-2 50 -2 55q0 50 -14 76q-8 14 -22 22q-9 3 -13 3q-3 1 -7.5 2
t-5.5 1q-2 -2 -7 -2h-4zM194 762q30 -14 42 -50q12 -38 12 -110q0 -12 -1 -21v-21q0 -13 0.5 -24.5t0.5 -13.5q0 -4 -3 -24q-1 -7 -1 -15q-1 -11 -6 -34q-9 -55 -34 -108q-11 -23 -40 -46l40 -23q26 -14 35 -53t9 -115q0 -50 -1 -62q0 -19 -1 -24q0 -10 2 -16q-6 -6 -16 -6
h-2h-19h-10q-16 2 -16 6q0 15 1 39v24q0 31 -1 46q-5 73 -10 90q-7 21 -25 37q-31 20 -41 20q-2 0 -4 -8l-1 -8v-17v-25q1 -30 1 -55q0 -55 -1 -68q0 -8 1 -15q0 -2 0.5 -5t0.5 -4v-4l-1 -2v-9v-15q0 -4 1 -7v-5v-4q-1 -1 -1 -3q0 -4 -18 -9q-4 -1 -18 -1q-33 0 -35 6
q-1 5 -1 31q0 23 4 159q0 5 2 39v14v28v38q1 17 1 42q0 5 1 8v8v7q-1 3 -1 7q0 8 1 13v12v6q2 26 2 31q-1 8 -1 35v72v32q0 25 2 43l-2 22q0 7 1 13v15q1 10 1 39q1 49 9 52l21 3q19 1 28 5q8 0 14 -1t13 -1q6 0 8 1q5 0 9 -1q2 0 6.5 -0.5t6.5 -1.5h9q11 -1 26 -8z" />
    <glyph glyph-name="s" unicode="s" 
d="M216 745q10 -9 18 -24l13 -33q1 -2 7 -35v-3q0 -1 2 -15q3 -11 3 -17q1 -10 3 -28q0 -6 -14 -10q-13 -5 -29 -5q-18 0 -20 8q-1 11 -2.5 24.5t-2 19t-0.5 6.5q-1 8 -6 22q-3 13 -3 15q-3 13 -9 22q-8 15 -29 15h-15q-14 -1 -27 -18t-13 -44q0 -14 3 -27t6 -20.5t12.5 -27
t14.5 -30.5q1 -4 7 -18q6 -10 6 -12q0 -1 3.5 -7t5.5 -11l8 -21l17 -34l70 -137q23 -47 27 -85q6 -46 6 -52t-2 -22v-10q-10 -73 -30 -105q-18 -29 -81 -36h-7q-36 0 -64 24q-28 22 -42 65q0 1 -2 6t-3 8q-2 12 -3 15q-5 25 -5 26q-1 3 -3 13v10q0 8 -1 11q-1 4 -1 7
q1 7 21 7q39 -2 39 -5q1 -7 2 -17t2 -17l4 -12q1 -3 3.5 -8t2.5 -6q11 -29 26 -46q17 -17 27 -17q16 0 28 17q12 16 17 46q2 24 2 25v27q-1 4 -3 14q0 2 -0.5 5t-1 5.5t-0.5 3.5q-10 55 -66 177q-3 8 -9 21l-11 24q-1 2 -7 18q-18 27 -25 48l-18 38q-28 59 -30 67
q-6 15 -9 48q0 58 23 98q11 18 37.5 28t55.5 10q41 0 72 -29z" />
    <glyph glyph-name="t" unicode="t" horiz-adv-x="290" 
d="M83 752l95 2h94q8 0 8 -35q0 -27 -6 -27q-56 0 -85 -1h-1q0 -35 -1 -67v-59q0 -90 -3.5 -213.5t-3.5 -256.5v-7v-13q0 -8 -1 -10q0 -8 -1 -15q0 -12 -1 -16l2 -14q0 -3 -1 -5v-4q0 -5 -1 -9v-8q0 -9 -38 -9q-26 0 -26 6q0 16 1 27q0 2 2 18q0 5 -1 10v9v4v11v19q1 3 1 16
q1 7 1 15v96q0 82 1 110q0 28 1 36v8q0 1 2 31q0 11 -1 20v19v42v43l1 46v17q0 6 1 8.5t1 4.5q0 11 -1 20q0 16 -1 21v34v13v1l-105 -2q-8 2 -8 39q0 25 7 25h1q2 -1 9 -1q4 0 8 1h9h5q1 -1 8 -1t12 1h11h5z" />
    <glyph glyph-name="u" unicode="u" horiz-adv-x="354" 
d="M106 750v-49l-1 -12v-11q0 -6 -2 -24q1 -10 1 -47v-28q-3 -410 24 -479q1 -6 8 -13q1 -2 19 -15l3 -2q3 -1 5 -3q7 -5 9 -6q14 -3 26 -3l8 -1q12 0 18 6q9 7 16 39q11 42 13 146v25l1 36q0 5 1 9t1 10v9q2 8 2 9q0 14 -1 27q-1 19 0 27v16q0 13 -2 23q0 3 -0.5 15
t-0.5 20v64l-1 54q-2 27 0 47q0 9 -1 18v25l1 15q-2 8 -2 16v9q1 2 1 8v6v2q0 2 -1 5q-1 4 -1 5q0 3 1 4l2 1h6q5 0 8 1q17 -3 27 -3q17 -6 17 -9q0 -6 -1 -8q3 -6 3 -17v-4v-10q1 -4 1 -10l1 -29q1 -38 3 -133q0 -35 0.5 -80.5t0.5 -55.5v-19q2 -16 2 -18q0 -5 1 -9l-1 -9
v-9q-2 -8 -2 -9q2 -6 2 -17q0 -7 -2 -13q2 -14 2 -33v-28q-1 -15 -3 -23q-6 -99 -16 -140q-12 -44 -38 -67q-19 -14 -55 -14q-56 1 -97 32q-29 23 -43 63q-14 41 -20 118q0 1 -0.5 4t-1 8.5t-1.5 10.5q1 9 -2 29v14q0 22 -1 46q-1 3 -1 17q-2 11 0 16q-3 106 -2 265l1 37v17
q0 12 1 15q0 11 -1 14v13q0 2 0.5 6t0.5 6q0 6 -1 10v8q1 4 1 15q1 4 19 4h16q7 1 11 1q16 -3 18 -6z" />
    <glyph glyph-name="v" unicode="v" horiz-adv-x="310" 
d="M298 762q-2 -2 -2 -19l-5 -37l-6 -56q-1 -10 -12 -96q-1 -5 -1 -22v-8q-2 -6 -3 -10t-1 -13q0 -2 -0.5 -6t-1.5 -6q-1 -1 -5 -33l-4 -36l-42 -318q-1 -14 -10 -61l-4 -19q0 -9 -4 -16v-1l-14 -5q-6 -2 -18 -2q-15 0 -20 1h-4q-1 0 -15 2q-4 1 -9 2h-3q-18 2 -19 6
q0 1 -0.5 5.5t-1 13t-0.5 16.5q-1 11 -2.5 29t-1.5 23l-3 33q-2 32 -2 37q-2 8 -3 21q-2 14 -3 19v13q0 3 -1 8t-1 7q-1 5 -1 14q0 4 -1.5 18.5t-2.5 24.5q-4 26 -6 45l-12 108q-3 46 -3 50q-5 25 -8 52q0 26 -3 50l-15 157v1q0 3 17 9q17 4 38 4q18 0 18 -5q1 -3 1 -17v-39
q1 -25 3 -62q1 -4 1 -18q1 -9 1 -20v-4q0 -10 1 -19q2 -18 2 -21l2 -22l3 -30q9 -103 20 -208q8 -104 20 -188h1q1 0 3 17q4 42 4 45q1 6 2.5 22t2.5 22q13 80 34 292q25 235 28 250q0 6 19 6h10q19 0 24 -1q17 -2 19 -5z" />
    <glyph glyph-name="w" unicode="w" horiz-adv-x="526" 
d="M285 688h5q8 -2 9 -7l2 -9q4 -20 5 -24l5 -22q14 -49 22 -120q3 -32 4 -34l4 -36q7 -57 8 -70l4 -39q0 -1 0.5 -4t1 -7.5t0.5 -7.5q1 -13 3 -19q2 -10 2 -24v-12l5 -35q6 -62 13 -103q3 -13 5 -15h1q1 0 10 56q0 2 1 7t2 11t2 13q0 11 1 20q0 3 0.5 7.5t1 7t0.5 4.5
q0 3 1 9t2.5 17t2.5 22l7 55l5 60q0 1 0.5 4.5t1 9.5t0.5 11q0 4 4 30v19q1 3 1.5 10t0.5 11q1 7 1 18l5 63l4 60q3 50 4 54q0 8 1 14q0 2 0.5 7t1.5 7v3l5 21v1l2 1q2 1 3 1t4 1t4 2h20q17 0 20 -1q14 0 14 -3v-3v-9q-1 -10 -2.5 -36t-3.5 -42q-1 -42 -8 -123l-3 -41v-3
q-1 -2 -1.5 -6t-0.5 -9q-2 -21 -4 -27q0 -15 -4 -43l-4 -45q0 -3 -2 -21q-4 -33 -13.5 -98.5t-12.5 -111.5l-5 -55q-1 -3 -3 -12q-1 -9 -3 -14q0 -3 -2 -11q-1 -4 -1 -8q0 -10 -4 -10l1 -2q0 -2 -19 -6q-5 1 -36 1q-14 0 -36 2q-12 1 -15 4q-16 53 -32 203l-11 142
q-9 107 -16 162q-5 -51 -12 -162q-7 -126 -10 -164q-1 -17 -4 -38v-8q0 -16 -3 -28q0 -25 -1 -32q-1 -2 -1.5 -7.5t-0.5 -8.5q-1 -7 -1 -12q-1 -3 -1.5 -10t-0.5 -10l-2 -18v-9q0 -3 -16 -6l-18 -2q-9 -1 -19 -1h-10q-17 0 -22 4q-17 0 -17 6l-4 24q-35 185 -35 188l-15 91
l-7 43q-4 9 -6 27l-2 22q0 2 -2.5 11.5t-3.5 16.5q-2 20 -3 24l-34 212l-6 30q-3 15 -3 23l-3 12l-2 8q0 2 16 4q11 3 23 3h7q22 0 24 -5l16 -109q1 -4 3 -20q1 -6 2.5 -13.5t1.5 -9.5q4 -24 6 -43q4 -13 9 -50l21 -139q4 -20 7 -44q3 -17 4 -24q1 -17 3 -21q2 -9 3 -20
l4 -19l15 -130q2 0 9 54q11 75 19 166q2 25 11 99t12 125l3 34q2 18 3 22l3 19v9q1 2 1 5t5 11q0 17 4 29q2 9 5 12q9 6 28 6h6z" />
    <glyph glyph-name="x" unicode="x" horiz-adv-x="353" 
d="M24 1q4 10 24 80q4 15 4 17l4 15q3 14 5 19q1 3 2.5 6l2.5 5t1 3q7 29 10 38l11 40l25 84l13 44q2 6 3.5 21t4.5 22q-3 0 -4 7q-2 11 -7 24q-2 12 -11 35l-38 123l-11 31q-2 4 -6 18q-1 3 -4 14l-5 13q-1 4 -2.5 9.5t-1.5 6.5l-8 25q-6 20 -9 29q0 1 -1 3t-2 4.5t-1 4.5
t-1 3.5t-2 2.5v2q-1 1 -1 3v1v1q0 1 19 4q6 0 15 -1q4 0 11.5 -0.5t10.5 -1.5q20 -2 22 -8q3 -3 13 -47l8 -31l1 -4q1 -4 3 -12.5t4 -18.5q5 -13 11 -39q20 -71 42 -134q23 67 30 93l13 45l2 8q1 8 3 14q5 14 6 21q9 31 13 39l2 10q0 2 0.5 5.5t1.5 5.5q0 1 1 5t1 5t1 3.5
t2 5.5l2 6q0 3 0.5 5t0.5 3l1 2q1 4 3 16l2 6v2q3 6 25 6h15q7 0 17 -2q19 -1 19 -4v-1q-1 -1 -1 -3q0 -3 -1 -4l-30 -91l-13 -45q-1 -7 -8 -26l-8 -23l-15 -46l-46 -143l46 -126q4 -12 11 -39l8 -20l6 -19q1 -2 2.5 -8t2.5 -9q1 -5 3 -11t2 -8l24 -73q4 -14 9 -29l2 -4
q1 -4 2 -7q2 -9 3 -10q5 -12 5 -14v-1v-1q0 -6 -9 -6q-1 0 -2 1h-2q-10 -2 -26 -2h-12q-23 2 -25 5l-8 33l-10 36l-12 45q-2 13 -14 47q-4 20 -11 46l-36 112l-10 -25l-7 -29q0 -4 -3 -16t-4 -21q-9 -26 -12 -38l-10 -43l-19 -78q-2 -8 -3.5 -15.5t-3 -12.5t-1.5 -7
q0 -1 -2 -4t-2 -5q-2 -8 -3 -11q-1 -5 -2 -5v-8q-5 -5 -19 -5q-5 0 -10.5 -1t-8.5 -1q-5 0 -8 1h-8q-17 2 -17 6v1z" />
    <glyph glyph-name="y" unicode="y" horiz-adv-x="275" 
d="M171 365q0 -35 -1 -49v-37v-29q-1 -12 -1 -26l-1 -48q-1 -14 -1.5 -42t-0.5 -43q-1 -32 -1 -59v-15v-3q-1 -1 -1 -5v-4q-1 -1 -1 -3q0 -1 -1 -1l-30 -8q-29 5 -29 10v1q-1 1 -1 7v8v4l1 1v4q-1 3 -1 6q0 5 1 7q-1 3 -1 13v14q0 82 1 112q2 30 2 66v66v6v26v22q-2 3 -3 13
q-1 9 -5 18l-7 25l-4 14q-1 3 -2 6.5t-2 6t-1 3.5q-8 19 -10 31l-5 20l-7 18q-26 96 -34 160q0 2 -2 12q0 3 -1.5 7.5t-1.5 6.5q-2 20 -3 23q0 7 -1 11t-1 10v3q0 2 15 7h22h8q18 0 18 -7q3 -12 3 -17q0 -6 -1 -7l3 -28q1 -11 3 -19q0 -2 2 -20q5 -18 9 -39q1 -11 4 -26
l4 -23q3 -9 5 -18q2 -10 6 -23q1 -5 2.5 -12t1.5 -9l8 -26q5 -8 6 -8q2 0 4 3q3 6 4 11q0 1 1.5 6.5t1.5 7.5l6 19l5 22l12 47q4 16 10 29q0 1 2 15q3 12 3 18q3 9 3 11q1 2 2 6.5t2 6.5q0 2 3 11l4 18l3 17q3 9 3 16q0 6 2 10q0 2 0.5 5.5t0.5 4.5l22 5h5q6 0 24 -2
q12 -4 12 -5v-1q0 -1 -1.5 -8t-3.5 -13l-5 -24l-11 -46q-12 -52 -48 -191q-4 -20 -11 -37q-5 -26 -7 -30q-4 -13 -6 -25l-4 -16z" />
    <glyph glyph-name="z" unicode="z" horiz-adv-x="280" 
d="M256 60q7 0 7 -33q0 -27 -5 -27h-75q-22 0 -43 3l-44 -6q-14 3 -33 3h-32q-4 0 -4 6q0 10 5.5 34.5t6.5 29.5l18 78q5 21 11 44t6 24q4 14 7 31l6 29l12 52l14 54l10 44q2 10 3.5 18t2.5 12l1 4l4 16q1 4 4 9l2 5v4q-1 1 -1 3l4 20l40 170q-27 0 -42 1h-33h-26h-11h-23
h-5q-3 -1 -16 -1q-2 -1 -2 0v16q0 1 -1.5 11t-1.5 21q1 1 1 6q3 10 5 10q3 0 6 1h4h7q3 -1 6 -1q15 0 27 1h22h50q62 0 65 -1q47 0 47 -7l-2 -22q-2 -13 -6 -27q-2 -3 -3 -15q-3 -10 -6 -18q0 -12 -7 -39l-8 -32l-75 -320l-5 -22q0 -3 -7 -30q-1 -2 -1.5 -7.5t-2.5 -9.5
l-7 -28q-5 -21 -11 -48t-9.5 -41.5t-5.5 -21.5q18 -1 66 -1h59z" />
    <glyph glyph-name="braceleft" unicode="{" horiz-adv-x="251" 
d="M200 323q2 -206 8 -229q7 -23 10 -29q7 -14 13 -23q20 -29 27 -31l-1 -50q-6 -2 -10 -2q-32 0 -41 12q-18 10 -36 34q-4 7 -11 26q-1 5 -6 15q-1 4 -3.5 8.5t-2.5 5.5q0 3 -2 19t-2 19l-2 18q-1 13 -3 25q0 34 -3 82q-1 10 -1 48v16q0 25 -6 39q-5 14 -13 19
q-12 7 -29 19q-20 14 -38 32l-6 8q93 57 93 113q0 35 1 47t1 26q0 35 1 42q3 54 22 102q26 57 76 64q2 1 10 1l3 -43q-5 -1 -16 -14q-9 -13 -12 -19q-3 -3 -5 -11t-3 -18l-2 -14l-4 -32q0 -5 -1 -11q0 -3 -1 -8t-1 -7v-7q1 -2 1 -5q0 -1 -2 -17q0 -27 -1 -36q0 -26 -1 -33
v-16v-6v-19q0 -12 -1 -17q0 -6 -4 -13q-1 -2 -3.5 -5.5t-2.5 -4.5q-2 -3 -9 -9q-11 -7 -12 -7q-8 -4 -17 -9q-5 -3 -12.5 -6.5t-9.5 -4.5q0 -8 17 -14q1 0 12.5 -5t18 -9.5t10.5 -11.5q12 -13 12 -44z" />
    <glyph glyph-name="bar" unicode="|" horiz-adv-x="146" 
d="M111 752q2 -24 2 -79v-17q1 -7 1 -17v-13v-27v-21q1 -9 1 -23v-49v-53v-68v-32q1 -13 1 -29q-2 -34 -2 -38q0 -13 1 -16v-48q0 -268 -1 -288q0 -4 -1 -7v-7q0 -4 -19 -7q-1 1 -9 1h-6q-11 0 -19 2q-18 8 -18 13l2 449q0 35 1 44v43v28v14v38v19q1 8 1 19v79q1 31 1 58v19
q0 7 2 13q-2 2 -2 3t-1 1q0 1 9 1h7q3 1 12 1h14h3q20 -3 20 -6z" />
    <glyph glyph-name="braceright" unicode="}" horiz-adv-x="258" 
d="M100 323q0 31 12 44q4 7 10.5 11.5t18 9.5t12.5 5q17 6 17 14q-2 1 -9.5 4.5t-12.5 6.5q-9 5 -17 9q-1 0 -12 7q-7 6 -9 9q0 1 -2.5 4.5t-3.5 5.5q-4 7 -4 13q-1 5 -1 17v19v6v16q-1 7 -1 33q-1 9 -1 36q-2 16 -2 17q0 3 1 5v7q0 2 -1 7t-1 8q-1 6 -1 11l-4 32l-2 14
q-1 10 -3 18t-5 11q-3 6 -12 19q-11 13 -16 14l3 43q9 0 11 -1q49 -7 75 -64q19 -48 22 -102q1 -7 1 -42q0 -14 1 -26t1 -47q0 -56 93 -113l-6 -8q-18 -18 -38 -32q-17 -12 -29 -19q-8 -5 -13 -19q-6 -14 -6 -39v-16q0 -38 -1 -48q-3 -48 -3 -82q-2 -12 -3 -25l-2 -18
q0 -3 -2 -19t-2 -19q0 -1 -2.5 -5.5t-3.5 -8.5q-5 -10 -6 -15q-7 -19 -11 -26q-18 -24 -36 -34q-9 -12 -41 -12q-4 0 -10 2l-1 50q7 2 27 31q6 9 13 23q3 6 10 29q6 23 8 229z" />
    <glyph glyph-name="asciitilde" unicode="~" horiz-adv-x="280" 
d="M42 702q0 7 11 37q14 31 59 31q31 -4 45 -17q13 -11 16 -26q3 -13 10 -17q1 -1 3 -1q5 0 5 24q0 5 -1 9v10h57q3 -10 3 -27q0 -45 -35 -60q-1 -1 -22 -9q-19 0 -34 10q-20 11 -32 32q-14 23 -16 24l-8 -2q-2 -8 -2 -18q0 -2 3 -16l5 -15l-60 -6q0 1 -1 2q0 3 -1 5
q-3 11 -4 14q0 3 -0.5 8t-0.5 7v1z" />
    <glyph glyph-name="uni00A0" unicode="&#xa0;" horiz-adv-x="204" 
 />
    <glyph glyph-name="exclamdown" unicode="&#xa1;" horiz-adv-x="155" 
d="M114 692q-1 0 -3 -2t-3 -2q-4 0 -10 -2q-2 -1 -5 -1q-2 0 -3 -1q-3 0 -6 1t-5 1h-3l-2 1q-6 3 -14 20q-5 11 -6 28q0 7 5 22q6 11 17 14q6 3 15 3h6q7 -1 16 -4q6 -3 8 -12q3 -9 3 -26q1 -5 1 -18q0 -12 -1 -14q-2 -8 -10 -8zM101 10q0 -3 -10 -3q-4 0 -40 6l-2 2
q-2 2 -2 4v1v2q1 1 1 2q0 3 -1 5t-1 5q1 1 1 7v7q-1 3 -1 6q1 3 1 13q0 9 -1 12q0 26 -1 33v81v14q-1 7 -1 15v17q0 12 -1 16q3 9 3 19v7q-1 3 -1 6v34q0 62 1 79v33q0 24 1 31q0 17 1 28v25q0 14 0.5 29t1 23t0.5 11q1 3 1 14v10q0 16 6 17q26 2 28 2q3 0 25 -5q3 -4 3 -31
v-28q-1 -11 -1 -18v-20q2 -30 2 -38v-15q-1 -7 -1 -16v-22v-48v-26v-58v-34v-58q0 -10 -0.5 -22.5t-1 -19.5t-0.5 -12q0 -28 -1 -36v-31v-7q-1 -3 -1 -8q0 -6 1 -7q-1 -2 -1.5 -6t-0.5 -6l-2 -8v-8q-1 -3 -1 -7q0 -3 -2 -9q0 -1 -1 -3t-1 -3v-3z" />
    <glyph glyph-name="cent" unicode="&#xa2;" horiz-adv-x="354" 
d="M174 402q-22 0 -30 -2q-12 0 -21 -3q-10 -2 -15 -5q-8 -2 -11 -6q-1 -2 -5 -9q-2 -10 -2 -12q0 -72 83 -95l1 87v44v1zM43 271q-27 38 -27 83q0 4 1 7v7q1 17 6 29q9 18 13 25q1 2 7 8q2 2 5 4l2 2q2 2 8 6q2 1 4 2.5t3 1.5q7 11 20 12q12 6 26 9q40 8 63 8q0 6 1 13
q0 18 1 32v51v20v12v3q0 1 -1 1q0 1 5 1h3q1 1 5 1h9h1q9 -5 9 -6q2 -24 2 -79v-34v-17q27 -3 30 -3h15q2 0 5 -0.5t5 -1t3 -0.5q7 0 12 1h8h4q2 -1 10 -1t10 1q2 -1 5 -1l2 -1q4 0 4 1h3q3 -2 3 -16q-1 -2 -1.5 -6.5t-0.5 -6.5t-0.5 -6t-1.5 -6q0 -6 -1 -9q-1 -1 -1 -3
t-1 -3q-1 -2 -1 -3q-1 -1 -1 -2q0 -2 -2 -4t-3 -2q0 -1 -4 -1q-3 -1 -7 -1h-11h-1h-49l-33 2v-36v-62v-38v-1q5 0 32 -3q12 -1 20 -1h70q7 -1 7 -35q0 -35 -7 -36q-44 2 -48 2q-34 0 -74 6v-146q0 -4 -1 -7v-7q0 -4 -9 -7q-1 1 -4 1h-5q-6 0 -8 2q-10 7 -10 13l1 155
q-1 0 -2 1q-1 0 -3 1t-5 1q-18 2 -30 6q-10 2 -14 5q-11 3 -11 4q-14 6 -25 13q-22 16 -40 39z" />
    <glyph glyph-name="sterling" unicode="&#xa3;" horiz-adv-x="345" 
d="M40 55l-1 93v8v19q0 3 -0.5 10t-1.5 10v38v75v14h-17v15q-1 9 -1 14v10v9l8 -1h11v11q0 22 -1 30v18v18q1 7 1 18q0 9 -1 16v17v30v28v26v12q3 19 3 37q2 14 2 30q3 20 6 26q0 10 5 22l6 15q12 25 42 42q30 18 62 19q7 1 33 1q7 -2 13 -4t9.5 -3t4.5 -1q19 -11 29 -14
q11 -8 22 -22q35 -36 38 -89q2 -36 2 -73v-15q0 -10 -1 -13v-6q1 -3 1 -6q0 -4 -1 -5q0 -3 -2 -3q-1 -1 -6 -1q-1 0 -3.5 -0.5t-3.5 -1.5q-3 1 -9 1.5t-9 0.5h-15q-15 1 -17 6v18v25q0 1 -0.5 3.5t-1 5.5t-0.5 6v15q-1 23 -4 51q-3 20 -8 32q-2 3 -4.5 6.5t-3.5 5.5l-2 4
l-1 1q-2 2 -19 6q-14 2 -18 2q-7 0 -9 -1q-15 0 -19 -1q-10 -1 -15 -3q-4 -1 -12 -7q-1 -1 -9 -12q-2 -3 -4 -7q-2 -7 -3 -8q0 -6 -6 -24q0 -2 -1.5 -6t-1.5 -7l-2 -16q-5 -40 -7 -171q0 -71 -1 -86h5q9 3 24 3h10h17h12h47q23 -1 35 -1v-46h-2q-2 0 -4 1h-6h-18
q-8 -1 -18 -1q-15 0 -17 1l-15 -1l-34 -1h-18q-3 0 -6.5 -0.5t-6.5 -1t-4 -0.5h-1l9 -269h71q23 0 39 18q17 20 24 60q1 3 6 35q1 3 1 15q1 6 1 15l64 3q0 -155 -74 -191q-3 -1 -26 -9q-8 -2 -17 -2q-14 0 -17 -1q-2 0 -4 -1h-4q-28 0 -66 1q-15 0 -32 0.5t-26.5 1
t-14.5 0.5h-10v15q-1 9 -1 15v10v18h21z" />
    <glyph glyph-name="currency" unicode="&#xa4;" horiz-adv-x="502" 
d="M359 537v-2q0 -1 0.5 -4t1 -8t0.5 -9q4 -22 4 -25v-20v-15v-7q0 -10 1 -22q0 -5 0.5 -13.5t1 -21.5t0.5 -23q2 -56 2 -100q0 -3 -2 -33l-3 -15l100 -179q4 -5 -7 -13q-4 -2 -13 -2h-5q-5 0 -6 -1q-17 3 -18 7q-1 1 -5 7l-3 7l-65 117q-5 -13 -7 -16q-8 -13 -15 -17
q-6 -6 -21 -8q-7 -4 -25 -4q-7 1 -30 1q-22 4 -29 7q-12 4 -21 11q-7 4 -15 17q-9 13 -12 24l-71 -130l-4 -7q-1 -4 -4 -7q-1 -4 -18 -7q-1 1 -6 1h-6q-8 0 -12 2q-11 8 -7 13l112 199q0 2 -1 3v4l-7 43q-12 149 -12 152l1 -7q0 5 2 35q1 9 4 40q6 33 7 36v3q1 1 1 2l-12 21
q-23 43 -23 44t-3 5t-5 8l-7 14q-1 1 -3 7q-1 3 -4 6l-17 34l-20 36l-16 29q-2 4 -4.5 8.5t-2.5 5.5q0 3 11 6h3h10q6 0 9 -1h6q7 0 7 -1v-4q3 -3 8 -12l11 -20l75 -133q8 13 16 18q8 9 25 14q5 4 15 5q13 2 14 3h10q14 0 21 -3q21 -3 33 -10q15 -8 27 -20l2 -2q2 -3 4 -5
q1 -2 3 -5l2 -2l3 6l77 137l11 20q5 9 8 12v4q0 1 8 1h5q3 1 9 1h10h3q11 -3 11 -6l-8 -14l-15 -29l-20 -36l-17 -34q-3 -3 -4 -6q-2 -6 -3 -7l-7 -14q-2 -3 -4.5 -7t-2.5 -5l-2 -5q-3 -4 -9.5 -15.5t-12.5 -23.5zM299 465v8v14q0 7 -6 42q-9 51 -40 51q-13 0 -24 -8
q-10 -7 -14 -22q-1 -3 -5 -13q-3 -9 -5 -13l-2 -12q-1 -2 -1 -11q-1 -5 -1 -13v-8q0 -19 -1 -24q0 -50 3 -106q3 -57 3 -67q1 -2 1.5 -6.5t0.5 -6.5q1 -5 1 -10q0 -3 1 -5q0 -4 1 -5v-4q5 -19 12 -32q7 -12 21 -20q12 -10 20 -10t23 12q4 4 7 9q3 10 4 15q5 17 5 25
q2 10 2 29q1 4 1 25q0 27 -3 88q-4 57 -4 78z" />
    <glyph glyph-name="yen" unicode="&#xa5;" horiz-adv-x="276" 
d="M252 345v-56h-2h-4q-1 1 -5 1q-10 0 -18 -1h-19q-15 0 -17 1l-15 -1h-2v-16q1 -4 1 -21q25 0 47 -1h34v-56h-2h-4q-1 1 -5 1q-10 0 -18 -1h-19q-15 0 -17 1l-15 -1h-2v-7v-40v-39q0 -7 -0.5 -15t-1 -13.5t-0.5 -8.5v-31v-13q0 -10 -1 -13q-1 -12 -3 -14v-1q0 -7 -9 -7h-4
q-14 -2 -16 -2h-8q-2 1 -6 1q-17 5 -17 9l1 160l1 30h-3h-12l-64 2v15q-1 9 -1 14v10v19q16 -2 76 -2h4v20q2 16 2 17h-5h-12l-64 1v15q-1 9 -1 14v11v18q16 -2 76 -2h6v29l-10 35q-2 3 -3 12t-3 12l-9 31l-9 35q-41 157 -61 251q0 7 34 7q25 0 26 -6q0 -6 4 -21v-2
q0 -5 1 -10q2 -10 2 -13v-3q9 -24 11 -37l9 -43q36 -146 43 -146q3 0 11 21l8 27q1 11 8 33q3 21 7 44l9 52l7 33l6 30q1 3 3 11q2 9 3 15v2q0 4 2 10q2 8 2 9q1 3 19 4q18 2 26 2h7q9 0 9 -2v-1q-3 -19 -8 -37q-7 -31 -8 -36q-1 -6 -29 -125q-1 -1 -4 -17l-5 -24
q0 -3 -4 -12t-4 -15v-3q1 -1 1 -2q-1 -3 -12 -35q-18 -60 -29 -89v-11q1 -6 1 -12h1h47q23 -1 35 -1z" />
    <glyph glyph-name="brokenbar" unicode="&#xa6;" horiz-adv-x="146" 
d="M111 758q2 -8 2 -21v-4q1 -1 1 -4v-3v-7q0 -3 1 -5v-5v-13v-14v-16v-8q1 -3 1 -8q-2 -8 -2 -9q0 -3 1 -4v-12q0 -183 -1 -188l-1 -3q0 -2 -19 -2h-9h-6h-19l-18 4l2 228q0 9 1 11v11v6v4v10v4q1 2 1 5q0 12 1 20v15v4q0 2 2 4h-3q0 1 9 1h7h12h14h3zM111 325q2 -6 2 -20
v-4q1 -2 1 -4v-4v-6q0 -3 1 -6v-6v-12v-13v-17v-8q1 -4 1 -8q-2 -8 -2 -9q0 -2 1 -3v-12q0 -184 -1 -189l-1 -1v-2l-19 -2q-1 1 -9 1h-6h-19q-18 2 -18 3l2 228q0 9 1 11v11v7v3v9v7q1 2 1 4q0 12 1 19v14v6q0 1 2 3l6 1h7h12h14h3q20 0 20 -1z" />
    <glyph glyph-name="section" unicode="&#xa7;" horiz-adv-x="280" 
d="M208 668q3 -1 8 -4.5t6 -4.5q9 -5 11 -11q2 -3 5 -7t4 -6l1 -2q3 -7 4 -10q2 -9 3 -10q3 -11 3 -23l2 -25v-9l-2 -2q0 -2 1 -3q-4 -2 -18 -2h-6q-8 0 -14 1t-12 1q-18 3 -18 5v1q-2 6 -2 24q0 12 -4 19q-5 8 -14 11q-4 2 -13 2h-5q-1 -1 -4 -1q-15 -1 -27 -8t-13 -8
q-5 -5 -6 -11v-3q0 -10 14 -26q3 -4 19 -16l12 -14q4 -4 5 -4l6 -5l13 -11q14 -13 33 -33l13 -13q7 -9 15 -15l2 -4q1 -2 1 -4l13 -8l2 -8t2 -6t1 -3l3 -19q3 -15 3 -32q0 -9 -1 -12v-3q0 -30 -37 -63q-2 -5 -17 -16q-3 -1 -6.5 -2t-6 -2t-3.5 -1l16 -16l20 -20q4 -5 13 -14
q4 -5 9 -10q3 -3 4 -8q3 -6 3 -8q0 -4 1 -9q0 -2 0.5 -4.5t1 -4t0.5 -2.5q3 -15 3 -32q0 -27 -18 -54q-18 -29 -37 -40q-10 -4 -24 -6h-7q-3 -1 -7 -1t-8 1h-9q-55 4 -72 18q-19 15 -20 52q0 23 1 31q0 1 -1 3t-1 3t2 9q-2 2 -2 4t2 4l-1 3v2q0 2 -1 2q1 1 19 3q2 0 5 1h6h9
q3 -1 7 -1q16 0 17 -4v-7q-1 -4 -1 -11q0 -9 2 -21q7 -34 32 -34q3 0 6 1h6q6 0 13 4q6 4 7 8q5 5 5 13q0 1 0.5 2.5t1 4t0.5 4.5v9v11q-1 5 -1 13q-2 15 -14 30q-14 17 -27 30q-5 4 -18 15t-21 18l-16 16q-18 6 -35 36q-17 29 -17 59q0 38 31 55q18 11 57 20q10 3 24 3
l-44 38l-16 17l-8 8q-1 1 -5 4.5t-7 6.5q-8 6 -19 30q-12 23 -12 49q0 14 2 24q1 5 10 14q8 8 18 13q20 13 57 21q15 4 43 4q27 0 39 -4zM114 375v-1q0 -10 2 -22q7 -34 32 -34q3 0 6 1h6q5 0 13 5q6 4 7 8q4 4 4 7v14q0 13 -4 20q-5 8 -14 11q-4 2 -13 2h-5q-1 -1 -4 -1
q-15 -1 -27 -8z" />
    <glyph glyph-name="dieresis" unicode="&#xa8;" horiz-adv-x="150" 
d="M148 862q9 0 10 -7q1 -2 1 -12q0 -12 -1 -17q0 -14 -3 -22q-2 -8 -8 -11q-6 -4 -14 -5h-5q-7 0 -13 4q-11 2 -16 13q-4 7 -4 19q1 19 5 26q8 15 13 17l2 1h2h6q3 1 5 1h2l2 -1h3q2 -2 8 -2q4 -4 5 -4zM60 862q10 0 10 -7q1 -2 1 -12q0 -12 -1 -17q0 -16 -2 -22
q-2 -8 -9 -11q-4 -4 -13 -5h-5q-6 0 -14 4q-12 4 -15 13q-5 12 -5 19q2 17 6 26q4 11 12 17l2 1h3q2 0 5 1h5h2q3 0 5 -1q6 -2 8 -2l2 -2q2 -2 3 -2z" />
    <glyph glyph-name="copyright" unicode="&#xa9;" horiz-adv-x="502" 
d="M96 583v-16v-2v-3q0 -2 -2 -18q2 -8 2 -20v-20v-45v-46v-42v-20q0 -13 3 -19q-3 -4 -3 -17t3 -21l14 -210q8 -18 21 -24q14 -8 45 -9q30 -3 105 -3q24 0 46 3h12q10 0 11 1q6 0 11 1q9 0 10 2q1 0 4 1.5t5 1.5q7 1 9 5q2 5 6 9q3 3 5 11l3 14q2 12 2 20q0 16 -1 21
q3 10 3 40q1 11 1 53v25v17v10q1 5 1 27q0 11 -1 18v15q0 27 -1 34v62q0 36 -3 51q1 6 1 24q0 13 2 21v36q-1 4 -1.5 14t-0.5 15v27q-4 14 -4 18q-2 12 -6 17q-5 6 -11 10q-37 20 -159 20h-19q-37 0 -65 -2q-21 -3 -30 -12q-10 -12 -10 -20q0 -3 -0.5 -7.5t-1 -11.5
t-0.5 -12q-2 -25 -6 -44zM238 756q18 0 101 -4q56 -7 77 -16q12 -9 21 -20q11 -16 17 -26q15 -28 18 -147q0 -12 1 -23v-26v-29q0 -6 0.5 -17.5t1.5 -16.5v-21v-51q1 -19 1 -81v-25v-45q0 -16 -1 -28v-26q-1 -24 -4 -58q-1 -3 -1.5 -10.5t-0.5 -11.5q-2 -18 -2 -19
q-2 -7 -4.5 -12.5t-4 -9t-1.5 -4.5q-4 -10 -11 -20l-5 -5q-4 -3 -8 -4l-8 -4l-8 -4q-42 -7 -143 -7h-27q-68 1 -102 5q-51 5 -61 11q-3 3 -5 6t-5 6q-9 9 -12 20q-3 5 -9 26q-7 22 -13 72q0 9 -1 17q-2 14 -3 19q0 2 -0.5 4.5t-1 7t-0.5 7.5q-2 14 -3 19q1 3 1 14q0 7 -1 13
v14v5q0 12 -1 22t-1 24v50v47q0 39 1 49v11q0 11 1 21v21q3 67 6 115q1 3 4 39q3 17 4 19q0 10 2 14q3 7 4 11q1 2 2 5t2 4q6 12 11 17q8 9 29 22q43 8 72 10q45 3 71 4zM331 612q7 -7 13 -19q1 -2 2.5 -6t2.5 -6q4 -10 5 -13q0 -2 2 -16q2 -12 3 -17q2 -34 2 -42v-21v-15
v-6v-4q1 -1 1 -4q0 -5 -3 -10q-4 -5 -19 -10q-6 -2 -9 -2q-7 0 -9 1q-10 1 -15 4q-5 1 -10 6v4q-1 1 -1 4q0 5 1 7v10q-1 5 -1 11v8v14q0 22 -3 39q-9 51 -40 51q-13 0 -24 -8q-10 -7 -14 -22q-1 -3 -5 -13q-3 -9 -5 -13l-2 -12q0 -1 -0.5 -2.5t-1 -4t-0.5 -4.5v-13v-8
q0 -19 -1 -24q0 -50 3 -106q3 -57 3 -67q1 -2 1.5 -6.5t0.5 -6.5q1 -5 1 -10q0 -3 1 -5q0 -4 1 -5v-4q5 -19 12 -32q7 -12 21 -20q12 -10 20 -10t23 12q4 4 7 9q3 10 4 15q5 17 5 25q2 10 2 29v16q0 10 1 13q0 34 4 46q2 5 16 7h6q3 1 7 1t7 -1h7q11 -6 15 -10q0 -16 1 -22
v-13q0 -10 1 -13v-31q0 -3 -2 -33q-1 -7 -10 -32q-2 -6 -2 -11q-1 -1 -2.5 -5t-2.5 -5q-2 -4 -4 -10q-6 -17 -11 -25q-8 -13 -15 -17q-6 -6 -21 -8q-7 -4 -25 -4q-7 1 -30 1q-22 4 -29 7q-12 4 -21 11q-7 4 -15 17t-12 25q-7 20 -8 32q-4 7 -9 38l-7 43q-12 149 -12 152
l1 -7q0 5 2 35q1 9 4 40q6 33 7 36q0 3 10 31q5 12 13 25q6 11 17 20q8 9 25 14q5 4 15 5q13 2 14 3h10q14 0 21 -3q21 -3 33 -10q15 -8 27 -20z" />
    <glyph glyph-name="ordfeminine" unicode="&#xaa;" horiz-adv-x="243" 
d="M85 711q-1 -1 -3 -8l-9 -28q0 -7 -1 -9q0 -41 8 -52l4 -4t4 -3l1 -1q1 0 4 -4t5 -4q1 0 3 -2t8 -4q2 0 11 -4t15 -4q10 0 16 2q13 3 17 12l5 39q0 2 -1 1t-1 1q1 1 1.5 3.5t0.5 3.5v31v3q-1 2 -1 4q0 4 1 7v6q0 18 -16 21q-9 4 -33 4q-4 0 -8 -1h-10q-8 -1 -10 -3
q-6 -2 -11 -7zM220 517v-56h-1h-5q-1 1 -5 1q-7 0 -11 -1h-13q-14 0 -16 1l-15 -1l-34 -1q-11 0 -19 -1q-13 0 -16 -1h-12l-47 1q0 6 -1 15v14v11v18q16 -2 59 -2h5q9 3 24 3h10h16h13h41q17 -1 27 -1zM225 770q1 0 2 -1l2 -4q1 -2 1 -7v-10l-1 -4v-5v-4v-12q0 -179 -1 -184
l-1 -1v-2l1 -1l-1 -1h-5q-10 -2 -18 -2q-10 0 -16 2q-4 0 -6 1h-5q-2 -2 -4 0h-2h-1v12q-1 -1 -3 -1q-18 -3 -21 -3h-4h-17h-8q-5 0 -23 3l-18 3q-17 5 -29 12q-3 3 -6 7l-3 3l-2 2q-1 2 -2.5 4.5t-3.5 4.5l-1 2q-1 2 -1 3t-1 3t-1 3q-11 30 -11 65q0 43 21 79q20 32 62 32
h10h12h6q1 -1 3.5 -1.5t3.5 -0.5q3 -1 7 -1l22 -3q1 -1 2 -1q2 -1 3 -1q2 -1 5 -1v6q0 6 11 6h7h12h14h3l7 -1z" />
    <glyph glyph-name="guillemotleft" unicode="&#xab;" horiz-adv-x="327" 
d="M131 360l3 3q2 3 7 9t11 13q18 22 20 29q5 6 13 18l13 19l10 13l8 13h3q3 1 9 1q4 1 13 1h17q21 0 26 -1h4q9 0 9 -2v-1q0 -2 -5 -5q-2 -2 -3 -4l-4 -4q-3 -3 -5 -6l-5 -5l-23 -29q-1 -1 -5 -7t-5 -7l-2 -3q-2 -3 -4 -5l-8 -8l-11 -14l-40 -49l46 -57l15 -18l8 -8
q1 -2 2.5 -3.5l2.5 -2.5l2 -2t1 -2l13 -18l30 -36l2 -2v-1q-5 -1 -19 -1q-5 -1 -23 -1h-15q-19 0 -25 2q0 1 -5 9q-2 2 -4 6t-3 5l-6 12q-6 6 -13 14q-3 6 -6 8l-5 10l-13 17q-12 18 -30 36zM29 360l3 3q2 3 6.5 9t10.5 13q19 24 21 29q5 6 13 18l12 19l10 13l9 13h3
q3 1 9 1q4 1 12 1h18q20 0 25 -1h4q10 0 10 -2v-1q0 -1 -6 -5q-2 -2 -3 -4l-4 -4q-3 -3 -5 -6l-3 -3l-1 -2l-23 -29q-4 -4 -6 -7q-4 -6 -5 -7l-2 -3q-2 -3 -4 -5t-4 -4.5t-3 -3.5l-11 -14l-40 -49l46 -57l14 -18q4 -4 8 -9l9 -9l13 -18l30 -36l2 -2v-1q-5 -1 -20 -1
q-5 -1 -22 -1h-16q-18 0 -24 2q0 1 -5 9q-6 8 -8 11l-6 12l-2 2q-1 2 -4 5.5t-6 6.5q-2 4 -6 8l-5 10l-14 17q-14 21 -29 36z" />
    <glyph glyph-name="logicalnot" unicode="&#xac;" horiz-adv-x="299" 
d="M269 182h-56v2q1 1 1 4v6q0 9 -1 17v19v8v9q-1 1 -3 16v12v14q-5 0 -6 1l-16 -1l-33 -1q-11 0 -19 -1q-13 0 -16 -1h-12l-65 1q0 6 -1 15v14v11v18q16 -2 77 -2h5q9 3 23 3h11h16h12h47q23 -1 35 -1v-4h1q0 -10 -1 -23v-29h-1v-25v-5q0 -1 2 -77z" />
    <glyph glyph-name="uni00AD" unicode="&#xad;" horiz-adv-x="299" 
d="M268 345v-56h-2h-4q-1 1 -5 1q-9 0 -18 -1h-19q-14 0 -16 1l-16 -1l-33 -1q-11 0 -19 -1q-13 0 -16 -1h-12l-65 1q0 6 -1 15v14v11v18q16 -2 77 -2h5q9 3 23 3h11h16h12h47q23 -1 35 -1z" />
    <glyph glyph-name="registered" unicode="&#xae;" horiz-adv-x="502" 
d="M221 432q0 -32 1 -42v-17q0 -3 1 -4v-4v-5l4 -4l4 -2h2h5q4 0 7 4l1 1q1 1 5 3l4 4q38 57 38 115q0 23 -5 35q-6 9 -26 14q-2 1 -6 1.5t-6 0.5q-8 0 -14 2q-1 0 -4 -1.5t-4 -1.5t-2 1h-2q-9 -2 -9 -17q0 -6 3 -33t3 -50zM251 590q54 -1 83 -26q27 -24 27 -85v-11
q-1 -5 -1 -11q0 -5 -1 -10q0 -2 -0.5 -5t-1 -5t-0.5 -3v-2q0 -5 -1 -8q-1 -4 -1 -8q-8 -25 -17 -44q-9 -17 -21 -27q-8 -7 -17 -13l-22 -10l39 -13q26 -8 35 -27q9 -20 9 -61q0 -27 -1 -33q0 -10 -1 -13q0 -6 2 -8q-6 -6 -15 -6h-32q-15 1 -15 3q0 9 -1 22q-2 26 -3 37
q-2 22 -2 25q-2 8 -4 13q-3 6 -4 7q-3 0 -10 3q-2 1 -6 2.5t-6 2.5q-33 12 -35 12t-4 -17q-1 -15 -3 -41q-1 -17 -1 -26q0 -14 -1 -17v-13q0 -2 1 -3v-3q0 -1 -1 -2v-2q0 -5 -37 -5q-34 0 -35 3t-1 16q0 1 0.5 10t2 30.5t2.5 43.5q0 2 2 20v22q0 12 1 21v21q0 3 1 4v4v3
q-1 1 -1 4q0 5 1 8v6v3q2 14 2 16q-1 4 -1 19v54q0 12 2 22q-2 10 -2 12q0 4 1 7v7q1 5 1 21q4 45 9 47q31 7 59 7l17 -1q6 0 8 1zM238 756q18 0 101 -4q56 -7 77 -16q12 -9 21 -20q11 -16 17 -26q15 -28 18 -147q0 -12 1 -23v-26q0 -15 1 -28q0 -26 1 -35v-21v-51
q1 -19 1 -81v-25v-45v-28q-1 -12 -1 -26q-1 -24 -4 -58q-1 -3 -1.5 -10t-0.5 -11q-2 -18 -2 -20q-2 -7 -4.5 -12.5t-4 -9t-1.5 -4.5q-4 -10 -11 -20q-2 -2 -5 -4q-3 -3 -8 -5l-8 -4l-8 -4q-42 -7 -143 -7h-27q-68 1 -102 5q-51 5 -61 11q-3 3 -5 6t-5 6q-9 9 -12 20
q-3 5 -9 26q-7 22 -13 72q0 9 -1 17q-2 14 -3 19q0 2 -0.5 4.5t-1 7t-0.5 7.5q-2 14 -3 19q1 3 1 14v13q-1 6 -1 14v5q0 12 -1 22t-1 24v50v47q0 39 1 49v11q0 12 1 21v21q3 67 6 115q1 3 4 39q0 1 1.5 8t2.5 11l2 14q3 6 5 11q2 8 3 9q6 12 11 17q8 9 29 22q43 8 72 10
q45 3 71 4zM105 639l-1 -3q-2 -4 -2 -6q0 -14 -3 -21q-3 -3 -3 -8v-5q0 -7 -2 -13q0 -6 1 -9t1 -7v-2v-3q0 -2 -2 -18q2 -8 2 -20v-20v-45v-46v-42v-20q0 -13 3 -19q-3 -4 -3 -17t3 -21q0 -37 10 -115q2 -5 3 -37q1 -31 5 -40q9 -19 19 -28q9 -10 45 -18q38 -8 103 -8
q24 0 46 3q34 5 51 21q19 19 26 66q3 10 3 40q1 11 1 53v25v17v10q1 5 1 27v18q-1 7 -1 15q0 27 -1 34v62q0 36 -3 51q1 6 1 24q0 13 2 21v36q-1 41 -10 63t-24 32q-16 10 -61 18q-46 8 -87 8q-116 0 -123 -53z" />
    <glyph glyph-name="macron" unicode="&#xaf;" horiz-adv-x="173" 
d="M150 805v-56l-3 1h-4h-5q-9 0 -18 -1h-19q-48 -4 -59 -4q-15 0 -17 1v16q-1 9 -1 14v10v19q4 -1 23 -1q17 0 40 1h63z" />
    <glyph glyph-name="degree" unicode="&#xb0;" horiz-adv-x="243" 
d="M186 643v-9q0 -16 -9 -32t-33 -22q-3 0 -7 -0.5t-6 -0.5h-3h-12h-5q-2 0 -7.5 0.5t-8.5 0.5l-12 3q-7 1 -21 8q-2 2 -4 5l-2 2l-2 2q-2 4 -4 4q0 2 -1 4l-1 4q-7 20 -7 45q0 33 13 54q15 22 44 22h6h9l14 -2h5q4 0 5 -1q3 0 4 -1q44 -14 44 -63q1 -2 1 -6v-17zM91 691
q-2 -2 -3 -4v-1q0 -3 -1 -4q1 0 1 -1v-1l-1 -2q0 -4 -1 -5q0 -4 -1 -6q-1 -4 -1 -15q0 -18 4 -24l4 -4l3 -3q1 0 3 -1h1l10 -3q3 -1 12 -1q7 0 10 1q7 3 11 10q2 1 2 10q1 0 3 5v2q-1 0 -1 1q2 4 2 17q0 26 -24 32l-4 1l-4 2q-1 1 -6 1h-7l-4 -2h-2q-5 -3 -6 -5z" />
    <glyph glyph-name="plusminus" unicode="&#xb1;" horiz-adv-x="297" 
d="M267 211v-56h-2h-4q-1 1 -5 1q-9 0 -18 -1h-19q-14 0 -16 1l-16 -1l-33 -1q-11 0 -19 -1q-13 0 -16 -1h-13l-64 1q0 6 -1 15v14v11v18q16 -2 77 -2h5q9 3 23 3h11h16h12h47q23 -1 35 -1zM267 395v-56h-2h-4q-1 1 -5 1q-9 0 -18 -1h-19q-14 0 -16 1l-16 -1h-4q1 -2 1 -8
v-13l-1 -64q-6 0 -15 -1h-14h-11h-18q2 16 2 77v5v2q-2 -1 -8 -1h-13l-64 1q0 6 -1 15v15v10v18q16 -2 77 -2h5h1v4v47q1 23 1 35h56v-1q0 -3 -1 -5v-5v-18q1 -8 1 -19q0 -14 -1 -16l1 -16v-3h4q25 0 47 -1h35z" />
    <glyph glyph-name="uni00B2" unicode="&#xb2;" horiz-adv-x="221" 
d="M105 375h-2q-13 -1 -35 -1q-20 0 -20 2v4v4q0 8 -1 15t-1 22l-2 14l-1 17v5v12q0 13 1 17q3 29 13 44l42 69q8 10 11 16l5 11l2.5 5t1.5 4l4 6l4 8q17 29 17 32q2 18 2 19q0 13 -6 22q-5 8 -11 8h-3q-11 0 -17 -7q-5 -6 -6 -10l-2 -8q-2 -8 -3 -11q-2 -10 -3 -24
q-1 -3 -12 -3q-26 0 -26 7q1 1 1 7q1 3 1 8t1 8q2 6 2 9v2q3 13 5 18q2 6 4 10q3 6 3 7q6 10 11 13q18 15 43 15t40 -15q4 -4 8 -12q6 -9 6 -12q4 -7 4 -11v-6q2 -6 2 -12q0 -2 -1 -3v-3q-3 -24 -25 -56l-10 -17l-13 -24q-1 -2 -16 -31q-32 -52 -40 -85l-2 -6q-1 -3 -1 -7
v-13q0 -10 1 -13q5 -27 8 -29q6 -2 37 -2h13q9 -1 19 -1h3q4 0 7 1h7h3h6h5l-2 -40q-3 1 -9 1h-17q-9 -1 -17 -1q-12 0 -17 1h-12q-2 1 -5 1z" />
    <glyph glyph-name="uni00B3" unicode="&#xb3;" horiz-adv-x="228" 
d="M121 729q-3 0 -5 -1t-4 -1q-7 0 -14 -4q-2 -1 -14 -24q0 -1 -1 -1q0 -2 -6 -2q-10 0 -22 3t-12 6l1 1l6 17l2 6q0 1 0.5 2.5t1.5 2.5q12 25 38 28q10 2 13 2h8q5 0 7 1h10q4 -1 8 -1q1 -1 7 -1q1 0 4 -0.5t4 -1.5t2 -1t2 -1q7 -1 11 -7q27 -19 27 -94l-1 -15
q-1 -5 -8 -17q-3 -8 -4 -10q-3 -6 -3 -7q-2 -2 -3 -5q-2 -3 -5 -6q2 -2 10 -12q13 -28 15 -37q1 -12 1 -45q0 -58 -11 -102q-4 -10 -7 -14q-2 -5 -11 -10q-3 -6 -11 -8q-1 0 -2 -1t-2 -1q-2 -1 -8 -1q-1 0 -4 -1q-2 0 -3 -1h-8q-4 -1 -10 -1q-2 1 -7 1h-8q-3 0 -13 2l-11 3
h-1q-1 1 -3 2.5t-4 2.5q-2 0 -10 5l-1 2l-4 4q0 1 -1.5 4.5t-2.5 5.5l-2 6q0 1 -0.5 3t-1.5 3t-1 16q0 6 13 10q15 5 22 5q3 0 3 -1l1 -8q1 -19 10 -23q8 -5 14 -5q2 0 4 -1t5 -1h3q13 2 19 23q7 17 11 38q0 6 0.5 13t0.5 8q0 9 -1 16v17v5q-1 3 -1 7q0 46 -30 46h-1h-9
q-3 1 -8 1h-6q-5 0 -5 23q0 15 5 17q3 -1 10 -1q6 0 8 1h3h7q7 0 13 8q6 5 11 16q4 8 4 29v11q0 50 -31 50q-2 0 -3 1z" />
    <glyph glyph-name="acute" unicode="&#xb4;" horiz-adv-x="174" 
d="M146 800q-3 -5 -7 -9.5t-18.5 -20t-32.5 -36.5q-4 -10 -31 -10q-3 0 -32 4q8 16 20 33l13 15q9 13 13 18q5 7 11 9q8 4 39 4q25 0 25 -5v-2z" />
    <glyph glyph-name="mu" unicode="&#xb5;" horiz-adv-x="351" 
d="M114 751v-59v-27v-27q-1 -13 -1 -31q0 -38 1 -62q0 -44 1 -59v-27v-49v-54v-7q0 -35 1 -44q0 -6 2 -38q0 -26 1 -33q0 -9 -1 -18t-1 -19v-38q0 -54 8 -70q8 -15 39 -18q2 -2 9 -2q6 0 11 1q4 1 9 1h5q8 0 15 4q13 11 16 16q9 16 14 31q7 26 8 46q3 46 4 59q0 22 -1 28v30
q0 24 -1 31q1 7 1 34v42v21q-1 8 -1 18v37q0 27 1 34v10v20q-1 7 -1 29q0 8 1 13v13v23v12q0 7 1 9q0 34 -1 43v37v10v18v20v6v1q1 4 12 4h5q13 0 30 -5q16 -4 16 -11v-2v-8q1 -3 1 -9l1 -39v-39l3 -17v-8q-1 -4 -1 -10q1 -5 1 -23v-28v-15q1 -7 1 -16v-34v-38v-39v-39v-40
v-19q0 -14 -1 -16q1 -2 1.5 -6.5t0.5 -6.5q1 -5 1 -9q-1 -1 -1 -6q0 -2 2 -8q1 -3 1 -7l-2 -8q-2 -8 -2 -9q0 -4 1 -5v-29v-77l1 -39v-35v-29v-8v-16q0 -16 -2 -22q0 -4 -26 -4q-31 0 -34 6q3 12 3 51l-11 -15q-9 -14 -14 -18q-10 -10 -20 -12q-10 -5 -28 -5t-38 7
q-16 6 -39 24l-1 1q0 -177 -1 -192q0 -4 -1 -7v-7q0 -4 -19 -7q-1 1 -9 1h-6q-11 0 -19 2q-18 8 -18 13l2 449q0 35 1 44v43v27q0 65 1 114t1 201q0 54 1 57q0 1 5 1q17 0 43 -8q18 -7 18 -10z" />
    <glyph glyph-name="paragraph" unicode="&#xb6;" horiz-adv-x="430" 
d="M54 656q1 3 7 15q2 3 5.5 7t3.5 5q1 9 16 20q6 7 20 17q22 13 47 20q17 4 30 6q15 4 17 4q4 1 9 2h3h89h12q25 0 47 -1h35v-57v-30v-17q1 -7 1 -17v-14v-26v-22q1 -9 1 -22v-49v-54v-67v-32q1 -13 1 -30q-2 -34 -2 -38q0 -12 1 -15v-48q0 -177 -1 -197q0 -5 -1 -8v-6
q0 -4 -18 -7q-1 1 -9 1h-7q-10 0 -18 2q-18 8 -18 13l2 358q0 35 1 44v43v27v15v38v19q1 8 1 18v68q1 28 1 54l-15 -1l-33 -1h-6q0 -11 2 -25q-2 -12 -2 -30v-14v-11q0 -17 -1 -33v-40q-1 -7 -1 -36q0 -22 1 -28q0 -4 -3 -79l-2 -90q0 -23 -1 -40v-36v-10q0 -16 -1 -27v-25
q0 -16 -1 -27q0 -18 -1 -23q0 -35 -2 -57q0 -20 -2 -32v-6v-10v-3l-2 -9q0 -4 -12 -4q-3 0 -4 1q-8 -2 -10 -2q-5 0 -9 1t-10 1q-11 0 -13 3q-1 1 -1 7v5q1 3 1 8v1v24q2 76 2 106v102v7q-24 0 -31 1q-1 0 -2.5 0.5t-3 0.5t-4 0.5t-4.5 0.5t-5 0.5t-5 0.5l-2 1q-20 7 -24 11
q-17 5 -20 13q-9 7 -20 20q-6 9 -14 26q-16 41 -21 84q-1 10 -4 37v9q0 6 -1 11v11v4q1 2 1 4q0 10 -1 18q0 15 -1 19v24q0 54 7 81q2 5 3 11z" />
    <glyph glyph-name="periodcentered" unicode="&#xb7;" horiz-adv-x="143" 
d="M101 83q9 0 11 -8q1 -2 1 -14q0 -13 -1 -18q0 -17 -3 -26q-1 -9 -9 -12q-10 -3 -15 -4h-6q-10 0 -16 3q-10 3 -16 14q-5 13 -5 22q2 19 6 29q7 16 13 19h2q1 1 4 1q2 0 5 1t6 1l1 -1h2q3 0 6 -2q1 0 3.5 -0.5t4.5 -0.5q1 0 3 -2t3 -2z" />
    <glyph glyph-name="cedilla" unicode="&#xb8;" horiz-adv-x="287" 
d="M128 8l47 -1v-36l20 -15l7 -8l5 -6l2 -4l2 -4q0 -2 2 -4l2 -4q0 -4 1 -5q0 -3 1 -6l1 -5v-3q1 -1 1 -2q0 -6 -3 -9v-6q0 -4 -4 -9q0 -2 -7 -9q-1 -2 -9 -9q-18 -13 -44 -13q-47 0 -58 23q-1 0 -3 6q-2 2 -3 5l-1 2q-3 4 -5 16v1q0 1 -2 7q0 1 -0.5 3t-0.5 3q-1 1 -1 3
t-1 3q-1 4 -1 6q0 6 28 6q12 0 15 -3q1 -1 1.5 -4.5t0.5 -5.5q0 -3 1 -6v-3q1 -2 3 -8l3 -6q2 -6 5 -9q6 -6 17 -6h3q7 0 13 7q6 6 6 17l-2 8v7q-4 10 -13 19q-14 12 -20 16l-8 6q-1 1 -1 45z" />
    <glyph glyph-name="uni00B9" unicode="&#xb9;" horiz-adv-x="174" 
d="M139 759q1 -3 1 -40q0 -4 1 -7v-10v-7v-13v-22v-24v-27v-34q0 -8 1 -15v-15q-1 -4 -1 -19v-8v-23v-83v-21v-3q-1 -2 -1 -4t-11 -4l-2 1h-3h-4q-8 0 -11 1q-12 5 -12 6l2 179v22v21v14v7v18q0 5 1 9v10v35v16l-2 -2l-2 -2q-6 -3 -12 -9l-9 -9l-9 8l-8 4q-1 1 -3 2.5
t-3 2.5l-2 1l-7 6q2 1 17 14q8 9 15 14q3 2 6.5 3.5t5.5 2t3 1.5l2 1l6 2l3 1q1 1 4 1h6q1 1 6 1h9h1q12 -2 12 -3z" />
    <glyph glyph-name="ordmasculine" unicode="&#xba;" horiz-adv-x="243" 
d="M220 517v-56h-1h-4q-2 1 -6 1q-7 0 -11 -1h-13q-14 0 -16 1l-15 -1l-34 -1q-11 0 -18 -1q-14 0 -17 -1h-12l-47 1v15q-1 9 -1 14v11v18q16 -2 59 -2h5q9 3 24 3h10h16h13h41q17 -1 27 -1zM87 709q-1 -1 -3 -8v-2q0 -3 -1 -4l1 -1v-2q0 -2 -2 -4q0 -5 -1 -7q0 -7 -1 -9
q-1 -8 -1 -25q0 -25 5 -32q2 -2 3 -4l3 -3q1 -1 5 -3l4 -2q2 0 3 -1h3q3 0 5 -1h4q3 -1 17 -1q12 0 15 1q13 4 17 12q1 1 4 15q2 2 3 8v2q0 3 -1 2q3 10 3 24q0 40 -36 48l-6 2l-6 2q-2 1 -8 1t-8 1q-10 -2 -11 -3q-7 -1 -10 -6zM227 637v-12q0 -24 -13 -47q-14 -24 -47 -32
q-18 -3 -21 -3h-4h-17h-8q-5 0 -23 3l-18 3q-17 5 -29 12q-3 3 -6 7l-3 3l-2 2q-1 2 -2.5 4.5t-3.5 4.5l-1 2q-1 2 -1 3t-1 3t-1 3q-11 30 -11 65q0 44 22 79q19 32 61 32h10h12q4 0 6 -1q5 0 8 -1t6 -1l22 -3q63 -19 63 -93q1 -1 1 -8v-2l1 7v-30z" />
    <glyph glyph-name="guillemotright" unicode="&#xbb;" horiz-adv-x="327" 
d="M197 360l-1 -64q-18 -18 -30 -36l-13 -17q-2 -4 -7 -9q-2 -2 -5 -9q-3 -3 -6 -6.5t-5 -5.5l-1 -2l-6 -12q-1 -1 -3 -5t-4 -6q-5 -8 -5 -9q-6 -2 -25 -2h-15q-18 0 -23 1l-19 1v1l2 2l29 36l14 18l8 10l8 8l14 18l47 57l-40 49l-12 14q-1 1 -3 3.5t-4 4.5t-4 5l-2 3
q-1 1 -5 7t-5 7l-24 29l-4 6l-5 5q-3 3 -4 5l-3 3q-5 3 -5 5v1q0 2 9 2h4q5 1 26 1h17h11q2 0 5.5 -0.5t5.5 -1.5h3l8 -13l10 -13l12 -19q4 -6 14 -18q3 -8 20 -28q5 -7 10.5 -13.5t7.5 -9.5zM299 360l-1 -64q-18 -18 -30 -36l-13 -17q-3 -6 -6 -9q-1 -2 -5 -9
q-7 -8 -13 -14l-6 -12q-1 -1 -3 -5t-4 -6q-5 -8 -5 -9q-6 -2 -25 -2h-15q-17 0 -22 1l-20 1v1l2 2l30 36l13 18l8 10l9 8l14 18l46 57l-40 49l-11 14q-1 1 -3 3.5t-4 4.5l-5 5l-2 3q-1 1 -5 7t-5 7l-23 29l-4 6l-6 5q-3 3 -4 5l-3 3q-5 3 -5 5v1q0 2 9 2h4q5 1 26 1h17h12
q2 0 5 -0.5t5 -1.5h3l8 -13l10 -13l13 -19q8 -12 13 -18q2 -6 21 -28q6 -7 10.5 -13.5t6.5 -9.5z" />
    <glyph glyph-name="onequarter" unicode="&#xbc;" horiz-adv-x="437" 
d="M263 166q0 3 -1 8v6q-1 4 -1 19v54q0 9 -0.5 20.5t-1 18t-0.5 10.5q-1 2 -1 8v7v10v5v2v10q-1 2 -1 8v7v8q0 3 15 3q23 0 23 -5q0 -3 1 -4v-5v-4q0 -5 -1 -6v-7q0 -6 1 -8q1 -1 1 -5v-7v-3v-50q1 -9 1 -40q0 -10 1 -13q-1 -3 -1 -11q3 -1 10 -1h3q10 2 14 2h6h10h14v13v5
v9v16q0 4 1 8v8v17l2 71v9q0 2 2 8q0 2 9 4q10 0 13 -1h2q6 0 6 -3q1 -1 1 -5v-5l2 -33v-16v-17q1 -3 1 -20q0 -6 1 -11v-11q1 -47 3 -75v-1l2 -81l1 -27v-18v-3q1 -1 1 -6v-6v-3q0 -3 1 -5v-5q2 -10 3 -22q0 -3 -10 -5q-16 -2 -18 -2h-3q-7 0 -7 2q-2 8 -3 19v20
q-1 4 -1 16q-2 2 -2 7v8v4v8v3l-1 13v28v15q-3 15 -3 17q1 1 1 8v5q-1 2 -1 4h-9l-19 -1h-12q-8 0 -10 -1h-7zM139 774q1 -3 1 -40q0 -4 1 -8v-8v-7v-14v-21v-25v-26v-34q0 -10 1 -17v-14q-1 -4 -1 -18v-8v-24v-83v-20v-5q-1 -1 -1 -3t-11 -4h-2q-1 1 -3 1h-4q-8 0 -11 1
q-12 5 -12 6l2 180v21v22v13v7v19q0 5 1 9v9v36v15l-2 -2l-2 -2q-6 -3 -12 -9l-3 -3q-3 -2 -6 -5l-9 7l-8 4q-1 1 -3 2.5t-3 2.5l-2 1l-7 6q3 2 16 15q3 3 8.5 7t7.5 6q3 2 6.5 3.5t5.5 2t3 1.5l2 1l6 2l3 1q1 1 4 1h6q1 1 6 1h9h1q12 -1 12 -3zM356 764l-3 -8
q-3 -8 -9.5 -29t-13.5 -42q0 -2 -2 -7t-4.5 -12.5t-4.5 -14.5q-1 -1 -1 -3q-1 -3 -1 -4l-2 -6q0 -1 -2 -5.5t-3 -7.5t-3 -8t-2 -6q-10 -33 -14 -44l-17 -49l-18 -53l-23 -68q-10 -27 -20 -61q-7 -16 -14 -38q-4 -9 -4 -15l-19 -49q-42 -126 -72 -207q-4 -11 -6 -15
q0 -4 -16 -7q-1 1 -8 1h-4q-9 0 -15 2q-11 6 -11 11q0 2 1 3l129 368q6 21 16 44l15 43l10 28q1 1 1.5 3.5t0.5 3.5t0.5 3.5t1.5 3.5l14 38q8 29 13 38l27 83q5 15 9.5 27.5t7.5 19.5l3 7l8 20l6 12q-1 1 -1 2v2h-1q0 1 8 1h6q3 1 9 1h12h2q14 -3 14 -6z" />
    <glyph glyph-name="onehalf" unicode="&#xbd;" horiz-adv-x="424" 
d="M311 8h-2q-13 -1 -36 -1q-19 0 -19 2v4v4q0 9 -1 16t-1 21q0 1 -2 15l-1 16v5v12q0 14 1 18q3 29 13 44l42 68q1 2 10 17l6 10l2.5 5t1.5 4l4 6l3 6l1 3q17 29 17 31q2 18 2 20q0 11 -5 21q-7 9 -12 9h-3q-12 0 -18 -8q-3 -4 -5 -10l-2 -8q-1 -4 -3 -10q-1 -7 -3 -25
q-1 -3 -12 -3q-26 0 -26 7q1 1 1 7q1 3 1 9q0 1 0.5 3.5t0.5 4.5q2 3 2 8v2q3 17 4 18q3 9 4 11t3 5q1 1 1 2q5 8 11 12q18 15 43 15t40 -15q5 -5 8 -11q6 -9 6 -12q4 -7 4 -12v-6q2 -6 2 -11v-3q-1 -1 -1 -3q-3 -25 -25 -57l-11 -17l-12 -24q0 -1 -2 -4.5t-6 -11t-8 -14.5
q-32 -52 -40 -85q0 -3 -1 -7q0 -1 -0.5 -3.5t-1.5 -3.5v-13q0 -9 1 -12q5 -28 8 -30q6 -2 37 -2h13q9 -1 19 -1h3q4 0 7 1h7h3h6h5l-2 -40q-3 1 -9 1h-17q-9 -1 -17 -1q-12 0 -17 1h-11q-3 1 -7 1zM356 764l-3 -8q-3 -8 -9.5 -29t-13.5 -42q0 -2 -2 -7t-4.5 -12.5
t-4.5 -14.5q-1 -1 -1 -3q-1 -3 -1 -4l-2 -6q0 -1 -2 -5.5t-3 -7.5t-3 -8t-2 -6q-10 -33 -14 -44l-17 -49l-18 -53l-23 -68q-10 -27 -20 -61q-7 -16 -14 -38q-4 -9 -4 -15l-19 -49q-42 -126 -72 -207q-4 -11 -6 -15q0 -4 -16 -7q-1 1 -8 1h-4q-9 0 -15 2q-11 6 -11 11
q0 2 1 3l129 368q6 21 16 44l15 43l10 28q1 1 1.5 3.5t0.5 3.5t0.5 3.5t1.5 3.5l14 38q8 29 13 38l28 83l19 54l8 20l6 12q-1 1 -1 2v2h-1q0 1 8 1h6q3 1 9 1h12h2q14 -3 14 -6zM139 774q1 -3 1 -40q0 -4 1 -7v-9v-7v-14v-21v-25v-26v-34q0 -9 1 -16v-15q-1 -4 -1 -18v-8
v-24v-83v-20v-4q-1 -2 -1 -4t-11 -4h-2q-1 1 -3 1h-4q-8 0 -11 1q-12 5 -12 6l2 180v21v22v13v7v19q0 5 1 9v9v36v15l-2 -2l-2 -2q-6 -3 -12 -9l-3 -3q-3 -2 -6 -5l-9 7l-8 4q-1 1 -3 2.5t-3 2.5l-2 1l-7 6q2 1 4 3l3.5 3.5t4.5 4t5 4.5q3 3 8.5 7.5t6.5 5.5q3 2 6.5 3.5
t5.5 2t3 1.5l2 1l6 2l3 2h4h6q1 1 6 1h9h1q12 -1 12 -3z" />
    <glyph glyph-name="threequarters" unicode="&#xbe;" horiz-adv-x="475" 
d="M301 166v8l-1 6q-1 4 -1 19v54q0 9 -0.5 20.5t-1 18t-0.5 10.5v8q0 6 -1 7v10v5v2v10q-1 2 -1 8v7v8q0 3 15 3q23 0 23 -5q0 -3 1 -4v-5v-4q0 -5 -1 -6q1 -1 1 -7v-8q1 -1 1 -5v-7v-3v-50q1 -9 1 -40q0 -10 1 -13q-1 -3 -1 -11q3 -1 10 -1h3q10 2 13 2h7h10h5h9v13v5v9
v16v8q1 3 1 8v17l2 71v9q0 2 2 8q0 2 9 4q10 0 13 -1h2q6 0 6 -3q1 -1 1 -5v-5l2 -33v-11v-5v-17q1 -3 1 -20v-11q1 -5 1 -11q1 -47 3 -75v-1l2 -81l1 -27v-18v-3q1 -1 1 -6v-6v-3v-5q1 -2 1 -5q1 -3 1.5 -10.5t0.5 -11.5q0 -3 -9 -5q-16 -2 -18 -2h-3q-7 0 -7 2l-2 7
q-1 7 -2 12v20q-1 4 -1 16v7q0 6 -1 8v4v8v3l-1 13v28v15q-3 15 -3 17q1 1 1 8v5q-1 2 -1 4h-9l-19 -1h-12q-9 0 -10 -1h-7zM394 764l-3 -8q-3 -8 -9.5 -29t-13.5 -42q-1 -7 -11 -34l-2 -6q0 -1 -1 -4q0 -2 -1 -3q0 -1 -2 -5.5t-3 -7.5t-3 -8t-2 -6q-10 -33 -14 -44l-17 -49
l-18 -53l-23 -68q-10 -27 -20 -61q-7 -16 -14 -38q-5 -12 -5 -15l-18 -49q-42 -126 -72 -207q-4 -11 -6 -15q0 -4 -16 -7q-1 1 -8 1h-4q-9 0 -15 2q-11 6 -11 11q0 2 1 3l129 368q6 21 16 44l15 43l10 28q1 1 1.5 3.5t0.5 3.5t0.5 3.5t1.5 3.5l14 38q8 29 13 38l27 84
q5 13 10 26.5t7.5 19.5t2.5 7l8 20l6 12q-1 1 -1 2v2h-1q0 1 8 1h6q3 1 9 1h12h2q14 -3 14 -6zM121 729q-3 0 -5 -1t-4 -1q-7 0 -14 -4q-2 -1 -14 -24q0 -1 -1 -1q0 -2 -6 -2q-10 0 -22 3t-12 6l1 1l6 17l2 6q0 1 0.5 2.5t1.5 2.5q12 25 38 28q10 2 13 2h8q5 0 7 1h10
q4 -1 8 -1q1 -1 7 -1q1 0 4 -0.5t4 -1.5t2 -1t2 -1q7 -1 11 -7q27 -19 27 -94l-1 -15q-1 -5 -8 -17q-3 -8 -4 -10q-3 -6 -3 -7q-2 -2 -3 -5q-2 -3 -5 -6q2 -2 10 -12q13 -28 15 -37q1 -12 1 -45q0 -58 -11 -102q-4 -10 -7 -14q-2 -5 -11 -10q-3 -6 -11 -8q-1 0 -2 -1t-2 -1
q-2 -1 -8 -1q-1 0 -4 -1q-2 0 -3 -1h-8q-4 -1 -10 -1q-2 1 -7 1h-8q-3 0 -13 2l-11 3h-1q-1 1 -3 2.5t-4 2.5q-2 0 -10 5l-1 2l-4 4q0 1 -1.5 4.5t-2.5 5.5l-2 6q0 1 -0.5 3t-1.5 3t-1 16q0 6 13 10q15 5 22 5q3 0 3 -1l1 -8q1 -19 10 -23q8 -5 14 -5q2 0 4 -1t5 -1h3
q12 2 20 23q9 27 10 38q1 10 1 21v16q-1 7 -1 17v5q-1 3 -1 7q0 46 -30 46h-1q-5 0 -8 1h-9h-6q-5 0 -5 23q0 15 5 17q3 -1 10 -1q6 0 8 1h3h7q7 0 13 8q6 5 11 16q4 8 4 29v11q0 50 -31 50q-2 0 -3 1z" />
    <glyph glyph-name="questiondown" unicode="&#xbf;" horiz-adv-x="272" 
d="M156 732q0 17 3 26q2 9 8 12q10 3 15 4h6q10 0 16 -3q10 -3 16 -14q5 -15 5 -22q-1 -17 -6 -28q-8 -17 -13 -20l-2 -1h-3q-3 0 -6 -1t-6 -1h-1l-2 1q-31 4 -31 35q0 3 1 6v6zM157 620l65 2v-12v-39q1 -19 1 -43q0 -35 -3 -47q-3 -11 -29 -73q-21 -49 -26 -64
q-2 -8 -7 -17l-6 -17q0 -3 -3 -10t-4 -12l-6 -17l-4 -13l-6 -16q-16 -52 -16 -65q-1 -5 -1 -21t1 -20q4 -59 25 -61h5q18 0 26 14q5 10 7 23v2q1 2 1.5 5.5t0.5 7.5q3 12 3 21q0 38 1 51q1 7 19 7q39 0 41 -15q0 -7 -1 -13v-15v-4q0 -7 -1 -12t-1 -12v-4v-3q-3 -22 -5 -35
q-5 -20 -9 -33q-6 -15 -15 -24q-26 -29 -65 -29t-64 28q-10 10 -14 18q-12 15 -12 23q-8 14 -8 20q0 7 1 9q-4 11 -6 25v13q2 38 5 50q4 13 24 65l14 38q10 30 19 48q1 3 22 64q31 65 31 176v36z" />
    <glyph glyph-name="Agrave" unicode="&#xc0;" horiz-adv-x="356" 
d="M123 854v2q0 5 25 5q31 0 39 -4q7 -3 12 -9l12 -18q2 0 13 -15q17 -25 21 -33q-29 -4 -33 -4q-27 0 -31 10q-15 17 -27 30t-16.5 18t-8.5 9.5t-6 8.5zM285 -11q-9 20 -9 53q-2 18 -2 23q0 2 -1 6t0 6q0 1 -2.5 24t-4.5 45q-4 54 -6 60q-17 3 -40 4q-5 0 -13 1h-17h-8
q-7 0 -13 1h-11h-10q-4 -1 -9 -1q-26 0 -28 -2t-5 -13q0 -4 -1 -14.5t-1 -16.5q-1 -4 -1.5 -8t-0.5 -7t-0.5 -5t-0.5 -3q-3 -15 -4 -19q-1 -5 -2.5 -11.5t-1.5 -8.5v-6q0 -16 -4 -32q-5 -53 -14 -75q-9 -3 -18 -3h-13q-29 0 -30 7v2l2 20q3 14 3 21q8 46 11 82q7 65 10 84
q3 23 4 27l2 10l2 10t1 6l4 28l6 37q5 17 6 35q0 1 2 17l4 17l5 33q7 56 15 103l8 40q2 20 9 42q0 1 1.5 9t2.5 13q2 14 3 17q15 70 21 110q3 6 12 9q7 4 37 4q39 0 87 -18q9 -29 9 -44v-7q2 -7 4 -25l2 -14q1 -7 1 -16l2 -34q2 -24 2 -29q3 -11 3 -30q2 -16 2 -33l3 -49
l3 -35q2 -33 10 -108l10 -73q4 -38 6 -55q5 -43 5 -44v-4q0 -20 4 -44q3 -22 5 -49t4 -49v-5q0 -4 1 -8.5t0 -6.5t-10 -5q-8 -2 -19 -3q-8 -4 -13 -4q-21 0 -21 10v1zM187 281h22h14q12 0 15 1l15 1l-2 43q-2 9 -3 41q0 8 -1 15v16l-3 36q0 12 -3 38l-9 69q-10 88 -16 114
q-8 37 -13 43l-1 -4q-2 -4 -4 -10l-3 -9l-8 -21q-3 -6 -10 -39q-28 -139 -29 -149l-7 -56q-1 -5 -2 -10.5t-1.5 -8.5l-1 -6t-0.5 -5v-1q0 -2 1 -3v-3q-1 -1 -1 -4t-1 -5q0 -1 -0.5 -4.5t-1.5 -4.5q0 -3 -1 -4q0 -5 -4 -28t-4 -35v-4q17 -4 39 -4q2 1 11 1h13z" />
    <glyph glyph-name="Aacute" unicode="&#xc1;" horiz-adv-x="356" 
d="M307 856q-3 -5 -7.5 -9.5t-18 -19t-32.5 -36.5q-5 -11 -31 -11q-4 0 -33 4q4 8 21 33l13 16q9 14 12 17q5 6 12 9q8 4 39 4q25 0 25 -5v-2zM285 -11q-9 20 -9 53q-2 18 -2 23q0 2 -1 6t0 6q0 1 -2.5 24t-4.5 45q-4 54 -6 60q-17 3 -40 4q-5 0 -13 1h-17h-8q-7 0 -13 1
h-11h-10q-4 -1 -9 -1q-26 0 -28 -2t-5 -13q0 -4 -1 -14.5t-1 -16.5q-1 -4 -1.5 -8t-0.5 -7t-0.5 -5t-0.5 -3q-3 -15 -4 -19q-1 -5 -2.5 -11.5t-1.5 -8.5v-6q0 -16 -4 -32q-5 -53 -14 -75q-9 -3 -18 -3h-13q-29 0 -30 7v2l2 20q3 14 3 21q8 46 11 82q7 65 10 84q3 23 4 27
l2 10l2 10t1 6l4 28l6 37q5 17 6 35q0 1 2 17l4 17l5 33q7 56 15 103l8 40q2 20 9 42q0 1 1.5 9t2.5 13q2 14 3 17q15 70 21 110q3 6 12 9q7 4 37 4q39 0 87 -18q9 -29 9 -44v-7q2 -7 4 -25l2 -14q1 -7 1 -16l2 -34q2 -24 2 -29q3 -11 3 -30q2 -16 2 -33l3 -49l3 -35
q2 -33 10 -108l10 -73q4 -38 6 -55q5 -43 5 -44v-4q0 -20 4 -44q3 -22 5 -49t4 -49v-5q0 -4 1 -8.5t0 -6.5t-10 -5q-8 -2 -19 -3q-8 -4 -13 -4q-21 0 -21 10v1zM187 281h22h14q12 0 15 1l15 1l-2 43q-2 9 -3 41q0 8 -1 15v16l-3 36q0 12 -3 38l-9 69q-10 88 -16 114
q-8 37 -13 43l-1 -4q-2 -4 -4 -10l-3 -9l-8 -21q-3 -6 -10 -39q-28 -139 -29 -149l-7 -56q-1 -5 -2 -10.5t-1.5 -8.5l-1 -6t-0.5 -5v-1q0 -2 1 -3v-3q-1 -1 -1 -4t-1 -5q0 -1 -0.5 -4.5t-1.5 -4.5q0 -3 -1 -4q0 -5 -4 -28t-4 -35v-4q17 -4 39 -4q2 1 11 1h13z" />
    <glyph glyph-name="Acircumflex" unicode="&#xc2;" horiz-adv-x="356" 
d="M184 866l55 4q12 1 14 -2q1 -2 3 -8q1 -2 2 -5l1.5 -4.5t0.5 -2.5q2 -5 4 -11t3 -10t1 -5l12 -36l-44 -4l-6 18q-1 3 -1.5 5.5t-0.5 3.5l-6 18l-5 8q-6 0 -18 -49q0 -6 -19 -6q-8 0 -32 2q4 14 6 19q8 15 10 25q1 2 1 7l2 4q2 0 2 3q0 1 0.5 2.5t1.5 2.5q5 21 12 21h1z
M285 -11q-9 20 -9 53q-2 18 -2 23q0 2 -1 6t0 6q0 1 -2.5 24t-4.5 45q-4 54 -6 60q-17 3 -40 4q-5 0 -13 1h-17h-8q-7 0 -13 1h-11h-10q-4 -1 -9 -1q-26 0 -28 -2t-5 -13q0 -4 -1 -14.5t-1 -16.5q-1 -4 -1.5 -8t-0.5 -7t-0.5 -5t-0.5 -3q-3 -15 -4 -19q-1 -5 -2.5 -11.5
t-1.5 -8.5v-6q0 -16 -4 -32q-5 -53 -14 -75q-9 -3 -18 -3h-13q-29 0 -30 7v2l2 20q3 14 3 21q8 46 11 82q7 65 10 84q3 23 4 27l2 10l2 10t1 6l4 28l6 37q5 17 6 35q0 1 2 17l4 17l5 33q7 56 15 103l8 40q2 20 9 42q0 1 1.5 9t2.5 13q2 14 3 17q15 70 21 110q3 6 12 9
q7 4 37 4q39 0 87 -18q9 -29 9 -44v-7q2 -7 4 -25l2 -14q1 -7 1 -16l2 -34q2 -24 2 -29q3 -11 3 -30q2 -16 2 -33l3 -49l3 -35q2 -33 10 -108l10 -73q4 -38 6 -55q5 -43 5 -44v-4q0 -20 4 -44q3 -22 5 -49t4 -49v-5q0 -4 1 -8.5t0 -6.5t-10 -5q-8 -2 -19 -3q-8 -4 -13 -4
q-21 0 -21 10v1zM187 281h22h14q12 0 15 1l15 1l-2 43q-2 9 -3 41q0 8 -1 15v16l-3 36q0 12 -3 38l-9 69q-10 88 -16 114q-8 37 -13 43l-1 -4q-2 -4 -4 -10l-3 -9l-8 -21q-3 -6 -10 -39q-28 -139 -29 -149l-7 -56q-1 -5 -2 -10.5t-1.5 -8.5l-1 -6t-0.5 -5v-1q0 -2 1 -3v-3
q-1 -1 -1 -4t-1 -5q0 -1 -0.5 -4.5t-1.5 -4.5q0 -3 -1 -4q0 -5 -4 -28t-4 -35v-4q17 -4 39 -4q2 1 11 1h13z" />
    <glyph glyph-name="Atilde" unicode="&#xc3;" horiz-adv-x="356" 
d="M119 821q0 1 -0.5 2t-0.5 2q0 15 7 30q12 27 56 27q26 -3 41 -16q14 -12 15 -22q3 -13 9 -17q1 -1 3 -1q5 0 5 23q0 5 -1 8v8h50q3 -9 3 -23q0 -42 -32 -55q0 -1 -20 -7q-19 0 -30 8q-15 8 -28 29q-11 20 -16 22l-6 -2q-2 -6 -2 -16q0 -3 4 -15l3 -13l-54 -6v7l-4 14
q-2 8 -2 12v1zM285 -11q-9 20 -9 53q-2 18 -2 23q0 2 -1 6t0 6q0 1 -2.5 24t-4.5 45q-4 54 -6 60q-17 3 -40 4q-5 0 -13 1h-17h-8q-7 0 -13 1h-11h-10q-4 -1 -9 -1q-26 0 -28 -2t-5 -13q0 -4 -1 -14.5t-1 -16.5q-1 -4 -1.5 -8t-0.5 -7t-0.5 -5t-0.5 -3q-3 -15 -4 -19
q-1 -5 -2.5 -11.5t-1.5 -8.5v-6q0 -16 -4 -32q-5 -53 -14 -75q-9 -3 -18 -3h-13q-29 0 -30 7v2l2 20q3 14 3 21q8 46 11 82q7 65 10 84q3 23 4 27l2 10l2 10t1 6l4 28l6 37q5 17 6 35q0 1 2 17l4 17l5 33q7 56 15 103l8 40q2 20 9 42q0 1 1.5 9t2.5 13q2 14 3 17
q15 70 21 110q3 6 12 9q7 4 37 4q39 0 87 -18q9 -29 9 -44v-7q2 -7 4 -25l2 -14q1 -7 1 -16l2 -34q2 -24 2 -29q3 -11 3 -30q2 -16 2 -33l3 -49l3 -35q2 -33 10 -108l10 -73q4 -38 6 -55q5 -43 5 -44v-4q0 -20 4 -44q3 -22 5 -49t4 -49v-5q0 -4 1 -8.5t0 -6.5t-10 -5
q-8 -2 -19 -3q-8 -4 -13 -4q-21 0 -21 10v1zM187 281h22h14q12 0 15 1l15 1l-2 43q-2 9 -3 41q0 8 -1 15v16l-3 36q0 12 -3 38l-9 69q-10 88 -16 114q-8 37 -13 43l-1 -4q-2 -4 -4 -10l-3 -9l-8 -21q-3 -6 -10 -39q-28 -139 -29 -149l-7 -56q-1 -5 -2 -10.5t-1.5 -8.5l-1 -6
t-0.5 -5v-1q0 -2 1 -3v-3q-1 -1 -1 -4t-1 -5q0 -1 -0.5 -4.5t-1.5 -4.5q0 -3 -1 -4q0 -5 -4 -28t-4 -35v-4q17 -4 39 -4q2 1 11 1h13z" />
    <glyph glyph-name="Adieresis" unicode="&#xc4;" horiz-adv-x="356" 
d="M285 -11q-9 20 -9 53q-2 18 -2 23q0 2 -1 6t0 6q0 1 -2.5 24t-4.5 45q-4 54 -6 60q-17 3 -40 4q-5 0 -13 1h-17h-8q-7 0 -13 1h-11h-10q-4 -1 -9 -1q-26 0 -28 -2t-5 -13q0 -4 -1 -14.5t-1 -16.5q-1 -4 -1.5 -8t-0.5 -7t-0.5 -5t-0.5 -3q-3 -15 -4 -19q-1 -5 -2.5 -11.5
t-1.5 -8.5v-6q0 -16 -4 -32q-5 -53 -14 -75q-9 -3 -18 -3h-13q-29 0 -30 7v2l2 20q3 14 3 21q8 46 11 82q7 65 10 84q3 23 4 27l2 10l2 10t1 6l4 28l6 37q5 17 6 35q0 1 2 17l4 17l5 33q7 56 15 103l8 40q2 20 9 42q0 1 1.5 9t2.5 13q2 14 3 17q15 70 21 110q3 6 12 9
q7 4 37 4q39 0 87 -18q9 -29 9 -44v-7q2 -7 4 -25l2 -14q1 -7 1 -16l2 -34q2 -24 2 -29q3 -11 3 -30q2 -16 2 -33l3 -49l3 -35q2 -33 10 -108l10 -73q4 -38 6 -55q5 -43 5 -44v-4q0 -20 4 -44q3 -22 5 -49t4 -49v-5q0 -4 1 -8.5t0 -6.5t-10 -5q-8 -2 -19 -3q-8 -4 -13 -4
q-21 0 -21 10v1zM187 281h22h14q12 0 15 1l15 1l-2 43q-2 9 -3 41q0 8 -1 15v16l-3 36q0 12 -3 38l-9 69q-10 88 -16 114q-8 37 -13 43l-1 -4q-2 -4 -4 -10l-3 -9l-8 -21q-3 -6 -10 -39q-28 -139 -29 -149l-7 -56q-1 -5 -2 -10.5t-1.5 -8.5l-1 -6t-0.5 -5v-1q0 -2 1 -3v-3
q-1 -1 -1 -4t-1 -5q0 -1 -0.5 -4.5t-1.5 -4.5q0 -3 -1 -4q0 -5 -4 -28t-4 -35v-4q17 -4 39 -4q2 1 11 1h13zM282 854q8 0 9 -7q1 -2 1 -12q0 -12 -1 -17q0 -14 -3 -22q-2 -9 -7 -12q-4 -2 -15 -4h-5q-9 0 -13 3q-11 2 -16 14q-4 7 -4 19q1 19 5 26q8 15 13 17l2 1h2h6
q3 1 5 1h2l1 -1h4q2 -2 8 -2q4 -4 6 -4zM194 854q9 0 9 -7q1 -2 1 -12q0 -12 -1 -17q0 -16 -2 -22q-2 -10 -8 -12q-2 -2 -14 -4h-5q-8 0 -14 3q-12 3 -15 14q-5 12 -5 19q2 17 6 26q4 11 12 17l2 1h3q2 0 5 1h5h2q3 0 5 -1q6 -2 8 -2l2 -2q2 -2 4 -2z" />
    <glyph glyph-name="Aring" unicode="&#xc5;" horiz-adv-x="356" 
d="M285 819v-8q0 -15 -10 -33q-7 -13 -23 -19q16 -5 20 -7q9 -29 9 -44v-7q2 -7 4 -25l2 -14q1 -7 1 -16l2 -34q2 -24 2 -29q3 -11 3 -30q2 -16 2 -33l3 -49l3 -35q2 -33 10 -108l10 -73q4 -38 6 -55q5 -43 5 -44v-4q0 -20 4 -44q3 -22 5 -49t4 -49v-5q0 -4 1 -8.5t0 -6.5
t-10 -5q-8 -2 -19 -3q-8 -4 -13 -4q-21 0 -21 10v1q-9 20 -9 53q-2 18 -2 23q0 2 -1 6t0 6q0 1 -2.5 24t-4.5 45q-4 54 -6 60q-17 3 -40 4q-5 0 -13 1h-17h-8q-7 0 -13 1h-11h-10q-4 -1 -9 -1q-26 0 -28 -2t-5 -13q0 -4 -1 -14.5t-1 -16.5q-1 -4 -1.5 -8t-0.5 -7t-0.5 -5
t-0.5 -3q-3 -15 -4 -19q-1 -5 -2.5 -11.5t-1.5 -8.5v-6q0 -16 -4 -32q-5 -53 -14 -75q-9 -3 -18 -3h-13q-29 0 -30 7v2l2 20q3 14 3 21q8 46 11 82q7 65 10 84q3 23 4 27l2 10l2 10t1 6l4 28l6 37q5 17 6 35q0 1 2 17l4 17l5 33q7 56 15 103l8 40q2 20 9 42q0 1 1.5 9
t2.5 13q2 14 3 17q15 70 21 110q3 6 12 9q1 0 11 3q-3 3 -4 5q-2 2 -2 3l-5 4q0 2 -1 3l-1 4q-7 20 -7 46q0 30 14 53q15 22 44 22h5h9l14 -2h5q5 0 6 -1q3 0 4 -1q44 -14 44 -63q1 -1 1 -5v-18zM195 861q-2 0 -2 -3v-2q0 -2 -2 -2q2 0 2 -1q0 -2 -3 -2v-5q0 -3 -1 -4v-13
q0 -14 4 -18q0 -2 1 -2l2 -2l2 -2l1.5 -1.5t1.5 -0.5h8q1 -1 9 -1q6 0 8 1q7 0 10 6q1 1 1 4q1 2 1 4q1 1 1 3l1 1v2h-1q2 8 2 14q0 21 -21 26l-2 1q-1 1 -4 1q-1 1 -5 1q-3 0 -4 1l-5 -2q-5 -2 -5 -4zM187 281h22h14q12 0 15 1l15 1l-2 43q-2 9 -3 41q0 8 -1 15v16l-3 36
q0 12 -3 38l-9 69q-12 97 -16 114q-8 37 -13 43l-1 -4q-2 -4 -4 -10l-3 -9l-8 -21q-3 -6 -10 -39q-28 -139 -29 -149l-7 -56q-1 -5 -2 -10.5t-1.5 -8.5l-1 -6t-0.5 -5v-1q0 -2 1 -3v-3q-1 -1 -1 -4t-1 -5q0 -1 -0.5 -4.5t-1.5 -4.5q0 -3 -1 -4q0 -5 -4 -28t-4 -35v-4
q17 -4 39 -4q2 1 11 1h13z" />
    <glyph glyph-name="AE" unicode="&#xc6;" horiz-adv-x="417" 
d="M214 280q1 2 1 11v10v14q-1 5 -1 15v5q0 7 -2 17q1 3 1 14v13q2 22 2 50v51v25q0 4 0.5 12t1.5 11v8l-1 4q0 3 -0.5 13t-1.5 20q0 1 0.5 8.5t0.5 13.5q2 10 2 22v47q0 26 1 32q-2 1 -11 1q-4 0 -6 -2q-8 -15 -14 -48q-6 -17 -14 -57l-7 -41q-2 -15 -6 -48q-3 -33 -3 -35
l-7 -56q-1 -8 -2.5 -15.5t-2.5 -11.5l-1 -4q0 -2 1 -3v-3q-1 -1 -1 -4t-1 -5q0 -1 -0.5 -4.5t-1.5 -4.5q0 -3 -1 -4q-1 -13 -4 -28q-4 -17 -4 -35v-4q1 -1 3.5 -1.5t3.5 -0.5q3 -1 7 -1q3 -1 18 -1q3 1 12 1h12h9zM186 770l133 -5q4 1 21 1l18 -2q16 -2 18 -4l1 -1v-2l2 -5
v-2q0 -5 1 -8t1 -6v-7q0 -9 -1 -12l-2 -8l-1 -1l-6 -2h-6q-3 -1 -9 -1h-6h-14q-3 0 -10 -1.5t-10 -1.5q-26 1 -29 4v-3q0 -2 -2 -4q-1 -7 -3 -10q2 -10 2 -12q0 -1 -2 -11q2 -12 2 -39v-18v-6v-14q0 -19 -1 -24q1 -7 1 -29v-28q-1 -6 -1 -27q0 -28 1 -35q0 -8 -1 -15
q0 -11 -1 -14q2 -16 2 -21v-7q-1 -2 -1 -8q0 -68 2 -76q1 -9 3 -14q3 -3 4 -3h8q8 0 13 1h14q12 0 19 -4q3 -2 5 -16v-5q0 -4 -2 -14q3 -10 3 -24v-5q-2 -15 -6 -15q-8 -3 -23 -3h-19h-6q-8 0 -9 -1q-4 -4 -6 -16l-2 -22q0 -10 -1 -17v-36v-36v-17q5 1 20 1t18 1q9 0 15 -1
h11h7h14h21q7 -1 7 -34q0 -36 -4 -36q-7 -4 -20 -4h-11q-5 1 -13 1h-7q-7 1 -38 1h-40q-3 -1 -15 -1q-10 0 -12 1q-10 3 -14 6q0 1 -1 2v4v3v1v8v3q0 2 -3 23q-1 19 -1 120q0 30 -1 39q1 3 1 15h-31h-12q-5 1 -10 1t-9 -1h-10q-17 0 -20 -3q-2 -2 -9 -33q-8 -32 -8 -33
t-1 -5t-1.5 -7.5t-1.5 -7.5t-2.5 -11t-1.5 -8v-6q0 -16 -4 -32q-1 -4 -3 -18q-1 -7 -1 -14q-4 -27 -10 -43q-9 -3 -21 -3h-13q-29 0 -30 7v2q0 1 2 19q3 15 3 22q0 1 1 8t2 13q0 11 3 26q3 21 5 27q1 7 2.5 18t1.5 15q0 12 1 16v7q1 4 1 10q4 15 4 26q3 10 5 26q0 8 1 14
q2 10 3 13l4 28l6 37q5 17 6 35q0 1 2 17l4 17l5 33q7 56 15 103l8 40q2 20 9 42q1 6 3 22q4 16 4 17q15 70 21 110q3 6 13 9q7 4 36 4z" />
    <glyph glyph-name="Ccedilla" unicode="&#xc7;" 
d="M238 739q7 -7 13 -19q1 -2 2.5 -6t2.5 -6q4 -10 5 -13q0 -2 2 -16q2 -12 3 -17l2 -42v-21v-15v-6q0 -3 1 -4v-4q0 -6 -3 -10q-4 -5 -19 -10q-6 -2 -9 -2q-8 0 -10 1q-7 1 -11 4q-5 1 -10 6v4q-1 1 -1 4q0 5 1 7v10q-1 5 -1 11v8v14q0 23 -3 39q-4 19 -17 34t-26 15
t-24 -8q-16 -10 -19 -22q-11 -24 -14 -41q-3 -20 -3 -56v-40q-1 -19 -1 -41v-29q0 -13 1 -23v-21v-15v-30q3 -113 3 -121q0 -33 1 -42v-18q0 -15 1 -18q1 -5 1 -22v-8q3 -32 7 -47q1 -9 11 -27q7 -15 22 -23q2 -2 7 -2q4 -1 11 0h7q9 0 23 11q2 2 7 10q3 10 4 15q5 17 5 25
q2 10 2 29q1 3 1 16v13q0 34 4 46q2 6 15 7q4 0 7 1h7h7q3 -1 7 -1q13 0 14 -2q0 -25 1 -31q1 -3 1 -12v-13v-8q0 -50 -11 -88q-1 -1 -2 -5t-1 -6q-3 -8 -4 -10q-2 -4 -4 -10q-6 -17 -11 -25q-7 -12 -16 -17q-6 -6 -20 -8q-4 -2 -17 -4v-32l21 -14l6 -9l5 -7q0 -1 2 -3t2 -3
q1 -3 2 -4t1 -2q1 -2 1 -3q1 -2 1 -5q0 -2 1 -5q1 -4 1 -7v-2q1 -1 1 -3q0 -5 -3 -9v-4q0 -5 -4 -9q0 -3 -7 -10q-2 -5 -9 -10q-17 -12 -44 -12q-45 0 -57 23l-4 6l-4 8q-4 8 -5 14v2l-1 2v4q-2 4 -2 7q-1 1 -1.5 3.5t-0.5 3.5v5q0 6 29 6q11 0 13 -2q0 -1 1 -5t2 -6v-10
l4 -8q0 -1 1 -3t1 -3q2 -4 7 -8q6 -6 15 -6h3q7 0 13 8q6 6 6 16l-1 4v5q-1 4 -1 7q-3 7 -13 17q-7 8 -18 17l-10 7q-1 1 -1 42q-17 3 -20 5q-43 17 -60 60q-19 48 -19 98q0 13 -2 47q0 21 -1 40v10v28q-1 5 0 16t1 16q-1 9 -1 39q0 40 -1 70q-1 31 -1 72v39v18q1 8 1 18
q0 73 10 111q2 10 9 31q3 8 14 25q6 11 17 20q7 7 28 14q5 4 15 5q12 2 13 3h11q13 0 21 -3q21 -3 33 -10q15 -8 27 -20z" />
    <glyph glyph-name="Egrave" unicode="&#xc8;" horiz-adv-x="268" 
d="M59 842v2q0 5 27 5q31 0 39 -4q7 -4 10 -9l12 -18q3 -1 15 -15q3 -5 10 -16.5t10 -16.5q-31 -4 -32 -4q-28 0 -31 10q-19 22 -33 36.5t-19 19.5t-8 10zM48 -2v15q0 2 -3 23q-1 19 -1 127q0 30 -1 39q1 4 1 22q0 15 -1 19q1 3 1 19q0 32 0.5 87t0.5 86v51q2 38 2 88v75
q0 31 1 38q-1 3 -1 13v40v5l-1 3q0 2 54 4q66 0 77 -1q4 1 21 1l18 -2q13 -1 17 -5l1 -1v-2l3 -5v-2q0 -4 1 -7t1 -6v-7q0 -29 -3 -29l-2 -1l-6 -2h-6q-3 -1 -8 -1h-20q-4 0 -20 -2q-54 2 -55 3v-2q0 -2 -2 -4q-1 -3 -0.5 -7.5t0.5 -5.5v-24q0 -8 -1 -15v-30q0 -19 -1 -24
q1 -7 1 -29v-28q-1 -6 -1 -27v-44q1 -19 1 -41v-7q-1 -2 -1 -8l1 -28h14q36 0 41 1h13q13 0 20 -4q4 -2 5 -15v-5q0 -4 -2 -14q3 -10 3 -24v-5q-2 -15 -6 -15q-10 -4 -24 -4h-52q-12 0 -13 -2q0 -1 0.5 -6.5t-0.5 -7.5q-2 -14 -2 -24v-64q0 -9 -1 -16v-97q5 1 15 1
q46 0 49 1h14q6 -1 12 -1h42q7 -1 7 -34q0 -36 -4 -36q-7 -4 -21 -4h-10q-4 1 -13 1h-7q-7 1 -66 1h-40q-3 -1 -15 -1q-15 0 -26 7v2q-1 2 -1 4z" />
    <glyph glyph-name="Eacute" unicode="&#xc9;" horiz-adv-x="272" 
d="M238 842q-3 -5 -7 -9.5t-18.5 -20t-32.5 -36.5q-6 -10 -30 -10q-6 0 -33 4q5 10 20 33l13 15q2 3 4 6.5t3.5 5.5l4.5 6q8 8 12 9q8 4 39 4q25 0 25 -5v-2zM48 -2v15q0 2 -3 23q-1 19 -1 127q0 30 -1 39q1 4 1 22q0 15 -1 19q1 3 1 19q0 32 0.5 87t0.5 86v51q2 38 2 88v75
q0 31 1 38q-1 3 -1 13v40v5l-1 3q0 2 54 4q66 0 77 -1q4 1 21 1l18 -2q13 -1 17 -5l1 -1v-2l3 -5v-2q0 -4 1 -7t1 -6v-7q0 -29 -3 -29l-2 -1l-6 -2h-6q-3 -1 -8 -1h-20q-4 0 -20 -2q-54 2 -55 3v-2q0 -2 -2 -4q-1 -3 -0.5 -7.5t0.5 -5.5v-24q0 -8 -1 -15v-30q0 -19 -1 -24
q1 -7 1 -29v-28q-1 -6 -1 -27v-44q1 -19 1 -41v-7q-1 -2 -1 -8l1 -28h14q36 0 41 1h13q13 0 20 -4q4 -2 5 -15v-5q0 -4 -2 -14q3 -10 3 -24v-5q-2 -15 -6 -15q-10 -4 -24 -4h-52q-12 0 -13 -2q0 -1 0.5 -6.5t-0.5 -7.5q-2 -14 -2 -24v-64q0 -9 -1 -16v-97q5 1 15 1
q46 0 49 1h14q6 -1 12 -1h42q7 -1 7 -34q0 -36 -4 -36q-7 -4 -21 -4h-10q-4 1 -13 1h-7q-7 1 -66 1h-40q-3 -1 -15 -1q-15 0 -26 7v2q-1 2 -1 4z" />
    <glyph glyph-name="Ecircumflex" unicode="&#xca;" horiz-adv-x="272" 
d="M48 -2v15q0 2 -3 23q-1 19 -1 127q0 30 -1 39q1 4 1 22q0 15 -1 19q1 3 1 19q0 32 0.5 87t0.5 86v51q2 38 2 88v75q0 31 1 38q-1 3 -1 13v40v5l-1 3q0 2 54 4q66 0 77 -1q4 1 21 1l18 -2q13 -1 17 -5l1 -1v-2l3 -5v-2q0 -4 1 -7t1 -6v-7q0 -29 -3 -29l-2 -1l-6 -2h-6
q-3 -1 -8 -1h-20q-4 0 -20 -2q-54 2 -55 3v-2q0 -2 -2 -4q-1 -3 -0.5 -7.5t0.5 -5.5v-24q0 -8 -1 -15v-30q0 -19 -1 -24q1 -7 1 -29v-28q-1 -6 -1 -27v-44q1 -19 1 -41v-7q-1 -2 -1 -8l1 -28h14q36 0 41 1h13q13 0 20 -4q4 -2 5 -15v-5q0 -4 -2 -14q3 -10 3 -24v-5
q-2 -15 -6 -15q-10 -4 -24 -4h-52q-12 0 -13 -2q0 -1 0.5 -6.5t-0.5 -7.5q-2 -14 -2 -24v-64q0 -9 -1 -16v-97q5 1 15 1q46 0 49 1h14q6 -1 12 -1h42q7 -1 7 -34q0 -36 -4 -36q-7 -4 -21 -4h-10q-4 1 -13 1h-7q-7 1 -66 1h-40q-3 -1 -15 -1q-15 0 -26 7v2q-1 2 -1 4z
M119 852l55 4q10 1 11.5 0t4.5 -11q1 -2 2 -4.5t2 -4.5t1 -3q8 -16 8 -26l12 -35l-45 -4q0 4 -4 16q-2 7 -2 10q0 1 -6 19l-6 6q-6 0 -19 -47q0 -6 -18 -6q-19 0 -31 2q2 11 4 15v3q9 18 10 25q2 3 2 7q0 2 2 4q2 1 2 3q0 3 2 5q3 22 13 22z" />
    <glyph glyph-name="Edieresis" unicode="&#xcb;" horiz-adv-x="272" 
d="M48 -2v15q0 2 -3 23q-1 19 -1 127q0 30 -1 39q1 4 1 22q0 15 -1 19q1 3 1 19q0 32 0.5 87t0.5 86v51q2 38 2 88v75q0 31 1 38q-1 3 -1 13v40v5l-1 3q0 2 54 4q66 0 77 -1q4 1 21 1l18 -2q13 -1 17 -5l1 -1v-2l3 -5v-2q0 -4 1 -7t1 -6v-7q0 -29 -3 -29l-2 -1l-6 -2h-6
q-3 -1 -8 -1h-20q-4 0 -20 -2q-54 2 -55 3v-2q0 -2 -2 -4q-1 -3 -0.5 -7.5t0.5 -5.5v-24q0 -8 -1 -15v-30q0 -19 -1 -24q1 -7 1 -29v-28q-1 -6 -1 -27v-44q1 -19 1 -41v-7q-1 -2 -1 -8l1 -28h14q36 0 41 1h13q13 0 20 -4q4 -2 5 -15v-5q0 -4 -2 -14q3 -10 3 -24v-5
q-2 -15 -6 -15q-10 -4 -24 -4h-52q-12 0 -13 -2q0 -1 0.5 -6.5t-0.5 -7.5q-2 -14 -2 -24v-64q0 -9 -1 -16v-97q5 1 15 1q46 0 49 1h14q6 -1 12 -1h42q7 -1 7 -34q0 -36 -4 -36q-7 -4 -21 -4h-10q-4 1 -13 1h-7q-7 1 -66 1h-40q-3 -1 -15 -1q-15 0 -26 7v2q-1 2 -1 4z
M215 840q8 0 8 -7q2 -2 2 -13t-2 -16q0 -18 -2 -23q-3 -9 -8 -11q-3 -3 -14 -4h-4q-9 0 -15 3q-11 2 -14 13q-4 5 -4 20q0 17 4 25q10 17 12 18l2 1h2h6q4 1 7 1h2q2 -1 4 -1q2 -2 8 -2q5 -4 6 -4zM127 840q8 0 8 -7q2 -2 2 -13t-2 -16q0 -20 -2 -23q0 -8 -8 -11
q0 -2 -12 -4h-7q-8 0 -14 3q-11 4 -14 13q-4 14 -4 20q0 16 6 25q3 13 10 18l2 1h4q2 0 4 1h6h3q2 0 4 -1l8 -2l2 -2z" />
    <glyph glyph-name="Igrave" unicode="&#xcc;" horiz-adv-x="147" 
d="M-12 842v2q0 5 26 5q30 0 39 -4q7 -3 10 -9q3 -3 13 -18q2 0 14 -15l21 -33q-31 -4 -33 -4q-28 0 -31 10q-19 22 -32.5 36.5t-18.5 19.5t-8 10zM114 754v-13q-1 -13 -1.5 -41.5t-0.5 -61.5q0 -31 -0.5 -63t-1 -49t-0.5 -23q0 -21 -1 -38v-38v-15q1 -8 1 -17v-7
q0 -25 2 -39q0 -9 -0.5 -18.5t-1 -14.5t-0.5 -7v-38v-69q0 -28 1 -35v-11q-1 -5 -1 -13v-6q-1 -5 -1 -22v-9v-26q-1 -5 -1 -23q0 -6 1 -14.5t0 -11.5q0 -10 -3 -19q2 -2 2 -5v-1q-3 -4 -12 -4h-7q-22 0 -28 -1q-13 5 -15 6q-4 5 -4 44v61q0 11 -1 21v26q1 7 1 38v18v19v42
v47v24v70v87v38q0 39 1 50v26v126q0 10 39 10h32z" />
    <glyph glyph-name="Iacute" unicode="&#xcd;" horiz-adv-x="147" 
d="M186 842q-3 -5 -6.5 -9.5t-18 -20t-32.5 -36.5q-6 -10 -31 -10q-5 0 -32 4q4 10 20 33l12 15q4 6 13 18q5 7 12 9q8 4 39 4q24 0 24 -5v-2zM114 754v-13q-1 -13 -1.5 -41.5t-0.5 -61.5q0 -31 -0.5 -63t-1 -49t-0.5 -23q0 -21 -1 -38v-38v-15q1 -8 1 -17v-7q0 -25 2 -39
q0 -9 -0.5 -18.5t-1 -14.5t-0.5 -7v-38v-69q0 -28 1 -35v-11q-1 -5 -1 -13v-6q-1 -5 -1 -22v-9v-26q-1 -5 -1 -23q0 -6 1 -14.5t0 -11.5q0 -10 -3 -19q2 -2 2 -5v-1q-3 -4 -12 -4h-7q-22 0 -28 -1q-13 5 -15 6q-4 5 -4 44v61q0 11 -1 21v26q1 7 1 38v18v19v42v47v24v70v87
v38q0 39 1 50v26v126q0 10 39 10h32z" />
    <glyph glyph-name="Icircumflex" unicode="&#xce;" horiz-adv-x="147" 
d="M52 852l53 4q14 1 16 -2q1 -2 2 -8q2 -4 3 -8l1 -4q2 -5 4 -11t3 -10t1 -5l11 -36l-44 -4q0 5 -4 17l-3 10l-6 18q-3 7 -5 7q-7 0 -18 -48q0 -6 -19 -6q-9 0 -31 2q3 12 6 18q0 1 3.5 10t5.5 16q0 1 0.5 3t1.5 3l2 4q1 2 1 3q1 1 2 3l1 2q3 22 12 22h1zM114 754v-13
q-1 -13 -1.5 -41.5t-0.5 -61.5q0 -31 -0.5 -63t-1 -49t-0.5 -23q0 -21 -1 -38v-38v-15q1 -8 1 -17v-7q0 -25 2 -39q0 -9 -0.5 -18.5t-1 -14.5t-0.5 -7v-38v-69q0 -28 1 -35v-11q-1 -5 -1 -13v-6q-1 -5 -1 -22v-9v-26q-1 -5 -1 -23q0 -6 1 -14.5t0 -11.5q0 -10 -3 -19
q2 -2 2 -5v-1q-3 -4 -12 -4h-7q-22 0 -28 -1q-13 5 -15 6q-4 5 -4 44v61q0 11 -1 21v26q1 7 1 38v18v19v42v47v24v70v87v38q0 39 1 50v26v126q0 10 39 10h32z" />
    <glyph glyph-name="Idieresis" unicode="&#xcf;" horiz-adv-x="147" 
d="M139 840q8 0 8 -7q3 -3 3 -13q0 -8 -3 -16q0 -18 -2 -23q-3 -9 -8 -11q-3 -3 -14 -4h-4q-9 0 -15 3q-11 2 -14 13q-4 5 -4 20q0 17 4 25q10 17 12 18l2 1h2h7q4 1 6 1h2q2 -1 4 -1q2 -2 8 -2q5 -4 6 -4zM51 840q8 0 8 -7q2 -2 2 -13t-2 -16q0 -20 -2 -23q0 -8 -8 -11
q0 -2 -12 -4h-6q-9 0 -15 3q-11 4 -14 13q-4 14 -4 20q0 16 6 25q3 13 10 18l2 1h4q3 0 5 1h6h2q2 0 4 -1l8 -2l2 -2zM114 754v-13q-1 -13 -1.5 -41.5t-0.5 -61.5q0 -31 -0.5 -63t-1 -49t-0.5 -23q0 -21 -1 -38v-38v-15q1 -8 1 -17v-7q0 -25 2 -39q0 -9 -0.5 -18.5t-1 -14.5
t-0.5 -7v-38v-69q0 -28 1 -35v-11q-1 -5 -1 -13v-6q-1 -5 -1 -22v-9v-26q-1 -5 -1 -23q0 -6 1 -14.5t0 -11.5q0 -10 -3 -19q2 -2 2 -5v-1q-3 -4 -12 -4h-7q-22 0 -28 -1q-13 5 -15 6q-4 5 -4 44v61q0 11 -1 21v26q1 7 1 38v18v19v42v47v24v70v87v38q0 39 1 50v26v126
q0 10 39 10h32z" />
    <glyph glyph-name="Eth" unicode="&#xd0;" horiz-adv-x="306" 
d="M202 110q3 3 3 7q2 3 2 8l2 10q1 4 1 8q0 8 1 15v14q2 66 2 100q0 27 -1 36q0 10 1 19v21v8v18q-1 8 -1 18v102q0 9 -2 41q1 9 1 36v16q0 3 -0.5 6t-1 5.5t-0.5 3.5v14q-1 5 -1 12q-3 34 -7 41q-8 17 -17 22q-8 4 -38 4h-22h-9q-3 -1 -9 -1h-3q0 -5 -1 -8q1 -4 1 -26v-35
q0 -6 -1 -10v-11q0 -12 2 -22v-13q0 -10 -1 -13q1 -1 1 -7q0 -8 -2 -14v-8q1 -3 1 -6v-12q0 -2 -1 -5v-6v-6q1 -3 1 -6v-140h85v-56q-3 0 -4 1h-6h-5q-2 -1 -9 -1q-5 -1 -14 -1l-34 -1h-6q-3 -1 -6 -1v-74q0 -19 1 -24q-2 -16 -2 -20v-55q0 -20 -1 -27q0 -2 -1 -3v-4
q0 -5 3 -11q0 -1 -1 -2v-2q0 -3 3 -8v-1q2 0 2 1q5 -5 14 -5q6 0 7 1q1 -1 5 -1q19 0 37 15q12 8 20 21q11 11 11 22zM275 425q4 -58 4 -87q0 -14 -1 -25v-21q1 -3 1 -12q0 -8 -1 -14v-13v-7q0 -3 -1.5 -10t-2.5 -15.5t-1 -16.5l-7 -76q-14 -72 -29 -93q-7 -12 -23 -22
q-14 -12 -54 -17q-4 0 -7 -1h-9h-9q-3 1 -7 1t-7 -1h-8q-2 0 -12 2q-14 -2 -16 -2q-7 0 -9 1q-3 0 -29 2v24q-1 13 -1 34v22v12q-1 5 -1 13t1 14v14q-1 7 -1 32v25q0 20 -1 27v71l-40 1v15q-1 9 -1 14v29q2 -1 40 -1q1 2 1 6q1 3 1 5v12q-2 26 -2 32v72v21q-1 9 -1 19v125
q0 11 1 14v27q1 23 5 61q0 15 9 18q7 3 29 3q9 0 18 1h20q32 -2 34 -2q43 0 67 -24q11 -8 16 -16q11 -11 18 -43q1 -3 1 -17q0 -3 0.5 -9.5t1.5 -8.5q10 -134 11 -169q1 -3 1 -11q1 -5 1 -13v-22z" />
    <glyph glyph-name="Ntilde" unicode="&#xd1;" horiz-adv-x="359" 
d="M82 808v2l-1 2q0 15 7 30q12 26 56 26q27 -3 41 -15t15 -23q3 -11 9 -16q1 -1 3 -1q5 0 5 23q0 5 -1 8v8h50q3 -9 3 -24q0 -41 -31 -54l-21 -7q-19 0 -30 8q-15 8 -28 29q-10 18 -16 21l-6 -2q-2 -6 -2 -15q0 -3 4 -15l3 -14l-54 -5v6l-4 15q-2 8 -2 12v1zM106 732v-2
q1 -1 2 -2.5t1 -3.5q2 -6 3 -8q0 -1 1 -3.5t2 -5.5l2 -6q1 -5 4 -15q1 -8 8 -27q1 -2 4 -16q5 -22 5 -23q10 -29 14 -45l14 -56q0 -2 6 -23l10 -35q15 -47 16 -57q2 -19 8 -35q1 -4 7 -25l6 -17q40 -124 46 -124l2 21q0 3 1 6v8q0 1 -2 11q1 6 1 33q-1 8 -1 37v26
q-1 12 -1 29l-1 27q0 9 -1 15t-1 14l-8 271q0 8 -1 10q0 5 1 9q0 8 1 10v16q0 7 15 10q1 1 8 1q2 0 20 -3q15 0 17 -9q1 -1 1 -8q0 -4 -2 -10q3 -17 3 -29q3 -106 5.5 -198t3.5 -130.5t1 -39.5q0 -7 1 -12v-10q0 -9 -2 -19q1 -5 1 -25q0 -1 -2 -17q2 -20 2 -44v-22
q-1 -9 -1 -20q0 -32 1 -41v-39q1 -4 1 -18q0 -13 -1 -16v-5v-13q0 -8 1 -10q-2 -11 -5 -17q1 0 1 -1q0 -2 -7 -4h-13h-8q-14 2 -25 6q-3 1 -8 6q-2 2 -7 14q-4 8 -6 14q-1 2 -3.5 8t-3.5 9q-2 5 -3 11l-2 6l-16 45l-15 42l-14 40l-17 44q-8 21 -21 67l-4 15q-4 14 -9 22
q0 4 -3 15t-3 16q-1 3 -3 11q-2 4 -4 10q0 1 -0.5 4.5t-1.5 4.5l-12 52l-2 6q-3 0 -4 -32v-50q0 -38 1 -49q-5 -77 -5 -190q-2 -137 -2 -141q0 -2 -13 -2q-9 0 -35 2q-19 3 -19 6q-1 4 -1 22q0 22 -1 29q0 3 1 5v5v3v5q0 1 0.5 2.5t1.5 2.5q-1 3 -1 14t1 14l2 324q1 13 1 61
q1 7 1 31q1 2 0 6.5t-1 6.5v13v8v21v11v15v30q0 7 -1 12v12q0 4 1 15t1 19q-1 13 -1 33q0 3 1 3v1q0 5 15 7q6 2 14 2h15q18 -6 21 -10z" />
    <glyph glyph-name="Ograve" unicode="&#xd2;" horiz-adv-x="297" 
d="M59 842v2q0 5 26 5q31 0 39 -4q6 -2 11 -9l12 -18q3 0 14 -15q12 -17 20 -33q-29 -4 -33 -4q-26 0 -30 10q-19 22 -33 36.5t-18.5 19.5t-7.5 10zM148 756q11 -1 34 -4q16 -7 30 -16q12 -9 21 -20q11 -16 17 -26q15 -28 18 -147v-23q1 -11 1 -26v-29q0 -6 0.5 -17.5
t1.5 -16.5v-21v-51q1 -19 1 -81v-25v-45q0 -16 -1 -28v-26q-1 -24 -4 -58q0 -2 -1 -9.5t-2 -12.5q0 -5 -0.5 -11.5t-0.5 -7.5q-7 -22 -10 -26q-5 -14 -10 -20l-5 -5q-3 -2 -9 -4q-3 -3 -8 -4t-8 -4q-21 -7 -52 -7h-9q-22 1 -34 5q-20 6 -29 11q-3 3 -5 6t-5 6q-7 7 -11 20
q-5 10 -10 26q-7 22 -13 72q0 1 -2 17q0 3 -0.5 10t-1.5 9q0 2 -0.5 4.5t-1 7t-0.5 7.5q-2 14 -3 19q1 3 1 14q0 7 -1 13v14v5q-1 5 -1 22q0 19 -1 24v50v47q0 39 1 49v11v21q1 9 1 21q3 67 6 115q1 3 4 39q1 5 3 19q2 11 3 14q3 6 4 11q3 8 4 9q6 12 11 17q8 9 29 22
q15 8 25 10q17 4 23 4zM104 639v-3q-1 -2 -1 -6q0 -16 -1 -21q-1 -2 -1 -8v-5q0 -7 -2 -13q0 -6 1 -9t1 -7v-2v-3q0 -2 -2 -18q2 -8 2 -20v-20v-45v-46v-42v-20q0 -15 1 -19q-1 -3 -1 -17q0 -16 1 -21q0 -44 3 -115q2 -21 6 -46q3 -24 10 -36q0 -5 9 -26q10 -13 14 -16
q7 -7 20 -7q8 0 15 3q12 5 18 21q5 19 8 66q1 7 1 40q1 11 1 53v25v17v10q1 5 1 27q0 11 -1 18v15q0 27 -1 34v62q0 41 -1 51v24q0 17 1 21v36q-2 79 -11 95q-5 9 -21 18q-14 8 -29 8q-38 0 -41 -53z" />
    <glyph glyph-name="Oacute" unicode="&#xd3;" horiz-adv-x="297" 
d="M238 842q-3 -5 -7.5 -10t-18.5 -19.5t-33 -36.5q-4 -10 -31 -10q-3 0 -32 4q8 16 20 33l14 15q2 3 4 6.5t3.5 5.5l4.5 6q5 7 11 9q8 4 39 4q26 0 26 -5v-2zM148 756q11 -1 34 -4q16 -7 30 -16q12 -9 21 -20q11 -16 17 -26q15 -28 18 -147v-23q1 -11 1 -26v-29
q0 -6 0.5 -17.5t1.5 -16.5v-21v-51q1 -19 1 -81v-25v-45q0 -16 -1 -28v-26q-1 -24 -4 -58q0 -2 -1 -9.5t-2 -12.5q0 -5 -0.5 -11.5t-0.5 -7.5q-7 -22 -10 -26q-5 -14 -10 -20l-5 -5q-3 -2 -9 -4q-3 -3 -8 -4t-8 -4q-21 -7 -52 -7h-9q-22 1 -34 5q-20 6 -29 11q-3 3 -5 6
t-5 6q-7 7 -11 20q-5 10 -10 26q-7 22 -13 72q0 1 -2 17q0 3 -0.5 10t-1.5 9q0 2 -0.5 4.5t-1 7t-0.5 7.5q-2 14 -3 19q1 3 1 14q0 7 -1 13v14v5q-1 5 -1 22q0 19 -1 24v50v47q0 39 1 49v11v21q1 9 1 21q3 67 6 115q1 3 4 39q1 5 3 19q2 11 3 14q3 6 4 11q3 8 4 9
q6 12 11 17q8 9 29 22q15 8 25 10q17 4 23 4zM104 639v-3q-1 -2 -1 -6q0 -16 -1 -21q-1 -2 -1 -8v-5q0 -7 -2 -13q0 -6 1 -9t1 -7v-2v-3q0 -2 -2 -18q2 -8 2 -20v-20v-45v-46v-42v-20q0 -15 1 -19q-1 -3 -1 -17q0 -16 1 -21q0 -44 3 -115q2 -21 6 -46q3 -24 10 -36
q0 -5 9 -26q10 -13 14 -16q7 -7 20 -7q8 0 15 3q12 5 18 21q5 19 8 66q1 7 1 40q1 11 1 53v25v17v10q1 5 1 27q0 11 -1 18v15q0 27 -1 34v62q0 41 -1 51v24q0 17 1 21v36q-2 79 -11 95q-5 9 -21 18q-14 8 -29 8q-38 0 -41 -53z" />
    <glyph glyph-name="Ocircumflex" unicode="&#xd4;" horiz-adv-x="297" 
d="M119 852l54 4q12 1 14 -2q1 -2 3 -8t5 -12q2 -5 4 -11t3 -10t1 -5l11 -36l-44 -4q-1 5 -5 17q-1 3 -1.5 6t-0.5 4l-6 18l-5 7q-8 0 -19 -48q0 -6 -18 -6q-8 0 -32 2q4 16 5 18q7 14 10 26q1 2 1 6l2 4q2 0 2 3q0 1 0.5 2.5t1.5 2.5q5 22 13 22h1zM148 756q11 -1 34 -4
q16 -7 30 -16q12 -9 21 -20q11 -16 17 -26q15 -28 18 -147v-23q1 -11 1 -26v-29q0 -6 0.5 -17.5t1.5 -16.5v-21v-51q1 -19 1 -81v-25v-45q0 -16 -1 -28v-26q-1 -24 -4 -58q0 -2 -1 -9.5t-2 -12.5q0 -5 -0.5 -11.5t-0.5 -7.5q-7 -22 -10 -26q-5 -14 -10 -20l-5 -5
q-3 -2 -9 -4q-3 -3 -8 -4t-8 -4q-21 -7 -52 -7h-9q-22 1 -34 5q-20 6 -29 11q-3 3 -5 6t-5 6q-7 7 -11 20q-5 10 -10 26q-7 22 -13 72q0 1 -2 17q0 3 -0.5 10t-1.5 9q0 2 -0.5 4.5t-1 7t-0.5 7.5q-2 14 -3 19q1 3 1 14q0 7 -1 13v14v5q-1 5 -1 22q0 19 -1 24v50v47
q0 39 1 49v11v21q1 9 1 21q3 67 6 115q1 3 4 39q1 5 3 19q2 11 3 14q3 6 4 11q3 8 4 9q6 12 11 17q8 9 29 22q15 8 25 10q17 4 23 4zM104 639v-3q-1 -2 -1 -6q0 -16 -1 -21q-1 -2 -1 -8v-5q0 -7 -2 -13q0 -6 1 -9t1 -7v-2v-3q0 -2 -2 -18q2 -8 2 -20v-20v-45v-46v-42v-20
q0 -15 1 -19q-1 -3 -1 -17q0 -16 1 -21q0 -44 3 -115q2 -21 6 -46q3 -24 10 -36q0 -5 9 -26q10 -13 14 -16q7 -7 20 -7q8 0 15 3q12 5 18 21q5 19 8 66q1 7 1 40q1 11 1 53v25v17v10q1 5 1 27q0 11 -1 18v15q0 27 -1 34v62q0 41 -1 51v24q0 17 1 21v36q-2 79 -11 95
q-5 9 -21 18q-14 8 -29 8q-38 0 -41 -53z" />
    <glyph glyph-name="Otilde" unicode="&#xd5;" horiz-adv-x="297" 
d="M55 807q0 1 -0.5 2t-0.5 2q0 15 7 30q12 26 57 26q27 -3 41 -15q12 -11 14 -23q3 -11 9 -16q1 -1 3 -1q5 0 5 23q0 5 -1 8v8h51q3 -9 3 -24q0 -41 -32 -54l-21 -7q-18 0 -29 8q-17 9 -29 29q-11 19 -15 21l-6 -2q-2 -6 -2 -15q0 -3 4 -15l3 -14l-55 -5v6l-4 15
q-2 8 -2 12v1zM148 756q11 -1 34 -4q16 -7 30 -16q12 -9 21 -20q11 -16 17 -26q15 -28 18 -147v-23q1 -11 1 -26v-29q0 -6 0.5 -17.5t1.5 -16.5v-21v-51q1 -19 1 -81v-25v-45q0 -16 -1 -28v-26q-1 -24 -4 -58q0 -2 -1 -9.5t-2 -12.5q0 -5 -0.5 -11.5t-0.5 -7.5
q-7 -22 -10 -26q-5 -14 -10 -20l-5 -5q-3 -2 -9 -4q-3 -3 -8 -4t-8 -4q-21 -7 -52 -7h-9q-22 1 -34 5q-20 6 -29 11q-3 3 -5 6t-5 6q-7 7 -11 20q-5 10 -10 26q-7 22 -13 72q0 1 -2 17q0 3 -0.5 10t-1.5 9q0 2 -0.5 4.5t-1 7t-0.5 7.5q-2 14 -3 19q1 3 1 14q0 7 -1 13v14v5
q-1 5 -1 22q0 19 -1 24v50v47q0 39 1 49v11v21q1 9 1 21q3 67 6 115q1 3 4 39q1 5 3 19q2 11 3 14q3 6 4 11q3 8 4 9q6 12 11 17q8 9 29 22q15 8 25 10q17 4 23 4zM104 639v-3q-1 -2 -1 -6q0 -16 -1 -21q-1 -2 -1 -8v-5q0 -7 -2 -13q0 -6 1 -9t1 -7v-2v-3q0 -2 -2 -18
q2 -8 2 -20v-20v-45v-46v-42v-20q0 -15 1 -19q-1 -3 -1 -17q0 -16 1 -21q0 -44 3 -115q2 -21 6 -46q3 -24 10 -36q0 -5 9 -26q10 -13 14 -16q7 -7 20 -7q8 0 15 3q12 5 18 21q5 19 8 66q1 7 1 40q1 11 1 53v25v17v10q1 5 1 27q0 11 -1 18v15q0 27 -1 34v62q0 41 -1 51v24
q0 17 1 21v36q-2 79 -11 95q-5 9 -21 18q-14 8 -29 8q-38 0 -41 -53z" />
    <glyph glyph-name="Odieresis" unicode="&#xd6;" horiz-adv-x="297" 
d="M148 756q11 -1 34 -4q16 -7 30 -16q12 -9 21 -20q11 -16 17 -26q15 -28 18 -147v-23q1 -11 1 -26v-29q0 -6 0.5 -17.5t1.5 -16.5v-21v-51q1 -19 1 -81v-25v-45q0 -16 -1 -28v-26q-1 -24 -4 -58q0 -2 -1 -9.5t-2 -12.5q0 -5 -0.5 -11.5t-0.5 -7.5q-7 -22 -10 -26
q-5 -14 -10 -20l-5 -5q-3 -2 -9 -4q-3 -3 -8 -4t-8 -4q-21 -7 -52 -7h-9q-22 1 -34 5q-20 6 -29 11q-3 3 -5 6t-5 6q-7 7 -11 20q-5 10 -10 26q-7 22 -13 72q0 1 -2 17q0 3 -0.5 10t-1.5 9q0 2 -0.5 4.5t-1 7t-0.5 7.5q-2 14 -3 19q1 3 1 14q0 7 -1 13v14v5q-1 5 -1 22
q0 19 -1 24v50v47q0 39 1 49v11v21q1 9 1 21q3 67 6 115q1 3 4 39q1 5 3 19q2 11 3 14q3 6 4 11q3 8 4 9q6 12 11 17q8 9 29 22q15 8 25 10q17 4 23 4zM104 639v-3q-1 -2 -1 -6q0 -16 -1 -21q-1 -2 -1 -8v-5q0 -7 -2 -13q0 -6 1 -9t1 -7v-2v-3q0 -2 -2 -18q2 -8 2 -20v-20
v-45v-46v-42v-20q0 -15 1 -19q-1 -3 -1 -17q0 -16 1 -21q0 -44 3 -115q2 -21 6 -46q3 -24 10 -36q0 -5 9 -26q10 -13 14 -16q7 -7 20 -7q8 0 15 3q12 5 18 21q5 19 8 66q1 7 1 40q1 11 1 53v25v17v10q1 5 1 27q0 11 -1 18v15q0 27 -1 34v62q0 41 -1 51v24q0 17 1 21v36
q-2 79 -11 95q-5 9 -21 18q-14 8 -29 8q-38 0 -41 -53zM214 840q8 0 9 -7q1 -2 1 -13t-1 -16q0 -16 -3 -23q-2 -8 -7 -11q-4 -3 -14 -4h-5q-10 0 -14 3q-10 1 -15 13q-4 7 -4 20q1 18 5 25q8 17 12 18l2 1h2h6q3 1 6 1h2l2 -1h3q2 -2 8 -2q4 -4 5 -4zM126 840q9 0 9 -7
q1 -2 1 -13t-1 -16q0 -17 -2 -23q-2 -8 -8 -11q-3 -2 -13 -4h-6q-8 0 -14 3q-11 3 -14 13q-5 12 -5 20q1 16 6 25q4 13 11 18l2 1h3q2 0 5 1h5h3q3 0 5 -1q6 -2 8 -2l2 -2q2 -2 3 -2z" />
    <glyph glyph-name="multiply" unicode="&#xd7;" horiz-adv-x="350" 
d="M206 329l46 -57l14 -18l8 -8q2 -2 5 -5.5t4 -4.5l13 -18l30 -36l2 -2v-1q-5 -1 -20 -1q-5 -1 -22 -1h-16q-18 0 -24 2q0 1 -5 9q-6 8 -8 11l-6 12l-1 2q-2 2 -5 5.5t-6 6.5q-1 3 -6 9q-1 1 -5 9l-14 17q-7 12 -15 21q-8 -9 -15 -21l-14 -17q-3 -6 -6 -9q-2 -2 -5 -9
q-3 -3 -6 -6.5t-5 -5.5l-1 -2l-6 -12q-1 -1 -3 -5t-4 -6q-1 -2 -2.5 -4t-2.5 -4l-1 -1q-6 -2 -24 -2h-15q-18 0 -23 1l-19 1v1l2 2l29 36l14 18l8 10l8 8l14 18l46 57l-40 49l-11 14q-1 1 -3 3.5t-4 4.5t-4 5l-2 3q-1 1 -5 7t-5 7l-24 29l-2 2q-1 2 -2 3q-2 3 -5 6l-4 4
q-1 2 -3 4q-5 3 -5 5v1q0 2 9 2h4q5 1 25 1h18q8 0 11 -1q7 0 10 -1h3l9 -13l10 -13l12 -19q4 -6 14 -18q0 -1 11 -18l14 -21l14 21l4 6t3.5 5t2.5 3.5t1 2.5l1 1q5 6 13 18l12 19l11 13l8 13h3q3 1 9 1q4 1 12 1h18q20 0 25 -1h4q10 0 10 -2v-1q0 -2 -5 -5l-4 -4l-4 -4
q-3 -3 -5 -6q-1 -1 -2 -3l-2 -2l-23 -29q-4 -4 -6 -7q-4 -6 -5 -7l-2 -3q-2 -3 -4 -5t-4 -4.5t-3 -3.5l-11 -14z" />
    <glyph glyph-name="Oslash" unicode="&#xd8;" horiz-adv-x="297" 
d="M104 639v-3q-1 -2 -1 -6q0 -16 -1 -21q-1 -2 -1 -8v-5q0 -7 -2 -13q0 -6 1 -9t1 -7v-2v-3q0 -2 -2 -18q2 -8 2 -20v-20v-45v-46v-42v-20q0 -15 1 -19q-1 -3 -1 -17v-2l22 65q5 18 15 44l15 43l9 28q1 1 1.5 3.5t0.5 3.5t0.5 3.5t1.5 3.5l13 38q1 2 5 18l6 20l14 38
q-3 35 -9 45q-5 9 -21 18q-14 8 -29 8q-38 0 -41 -53zM148 756q11 -1 34 -4q16 -7 30 -16q12 -9 21 -20l1 -2l3 6l7 19q2 10 5 13v3q0 1 -1 1q0 1 7 1h6q3 1 9 1h12h3q14 -3 14 -6q0 -2 -25 -79l-10 -34l-2 -4q5 -36 6 -92v-23q1 -11 1 -26v-29q0 -6 0.5 -17.5t1.5 -16.5
v-21v-51q1 -19 1 -81v-25v-45q0 -16 -1 -28v-26q-1 -24 -4 -58q0 -2 -1 -9.5t-2 -12.5q0 -5 -0.5 -11.5t-0.5 -7.5q-7 -22 -10 -26q-5 -14 -10 -20l-5 -5q-3 -2 -9 -4q-3 -3 -8 -4t-8 -4q-21 -7 -52 -7h-9q-22 1 -34 5q-20 6 -29 11q-3 3 -5 6t-5 6q-7 7 -11 20q0 1 -1 1
l-7 -20q0 -1 -1 -3.5t-2 -4.5l-2 -4l-1 -2q-1 -4 -16 -7q-1 1 -8 1h-4q-10 0 -16 2q-11 7 -10 13l44 132q0 1 -0.5 3t-0.5 4q0 3 -0.5 10t-1.5 9q0 2 -0.5 4.5t-1 7t-0.5 7.5q-2 14 -3 19q1 3 1 14q0 7 -1 13v14v5q-1 5 -1 22q0 19 -1 24v50v47q0 39 1 49v11v21q1 9 1 21
q3 67 6 115q1 3 4 39q1 5 3 19q2 11 3 14q3 6 4 11q3 8 4 9q6 12 11 17q8 9 29 22q15 8 25 10q17 4 23 4zM108 157l3 -24q3 -24 10 -36q0 -5 9 -26q10 -13 14 -16q7 -7 20 -7q8 0 15 3q12 5 18 21q5 19 8 66q1 7 1 40q1 11 1 53v25v17v10q1 5 1 27q0 11 -1 18v15q0 27 -1 34
v62v20l-2 -6l-22 -68l-19 -61l-7 -21q-2 -5 -4 -10.5t-2 -6.5l-6 -16l-15 -48z" />
    <glyph glyph-name="Ugrave" unicode="&#xd9;" horiz-adv-x="340" 
d="M95 833v2q0 5 26 5q29 0 39 -3q5 -3 11 -11q3 -3 12 -17q2 0 14 -15q12 -17 20 -33q-29 -4 -33 -4q-26 0 -30 10q-19 22 -33 36.5t-18.5 19.5t-7.5 10zM296 750q2 -6 5 -75q1 -9 3 -32q2 -6 2 -35v-8v-16q0 -13 1 -16q0 -11 1 -20v-8q0 -10 1 -17l-1 -17q0 -1 0.5 -4
t1 -6.5t0.5 -6.5v-16l-1 -34q0 -18 0.5 -45t0.5 -35q0 -14 -1 -20v-39q2 -8 0 -26v-11q0 -8 -1 -17q-1 -8 -1 -17l-1 -30q-2 -43 -6 -71l-7 -31q-1 -3 -11 -27q-16 -24 -18 -26q-1 -2 -8 -11q-6 -3 -10 -10q-5 -5 -23 -16q-28 -13 -55 -13h-2q-20 0 -32 3q-14 3 -28 12
q-15 11 -26 32q-16 42 -20 59q-6 34 -7 41q-1 4 -3 23t-3 29q-6 63 -6 135q-1 52 -2.5 139.5t-1.5 126.5l-2 101v15q-1 6 -1 13q0 9 1 12l-1 17q0 2 17 5l14 -2q14 -2 19 -4h4q5 0 8 -2.5t2 -6.5v-6q1 -6 1.5 -20t0.5 -31v-14v-19v-9q0 -8 2 -28v-15q-1 -6 -1 -13
q0 -12 1 -15v-33v-25q1 -10 1 -24q0 -13 -1 -24q-2 -17 0 -27v-7q0 -9 1 -16l-1 -17v-8l2 -50q3 -57 6 -93q0 -7 0.5 -21.5t1.5 -21.5q2 -18 2 -20v-1q1 -2 1.5 -4t0.5 -4q2 -7 1 -9v-3q0 -5 1 -8t1 -6q1 -1 1.5 -4.5t0.5 -4.5q1 -3 1 -6l3 -16v-10q4 -21 10 -31
q12 -17 32 -17l14 2q13 4 23 14q18 18 22 24q7 16 11 36q0 3 1 5v9q2 28 4 83v44v25v21l1 26v14v22v18v14v27q0 67 -1 125q0 22 -0.5 52.5t-0.5 39.5q0 18 1 24v27q-1 1 -1 8q0 8 2 10v5l3 9q0 3 3 4q4 2 5 2h1h16l9 -1q16 1 16 0z" />
    <glyph glyph-name="Uacute" unicode="&#xda;" horiz-adv-x="340" 
d="M263 835q-3 -5 -7 -9.5t-18.5 -20t-32.5 -36.5q-4 -10 -31 -10q-4 0 -33 4q4 8 21 33l13 15q9 14 12 17q3 7 12 11q9 3 39 3q25 0 25 -5v-2zM296 750q2 -6 5 -75q1 -9 3 -32q2 -6 2 -35v-8v-16q0 -13 1 -16q0 -11 1 -20v-8q0 -10 1 -17l-1 -17q0 -1 0.5 -4t1 -6.5
t0.5 -6.5v-16l-1 -34q0 -18 0.5 -45t0.5 -35q0 -14 -1 -20v-39q2 -8 0 -26v-11q0 -8 -1 -17q-1 -8 -1 -17l-1 -30q-2 -43 -6 -71l-7 -31q-1 -3 -11 -27q-16 -24 -18 -26q-1 -2 -8 -11q-6 -3 -10 -10q-5 -5 -23 -16q-28 -13 -55 -13h-2q-20 0 -32 3q-14 3 -28 12
q-15 11 -26 32q-16 42 -20 59q-6 34 -7 41q-1 4 -3 23t-3 29q-6 63 -6 135q-1 52 -2.5 139.5t-1.5 126.5l-2 101v15q-1 6 -1 13q0 9 1 12l-1 17q0 2 17 5l14 -2q14 -2 19 -4h4q5 0 8 -2.5t2 -6.5v-6q1 -6 1.5 -20t0.5 -31v-14v-19v-9q0 -8 2 -28v-15q-1 -6 -1 -13
q0 -12 1 -15v-33v-25q1 -10 1 -24q0 -13 -1 -24q-2 -17 0 -27v-7q0 -9 1 -16l-1 -17v-8l2 -50q3 -57 6 -93q0 -7 0.5 -21.5t1.5 -21.5q2 -18 2 -20v-1q1 -2 1.5 -4t0.5 -4q2 -7 1 -9v-3q0 -5 1 -8t1 -6q1 -1 1.5 -4.5t0.5 -4.5q1 -3 1 -6l3 -16v-10q4 -21 10 -31
q12 -17 32 -17l14 2q13 4 23 14q18 18 22 24q7 16 11 36q0 3 1 5v9q2 28 4 83v44v25v21l1 26v14v22v18v14v27q0 67 -1 125q0 22 -0.5 52.5t-0.5 39.5q0 18 1 24v27q-1 1 -1 8q0 8 2 10v5l3 9q0 3 3 4q4 2 5 2h1h16l9 -1q16 1 16 0z" />
    <glyph glyph-name="Ucircumflex" unicode="&#xdb;" horiz-adv-x="340" 
d="M151 848l54 4q12 1 14 -4q1 -1 2 -7q2 -3 3 -8l2 -5q7 -21 8 -25l12 -35l-44 -4q0 2 -5 16q-1 3 -1.5 6t-0.5 4t-1 3l-3 6t-4 10q-3 6 -5 6q-7 0 -17 -47q0 -7 -19 -7q-14 0 -31 3q4 17 5 18q0 2 4 10t6 15q0 5 1 6t1 2.5t1 2.5q1 0 1 3q1 0 3 5q3 22 13 22h1zM296 750
q2 -6 5 -75q1 -9 3 -32q2 -6 2 -35v-8v-16q0 -13 1 -16q0 -11 1 -20v-8q0 -10 1 -17l-1 -17q0 -1 0.5 -4t1 -6.5t0.5 -6.5v-16l-1 -34q0 -18 0.5 -45t0.5 -35q0 -14 -1 -20v-39q2 -8 0 -26v-11q0 -8 -1 -17q-1 -8 -1 -17l-1 -30q-2 -43 -6 -71l-7 -31q-1 -3 -11 -27
q-16 -24 -18 -26q-1 -2 -8 -11q-6 -3 -10 -10q-5 -5 -23 -16q-28 -13 -55 -13h-2q-20 0 -32 3q-14 3 -28 12q-15 11 -26 32q-16 42 -20 59q-6 34 -7 41q-1 4 -3 23t-3 29q-6 63 -6 135q-1 52 -2.5 139.5t-1.5 126.5l-2 101v15q-1 6 -1 13q0 9 1 12l-1 17q0 2 17 5l14 -2
q14 -2 19 -4h4q5 0 8 -2.5t2 -6.5v-6q1 -6 1.5 -20t0.5 -31v-14v-19v-9q0 -8 2 -28v-15q-1 -6 -1 -13q0 -12 1 -15v-33v-25q1 -10 1 -24q0 -13 -1 -24q-2 -17 0 -27v-7q0 -9 1 -16l-1 -17v-8l2 -50q3 -57 6 -93q0 -7 0.5 -21.5t1.5 -21.5q2 -18 2 -20v-1q1 -2 1.5 -4t0.5 -4
q2 -7 1 -9v-3q0 -5 1 -8t1 -6q1 -1 1.5 -4.5t0.5 -4.5q1 -3 1 -6l3 -16v-10q4 -21 10 -31q12 -17 32 -17l14 2q13 4 23 14q18 18 22 24q7 16 11 36q0 3 1 5v9q2 28 4 83v44v25v21l1 26v14v22v18v14v27q0 67 -1 125q0 22 -0.5 52.5t-0.5 39.5q0 18 1 24v27q-1 1 -1 8
q0 8 2 10v5l3 9q0 3 3 4q4 2 5 2h1h16l9 -1q16 1 16 0z" />
    <glyph glyph-name="Udieresis" unicode="&#xdc;" horiz-adv-x="340" 
d="M296 750q2 -6 5 -75q1 -9 3 -32q2 -6 2 -35v-8v-16q0 -13 1 -16q0 -11 1 -20v-8q0 -10 1 -17l-1 -17q0 -1 0.5 -4t1 -6.5t0.5 -6.5v-16l-1 -34q0 -18 0.5 -45t0.5 -35q0 -14 -1 -20v-39q2 -8 0 -26v-11q0 -8 -1 -17q-1 -8 -1 -17l-1 -30q-2 -43 -6 -71l-7 -31
q-1 -3 -11 -27q-16 -24 -18 -26q-1 -2 -8 -11q-6 -3 -10 -10q-5 -5 -23 -16q-28 -13 -55 -13h-2q-20 0 -32 3q-14 3 -28 12q-15 11 -26 32q-16 42 -20 59q-6 34 -7 41q-1 4 -3 23t-3 29q-6 63 -6 135q-1 52 -2.5 139.5t-1.5 126.5l-2 101v15q-1 6 -1 13q0 9 1 12l-1 17
q0 2 17 5l14 -2q14 -2 19 -4h4q5 0 8 -2.5t2 -6.5v-6q1 -6 1.5 -20t0.5 -31v-14v-19v-9q0 -8 2 -28v-15q-1 -6 -1 -13q0 -12 1 -15v-33v-25q1 -10 1 -24q0 -13 -1 -24q-2 -17 0 -27v-7q0 -9 1 -16l-1 -17v-8l2 -50q3 -57 6 -93q0 -7 0.5 -21.5t1.5 -21.5q2 -18 2 -20v-1
q1 -2 1.5 -4t0.5 -4q2 -7 1 -9v-3q0 -5 1 -8t1 -6q1 -1 1.5 -4.5t0.5 -4.5q1 -3 1 -6l3 -16v-10q4 -21 10 -31q12 -17 32 -17l14 2q13 4 23 14q18 18 22 24q7 16 11 36q0 3 1 5v9q2 28 4 83v44v25v21l1 26v14v22v18v14v27q0 67 -1 125q0 22 -0.5 52.5t-0.5 39.5q0 18 1 24
v27q-1 1 -1 8q0 8 2 10v5l3 9q0 3 3 4q4 2 5 2h1h16l9 -1q16 1 16 0zM240 835q7 0 9 -8q1 -2 1 -12q0 -11 -1 -16q0 -15 -3 -23q-2 -8 -7 -11q-4 -2 -15 -4h-5q-9 0 -13 3q-11 2 -16 13q-4 7 -4 20q1 18 5 25q8 16 13 18l2 1h2h6q3 1 5 1h2h1q2 -1 4 -1q2 -2 8 -2q4 -4 6 -4
zM152 835q9 0 9 -8q1 -2 1 -12q0 -11 -1 -16q0 -17 -2 -23q-2 -8 -8 -11q-2 -2 -14 -4h-5q-8 0 -14 3q-12 4 -15 13q-5 12 -5 20q1 16 6 25q4 12 12 18l2 1h3q2 0 5 1h5h2q3 0 5 -1q6 -2 8 -2l2 -2q2 -2 4 -2z" />
    <glyph glyph-name="Yacute" unicode="&#xdd;" horiz-adv-x="328" 
d="M263 843q-3 -5 -7 -9.5t-18.5 -20t-32.5 -36.5q-4 -10 -31 -10q-4 0 -33 4q4 8 21 33l13 15q2 3 4 6.5t3.5 5.5l4.5 6q5 6 12 9q8 4 39 4q25 0 25 -5v-2zM198 369v-130v-64v-41q0 -2 -0.5 -7t-0.5 -8t0.5 -9t0.5 -10v-16v-12v-31q-1 -3 -1 -13v-13q-3 -13 -4 -14v-1
q0 -7 -12 -7h-5q-3 0 -6.5 -0.5t-5.5 -1t-3 -0.5h-10q-3 1 -8 1q-16 3 -16 9l1 160l1 51v41q1 14 1 35q1 9 1 16v36v32l-14 35q0 1 -1 3t-2 4.5t-1 4.5q-1 6 -4 12l-4 9q0 1 -1 3.5t-1.5 4.5t-1.5 4q-1 7 -3 10l-11 35q-46 146 -74 251q0 7 41 7q30 0 31 -6q0 -3 5 -21v-2
l2 -10q2 -10 2 -13v-3q11 -23 14 -37l11 -43l19 -72q10 -38 22 -73q7 -22 10 -22q2 0 3 7l5 18q4 14 5 17l11 27q2 14 9 33q1 8 9 44l11 52l7 33l8 30q1 3 3 11q1 2 2 5.5t2 5.5t1 4v2q0 4 2 10q2 8 2 9q1 2 23 4t32 2h8q12 0 12 -2v-1q-1 -6 -10 -37q-9 -32 -10 -36
q-18 -70 -35 -125l-1 -2q-1 -2 -2 -6.5t-2 -8.5q-4 -18 -6 -24q-1 -1 -6 -12q-4 -9 -4 -15v-3q1 -1 1 -2q-6 -10 -14 -35t-38 -89z" />
    <glyph glyph-name="Thorn" unicode="&#xde;" horiz-adv-x="262" 
d="M117 210q0 -2 1 -3v-2q3 -9 13 -9t23 10q3 2 6 6l2 5q6 11 6 24q2 3 3 13q2 12 3 17q1 12 3 41q2 34 2 84q0 118 -12 135q-8 10 -28 10l-14 -2q-1 -2 -7 -108v-46q0 -19 1 -32v-29q-2 -34 -2 -38q0 -13 1 -16l-1 -48v-12zM244 438v-37v-21q0 -46 -1 -57q0 -10 -2 -48
q0 -21 -3 -37q0 -4 -2 -18l-2 -8t-1 -5q-1 -1 -4 -11l-2.5 -7.5t-1.5 -5.5q-1 -4 -6 -10q-1 -2 -3 -5t-2 -4q-10 -16 -31 -29q-17 -11 -58 -11h-9q0 -97 -1 -110q0 -5 -1 -8v-6q0 -4 -19 -7q-1 1 -9 1h-6q-11 0 -19 2q-18 8 -18 13q0 78 -1 96v20v10v5v8q1 4 1 11q0 6 -1 8
v34q0 25 1 32v34q1 4 1 17q0 12 -1 15v11v23l1 32q0 47 1 60v38v18q1 8 1 21v5v3v19v16v19q1 8 1 19v79q1 31 1 58v19v16q0 1 -1 1q0 1 9 1h7q3 1 12 1h14h3q20 -3 20 -6q2 -24 2 -79q0 -10 1 -17v-17v-13v-17q2 -1 9 -1q14 -3 32 -3h9q23 -8 37 -17q10 -6 25 -31t17 -119z
" />
    <glyph glyph-name="germandbls" unicode="&#xdf;" horiz-adv-x="545" 
d="M466 745q10 -9 18 -24l13 -33q1 -2 7 -35v-3q0 -1 2 -15q3 -11 3 -17q1 -10 3 -28q0 -6 -14 -10q-13 -5 -29 -5q-18 0 -20 8q-1 13 -2.5 25t-2.5 18t-1 7q-2 14 -5 22q-3 13 -3 15q-3 13 -9 22q-8 15 -29 15h-15q-14 -1 -27 -18t-13 -44q0 -14 3 -27t6 -20.5t12.5 -27
t14.5 -30.5q1 -4 7 -18q6 -10 6 -12l8 -18q2 -5 5 -12t4 -9l17 -34l70 -137q23 -47 27 -85q5 -38 5 -52t-1 -22v-10q-10 -73 -30 -105q-18 -29 -81 -36h-7q-36 0 -64 24q-28 22 -42 65q0 1 -2 6t-3 8q-2 12 -3 15q-5 25 -5 26q-1 3 -3 13v10q0 8 -1 11q-1 4 -1 7q1 7 21 7
q39 -2 39 -5q1 -7 2 -17t2 -17l4 -12q1 -3 3 -8t2 -6q10 -27 27 -46q17 -17 27 -17q16 0 28 17q12 16 17 46q2 24 2 25v27q-1 4 -3 14q0 2 -0.5 5t-1 5.5t-0.5 3.5q-10 55 -66 177q-3 8 -9 21l-11 24q-1 4 -4 10.5t-4 7.5q-15 24 -24 48l-19 38q-26 54 -29 67q-6 15 -9 48
q0 58 23 98q11 18 37.5 28t55.5 10q41 0 72 -29zM198 759q7 -4 14 -13q9 -9 11 -19q9 -19 9 -25q5 -14 5 -16q2 -11 3 -14q3 -18 3 -39l2 -39v-15q0 -1 -1 -3t-1 -3v-2q1 -1 1 -3q-5 -5 -19 -5h-5q-5 0 -26 3q-18 10 -18 14v1q-2 12 -2 53q0 30 -4 43q-5 19 -14 25
q-6 6 -14 6h-4q-1 -1 -4 -1q-18 -5 -28 -18l-12 -20q-4 -10 -6 -25v-7q0 -24 9 -57q5 -16 15 -38q11 -25 40 -77q7 -13 35 -73q1 -2 3 -7t4 -8q1 -3 2.5 -6.5t3 -6t1.5 -3.5q2 -4 12 -31q0 -7 1 -11q0 -2 0.5 -5t1.5 -5q4 -4 8 -15q2 -10 9 -38l1 -4q1 -5 2.5 -14.5
t3.5 -20.5q5 -43 5 -66q0 -45 -12 -90q-5 -20 -11 -30q-3 -12 -15 -22q-1 -3 -18 -15q-11 -5 -23 -6h-7q-3 -1 -7 -1q-5 0 -9 1h-8q-43 6 -44 6q-36 11 -49 37t-13 72q0 37 1 50q0 2 -1 5q-1 4 -1 5l2 14q-2 4 -2 9q0 6 2 10q-1 1 -1 6v5q0 2 -1 3q1 3 18 8q2 0 5 1h6
q3 0 17 -2t16 -8q0 -10 -1 -18v-22q0 -22 2 -48q1 -9 1.5 -21t1 -18t2 -12t4.5 -9q18 -21 45 -12q21 8 25 27q5 12 5 27q1 5 1 24q1 10 1 20q0 15 -1 26v29q-3 70 -71 210q-5 10 -8 18q-5 12 -8 19l-8 17q-7 18 -8 19l-16 34q-24 68 -28 99q-2 26 -2 29q0 47 23 80
q19 27 59 34q25 5 50 5q26 0 39 -7z" />
    <glyph glyph-name="agrave" unicode="&#xe0;" horiz-adv-x="322" 
d="M73 863v2q0 5 25 5q31 0 39 -4q6 -2 11 -9q7 -8 13 -17q2 -1 13 -16q20 -29 21 -32q-7 -1 -13 -2l-9 -1.5l-6 -1t-5 -0.5q-26 0 -31 11q-15 17 -27 30t-16.5 18t-8.5 9t-6 8zM183 551q-1 5 -3 18l-4 20q-1 2 -1.5 8t-0.5 9q-2 14 -2 16q-9 64 -14 64q-2 0 -3 1q-3 0 -4 1
q-3 0 -5 -2q-2 -1 -4 -7q-3 -12 -17 -145l-5 -67l-1 -13v-14q-1 -7 -1 -18q-4 -21 -4 -40v-8q0 -6 -2 -32q0 -12 -2 -34v-7q0 -6 -1 -7h27q1 0 47 -2l31 -1l-6 59q0 5 -1 10q0 2 -0.5 5.5t-1.5 5.5v13q0 3 -0.5 8.5t-1.5 7.5q-4 14 -5 36q0 10 -1 19q-1 12 -3 18q-1 4 -3 19
q-3 20 -3 22l-2 17q-2 17 -3 20zM200 764q5 -7 7 -22q9 -16 9 -28q0 -1 1 -3.5t1.5 -6.5t1.5 -7q1 -11 3 -20q1 -6 3.5 -18.5l3.5 -17.5v-4q0 -11 4 -34q0 -1 1 -3t2 -4.5t1 -4.5q0 -3 1 -8t1 -8l2 -15l7 -50l7 -59q0 -1 1 -4.5t2 -9t2 -11.5q3 -20 3 -30l9 -57l12 -91
l2 -20t2 -17.5t1 -10.5q3 -19 5 -45l4 -33l1 -13q4 -27 5 -32l6 -31q0 -7 1 -13q0 -2 0.5 -5t1 -5.5t0.5 -3.5q2 -10 2 -12v-4v-1q0 -2 -12 -4h-9q-3 -1 -6 -1l-14 2q-2 -1 -8 -1q-13 0 -14 2l-2 7q-1 2 -1 5.5v4.5q-8 76 -11 88q0 7 -1 15q-2 16 -2 17v4q-5 28 -5 32v4
q0 5 -2 13l-4 21l-4 20h-7h-9q-4 0 -7 1h-11h-11q-6 -1 -12 -1q-11 1 -43 1l-17 1l-3 -32q-4 -20 -4 -27q-1 -4 -1 -18q0 -3 -0.5 -7.5t-1 -7.5t-0.5 -5q-2 -10 -2 -22q0 -4 -0.5 -8.5t-1 -7.5t-0.5 -5q-3 -21 -4 -40q-4 -42 -8 -48q-2 -5 -18 -6q-14 -2 -27 -2q-15 2 -17 7
l2 10q0 8 1 10q0 3 1.5 10.5t1.5 10.5l4 38q2 30 2 35q2 22 5 32l3 28l5 49q4 32 6 35q-1 2 -1 9q0 6 1 10v8q0 4 0.5 8t1 6t0.5 3v6l3 16q0 8 0.5 15t1.5 11v3l7 72l5 34q2 26 2 44q3 10 5 31q0 16 3 29l6 57l3 31q1 4 3 16l4 16q-1 2 -1 9q0 9 3 18l3 21q5 23 9 32
q0 6 23 6h8h17q7 -1 16 -1q30 -7 30 -8z" />
    <glyph glyph-name="aacute" unicode="&#xe1;" horiz-adv-x="322" 
d="M255 867q-3 -5 -7.5 -9.5t-18 -19t-32.5 -36.5q-4 -10 -31 -10q-4 0 -33 4q1 3 21 32l13 16q9 14 12 17q5 7 11 9q8 4 39 4q26 0 26 -5v-2zM183 551q-1 5 -3 18l-4 20q-1 2 -1.5 8t-0.5 9q-2 14 -2 16q-9 64 -14 64q-2 0 -3 1q-3 0 -4 1q-3 0 -5 -2q-2 -1 -4 -7
q-3 -12 -17 -145l-5 -67l-1 -13v-14q-1 -7 -1 -18q-4 -21 -4 -40v-8q0 -6 -2 -32q0 -12 -2 -34v-7q0 -6 -1 -7h27q1 0 47 -2l31 -1l-6 59q0 5 -1 10q0 2 -0.5 5.5t-1.5 5.5v13q0 3 -0.5 8.5t-1.5 7.5q-4 14 -5 36q0 10 -1 19q-1 12 -3 18q-1 4 -3 19q-3 20 -3 22l-2 17
q-2 17 -3 20zM200 764q5 -7 7 -22q9 -16 9 -28q0 -1 1 -3.5t1.5 -6.5t1.5 -7q1 -11 3 -20q1 -6 3.5 -18.5l3.5 -17.5v-4q0 -11 4 -34q0 -1 1 -3t2 -4.5t1 -4.5q0 -3 1 -8t1 -8l2 -15l7 -50l7 -59q0 -1 1 -4.5t2 -9t2 -11.5q3 -20 3 -30l9 -57l12 -91l2 -20t2 -17.5t1 -10.5
q3 -19 5 -45l4 -33l1 -13q4 -27 5 -32l6 -31q0 -7 1 -13q0 -2 0.5 -5t1 -5.5t0.5 -3.5q2 -10 2 -12v-4v-1q0 -2 -12 -4h-9q-3 -1 -6 -1l-14 2q-2 -1 -8 -1q-13 0 -14 2l-2 7q-1 2 -1 5.5v4.5q-8 76 -11 88q0 7 -1 15q-2 16 -2 17v4q-5 28 -5 32v4q0 5 -2 13l-4 21l-4 20h-7
h-9q-4 0 -7 1h-11h-11q-6 -1 -12 -1q-11 1 -43 1l-17 1l-3 -32q-4 -20 -4 -27q-1 -4 -1 -18q0 -3 -0.5 -7.5t-1 -7.5t-0.5 -5q-2 -10 -2 -22q0 -4 -0.5 -8.5t-1 -7.5t-0.5 -5q-3 -21 -4 -40q-4 -42 -8 -48q-2 -5 -18 -6q-14 -2 -27 -2q-15 2 -17 7l2 10q0 8 1 10
q0 3 1.5 10.5t1.5 10.5l4 38q2 30 2 35q2 22 5 32l3 28l5 49q4 32 6 35q-1 2 -1 9q0 6 1 10v8q0 4 0.5 8t1 6t0.5 3v6l3 16q0 8 0.5 15t1.5 11v3l7 72l5 34q2 26 2 44q3 10 5 31q0 16 3 29l6 57l3 31q1 4 3 16l4 16q-1 2 -1 9q0 9 3 18l3 21q5 23 9 32q0 6 23 6h8h17
q7 -1 16 -1q30 -7 30 -8z" />
    <glyph glyph-name="acircumflex" unicode="&#xe2;" horiz-adv-x="322" 
d="M122 873l54 5q6 1 9.5 0.5t5 -2.5t3.5 -9q1 -2 2 -5l1.5 -4.5t0.5 -2.5q2 -5 4 -11t3 -10t1 -5l11 -35l-44 -4q-1 5 -5 17q-1 3 -1.5 5.5t-0.5 3.5t-6 19l-5 7q-8 0 -19 -48q0 -7 -18 -7q-5 0 -16.5 1.5t-15.5 1.5q4 16 5 18q7 14 10 26q1 2 1 6l2 4q2 0 2 3q2 4 3 5
q5 21 12 21h1zM183 551q-1 5 -3 18l-4 20q-1 2 -1.5 8t-0.5 9q-2 14 -2 16q-9 64 -14 64q-2 0 -3 1q-3 0 -4 1q-3 0 -5 -2q-2 -1 -4 -7q-3 -12 -17 -145l-5 -67l-1 -13v-14q-1 -7 -1 -18q-4 -21 -4 -40v-8q0 -6 -2 -32q0 -12 -2 -34v-7q0 -6 -1 -7h27q1 0 47 -2l31 -1l-6 59
q0 5 -1 10q0 2 -0.5 5.5t-1.5 5.5v13q0 3 -0.5 8.5t-1.5 7.5q-4 14 -5 36q0 10 -1 19q-1 12 -3 18q-1 4 -3 19q-3 20 -3 22l-2 17q-2 17 -3 20zM200 764q5 -7 7 -22q9 -16 9 -28q0 -1 1 -3.5t1.5 -6.5t1.5 -7q1 -11 3 -20q1 -6 3.5 -18.5l3.5 -17.5v-4q0 -11 4 -34
q0 -1 1 -3t2 -4.5t1 -4.5q0 -3 1 -8t1 -8l2 -15l7 -50l7 -59q0 -1 1 -4.5t2 -9t2 -11.5q3 -20 3 -30l9 -57l12 -91l2 -20t2 -17.5t1 -10.5q3 -19 5 -45l4 -33l1 -13q4 -27 5 -32l6 -31q0 -7 1 -13q0 -2 0.5 -5t1 -5.5t0.5 -3.5q2 -10 2 -12v-4v-1q0 -2 -12 -4h-9
q-3 -1 -6 -1l-14 2q-2 -1 -8 -1q-13 0 -14 2l-2 7q-1 2 -1 5.5v4.5q-8 76 -11 88q0 7 -1 15q-2 16 -2 17v4q-5 28 -5 32v4q0 5 -2 13l-4 21l-4 20h-7h-9q-4 0 -7 1h-11h-11q-6 -1 -12 -1q-11 1 -43 1l-17 1l-3 -32q-4 -20 -4 -27q-1 -4 -1 -18q0 -3 -0.5 -7.5t-1 -7.5
t-0.5 -5q-2 -10 -2 -22q0 -4 -0.5 -8.5t-1 -7.5t-0.5 -5q-3 -21 -4 -40q-4 -42 -8 -48q-2 -5 -18 -6q-14 -2 -27 -2q-15 2 -17 7l2 10q0 8 1 10q0 3 1.5 10.5t1.5 10.5l4 38q2 30 2 35q2 22 5 32l3 28l5 49q4 32 6 35q-1 2 -1 9q0 6 1 10v8q0 4 0.5 8t1 6t0.5 3v6l3 16
q0 8 0.5 15t1.5 11v3l7 72l5 34q2 26 2 44q3 10 5 31q0 16 3 29l6 57l3 31q1 4 3 16l4 16q-1 2 -1 9q0 9 3 18l3 21q5 23 9 32q0 6 23 6h8h17q7 -1 16 -1q30 -7 30 -8z" />
    <glyph glyph-name="atilde" unicode="&#xe3;" horiz-adv-x="322" 
d="M75 826l-1 2v2q0 15 7 30q12 27 56 27q26 -3 41 -16q14 -12 15 -22q3 -11 9 -16q2 -2 3 -2q5 0 5 23q0 5 -1 8v8h50q3 -9 3 -23q0 -41 -32 -54q-2 -2 -20 -8q-18 0 -30 9q-16 9 -28 28q-11 20 -16 22l-6 -2q-2 -6 -2 -16q0 -3 4 -15l3 -13l-54 -5v6l-4 14q-2 8 -2 12v1z
M183 551q-1 5 -3 18l-4 20q-1 2 -1.5 8t-0.5 9q-2 14 -2 16q-9 64 -14 64q-2 0 -3 1q-3 0 -4 1q-3 0 -5 -2q-2 -1 -4 -7q-3 -12 -17 -145l-5 -67l-1 -13v-14q-1 -7 -1 -18q-4 -21 -4 -40v-8q0 -6 -2 -32q0 -12 -2 -34v-7q0 -6 -1 -7h27q1 0 47 -2l31 -1l-6 59q0 5 -1 10
q0 2 -0.5 5.5t-1.5 5.5v13q0 3 -0.5 8.5t-1.5 7.5q-4 14 -5 36q0 10 -1 19q-1 12 -3 18q-1 4 -3 19q-3 20 -3 22l-2 17q-2 17 -3 20zM200 764q5 -7 7 -22q9 -16 9 -28q0 -1 1 -3.5t1.5 -6.5t1.5 -7q1 -11 3 -20q1 -6 3.5 -18.5l3.5 -17.5v-4q0 -11 4 -34q0 -1 1 -3t2 -4.5
t1 -4.5q0 -3 1 -8t1 -8l2 -15l7 -50l7 -59q0 -1 1 -4.5t2 -9t2 -11.5q3 -20 3 -30l9 -57l12 -91l2 -20t2 -17.5t1 -10.5q3 -19 5 -45l4 -33l1 -13q4 -27 5 -32l6 -31q0 -7 1 -13q0 -2 0.5 -5t1 -5.5t0.5 -3.5q2 -10 2 -12v-4v-1q0 -2 -12 -4h-9q-3 -1 -6 -1l-14 2
q-2 -1 -8 -1q-13 0 -14 2l-2 7q-1 2 -1 5.5v4.5q-8 76 -11 88q0 7 -1 15q-2 16 -2 17v4q-5 28 -5 32v4q0 5 -2 13l-4 21l-4 20h-7h-9q-4 0 -7 1h-11h-11q-6 -1 -12 -1q-11 1 -43 1l-17 1l-3 -32q-4 -20 -4 -27q-1 -4 -1 -18q0 -3 -0.5 -7.5t-1 -7.5t-0.5 -5q-2 -10 -2 -22
q0 -4 -0.5 -8.5t-1 -7.5t-0.5 -5q-3 -21 -4 -40q-4 -42 -8 -48q-2 -5 -18 -6q-14 -2 -27 -2q-15 2 -17 7l2 10q0 8 1 10q0 3 1.5 10.5t1.5 10.5l4 38q2 30 2 35q2 22 5 32l3 28l5 49q4 32 6 35q-1 2 -1 9q0 6 1 10v8q0 4 0.5 8t1 6t0.5 3v6l3 16q0 8 0.5 15t1.5 11v3l7 72
l5 34q2 26 2 44q3 10 5 31q0 16 3 29l6 57l3 31q1 4 3 16l4 16q-1 2 -1 9q0 9 3 18l3 21q5 23 9 32q0 6 23 6h8h17q7 -1 16 -1q30 -7 30 -8z" />
    <glyph glyph-name="adieresis" unicode="&#xe4;" horiz-adv-x="322" 
d="M183 551q-1 5 -3 18l-4 20q-1 2 -1.5 8t-0.5 9q-2 14 -2 16q-9 64 -14 64q-2 0 -3 1q-3 0 -4 1q-3 0 -5 -2q-2 -1 -4 -7q-3 -12 -17 -145l-5 -67l-1 -13v-14q-1 -7 -1 -18q-4 -21 -4 -40v-8q0 -6 -2 -32q0 -12 -2 -34v-7q0 -6 -1 -7h27q1 0 47 -2l31 -1l-6 59q0 5 -1 10
q0 2 -0.5 5.5t-1.5 5.5v13q0 3 -0.5 8.5t-1.5 7.5q-4 14 -5 36q0 10 -1 19q-1 12 -3 18q-1 4 -3 19q-3 20 -3 22l-2 17q-2 17 -3 20zM200 764q5 -7 7 -22q9 -16 9 -28q0 -1 1 -3.5t1.5 -6.5t1.5 -7q1 -11 3 -20q1 -6 3.5 -18.5l3.5 -17.5v-4q0 -11 4 -34q0 -1 1 -3t2 -4.5
t1 -4.5q0 -3 1 -8t1 -8l2 -15l7 -50l7 -59q0 -1 1 -4.5t2 -9t2 -11.5q3 -20 3 -30l9 -57l12 -91l2 -20t2 -17.5t1 -10.5q3 -19 5 -45l4 -33l1 -13q4 -27 5 -32l6 -31q0 -7 1 -13q0 -2 0.5 -5t1 -5.5t0.5 -3.5q2 -10 2 -12v-4v-1q0 -2 -12 -4h-9q-3 -1 -6 -1l-14 2
q-2 -1 -8 -1q-13 0 -14 2l-2 7q-1 2 -1 5.5v4.5q-8 76 -11 88q0 7 -1 15q-2 16 -2 17v4q-5 28 -5 32v4q0 5 -2 13l-4 21l-4 20h-7h-9q-4 0 -7 1h-11h-11q-6 -1 -12 -1q-11 1 -43 1l-17 1l-3 -32q-4 -20 -4 -27q-1 -4 -1 -18q0 -3 -0.5 -7.5t-1 -7.5t-0.5 -5q-2 -10 -2 -22
q0 -4 -0.5 -8.5t-1 -7.5t-0.5 -5q-3 -21 -4 -40q-4 -42 -8 -48q-2 -5 -18 -6q-14 -2 -27 -2q-15 2 -17 7l2 10q0 8 1 10q0 3 1.5 10.5t1.5 10.5l4 38q2 30 2 35q2 22 5 32l3 28l5 49q4 32 6 35q-1 2 -1 9q0 6 1 10v8q0 4 0.5 8t1 6t0.5 3v6l3 16q0 8 0.5 15t1.5 11v3l7 72
l5 34q2 26 2 44q3 10 5 31q0 16 3 29l6 57l3 31q1 4 3 16l4 16q-1 2 -1 9q0 9 3 18l3 21q5 23 9 32q0 6 23 6h8h17q7 -1 16 -1q30 -7 30 -8zM217 861q8 0 9 -7q1 -2 1 -12q0 -12 -1 -17q0 -15 -3 -22q-2 -8 -7 -11q-6 -4 -14 -5h-5q-8 0 -14 4q-10 1 -15 13q-4 7 -4 19
q1 19 5 26q8 16 12 17l2 1h2h6q3 1 6 1h2h1q2 -1 4 -1q2 -2 8 -2q4 -4 5 -4zM129 861q9 0 9 -7q1 -2 1 -12q0 -12 -1 -17q0 -16 -2 -22q-2 -8 -8 -11q-4 -4 -13 -5h-5q-7 0 -15 4q-11 3 -14 13q-5 12 -5 19q2 17 6 26q4 12 11 17l2 1h3q2 0 5 1h6h2q3 0 5 -1q6 -2 8 -2l2 -2
q2 -2 3 -2z" />
    <glyph glyph-name="aring" unicode="&#xe5;" horiz-adv-x="322" 
d="M226 811v-8q0 -17 -9 -33q-4 -8 -13 -14q0 -1 3 -14q9 -16 9 -28q0 -1 1 -3.5t1.5 -6.5t1.5 -7q1 -11 3 -20q1 -6 3.5 -18.5l3.5 -17.5v-4q0 -11 4 -34q0 -1 1 -3t2 -4.5t1 -4.5q0 -3 1 -8t1 -8l2 -15l7 -50l7 -59q0 -1 1 -4.5t2 -9t2 -11.5q3 -20 3 -30l9 -57l12 -91
l2 -20t2 -17.5t1 -10.5q3 -19 5 -45l4 -33l1 -13q4 -27 5 -32l6 -31q0 -7 1 -13q0 -2 0.5 -5t1 -5.5t0.5 -3.5q2 -10 2 -12v-4v-1q0 -2 -12 -4h-9q-3 -1 -6 -1l-14 2q-2 -1 -8 -1q-13 0 -14 2l-2 7q-1 2 -1 5.5v4.5q-8 76 -11 88q0 7 -1 15q-2 16 -2 17v4q-5 28 -5 32v4
q0 5 -2 13l-4 21l-4 20h-7h-9q-4 0 -7 1h-11h-11q-6 -1 -12 -1q-11 1 -43 1l-17 1l-3 -32q-4 -20 -4 -27q-1 -4 -1 -18q0 -3 -0.5 -7.5t-1 -7.5t-0.5 -5q-2 -10 -2 -22q0 -4 -0.5 -8.5t-1 -7.5t-0.5 -5q-3 -21 -4 -40q-4 -42 -8 -48q-2 -5 -18 -6q-14 -2 -27 -2q-15 2 -17 7
l2 10q0 8 1 10q0 3 1.5 10.5t1.5 10.5l4 38q2 30 2 35q2 22 5 32l3 28l5 49q4 32 6 35q-1 2 -1 9q0 6 1 10v8q0 4 0.5 8t1 6t0.5 3v6l3 16q0 8 0.5 15t1.5 11v3l7 72l5 34q2 26 2 44q3 10 5 31q0 16 3 29l6 57l3 31q1 4 3 16l4 16q-1 2 -1 9q0 9 3 18l3 21q4 18 6 24h-1
q-5 5 -6 7q-2 2 -2 3l-4 4q0 2 -1 3l-1 4q-7 20 -7 45q0 33 13 54q15 22 44 22h5h10l14 -2h5q4 0 5 -1q3 0 4 -1q44 -14 44 -63q1 -2 1 -6v-17zM136 853q-2 0 -2 -3v-2q0 -2 -1 -2q1 0 1 -1q0 -2 -2 -2v-5q0 -3 -1 -4v-13q0 -15 3 -18q0 -2 1 -2l2 -2l2 -2q1 -1 2 -1l1 -1h9
q1 -1 9 -1q6 0 8 1q6 0 9 6q1 1 1 4q1 2 1 4q1 1 1 3l1 1v2h-1q2 8 2 13q0 23 -20 27l-2 1q-1 1 -4 1q-1 1 -5 1t-5 1l-5 -2q-5 -2 -5 -4zM183 551q-1 5 -3 18l-4 20q-1 2 -1.5 8t-0.5 9q-2 14 -2 16q-9 64 -14 64q-2 0 -3 1q-3 0 -4 1q-3 0 -5 -2q-2 -1 -4 -7
q-3 -12 -17 -145l-5 -67l-1 -13v-14q-1 -7 -1 -18q-4 -21 -4 -40v-8q0 -6 -2 -32q0 -12 -2 -34v-7q0 -6 -1 -7h27q1 0 47 -2l31 -1l-6 59q0 5 -1 10q0 2 -0.5 5.5t-1.5 5.5v13q0 3 -0.5 8.5t-1.5 7.5q-4 14 -5 36q0 10 -1 19q-1 12 -3 18q-1 4 -3 19q-3 20 -3 22l-2 17
q-2 17 -3 20z" />
    <glyph glyph-name="ae" unicode="&#xe6;" horiz-adv-x="417" 
d="M214 280q1 2 1 11v10v14q-1 5 -1 15v5q0 7 -2 17q1 3 1 14v13q2 22 2 50v51v25q0 4 0.5 12t1.5 11v8l-1 4q0 3 -0.5 13t-1.5 20q0 1 0.5 8.5t0.5 13.5q2 10 2 22v47q0 26 1 32q-2 1 -11 1q-4 0 -6 -2q-8 -15 -14 -48q-6 -17 -14 -57l-7 -41q-2 -15 -6 -48q-3 -33 -3 -35
l-7 -56q-1 -8 -2.5 -15.5t-2.5 -11.5l-1 -4q0 -2 1 -3v-3q-1 -1 -1 -4t-1 -5q0 -1 -0.5 -4.5t-1.5 -4.5q0 -3 -1 -4q-1 -13 -4 -28q-4 -17 -4 -35v-4q1 -1 3.5 -1.5t3.5 -0.5q3 -1 7 -1q3 -1 18 -1q3 1 12 1h12h9zM186 770l133 -5q4 1 33 1q18 -2 19 -2q14 -1 17 -4l1 -1v-2
l2 -5v-2q0 -1 -0.5 -5.5t-0.5 -8v-5.5q1 -3 1 -6v-7q0 -9 -1 -12l-2 -9l-1 -1l-6 -2h-6q-3 -1 -8 -1h-7h-26q-4 0 -20 -2q-28 2 -29 3v-2q0 -2 -2 -4q-1 -7 -3 -10q2 -10 2 -12t-2 -12q4 -24 4 -27v-18v-6v-14q0 -19 -1 -24q1 -7 1 -29v-28q-1 -6 -1 -27q0 -28 1 -35
q0 -8 -1 -15q0 -11 -1 -14q2 -16 2 -21v-7q-1 -2 -1 -8q0 -68 2 -76q1 -9 3 -14q3 -3 4 -3h8q8 0 13 1h42q13 0 20 -4q3 -2 5 -16v-5q0 -4 -2 -14q3 -10 3 -24v-5q-1 -15 -6 -15q-7 -3 -52 -3h-19h-6q-8 0 -9 -1q-4 -4 -6 -16l-2 -22q0 -10 -1 -17v-36v-36v-17q5 1 20 1
t18 1q9 0 15 -1h11h7h14h21q7 -1 7 -34q0 -36 -4 -36q-7 -4 -20 -4h-11q-5 1 -13 1h-7q-7 1 -38 1h-40q-3 -1 -15 -1q-10 0 -12 1q-10 3 -14 6q0 1 -1 2v4v3v1v8v3q0 2 -3 23q-1 19 -1 120q0 30 -1 39q1 3 1 15h-31h-12q-5 1 -10 1t-9 -1h-10q-17 0 -20 -3q-2 -2 -9 -33
q-8 -32 -8 -33t-1 -5t-1.5 -7.5t-1.5 -7.5t-2.5 -11t-1.5 -8v-6q0 -16 -4 -32q-1 -4 -3 -18q-1 -7 -1 -14q-4 -27 -10 -43q-9 -3 -21 -3h-13q-29 0 -30 7v2q0 1 2 19q3 15 3 22q0 1 1 8t2 13q0 11 3 26q3 21 5 27q1 7 2.5 18t1.5 15q0 12 1 16v7q1 4 1 10q4 15 4 26
q3 10 5 26q0 8 1 14q2 10 3 13l4 28l6 37q5 17 6 35q0 1 2 17l4 17l5 33q7 56 15 103l8 40q2 20 9 42q1 6 3 22q4 16 4 17q15 70 21 110q3 6 13 9q7 4 36 4z" />
    <glyph glyph-name="ccedilla" unicode="&#xe7;" horiz-adv-x="287" 
d="M217 750q9 -9 15 -26l6 -17q3 -7 6 -16q3 -21 3 -41q0 -3 0.5 -6t1 -4.5t0.5 -2.5q0 -4 -2 -20q0 -8 -2 -24q0 -4 -16 -4q-3 1 -12 3q-10 2 -14 3q-17 6 -17 8q-2 8 0 28q1 12 1 24q-2 29 -13 45q-12 15 -24 15q-5 0 -11 -3q-7 -5 -19 -25q-10 -17 -21 -63
q-10 -46 -10 -110q0 -2 -2 -18t-2 -20v-4q0 -5 0.5 -13t1 -20.5t0.5 -22.5q1 -40 3 -60l3 -52q2 -24 2 -28q0 -5 -1 -10v-9q4 -16 5 -41q1 -4 1.5 -13t0.5 -14l2 -22q5 -17 5 -42q12 -68 36 -74q10 0 18 6q20 17 20 88v18v38v9l1 29h16q3 1 15 1t15 -1q18 -2 18 -7
q0 -17 2 -29q1 -7 1 -35v-26q0 -49 -5 -74q-13 -53 -66 -73q-10 -4 -16 -5v-24l20 -14l6 -8l6 -7q1 -1 2 -3.5t2 -3.5q1 -3 2 -4t1 -2q1 -2 1 -3q1 -2 1 -5q0 -2 1 -5q1 -4 1 -6v-2q1 -1 1 -3q0 -6 -3 -10v-4q0 -5 -4 -9q0 -3 -7 -10q-1 -2 -10 -9q-18 -13 -44 -13
q-43 0 -54 23l-1 2l-2 4l-4 8q-4 8 -5 15v2l-1 3v3q-2 4 -2 6q-1 1 -1.5 3.5t-0.5 3.5v5q0 6 25 6q11 0 13 -2q3 -9 4 -11v-9l4 -8q2 -6 2 -7q3 -6 6 -8q6 -6 15 -6h3q12 0 18 8.5t4 19.5q-2 13 -18 29q-7 8 -18 17l-9 7q-1 1 -1 31q-17 3 -29 13q-12 6 -22 22
q-12 13 -16 29q-9 41 -13 76q0 1 -0.5 2.5t-0.5 3t-0.5 4t-0.5 4.5v15q-2 14 -2 30q0 4 -2 34q0 28 -1 36q0 6 -1 22t-2 45.5t-2 58.5q-1 7 -1 31v12q-1 6 -1 29v10q-2 18 -2 38q1 100 18 160q1 4 3 14q1 2 2 5l1.5 4.5t0.5 2.5q7 19 9 22q28 51 62 63q15 4 25 4h4
q45 0 72 -30z" />
    <glyph glyph-name="egrave" unicode="&#xe8;" 
d="M69 861v2q0 5 25 5q31 0 39 -4q6 -2 11 -9q7 -8 13 -17q2 -1 13 -16q14 -22 20 -32q-9 -1 -16 -2.5t-10 -2t-6 -0.5q-26 0 -31 11q-15 17 -27 30t-16.5 18t-8.5 9t-6 8zM251 756h1q3 0 5 -14q1 -3 1 -15t-1 -15q-2 -19 -3 -22q-2 -3 -21 -3h-9q-42 0 -48 -1l-73 -3v-105
q0 -5 2 -39q2 -5 0 -15q-1 -6 -1 -12v-9q1 -8 1 -33v-29q1 -11 1 -23l4 -61q12 -4 56 -4h30h7q17 0 19 -2q3 -1 5 -22q2 -8 2 -17q0 -4 -2 -12q0 -15 -3 -15l-116 -5l-4 -200l84 -2q57 0 77 -2q8 -2 8 -45q0 -23 -4 -23q-6 -1 -29 -1q-3 -1 -30 -1h-45l-124 2q-5 0 -5 45v32
v26q0 5 2 65v25v52q1 23 1 53q0 37 -1 48v10q1 3 1 8q0 12 -1 21t-1 21q0 5 1 8v7q-1 15 -1 66q0 36 -0.5 71.5t-1 53.5t-0.5 23q0 94 9 112q2 4 44 5h8q8 0 30 -0.5t29 -0.5q51 0 59 1q2 0 5 -0.5t7.5 -1t7.5 -0.5q11 0 17 -2z" />
    <glyph glyph-name="eacute" unicode="&#xe9;" 
d="M249 861q-3 -5 -7.5 -9.5t-18.5 -19t-33 -36.5q-5 -11 -30 -11q-3 0 -6 0.5t-10.5 2t-16.5 2.5q6 10 20 32l14 16q9 14 12 17q5 7 11 9q8 4 39 4q26 0 26 -5v-2zM251 756h1q3 0 5 -14q1 -3 1 -15t-1 -15q-2 -19 -3 -22q-2 -3 -21 -3h-9q-42 0 -48 -1l-73 -3v-105
q0 -5 2 -39q2 -5 0 -15q-1 -6 -1 -12v-9q1 -8 1 -33v-29q1 -11 1 -23l4 -61q12 -4 56 -4h30h7q17 0 19 -2q3 -1 5 -22q2 -8 2 -17q0 -4 -2 -12q0 -15 -3 -15l-116 -5l-4 -200l84 -2q57 0 77 -2q8 -2 8 -45q0 -23 -4 -23q-6 -1 -29 -1q-3 -1 -30 -1h-45l-124 2q-5 0 -5 45v32
v26q0 5 2 65v25v52q1 23 1 53q0 37 -1 48v10q1 3 1 8q0 12 -1 21t-1 21q0 5 1 8v7q-1 15 -1 66q0 36 -0.5 71.5t-1 53.5t-0.5 23q0 94 9 112q2 4 44 5h8q8 0 30 -0.5t29 -0.5q51 0 59 1q2 0 5 -0.5t7.5 -1t7.5 -0.5q11 0 17 -2z" />
    <glyph glyph-name="ecircumflex" unicode="&#xea;" 
d="M112 878l54 4q6 1 9.5 0.5t4.5 -2.5t3 -9q1 -2 2 -5l1.5 -4.5t0.5 -2.5q3 -8 9 -25l11 -36l-44 -4q-2 12 -5 17q-1 3 -1.5 5.5t-0.5 3.5t-6 19q-5 7 -6 7q-7 0 -18 -48q0 -6 -18 -6q-8 0 -32 2q3 12 4 15l1 3q7 14 10 26q0 1 0.5 3t1.5 3q0 3 1 4q2 0 2 3q0 1 0.5 2.5
t1.5 2.5q5 22 13 22h1zM251 756h1q3 0 5 -14q1 -3 1 -15t-1 -15q-2 -19 -3 -22q-2 -3 -21 -3h-9q-42 0 -48 -1l-73 -3v-105q0 -5 2 -39q2 -5 0 -15q-1 -6 -1 -12v-9q1 -8 1 -33v-29q1 -11 1 -23l4 -61q12 -4 56 -4h30h7q17 0 19 -2q3 -1 5 -22q2 -8 2 -17q0 -4 -2 -12
q0 -15 -3 -15l-116 -5l-4 -200l84 -2q57 0 77 -2q8 -2 8 -45q0 -23 -4 -23q-6 -1 -29 -1q-3 -1 -30 -1h-45l-124 2q-5 0 -5 45v32v26q0 5 2 65v25v52q1 23 1 53q0 37 -1 48v10q1 3 1 8q0 12 -1 21t-1 21q0 5 1 8v7q-1 15 -1 66q0 36 -0.5 71.5t-1 53.5t-0.5 23q0 94 9 112
q2 4 44 5h8q8 0 30 -0.5t29 -0.5q51 0 59 1q2 0 5 -0.5t7.5 -1t7.5 -0.5q11 0 17 -2z" />
    <glyph glyph-name="edieresis" unicode="&#xeb;" 
d="M215 855q8 0 9 -7q1 -2 1 -12q0 -12 -1 -17q0 -15 -3 -22q-2 -9 -7 -12q-4 -3 -14 -4h-5q-9 0 -14 3q-10 1 -15 14q-4 7 -4 19q1 19 5 26q8 16 12 17l2 1h2h6q3 1 6 1h2h1q2 -1 4 -1q2 -2 8 -2q4 -4 5 -4zM127 855q9 0 9 -7q1 -2 1 -12q0 -12 -1 -17q0 -16 -2 -22
q-2 -10 -8 -12q-2 -3 -13 -4h-5q-9 0 -15 3q-11 3 -14 14q-5 12 -5 19q2 17 6 26q4 12 11 17l2 1h3q2 0 5 1h5h3q3 0 5 -1q6 -2 8 -2l2 -2q2 -2 3 -2zM251 756h1q3 0 5 -14q1 -3 1 -15t-1 -15q-2 -19 -3 -22q-2 -3 -21 -3h-9q-42 0 -48 -1l-73 -3v-105q0 -5 2 -39
q2 -5 0 -15q-1 -6 -1 -12v-9q1 -8 1 -33v-29q1 -11 1 -23l4 -61q12 -4 56 -4h30h7q17 0 19 -2q3 -1 5 -22q2 -8 2 -17q0 -4 -2 -12q0 -15 -3 -15l-116 -5l-4 -200l84 -2q57 0 77 -2q8 -2 8 -45q0 -23 -4 -23q-6 -1 -29 -1q-3 -1 -30 -1h-45l-124 2q-5 0 -5 45v32v26
q0 5 2 65v25v52q1 23 1 53q0 37 -1 48v10q1 3 1 8q0 12 -1 21t-1 21q0 5 1 8v7q-1 15 -1 66q0 36 -0.5 71.5t-1 53.5t-0.5 23q0 94 9 112q2 4 44 5h8q8 0 30 -0.5t29 -0.5q51 0 59 1q2 0 5 -0.5t7.5 -1t7.5 -0.5q11 0 17 -2z" />
    <glyph glyph-name="igrave" unicode="&#xec;" horiz-adv-x="150" 
d="M-6 867v2q0 5 26 5q30 0 39 -4q8 -3 11 -9q2 -2 12 -17q1 0 14 -16q17 -26 21 -32q-31 -4 -33 -4q-28 0 -31 10q-15 17 -27 30t-17 18t-8.5 9t-6.5 8zM112 752q2 -24 2 -79v-17q1 -7 1 -17v-13v-27v-21q1 -9 1 -23v-49v-53v-68v-32q1 -13 1 -29q-2 -34 -2 -38
q0 -13 1 -16v-48q0 -188 -1 -208q0 -4 -1 -7v-7q0 -4 -19 -7q-1 1 -9 1h-6q-11 0 -19 2q-18 8 -18 13l2 369q0 35 1 44v43v28v14v38v19q1 8 1 19v79q1 31 1 58v19q0 7 2 13q-2 2 -2 3t-1 1q0 1 9 1h7q3 1 12 1h14h3q20 -3 20 -6z" />
    <glyph glyph-name="iacute" unicode="&#xed;" horiz-adv-x="150" 
d="M172 867q-3 -5 -6.5 -9.5t-18 -19.5t-32.5 -36q-6 -10 -31 -10q-6 0 -33 4q1 2 21 32l12 16q6 9 12 17q5 6 13 9q8 4 38 4q25 0 25 -5v-2zM112 752q2 -24 2 -79v-17q1 -7 1 -17v-13v-27v-21q1 -9 1 -23v-49v-53v-68v-32q1 -13 1 -29q-2 -34 -2 -38q0 -13 1 -16v-48
q0 -188 -1 -208q0 -4 -1 -7v-7q0 -4 -19 -7q-1 1 -9 1h-6q-11 0 -19 2q-18 8 -18 13l2 369q0 35 1 44v43v28v14v38v19q1 8 1 19v79q1 31 1 58v19q0 7 2 13q-2 2 -2 3t-1 1q0 1 9 1h7q3 1 12 1h14h3q20 -3 20 -6z" />
    <glyph glyph-name="icircumflex" unicode="&#xee;" horiz-adv-x="150" 
d="M54 863l54 4q13 1 15 -2q1 -2 2 -8q2 -3 3 -7t1 -5q2 -5 4 -11t3 -10t1 -5l11 -36l-44 -4q0 6 -4 18l-3 9l-6 18q-3 7 -5 7q-7 0 -18 -48q0 -6 -19 -6q-9 0 -31 2q4 14 6 19q0 1 3.5 9.5t5.5 15.5q0 1 0.5 3t1.5 3q0 1 0.5 2.5t1.5 2.5q1 2 1 3q1 1 2 3l1 2q3 21 12 21h1
zM112 752q2 -24 2 -79v-17q1 -7 1 -17v-13v-27v-21q1 -9 1 -23v-49v-53v-68v-32q1 -13 1 -29q-2 -34 -2 -38q0 -13 1 -16v-48q0 -188 -1 -208q0 -4 -1 -7v-7q0 -4 -19 -7q-1 1 -9 1h-6q-11 0 -19 2q-18 8 -18 13l2 369q0 35 1 44v43v28v14v38v19q1 8 1 19v79q1 31 1 58v19
q0 7 2 13q-2 2 -2 3t-1 1q0 1 9 1h7q3 1 12 1h14h3q20 -3 20 -6z" />
    <glyph glyph-name="idieresis" unicode="&#xef;" horiz-adv-x="150" 
d="M150 865q8 0 8 -7q2 -2 2 -12q0 -12 -2 -17q0 -17 -2 -22q-3 -8 -9 -11q-3 -3 -14 -4h-4q-8 0 -14 3q-12 2 -15 13q-4 5 -4 19q0 18 4 26q9 15 13 17l2 1h2h6q4 1 6 1h2q2 -1 4 -1q2 -2 8 -2q5 -4 7 -4zM61 865q9 0 9 -7q2 -2 2 -12q0 -12 -2 -17q0 -19 -2 -22
q0 -8 -9 -11q0 -2 -12 -4h-6q-8 0 -14 3q-12 4 -15 13q-4 14 -4 19q0 17 6 26q2 11 11 17l2 1h4q2 0 4 1h6h2q2 0 4 -1l8 -2l2 -2zM112 752q2 -24 2 -79v-17q1 -7 1 -17v-13v-27v-21q1 -9 1 -23v-49v-53v-68v-32q1 -13 1 -29q-2 -34 -2 -38q0 -13 1 -16v-48q0 -188 -1 -208
q0 -4 -1 -7v-7q0 -4 -19 -7q-1 1 -9 1h-6q-11 0 -19 2q-18 8 -18 13l2 369q0 35 1 44v43v28v14v38v19q1 8 1 19v79q1 31 1 58v19q0 7 2 13q-2 2 -2 3t-1 1q0 1 9 1h7q3 1 12 1h14h3q20 -3 20 -6z" />
    <glyph glyph-name="eth" unicode="&#xf0;" horiz-adv-x="306" 
d="M202 119q3 3 3 7q2 3 2 8l2 10q1 4 1 9q0 7 1 14v14q2 66 2 91q0 27 -1 36q0 10 1 19v21v8v18q-1 8 -1 18v102q0 9 -2 41q1 9 1 23v15q0 3 -0.5 6.5t-1 6t-0.5 3.5v14q-1 5 -1 11q-3 34 -7 41q-9 19 -17 23q-1 0 -7.5 5t-14.5 8.5t-16 3.5h-22h-9q-3 -1 -9 -1h-3
q0 -5 -1 -8q1 -4 1 -26v-35q0 -6 -1 -10v-11q0 -12 2 -22v-13q0 -10 -1 -13q1 -1 1 -7q0 -8 -2 -14v-8q1 -3 1 -6v-12q0 -2 -1 -5v-6v-6q1 -3 1 -6v-140h85v-56q-3 0 -4 1h-6h-5q-2 -1 -9 -1q-5 -1 -14 -1l-34 -1h-6q-3 -1 -6 -1v-74q0 -19 1 -24q-1 -4 -1.5 -6.5t-0.5 -4.5
v-55q0 -20 -1 -27q0 -2 -1 -3v-4q0 -5 3 -11q0 -1 -1 -2v-2q0 -2 3 -7v-1q2 0 2 1q6 -6 14 -6q6 0 7 1q1 -1 5 -1q19 0 37 15q12 8 20 21q11 11 11 22zM275 425q4 -58 4 -87q0 -14 -1 -25v-21q1 -3 1 -12q0 -8 -1 -14v-13v-7q-2 -12 -2 -19t1.5 -26t1.5 -30q0 -20 -5 -47
q0 -2 -1.5 -10.5t-2 -10.5t-1.5 -9t-2 -9.5t-2.5 -8.5t-3 -8.5t-3.5 -7.5t-4.5 -8.5t-5.5 -8t-7 -8.5q-30 -33 -81 -39q-4 0 -7 -1h-9h-9q-3 1 -7 1t-7 -1h-8q-2 0 -12 2q-14 -2 -16 -2q-7 0 -9 1q-3 0 -29 2v24q-1 13 -1 34v22v12q-1 5 -1 13t1 14v14q-1 7 -1 32v25
q0 20 -1 27v71l-40 1v15q-1 9 -1 14v29q2 -1 40 -1q1 2 1 6q1 3 1 5v12q-2 26 -2 32v72v21q-1 9 -1 19v125q0 11 1 14v27q1 23 5 61q0 15 9 18q7 3 29 3q9 0 18 1h20q32 -2 34 -2q43 0 67 -24q11 -8 16 -16q11 -11 18 -43q1 -3 1 -17q0 -3 0.5 -9.5t1.5 -8.5
q10 -134 11 -169q1 -3 1 -11q1 -5 1 -13v-22z" />
    <glyph glyph-name="ntilde" unicode="&#xf1;" horiz-adv-x="369" 
d="M95 833q0 1 -0.5 2t-0.5 2q0 14 7 29q12 27 57 27q27 -3 41 -15q12 -11 14 -23q3 -11 9 -16q1 -1 3 -1q5 0 5 22q0 5 -1 8v9h51q3 -9 3 -24q0 -41 -32 -54l-21 -7q-18 0 -29 8q-18 10 -29 28q-12 20 -15 22l-6 -2q-3 -9 -3 -15q0 -1 5 -16l3 -13l-55 -5v6l-4 14
q-2 8 -2 12v2zM270 526q0 22 -1 40t-1 41q0 29 -1 53q-2 48 -2 52q-1 19 -1 53q2 6 14 6h2q7 0 14 1q12 0 16 1q14 -3 16 -5l4 -2l3 -2v-22q-1 -10 -1 -26q1 -4 1 -11q0 -21 1 -35q1 -15 1 -35q0 -12 1 -23v-26q0 -16 1 -29v-33q1 -31 1 -129v-74v-20q-1 -8 -1 -18v-34v-32
q-1 -13 -1 -30q0 -49 1 -85t1 -80v-5l-4 -16q0 -2 -6 -2t-11 1h-12h-4q-8 -2 -17 -2q-38 0 -46 12q-13 23 -32 106q-15 61 -30 112q-6 18 -15 74q-5 5 -5 23q0 2 1 4v3q-5 4 -9 21l-4 23q0 2 -9 47q-1 9 -3 26q-1 4 -1.5 8t-1.5 7t-1 4l-17 102l-2 35l-3 -41q-2 -40 -2 -79
v-50q0 -24 1 -31q-1 -10 -1 -44v-93q1 -42 1 -90q0 -15 3 -42v-37q-2 -6 -2 -15t2 -15v-50q0 -3 -12 -5q-12 -3 -19 -3q-5 0 -9 1h-11q-15 5 -15 6v1q-2 6 -2 8v4q1 1 1 5q0 5 -1 6q0 4 -1 7v8q0 39 1 55q0 21 1 27q-1 3 -1 14v9q0 7 -1 10q2 44 2 89v3l1 59v79q0 3 2 55
q-1 8 -1 39q0 33 1 42v91q1 40 1 98v20l2 9q1 3 1 14l5 1h9h6q16 2 23 2q34 0 37 -11q8 -15 18 -51q27 -149 61 -327l8 -40q1 -2 1.5 -6.5t0.5 -6.5q2 -12 3 -16l3 -10l8 -38l28 -108l4 -16l5 -21q3 -10 4 -10q1 2 1 11q0 18 -1 25q3 9 3 73q0 73 -1 98v24q-1 10 -1 22v32
q0 14 1 18q0 7 -1 12t-1 12v25q0 14 -1 25t-1 24v14z" />
    <glyph glyph-name="ograve" unicode="&#xf2;" horiz-adv-x="323" 
d="M54 867v2q0 5 26 5q31 0 39 -4q6 -2 11 -9q3 -3 12 -17q3 -1 14 -16q14 -22 20 -32q-29 -4 -33 -4q-26 0 -30 10q-15 17 -27 30t-17 18l-9 9t-6 8zM109 663q-1 -4 -2.5 -15.5t-2.5 -16.5q0 -5 -1 -11q-1 -2 -1 -8t-1 -8q0 -3 1 -6v-5q0 -2 -2 -18q0 -26 -1 -35
q0 -29 -1 -38v-41q-1 -18 -1 -42v-49v-16v-31q1 -172 8 -196q6 -21 11 -30q5 -12 13 -22q9 -11 22 -15q9 -3 25 -3q10 0 21 8q1 1 9 6q6 5 9 6q2 4 6 8q4 7 5 14q4 13 4 44q0 25 2 47v9q0 48 -1 87t-1 84v18q-1 8 -1 18q1 3 1 12v13v36v41q0 19 -1 35q-1 25 -3 39
q-2 15 -6 31q-5 22 -10 32l-9 14q-8 13 -10 15q-3 6 -8 11q-2 5 -10 9q-7 8 -27 12q-17 -6 -20 -14q-12 -12 -17 -29zM293 317v-43q0 -12 1 -21v-21v-47q0 -21 -1 -44q-2 -36 -4 -47q-6 -27 -8 -37q-3 -16 -14 -33q-8 -12 -20 -20q-12 -7 -29 -13q-12 -4 -25 -4h-6h-22h-10
q-11 1 -28 7q-1 0 -5 2l-6 3q-10 4 -13 5q-17 9 -35 34q-8 15 -12 25q-3 9 -5 16q-1 3 -2.5 6l-2.5 5t-1 3q0 3 -2 19t-2 19q0 1 -0.5 3t-1 6t-0.5 8q-2 17 -3 26q0 1 -3 49q-1 10 -1 48v16v36v13q-1 7 -1 15q0 9 1 15v14v63q0 23 1 39v35q0 18 1 30t1 25q0 35 1 42
q3 58 21 103q26 56 76 63q2 1 10 1q12 0 16 -1q10 0 24 -8q16 -7 26 -17q21 -19 36 -43q12 -17 25 -63q9 -28 13 -57q0 -4 1 -9q0 -2 0.5 -7t1.5 -7q3 -12 3 -53q2 -14 2 -36q1 -5 1 -24q0 -23 1 -30v-31v-37v-41z" />
    <glyph glyph-name="oacute" unicode="&#xf3;" horiz-adv-x="323" 
d="M232 867q-3 -5 -7.5 -9.5t-18 -19t-32.5 -36.5q-4 -10 -31 -10q-3 0 -32 4q6 10 20 32l13 16q6 9 13 17q5 7 11 9q8 4 39 4q25 0 25 -5v-2zM109 663q-1 -4 -2.5 -15.5t-2.5 -16.5q0 -5 -1 -11q-1 -2 -1 -8t-1 -8q0 -3 1 -6v-5q0 -2 -2 -18q0 -26 -1 -35q0 -29 -1 -38v-41
q-1 -18 -1 -42v-49v-16v-31q1 -172 8 -196q6 -21 11 -30q5 -12 13 -22q9 -11 22 -15q9 -3 25 -3q10 0 21 8q1 1 9 6q6 5 9 6q2 4 6 8q4 7 5 14q4 13 4 44q0 25 2 47v9q0 48 -1 87t-1 84v18q-1 8 -1 18q1 3 1 12v13v36v41q0 19 -1 35q-1 25 -3 39q-2 15 -6 31q-5 22 -10 32
l-9 14q-8 13 -10 15q-3 6 -8 11q-2 5 -10 9q-7 8 -27 12q-17 -6 -20 -14q-12 -12 -17 -29zM293 317v-43q0 -12 1 -21v-21v-47q0 -21 -1 -44q-2 -36 -4 -47q-6 -27 -8 -37q-3 -16 -14 -33q-8 -12 -20 -20q-12 -7 -29 -13q-12 -4 -25 -4h-6h-22h-10q-11 1 -28 7q-1 0 -5 2
l-6 3q-10 4 -13 5q-17 9 -35 34q-8 15 -12 25q-3 9 -5 16q-1 3 -2.5 6l-2.5 5t-1 3q0 3 -2 19t-2 19q0 1 -0.5 3t-1 6t-0.5 8q-2 17 -3 26q0 1 -3 49q-1 10 -1 48v16v36v13q-1 7 -1 15q0 9 1 15v14v63q0 23 1 39v35q0 18 1 30t1 25q0 35 1 42q3 58 21 103q26 56 76 63
q2 1 10 1q12 0 16 -1q10 0 24 -8q16 -7 26 -17q21 -19 36 -43q12 -17 25 -63q9 -28 13 -57q0 -4 1 -9q0 -2 0.5 -7t1.5 -7q3 -12 3 -53q2 -14 2 -36q1 -5 1 -24q0 -23 1 -30v-31v-37v-41z" />
    <glyph glyph-name="ocircumflex" unicode="&#xf4;" horiz-adv-x="323" 
d="M114 878l54 4q6 1 9.5 0.5t4.5 -2.5t3 -9q1 -2 2 -5l1.5 -4.5t0.5 -2.5q3 -8 9 -25l11 -36l-44 -4q-1 5 -5 17q-1 3 -1.5 5.5t-0.5 3.5t-6 19l-6 7q-7 0 -18 -48q0 -6 -18 -6q-8 0 -32 2q4 16 5 18q7 14 10 26q1 2 1 6l2 4q2 0 2 3q0 1 0.5 2.5t1.5 2.5q5 22 13 22h1z
M109 663q-1 -4 -2.5 -15.5t-2.5 -16.5q0 -5 -1 -11q-1 -2 -1 -8t-1 -8q0 -3 1 -6v-5q0 -2 -2 -18q0 -26 -1 -35q0 -29 -1 -38v-41q-1 -18 -1 -42v-49v-16v-31q1 -172 8 -196q6 -21 11 -30q5 -12 13 -22q9 -11 22 -15q9 -3 25 -3q10 0 21 8q1 1 9 6q6 5 9 6q2 4 6 8q4 7 5 14
q4 13 4 44q0 25 2 47v9q0 48 -1 87t-1 84v18q-1 8 -1 18q1 3 1 12v13v36v41q0 19 -1 35q-1 25 -3 39q-2 15 -6 31q-5 22 -10 32l-9 14q-8 13 -10 15q-3 6 -8 11q-2 5 -10 9q-7 8 -27 12q-17 -6 -20 -14q-12 -12 -17 -29zM293 317v-43q0 -12 1 -21v-21v-47q0 -21 -1 -44
q-2 -36 -4 -47q-6 -27 -8 -37q-3 -16 -14 -33q-8 -12 -20 -20q-12 -7 -29 -13q-12 -4 -25 -4h-6h-22h-10q-11 1 -28 7q-1 0 -5 2l-6 3q-10 4 -13 5q-17 9 -35 34q-8 15 -12 25q-3 9 -5 16q-1 3 -2.5 6l-2.5 5t-1 3q0 3 -2 19t-2 19q0 1 -0.5 3t-1 6t-0.5 8q-2 17 -3 26
q0 1 -3 49q-1 10 -1 48v16v36v13q-1 7 -1 15q0 9 1 15v14v63q0 23 1 39v35q0 18 1 30t1 25q0 35 1 42q3 58 21 103q26 56 76 63q2 1 10 1q12 0 16 -1q10 0 24 -8q16 -7 26 -17q21 -19 36 -43q12 -17 25 -63q9 -28 13 -57q0 -4 1 -9q0 -2 0.5 -7t1.5 -7q3 -12 3 -53
q2 -14 2 -36q1 -5 1 -24q0 -23 1 -30v-31v-37v-41z" />
    <glyph glyph-name="otilde" unicode="&#xf5;" horiz-adv-x="323" 
d="M67 833q0 1 -0.5 2t-0.5 2q0 14 7 29q12 27 56 27q27 -3 41 -15q12 -11 14 -23q3 -10 10 -16q1 -1 3 -1q5 0 5 22q0 5 -1 8v9h50q3 -9 3 -24q0 -41 -32 -54q0 -1 -20 -7q-19 0 -30 8q-18 10 -29 28q-12 20 -15 22l-6 -2q-2 -6 -2 -15q0 -4 4 -16l3 -13l-54 -5v6l-4 14
q-2 8 -2 12v2zM109 663q-1 -4 -2.5 -15.5t-2.5 -16.5q0 -5 -1 -11q-1 -2 -1 -8t-1 -8q0 -3 1 -6v-5q0 -2 -2 -18q0 -26 -1 -35q0 -29 -1 -38v-41q-1 -18 -1 -42v-49v-16v-31q1 -172 8 -196q6 -21 11 -30q5 -12 13 -22q9 -11 22 -15q9 -3 25 -3q10 0 21 8q1 1 9 6q6 5 9 6
q2 4 6 8q4 7 5 14q4 13 4 44q0 25 2 47v9q0 48 -1 87t-1 84v18q-1 8 -1 18q1 3 1 12v13v36v41q0 19 -1 35q-1 25 -3 39q-2 15 -6 31q-5 22 -10 32l-9 14q-8 13 -10 15q-3 6 -8 11q-2 5 -10 9q-7 8 -27 12q-17 -6 -20 -14q-12 -12 -17 -29zM293 317v-43q0 -12 1 -21v-21v-47
q0 -21 -1 -44q-2 -36 -4 -47q-6 -27 -8 -37q-3 -16 -14 -33q-8 -12 -20 -20q-12 -7 -29 -13q-12 -4 -25 -4h-6h-22h-10q-11 1 -28 7q-1 0 -5 2l-6 3q-10 4 -13 5q-17 9 -35 34q-8 15 -12 25q-3 9 -5 16q-1 3 -2.5 6l-2.5 5t-1 3q0 3 -2 19t-2 19q0 1 -0.5 3t-1 6t-0.5 8
q-2 17 -3 26q0 1 -3 49q-1 10 -1 48v16v36v13q-1 7 -1 15q0 9 1 15v14v63q0 23 1 39v35q0 18 1 30t1 25q0 35 1 42q3 58 21 103q26 56 76 63q2 1 10 1q12 0 16 -1q10 0 24 -8q16 -7 26 -17q21 -19 36 -43q12 -17 25 -63q9 -28 13 -57q0 -4 1 -9q0 -2 0.5 -7t1.5 -7
q3 -12 3 -53q2 -14 2 -36q1 -5 1 -24q0 -23 1 -30v-31v-37v-41z" />
    <glyph glyph-name="odieresis" unicode="&#xf6;" horiz-adv-x="323" 
d="M209 865q8 0 9 -7q1 -2 1 -12q0 -12 -1 -17q0 -15 -3 -22q-2 -8 -7 -11q-4 -3 -14 -4h-6q-8 0 -13 3q-10 1 -15 13q-4 7 -4 19q1 19 5 26q8 16 12 17l2 1h2h6q3 1 5 1h2h2q2 -1 4 -1q2 -2 8 -2q4 -4 5 -4zM121 865q9 0 9 -7q1 -2 1 -12q0 -12 -1 -17q0 -16 -2 -22
q-2 -8 -8 -11q-2 -2 -14 -4h-5q-8 0 -14 3q-11 3 -14 13q-5 12 -5 19q2 17 6 26q4 12 11 17l2 1h3q2 0 5 1h5h2q4 0 6 -1q6 -2 8 -2l2 -2q2 -2 3 -2zM109 663q-1 -4 -2.5 -15.5t-2.5 -16.5q0 -5 -1 -11q-1 -2 -1 -8t-1 -8q0 -3 1 -6v-5q0 -2 -2 -18q0 -26 -1 -35
q0 -29 -1 -38v-41q-1 -18 -1 -42v-49v-16v-31q1 -172 8 -196q6 -21 11 -30q5 -12 13 -22q9 -11 22 -15q9 -3 25 -3q10 0 21 8q1 1 9 6q6 5 9 6q2 4 6 8q4 7 5 14q4 13 4 44q0 25 2 47v9q0 48 -1 87t-1 84v18q-1 8 -1 18q1 3 1 12v13v36v41q0 19 -1 35q-1 25 -3 39
q-2 15 -6 31q-5 22 -10 32l-9 14q-8 13 -10 15q-3 6 -8 11q-2 5 -10 9q-7 8 -27 12q-17 -6 -20 -14q-12 -12 -17 -29zM293 317v-43q0 -12 1 -21v-21v-47q0 -21 -1 -44q-2 -36 -4 -47q-6 -27 -8 -37q-3 -16 -14 -33q-8 -12 -20 -20q-12 -7 -29 -13q-12 -4 -25 -4h-6h-22h-10
q-11 1 -28 7q-1 0 -5 2l-6 3q-10 4 -13 5q-17 9 -35 34q-8 15 -12 25q-3 9 -5 16q-1 3 -2.5 6l-2.5 5t-1 3q0 3 -2 19t-2 19q0 1 -0.5 3t-1 6t-0.5 8q-2 17 -3 26q0 1 -3 49q-1 10 -1 48v16v36v13q-1 7 -1 15q0 9 1 15v14v63q0 23 1 39v35q0 18 1 30t1 25q0 35 1 42
q3 58 21 103q26 56 76 63q2 1 10 1q12 0 16 -1q10 0 24 -8q16 -7 26 -17q21 -19 36 -43q12 -17 25 -63q9 -28 13 -57q0 -4 1 -9q0 -2 0.5 -7t1.5 -7q3 -12 3 -53q2 -14 2 -36q1 -5 1 -24q0 -23 1 -30v-31v-37v-41z" />
    <glyph glyph-name="divide" unicode="&#xf7;" horiz-adv-x="299" 
d="M175 459q8 0 10 -8q1 -2 1 -14q0 -13 -1 -18q0 -17 -3 -26q-2 -9 -8 -12q-10 -3 -15 -4h-6q-10 0 -16 3q-10 3 -16 14q-5 15 -5 22q1 17 6 28q8 17 13 20l2 1h3q3 0 6 1t7 1q2 0 2 -1h2q2 -1 4 -1q2 -2 8 -2q1 0 3 -2t3 -2zM175 241q8 0 10 -9q1 -2 1 -13q0 -13 -1 -18
q0 -17 -3 -26q-2 -9 -8 -12q-10 -3 -15 -4h-6q-10 0 -16 3q-10 3 -16 14q-5 13 -5 22q1 17 6 28q8 17 13 20h2q1 1 3 1q3 0 6 1t7 1l2 -1l6 -2q2 -1 8 -1q1 0 3 -2t3 -2zM268 345v-56h-2h-3q-2 1 -6 1q-9 0 -17 -1h-20q-14 0 -16 1l-16 -1l-33 -1q-11 0 -18 -1q-14 0 -17 -1
h-12l-65 1v15q-1 9 -1 14v11v18q16 -2 77 -2h5q9 3 23 3h11h16h12q25 0 48 -1h34z" />
    <glyph glyph-name="oslash" unicode="&#xf8;" horiz-adv-x="323" 
d="M293 317v-43q0 -12 1 -21v-21v-47q0 -21 -1 -44q-2 -36 -4 -47q-6 -27 -8 -37q-3 -16 -14 -33q-8 -12 -20 -20q-12 -7 -29 -13q-12 -4 -25 -4h-6h-22h-10q-11 1 -28 7q-1 0 -5 2l-6 3q-10 4 -13 5q-13 6 -26 23l-4 -13q0 -1 -1 -3.5t-2 -4.5l-2 -4l-1 -2q-1 -4 -17 -7
q-1 1 -8 1h-4q-9 0 -15 2q-12 8 -11 13l32 95q0 1 -0.5 3.5t-0.5 4.5q-2 16 -2 19q0 1 -0.5 3t-1 6t-0.5 8q-2 17 -3 26q0 1 -3 49q-1 10 -1 48v16v36v13q-1 7 -1 15q0 9 1 15v14v63q0 23 1 39v35q0 18 1 30t1 25q0 35 1 42q3 58 21 103q26 56 76 63q2 1 10 1q12 0 16 -1
q10 0 24 -8q16 -7 26 -17q21 -19 36 -43l1 -1l3 9l7 19q2 10 5 13v3q0 1 -1 1q0 1 7 1h6q3 1 10 1h11h3q14 -3 14 -6q-2 -10 -24 -79q-7 -25 -11 -34l-2 -4q7 -29 9 -43q0 -4 1 -9q0 -2 0.5 -7t1.5 -7q3 -12 3 -53q2 -14 2 -36q1 -5 1 -24q0 -23 1 -30v-31v-37v-41zM109 663
q-1 -4 -2.5 -15.5t-2.5 -16.5q0 -5 -1 -11q-1 -2 -1 -8t-1 -8q0 -3 1 -6v-5q0 -2 -2 -18q0 -26 -1 -35q0 -29 -1 -38v-41q-1 -18 -1 -42v-49v-16v-31q0 -40 1 -57l37 112q1 3 16 44l14 43l9 28q1 1 1.5 3.5t0.5 3.5t0.5 3.5t1.5 3.5l13 38q3 6 6 18l6 20l14 42q-4 14 -7 20
l-9 14q-8 13 -10 15q-3 6 -8 11q-2 5 -10 9q-7 8 -27 12q-17 -6 -20 -14q-12 -12 -17 -29zM108 120q6 -18 8 -23q5 -12 13 -22q9 -11 22 -15q9 -3 25 -3q10 0 21 8q1 1 9 6q6 5 9 6q2 4 6 8q4 7 5 14q4 13 4 44q0 25 2 47v9q0 48 -1 87t-1 84v18q-1 8 -1 18q1 3 1 12v13v36
v30l-14 -44l-21 -68l-20 -61l-7 -21q-2 -5 -4 -10.5t-2 -6.5l-5 -16l-16 -48z" />
    <glyph glyph-name="ugrave" unicode="&#xf9;" horiz-adv-x="354" 
d="M103 865v2q0 5 26 5q31 0 39 -4q6 -2 11 -9q3 -3 12 -17q3 -2 14 -16q14 -22 20 -32q-29 -4 -32 -4q-27 0 -31 10q-15 17 -27 30t-17 18l-9 9t-6 8zM106 750v-49l-1 -12v-11q0 -6 -2 -24q1 -10 1 -47v-28q-3 -410 24 -479q1 -6 8 -13q1 -2 19 -15l3 -2q3 -1 5 -3
q7 -5 9 -6q14 -3 26 -3l8 -1q12 0 18 6q9 7 16 39q11 42 13 146v25l1 36q0 5 1 9t1 10v9q2 8 2 9q0 14 -1 27q-1 19 0 27v16q0 13 -2 23q0 3 -0.5 15t-0.5 20v64l-1 54q-2 27 0 47q0 9 -1 18v25l1 15q-2 8 -2 16v9q1 2 1 8v6v2q0 2 -1 5q-1 4 -1 5q0 3 1 4l2 1h6q5 0 8 1
q17 -3 27 -3q17 -6 17 -9q0 -6 -1 -8q3 -6 3 -17v-4v-10q1 -4 1 -10l1 -29q1 -38 3 -133q0 -35 0.5 -80.5t0.5 -55.5v-19q2 -16 2 -18q0 -5 1 -9l-1 -9v-9q-2 -8 -2 -9q2 -6 2 -17q0 -7 -2 -13q2 -14 2 -33v-28q-1 -15 -3 -23q-6 -99 -16 -140q-12 -44 -38 -67
q-19 -14 -55 -14q-56 1 -97 32q-29 23 -43 63q-14 41 -20 118q0 1 -0.5 4t-1 8.5t-1.5 10.5q1 9 -2 29v14q0 22 -1 46q-1 3 -1 17q-2 11 0 16q-3 106 -2 265l1 37v17q0 12 1 15q0 11 -1 14v13q0 2 0.5 6t0.5 6q0 6 -1 10v8q1 4 1 15q1 4 19 4h16q7 1 11 1q16 -3 18 -6z" />
    <glyph glyph-name="uacute" unicode="&#xfa;" horiz-adv-x="354" 
d="M273 859q-3 -5 -7.5 -9.5t-18 -19t-32.5 -36.5q-5 -11 -31 -11q-3 0 -32 4q8 16 20 33l13 16q6 9 13 17q5 7 11 9q8 4 39 4q25 0 25 -5v-2zM106 750v-49l-1 -12v-11q0 -6 -2 -24q1 -10 1 -47v-28q-3 -410 24 -479q1 -6 8 -13q1 -2 19 -15l3 -2q3 -1 5 -3q7 -5 9 -6
q14 -3 26 -3l8 -1q12 0 18 6q9 7 16 39q11 42 13 146v25l1 36q0 5 1 9t1 10v9q2 8 2 9q0 14 -1 27q-1 19 0 27v16q0 13 -2 23q0 3 -0.5 15t-0.5 20v64l-1 54q-2 27 0 47q0 9 -1 18v25l1 15q-2 8 -2 16v9q1 2 1 8v6v2q0 2 -1 5q-1 4 -1 5q0 3 1 4l2 1h6q5 0 8 1q17 -3 27 -3
q17 -6 17 -9q0 -6 -1 -8q3 -6 3 -17v-4v-10q1 -4 1 -10l1 -29q1 -38 3 -133q0 -35 0.5 -80.5t0.5 -55.5v-19q2 -16 2 -18q0 -5 1 -9l-1 -9v-9q-2 -8 -2 -9q2 -6 2 -17q0 -7 -2 -13q2 -14 2 -33v-28q-1 -15 -3 -23q-6 -99 -16 -140q-12 -44 -38 -67q-19 -14 -55 -14
q-56 1 -97 32q-29 23 -43 63q-14 41 -20 118q0 1 -0.5 4t-1 8.5t-1.5 10.5q1 9 -2 29v14q0 22 -1 46q-1 3 -1 17q-2 11 0 16q-3 106 -2 265l1 37v17q0 12 1 15q0 11 -1 14v13q0 2 0.5 6t0.5 6q0 6 -1 10v8q1 4 1 15q1 4 19 4h16q7 1 11 1q16 -3 18 -6z" />
    <glyph glyph-name="ucircumflex" unicode="&#xfb;" horiz-adv-x="354" 
d="M151 878l54 4q10 1 12 -0.5t5 -11.5l4 -12q4 -10 8 -25l12 -35l-44 -4q-2 10 -5 16q-1 7 -2 9q0 1 -1 3t-2.5 7t-3.5 10q-4 6 -5 6q-7 0 -18 -47q0 -6 -19 -6t-31 2q2 6 3 10t1 4.5t0.5 1.5t0.5 2q8 15 10 25q0 1 0.5 3.5t1.5 3.5q0 2 1 4q2 0 2 3q1 1 1 2.5t1 2.5
q5 22 13 22h1zM106 750v-49l-1 -12v-11q0 -6 -2 -24q1 -10 1 -47v-28q-3 -410 24 -479q1 -6 8 -13q1 -2 19 -15l3 -2q3 -1 5 -3q7 -5 9 -6q14 -3 26 -3l8 -1q12 0 18 6q9 7 16 39q11 42 13 146v25l1 36q0 5 1 9t1 10v9q2 8 2 9q0 14 -1 27q-1 19 0 27v16q0 13 -2 23
q0 3 -0.5 15t-0.5 20v64l-1 54q-2 27 0 47q0 9 -1 18v25l1 15q-2 8 -2 16v9q1 2 1 8v6v2q0 2 -1 5q-1 4 -1 5q0 3 1 4l2 1h6q5 0 8 1q17 -3 27 -3q17 -6 17 -9q0 -6 -1 -8q3 -6 3 -17v-4v-10q1 -4 1 -10l1 -29q1 -38 3 -133q0 -35 0.5 -80.5t0.5 -55.5v-19q2 -16 2 -18
q0 -5 1 -9l-1 -9v-9q-2 -8 -2 -9q2 -6 2 -17q0 -7 -2 -13q2 -14 2 -33v-28q-1 -15 -3 -23q-6 -99 -16 -140q-12 -44 -38 -67q-19 -14 -55 -14q-56 1 -97 32q-29 23 -43 63q-14 41 -20 118q0 1 -0.5 4t-1 8.5t-1.5 10.5q1 9 -2 29v14q0 22 -1 46q-1 3 -1 17q-2 11 0 16
q-3 106 -2 265l1 37v17q0 12 1 15q0 11 -1 14v13q0 2 0.5 6t0.5 6q0 6 -1 10v8q1 4 1 15q1 4 19 4h16q7 1 11 1q16 -3 18 -6z" />
    <glyph glyph-name="udieresis" unicode="&#xfc;" horiz-adv-x="354" 
d="M106 750v-49l-1 -12v-11q0 -6 -2 -24q1 -10 1 -47v-28q-3 -410 24 -479q1 -6 8 -13q1 -2 19 -15l3 -2q3 -1 5 -3q7 -5 9 -6q14 -3 26 -3l8 -1q12 0 18 6q9 7 16 39q11 42 13 146v25l1 36q0 5 1 9t1 10v9q2 8 2 9q0 14 -1 27q-1 19 0 27v16q0 13 -2 23q0 3 -0.5 15
t-0.5 20v64l-1 54q-2 27 0 47q0 9 -1 18v25l1 15q-2 8 -2 16v9q1 2 1 8v6v2q0 2 -1 5q-1 4 -1 5q0 3 1 4l2 1h6q5 0 8 1q17 -3 27 -3q17 -6 17 -9q0 -6 -1 -8q3 -6 3 -17v-4v-10q1 -4 1 -10l1 -29q1 -38 3 -133q0 -35 0.5 -80.5t0.5 -55.5v-19q2 -16 2 -18q0 -5 1 -9l-1 -9
v-9q-2 -8 -2 -9q2 -6 2 -17q0 -7 -2 -13q2 -14 2 -33v-28q-1 -15 -3 -23q-6 -99 -16 -140q-12 -44 -38 -67q-19 -14 -55 -14q-56 1 -97 32q-29 23 -43 63q-14 41 -20 118q0 1 -0.5 4t-1 8.5t-1.5 10.5q1 9 -2 29v14q0 22 -1 46q-1 3 -1 17q-2 11 0 16q-3 106 -2 265l1 37v17
q0 12 1 15q0 11 -1 14v13q0 2 0.5 6t0.5 6q0 6 -1 10v8q1 4 1 15q1 4 19 4h16q7 1 11 1q16 -3 18 -6zM250 861q8 0 9 -7q1 -2 1 -12q0 -12 -1 -17q0 -15 -3 -22q-2 -8 -7 -11q-5 -4 -15 -5h-5q-7 0 -13 4q-10 1 -15 13q-4 7 -4 19q1 19 5 26q8 16 12 17l2 1h2h6q3 1 5 1h2h2
q2 -1 4 -1q2 -2 8 -2q4 -4 5 -4zM162 861q9 0 9 -7q1 -2 1 -12q0 -12 -1 -17q0 -16 -2 -22q-2 -8 -8 -11q-3 -4 -14 -5h-5q-6 0 -14 4q-11 3 -14 13q-5 12 -5 19q2 17 6 26q4 12 11 17l2 1h3q2 0 5 1h5h2q3 0 5 -1q6 -2 9 -2l2 -2q2 -2 3 -2z" />
    <glyph glyph-name="yacute" unicode="&#xfd;" horiz-adv-x="275" 
d="M231 853q-3 -5 -6.5 -9.5t-18 -20t-32.5 -36.5q-6 -10 -31 -10q-5 0 -32 4q5 10 20 33l12 15q4 6 13 18q5 7 12 9q8 4 39 4q24 0 24 -5v-2zM171 365q0 -35 -1 -49v-37v-29q-1 -12 -1 -26l-1 -48q-1 -14 -1.5 -42t-0.5 -43q-1 -32 -1 -59v-15v-3q-1 -1 -1 -5v-4
q-1 -1 -1 -3q0 -1 -1 -1l-30 -8q-29 5 -29 10v1q-1 1 -1 7v8v4l1 1v4q-1 3 -1 6q0 5 1 7q-1 3 -1 13v14q0 82 1 112q2 30 2 66v66v6v26v22q-2 3 -3 13q-1 9 -5 18l-7 25l-4 14q-1 3 -2 6.5t-2 6t-1 3.5q-8 19 -10 31l-5 20l-7 18q-26 96 -34 160q0 2 -2 12q0 3 -1.5 7.5
t-1.5 6.5q-2 20 -3 23q0 7 -1 11t-1 10v3q0 2 15 7h22h8q18 0 18 -7q3 -12 3 -17q0 -6 -1 -7l3 -28q1 -11 3 -19q0 -2 2 -20q5 -18 9 -39q1 -11 4 -26l4 -23q3 -9 5 -18q2 -10 6 -23q1 -5 2.5 -12t1.5 -9l8 -26q5 -8 6 -8q2 0 4 3q3 6 4 11q0 1 1.5 6.5t1.5 7.5l6 19l5 22
l12 47q4 16 10 29q0 1 2 15q3 12 3 18q3 9 3 11q1 2 2 6.5t2 6.5q0 2 3 11l4 18l3 17q3 9 3 16q0 6 2 10q0 2 0.5 5.5t0.5 4.5l22 5h5q6 0 24 -2q12 -4 12 -5v-1q0 -1 -1.5 -8t-3.5 -13l-5 -24l-11 -46q-12 -52 -48 -191q-4 -20 -11 -37q-5 -26 -7 -30q-4 -13 -6 -25l-4 -16
z" />
    <glyph glyph-name="thorn" unicode="&#xfe;" horiz-adv-x="262" 
d="M117 210q0 -2 1 -3v-2q3 -9 13 -9t23 10q3 2 6 6l2 5q6 11 6 24q2 3 3 13q2 12 3 17q1 12 3 41q2 34 2 84q0 118 -12 135q-8 10 -28 10l-14 -2q-1 -2 -7 -108v-46q0 -19 1 -32v-29q-2 -34 -2 -38q0 -13 1 -16l-1 -48v-12zM244 438v-37v-21q0 -46 -1 -57q0 -10 -2 -48
q0 -21 -3 -37q0 -4 -2 -18l-2 -8t-1 -5q-1 -1 -4 -11l-2.5 -7.5t-1.5 -5.5q-1 -4 -6 -10q-1 -2 -3 -5t-2 -4q-10 -16 -31 -29q-17 -11 -58 -11h-9q0 -97 -1 -110q0 -5 -1 -8v-6q0 -4 -19 -7q-1 1 -9 1h-6q-11 0 -19 2q-18 8 -18 13q0 78 -1 96v20v10v5v8q1 4 1 11q0 6 -1 8
v34q0 25 1 32v34q1 4 1 17q0 12 -1 15v11v23l1 32q0 47 1 60v38v18q1 8 1 21v5v3v19v16v19q1 8 1 19v79q1 31 1 58v19v16q0 1 -1 1q0 1 9 1h7q3 1 12 1h14h3q20 -3 20 -6q2 -24 2 -79q0 -10 1 -17v-17v-13v-17q2 -1 9 -1q14 -3 32 -3h9q23 -8 37 -17q10 -6 25 -31t17 -119z
" />
    <glyph glyph-name="ydieresis" unicode="&#xff;" horiz-adv-x="275" 
d="M171 365q0 -35 -1 -49v-37v-29q-1 -12 -1 -26l-1 -48q-1 -14 -1.5 -42t-0.5 -43q-1 -32 -1 -59v-15v-3q-1 -1 -1 -5v-4q-1 -1 -1 -3q0 -1 -1 -1l-30 -8q-29 5 -29 10v1q-1 1 -1 7v8v4l1 1v4q-1 3 -1 6q0 5 1 7q-1 3 -1 13v14q0 82 1 112q2 30 2 66v66v6v26v22q-2 3 -3 13
q-1 9 -5 18l-7 25l-4 14q-1 3 -2 6.5t-2 6t-1 3.5q-8 19 -10 31l-5 20l-7 18q-26 96 -34 160q0 2 -2 12q0 3 -1.5 7.5t-1.5 6.5q-2 20 -3 23q0 7 -1 11t-1 10v3q0 2 15 7h22h8q18 0 18 -7q3 -12 3 -17q0 -6 -1 -7l3 -28q1 -11 3 -19q0 -2 2 -20q5 -18 9 -39q1 -11 4 -26
l4 -23q3 -9 5 -18q2 -10 6 -23q1 -5 2.5 -12t1.5 -9l8 -26q5 -8 6 -8q2 0 4 3q3 6 4 11q0 1 1.5 6.5t1.5 7.5l6 19l5 22l12 47q4 16 10 29q0 1 2 15q3 12 3 18q3 9 3 11q1 2 2 6.5t2 6.5q0 2 3 11l4 18l3 17q3 9 3 16q0 6 2 10q0 2 0.5 5.5t0.5 4.5l22 5h5q6 0 24 -2
q12 -4 12 -5v-1q0 -1 -1.5 -8t-3.5 -13l-5 -24l-11 -46q-12 -52 -48 -191q-4 -20 -11 -37q-5 -26 -7 -30q-4 -13 -6 -25l-4 -16zM215 861q8 0 8 -7q2 -2 2 -12q0 -12 -2 -17q0 -17 -2 -22q-3 -9 -8 -11q-4 -4 -14 -5h-4q-7 0 -15 4q-11 2 -14 13q-4 5 -4 19q0 18 4 26
q9 16 12 17l2 1h2h6q4 1 7 1h2q2 -1 4 -1q2 -2 8 -2q5 -4 6 -4zM127 861q8 0 8 -7q2 -2 2 -12q0 -12 -2 -17q0 -19 -2 -22q0 -8 -8 -11q0 -3 -12 -5h-7q-6 0 -14 4q-11 4 -14 13q-4 14 -4 19q0 17 6 26q3 11 10 17l2 1h4q2 0 4 1h6h3q2 0 4 -1l8 -2l2 -2z" />
    <glyph glyph-name="dotlessi" unicode="&#x131;" horiz-adv-x="150" 
d="M112 752q2 -24 2 -79v-17q1 -7 1 -17v-13v-27v-21q1 -9 1 -23v-49v-53v-68v-32q1 -13 1 -29q-2 -34 -2 -38q0 -13 1 -16v-48q0 -188 -1 -208q0 -4 -1 -7v-7q0 -4 -19 -7q-1 1 -9 1h-6q-11 0 -19 2q-18 8 -18 13l2 369q0 35 1 44v43v28v14v38v19q1 8 1 19v79q1 31 1 58v19
q0 7 2 13q-2 2 -2 3t-1 1q0 1 9 1h7q3 1 12 1h14h3q20 -3 20 -6z" />
    <glyph glyph-name="Lslash" unicode="&#x141;" horiz-adv-x="275" 
d="M47 726v4q0 5 11 5q16 2 17 2q7 0 9 -1q10 0 15 -8v-2q0 -5 1 -6q0 -2 2 -48q2 -20 4 -63v-64q3 -21 3 -39v-26q1 -12 1 -28l51 36q3 1 8 4t7 4q11 6 11 -10l1 -51q-18 -11 -33 -22q-17 -13 -34 -23l-11 -8v-1q0 -6 -1 -10v-11q0 -1 2 -15v-118q1 -5 1 -22q0 -14 -2 -24
q2 -38 2 -45v-40l1 -39h16h16q14 0 17 1q13 0 15 2q8 -1 33 -1h10q4 1 9 1q17 0 23 -3q4 0 4 -25v-5q0 -24 -4 -24t-11 -3h-18q-5 -1 -28 -1h-47q-3 1 -15 1h-6q-4 -1 -14 -1h-24q-13 0 -20 -1h-14h-7q-7 1 -7 9v32q-1 2 -1 9q0 1 2 19q-1 9 -1 37q-1 9 -1 44v48q0 25 2 45
q-1 6 -1 25q-1 11 -1 22q1 9 1 46v7l-11 -6q-13 -8 -16 -7q-3 0 -4 22l-1 42l6 2l14 7q7 5 12 7v22q0 36 -1 45q2 8 2 21q0 16 -1 19q1 9 1 40q0 22 1 37v35q0 26 1 33q0 9 -1 14v14l2 22z" />
    <glyph glyph-name="lslash" unicode="&#x142;" horiz-adv-x="267" 
d="M111 746q0 -3 2 -156v-53q-2 -32 -2 -36q0 -2 2 -34v-13l5 3l43 30q3 2 7.5 4t7 3.5t4.5 1.5q4 1 5 -4t0 -18l3 -39q-18 -11 -33 -22q-17 -13 -34 -23l-8 -6v-165v-51q1 -6 1 -28q0 -15 -1 -20q2 -14 2 -16q0 -3 -2 -21q1 -7 1 -27v-9h42q8 0 46 2q8 0 15 0.5t10.5 1
t4.5 0.5h4q4 0 12 -24q-2 -25 -6 -25h-1q-1 -1 -3 -1q-3 -1 -4 -1q-4 -1 -10 -3q-8 2 -10 2q-3 0 -6 -1h-6h-3q-1 -1 -4 -1t-5 1h-3q-12 0 -16 1q-18 -2 -24 -2q-13 0 -18 1q-9 -1 -41 -1q-8 0 -14 -1h-13q-13 0 -14 3l-2 8v6q-1 3 -1 10v2q0 3 -1 6v6q0 5 1 6q-1 3 -1 14
q0 14 -1 17t-1 13q0 17 1 22v38q0 49 1 93v102l-17 -10q-14 -7 -16 -6q-3 1 -2 22l1 44q1 0 7 3q1 1 6 3t8 4q10 6 13 7v2q0 17 -1 21q2 14 2 31v18q0 16 1 21q0 15 -2 21q2 18 2 36q1 7 1 33q0 23 0.5 48.5t1 39t0.5 19.5q0 7 1 12q0 10 1 13q-1 3 -1 11q0 3 1 3q-1 2 -1 6
t-1 5q3 4 19 4q23 -3 25 -4q2 1 8 1q7 0 11 -4z" />
    <glyph glyph-name="OE" unicode="&#x152;" horiz-adv-x="431" 
d="M148 756q11 -1 34 -4l24 -12v5l-1 3q0 2 54 4q66 0 77 -1q4 1 20 1q18 -2 19 -2q13 -1 17 -5l1 -1v-2l2 -5v-2q0 -4 1 -7t1 -6v-7q0 -29 -3 -29l-1 -1l-6 -2h-6q-3 -1 -8 -1h-21q-3 0 -19 -2q-54 2 -55 3v-2q0 -1 -3 -4q-1 -3 -0.5 -7.5t0.5 -5.5v-24q0 -8 -1 -15v-30
q0 -19 -1 -24q1 -7 1 -29v-28q-1 -6 -1 -27v-44q1 -19 1 -41v-7q-1 -2 -1 -8l1 -28h15q36 0 41 1h13q12 0 19 -4q5 -2 6 -15v-5q0 -4 -2 -14q3 -10 3 -24v-5q-1 -15 -7 -15q-10 -4 -23 -4h-52q-13 0 -14 -2q0 -1 0.5 -6.5t-0.5 -7.5q0 -1 -0.5 -3.5t-0.5 -3.5v-43
q0 -16 -1 -28v-10v-16q0 -4 -0.5 -11t-0.5 -10v-76q5 1 16 1q46 0 49 1h14q6 -1 11 -1h42q8 -2 8 -34q0 -36 -4 -36q-7 -4 -21 -4h-10q-4 1 -14 1h-7q-7 1 -65 1h-40q-3 -1 -16 -1t-23 6q-21 -6 -49 -6h-9q-22 1 -34 5q-20 6 -29 11q-3 3 -5 6t-5 6q-7 7 -11 20
q-5 10 -10 26q-7 22 -13 72q0 1 -2 17q0 3 -0.5 10t-1.5 9q0 2 -0.5 4.5t-1 7t-0.5 7.5q-2 14 -3 19q1 3 1 14q0 7 -1 13v14v5q-1 5 -1 22q0 19 -1 24v50v47q0 39 1 49v11v21q1 9 1 21q3 67 6 115q1 3 4 39q1 5 3 19q2 11 3 14q3 6 4 11q3 8 4 9q6 12 11 17q8 9 29 22
q15 8 25 10q17 4 23 4zM104 639v-3q-1 -2 -1 -6q0 -16 -1 -21q-1 -2 -1 -8v-5q0 -7 -2 -13q0 -6 1 -9t1 -7v-2v-3q0 -2 -2 -18q2 -8 2 -20v-20v-45v-46v-42v-20q0 -15 1 -19q-1 -3 -1 -17q0 -16 1 -21q0 -44 3 -115q2 -21 6 -46q3 -24 10 -36q0 -5 9 -26q10 -13 14 -16
q7 -7 20 -7q8 0 15 3q12 5 18 21q3 11 6 40v51q0 30 -1 39q1 4 1 22q0 15 -1 19q1 3 1 19q0 32 0.5 87t0.5 86v51q0 3 0.5 11t0.5 13v4q0 4 0.5 10t0.5 8v39q-2 79 -11 95q-5 9 -21 18q-14 8 -29 8q-38 0 -41 -53z" />
    <glyph glyph-name="oe" unicode="&#x153;" horiz-adv-x="488" 
d="M109 663q-1 -4 -2.5 -15.5t-2.5 -16.5q0 -5 -1 -11q-1 -2 -1 -8t-1 -8q0 -3 1 -6v-5q0 -2 -2 -18q0 -26 -1 -35q0 -29 -1 -38v-41q-1 -18 -1 -42v-49v-16v-31q1 -172 8 -196q6 -21 11 -30q5 -12 13 -22q9 -11 22 -15q9 -3 25 -3q10 0 21 8q1 1 9 6q6 5 9 6q2 4 6 8
q4 7 5 14q0 1 1 5t1 5v2q0 5 2 65v25v52q1 13 1 36q-1 28 -1 65v10v6v18q-1 8 -1 18v8q0 5 1 8v7q-1 15 -1 66q0 12 -0.5 32t-0.5 28q0 5 -0.5 14t-1.5 13q-2 15 -6 31q-5 22 -10 32l-9 14q-8 13 -10 15q-3 6 -8 11q-2 5 -10 9q-7 8 -27 12q-17 -6 -20 -14q-12 -12 -17 -29z
M443 756h1q4 0 6 -14q1 -3 1 -15t-1 -15q-1 -17 -4 -22q-2 -3 -20 -3h-9q-42 0 -48 -1l-73 -3v-105q0 -5 2 -39q2 -5 0 -15q-1 -6 -1 -12v-9q1 -8 1 -33v-29q1 -11 1 -23l3 -61q12 -4 56 -4h30h7q18 0 20 -2q3 -1 5 -22q2 -8 2 -17q0 -4 -2 -12q0 -15 -3 -15l-117 -5
l-3 -200l84 -2q57 0 77 -2q8 -2 8 -45q0 -23 -4 -23q-6 -1 -30 -1q-3 -1 -30 -1h-45l-105 2q-1 -2 -5 -4q-12 -7 -29 -13q-12 -4 -25 -4h-6h-22h-10q-11 1 -28 7q-1 0 -5 2l-6 3q-10 4 -13 5q-17 9 -35 34q-8 15 -12 25q-3 9 -5 16q-1 3 -2.5 6l-2.5 5t-1 3q0 3 -2 19t-2 19
q0 1 -0.5 3t-1 6t-0.5 8q-2 17 -3 26q0 1 -3 49q-1 10 -1 48v16v36v13q-1 7 -1 15q0 9 1 15v14v63q0 23 1 39v35q0 18 1 30t1 25q0 35 1 42q3 58 21 103q26 56 76 63q2 1 10 1q12 0 16 -1q10 0 24 -8q16 -7 26 -17q8 -8 22 -24q1 15 6 24q2 4 44 5h8q8 0 29.5 -0.5
t28.5 -0.5q52 0 60 1q2 0 5 -0.5t7.5 -1t7.5 -0.5q10 0 16 -2z" />
    <glyph glyph-name="Scaron" unicode="&#x160;" horiz-adv-x="271" 
d="M101 781h-1q-9 0 -12 22q-2 4 -4 7q0 1 -1 3t-2 4.5t-1 4.5q-6 22 -7 25q-4 8 -11 36q24 2 32 2q19 0 19 -6q13 -57 20 -57q1 0 5 7q2 5 4 12q2 8 3 9q0 4 5 14q1 3 2.5 9t1.5 8l44 -4l-14 -51q0 -5 -8 -26q0 -5 -4 -13q-2 -8 -3 -11zM198 759q7 -4 14 -13q9 -9 11 -19
q9 -19 9 -25q5 -14 5 -16q2 -11 3 -14q3 -18 3 -39l2 -39v-15q0 -1 -1 -3t-1 -3v-2q1 -1 1 -3q-5 -5 -19 -5h-5q-5 0 -26 3q-18 10 -18 14v1q-2 12 -2 53q0 30 -4 43q-5 19 -14 25q-6 6 -14 6h-4q-1 -1 -4 -1q-18 -5 -28 -18l-12 -20q-4 -10 -6 -25v-7q0 -24 9 -57
q5 -16 15 -38q11 -25 40 -77q7 -13 35 -73q1 -2 3 -7t4 -8q1 -3 2.5 -6.5t3 -6t1.5 -3.5q2 -4 12 -31q0 -7 1 -11q0 -2 0.5 -5t1.5 -5q4 -4 8 -15q2 -10 9 -38l1 -4q1 -5 2.5 -14.5t3.5 -20.5q5 -43 5 -66q0 -45 -12 -90q-5 -20 -11 -30q-3 -12 -15 -22q-1 -3 -18 -15
q-11 -5 -23 -6h-7q-3 -1 -7 -1q-5 0 -9 1h-8q-74 10 -88 29q-16 22 -18 86q0 37 1 50q0 2 -1 5q-1 4 -1 5l2 14q-2 4 -2 9q0 6 2 10q-1 1 -1 6v5q0 2 -1 3q1 3 18 8q2 0 5 1h6q3 0 17 -2t16 -8q0 -10 -1 -18v-22q0 -22 2 -48q8 -76 33 -76q16 0 26 2q7 1 13 9q4 5 7 20
q5 12 5 27q1 5 1 24q1 10 1 20q0 15 -1 26v29q-3 70 -71 210q-5 10 -8 18q-5 12 -8 19l-8 17q-7 18 -8 19l-16 34q-24 68 -28 99q-2 26 -2 29q0 47 23 80q19 27 59 34q25 5 50 5q26 0 39 -7z" />
    <glyph glyph-name="scaron" unicode="&#x161;" 
d="M99 797h-1q-9 0 -12 21q-2 4 -4 7q-3 9 -4 13q-5 20 -7 24q-4 8 -11 36q24 2 32 2q19 0 19 -6q13 -56 20 -56q1 0 5 7q6 19 7 20q0 7 4 15q1 3 3 8.5t2 7.5l44 -4l-14 -50q0 -6 -8 -27q0 -4 -4 -12q-2 -8 -3 -11zM200 745q10 -9 18 -24l12 -33q3 -5 8 -35v-3q0 -1 2 -15
q3 -11 3 -17q1 -10 3 -28q0 -6 -15 -10q-13 -5 -28 -5q-19 0 -21 8q-1 11 -2.5 24.5t-2 19t-0.5 6.5q-2 14 -5 22q-3 13 -3 15q-3 13 -9 22q-8 15 -29 15h-5q-24 -2 -24 -62q0 -20 3 -41q1 -11 23 -64q1 -4 7 -18q6 -10 6 -12q0 -1 3.5 -7t5.5 -11l8 -21l17 -34l70 -137
q23 -47 27 -85q6 -46 6 -52t-2 -22v-10q-10 -73 -30 -105q-18 -29 -81 -36h-7q-36 0 -64 24q-28 22 -42 65q0 1 -2 6t-3 8q-2 12 -3 15q-5 25 -5 26q-1 3 -3 13v10q0 8 -1 11q-1 4 -1 7q1 7 21 7q39 -2 39 -5q1 -7 2 -17t2 -17l4 -12q1 -3 3.5 -8t2.5 -6q11 -29 26 -46
q17 -17 27 -17q16 0 28 17q12 16 17 46q2 24 2 25v27q-1 4 -3 14q0 2 -0.5 5t-1 5.5t-0.5 3.5q-10 55 -66 177q-3 8 -9 21l-11 24q-1 2 -7 18q-18 27 -25 48l-18 38q-28 59 -30 67q-6 15 -9 48q0 58 23 98q23 38 77 38q41 0 72 -29z" />
    <glyph glyph-name="Ydieresis" unicode="&#x178;" horiz-adv-x="328" 
d="M236 841q8 0 9 -7q1 -2 1 -13t-1 -16q0 -15 -3 -23q-2 -8 -8 -11q-4 -3 -14 -4h-5q-9 0 -13 3q-11 2 -16 13q-4 7 -4 20q1 18 5 25q8 16 13 18l2 1h2h6q3 1 5 1h2h1q2 -1 4 -1q2 -2 8 -2q4 -4 6 -4zM147 841q10 0 10 -7q1 -2 1 -13t-1 -16q0 -17 -2 -23q-2 -8 -9 -11
q-2 -3 -13 -4h-5q-8 0 -14 3q-12 4 -15 13q-5 12 -5 20q1 16 6 25q4 12 12 18l2 1h3q2 0 5 1h5h2q3 0 5 -1q6 -2 8 -2l2 -2q2 -2 3 -2zM198 369v-130v-64v-41q0 -2 -0.5 -7t-0.5 -8t0.5 -9t0.5 -10v-16v-12v-31q-1 -3 -1 -13v-13q-3 -13 -4 -14v-1q0 -7 -12 -7h-5
q-3 0 -6.5 -0.5t-5.5 -1t-3 -0.5h-10q-3 1 -8 1q-16 3 -16 9l1 160l1 51v41q1 14 1 35q1 9 1 16v36v32l-14 35q0 1 -1 3t-2 4.5t-1 4.5q-1 6 -4 12l-4 9q0 1 -1 3.5t-1.5 4.5t-1.5 4q-1 7 -3 10l-11 35q-46 146 -74 251q0 7 41 7q30 0 31 -6q0 -3 5 -21v-2l2 -10
q2 -10 2 -13v-3q11 -23 14 -37l11 -43l19 -72q10 -38 22 -73q7 -22 10 -22q2 0 3 7l5 18q4 14 5 17l11 27q2 14 9 33q1 8 9 44l11 52l7 33l8 30q1 3 3 11q1 2 2 5.5t2 5.5t1 4v2q0 4 2 10q2 8 2 9q1 2 23 4t32 2h8q12 0 12 -2v-1q-1 -6 -10 -37q-9 -32 -10 -36
q-18 -70 -35 -125l-1 -2q-1 -2 -2 -6.5t-2 -8.5q-4 -18 -6 -24q-1 -1 -6 -12q-4 -9 -4 -15v-3q1 -1 1 -2q-6 -10 -14 -35t-38 -89z" />
    <glyph glyph-name="Zcaron" unicode="&#x17d;" horiz-adv-x="322" 
d="M147 763h-1q-8 0 -12 21q0 1 -1 3.5t-2 4.5q-2 3 -4 12q-2 7 -4.5 15t-2.5 9q-2 4 -10 36q22 2 31 2q18 0 18 -6q13 -56 21 -56l1 1q1 1 2 2.5t2 3.5q2 5 3 10t2 7l1 3l5 15q2 6 4 16l44 -4l-13 -50q-4 -18 -8 -27l-4 -12q-3 -7 -3 -11zM300 684l-18 -46l-7 -18
q-2 -4 -4 -11.5t-3 -9.5q0 -4 -13 -44l-14 -44l-59 -185q-1 -3 -3 -13q-5 -8 -8 -29q-8 -12 -15 -41q-15 -39 -18 -46l-21 -59q-7 -21 -9 -28q-3 -6 -4 -9t-3 -7q-1 -2 -1 -5q-1 -1 -1 -2q-1 -2 -1 -3l-1 -2h1h17q7 1 15 1h8q5 1 22 1h21q26 1 91 1h15q6 0 6 -61
q0 -23 -5 -23l-84 -1q-38 0 -49 -1h-21q-9 1 -19 1h-10h-22q-9 1 -20 1q-9 0 -14 -1t-10 -1h-3q-1 1 -3 1q-12 0 -13 1q-1 2 -1 12q0 11 1 14v18v8l89 270l17 49l14 45q0 1 1.5 7t3.5 11q4 12 8 22l44 125l32 91l-77 3l-66 -1h-8q-10 0 -17 -1h-13l-15 -1q-4 15 -4 24
q0 7 -1 14l-2 14v4q-2 8 -2 9q0 2 2 8q36 0 45 -1q27 3 41 3h115q10 -2 14 -2h6q1 0 3 1t3 1t7 -2h8h12q8 0 14 3h11q-1 -1 -1 -8q0 -5 -2 -7q0 -3 0.5 -6.5t1.5 -5.5v-2q0 -2 -1 -5v-6q0 -3 -2 -25h-1z" />
    </font>
</defs>
</svg>
