<?xml version="1.0" standalone="no"?>
<!DOCTYPE svg PUBLIC "-//W3C//DTD SVG 1.1//EN" "http://www.w3.org/Graphics/SVG/1.1/DTD/svg11.dtd" >
<svg>
<metadata>
Created by FontForge 20120731 at Thu Aug 11 05:50:50 2016
 By www
Copyright (c) 2012 by Laura Worthington. All rights reserved.
</metadata>
<defs>
<font id="BuckleyW00-Regular" horiz-adv-x="319" >
  <font-face 
    font-family="BuckleyW00-Regular"
    font-weight="400"
    font-stretch="normal"
    units-per-em="1000"
    panose-1="2 0 5 6 0 0 0 2 0 3"
    ascent="800"
    descent="-200"
    x-height="403"
    cap-height="703"
    bbox="-67 -318 853 907"
    underline-thickness="50"
    underline-position="-125"
    unicode-range="U+000D-FB02"
  />
<missing-glyph horiz-adv-x="265" 
 />
    <glyph glyph-name=".notdef" horiz-adv-x="265" 
 />
    <glyph glyph-name="glyph1" horiz-adv-x="0" 
 />
    <glyph glyph-name="glyph1" horiz-adv-x="0" 
 />
    <glyph glyph-name="uni000D" unicode="&#xd;" horiz-adv-x="199" 
 />
    <glyph glyph-name="space" unicode=" " horiz-adv-x="199" 
 />
    <glyph glyph-name="exclam" unicode="!" horiz-adv-x="146" 
d="M42 682q2 11 8.5 14t17.5 9q5 4 13 4q5 0 8.5 -1t6.5 -1q4 0 5 1q3 3 6 3q2 0 4 -4.5t4 -9.5q2 -6 2 -14q0 -17 -2.5 -30.5t-5.5 -21.5q0 -3 2.5 -3t2.5 -5q0 -1 -2.5 -3t-2.5 -4q2 -5 3 -6.5t1 -9.5q0 -5 -4.5 -10t-4.5 -6q0 -2 1 -5.5t1 -4.5q0 -4 1 -7
q3 -11 4.5 -18.5t1.5 -15.5t-2 -22t-4 -23q-2 -4 -2 -11q0 -5 0.5 -16t0.5 -22v-22q0 -11 0.5 -14.5t0.5 -8.5v-5t-2 -9q-2 -11 -4.5 -17.5t-2.5 -14.5q0 -1 -1 -2t-1 -3t5 -2q0 -2 0.5 -2.5t0.5 -2.5q0 -4 -1 -7t-1 -8q0 -2 0.5 -7.5t0.5 -12.5t0.5 -13.5t0.5 -10.5
q-2 -18 -2.5 -29.5t-5.5 -18.5q-1 -1 -1 -5t1 -8t1 -5q-1 -1 -1 -5v-8q0 -3 -1 -7t-3 -22t-6.5 -21t-9.5 -3t-10.5 5.5t-5.5 20.5v8q0 15 -3 29.5t-3 25.5q0 2 0.5 3t0.5 3q2 4 2 7q0 6 -1 15.5t-2 19.5t-2 19t-1 15t0.5 16.5t0.5 21t0.5 19.5t0.5 13q1 7 6 5.5t5 5.5
q0 3 -1 4q-5 7 -9 9t-4 11l5 3q0 5 -2 7t-2 9v23q0 10 -1 14q-2 11 -2.5 20t-0.5 19v40q0 5 0.5 9t0.5 9q0 15 -3 36q-1 11 -1.5 26t-0.5 24v7q0 10 1 15zM78 84q5 0 12.5 -5.5t14.5 -7.5q6 -2 7 -11.5t1 -18.5q0 -4 -1.5 -10t-4 -12t-6 -10t-7.5 -4q-8 0 -14 -4t-12 -4
q-10 0 -14.5 6.5t-9.5 11.5q-4 3 -6.5 6.5t-2.5 11.5q0 16 9 25.5t14 15.5q2 3 8.5 6.5t11.5 3.5z" />
    <glyph glyph-name="quotedbl" unicode="&#x22;" horiz-adv-x="196" 
d="M57 735q7 0 19.5 -3t12.5 -13q0 -8 -4 -13.5t-4 -10.5q0 -2 1 -3q1 -3 1 -11q0 -2 -0.5 -3t-0.5 -3v-3q-2 0 -3 -1q-2 -2 -2 -4q0 -3 3 -4l4 -2q0 -2 -1.5 -3t-1.5 -5q-1 -5 -2.5 -11t-1.5 -14t-2 -10.5t-2 -7.5v-4q1 -4 1.5 -7t0.5 -6v-5t-1 -8q-1 -9 -3 -20t-9 -13
q-2 -1 -6 -1q-14 0 -17 25v8q0 8 2 11t2 5q0 3 -1 4q-3 5 -4 10l-3 15q-2 9 -2 16.5t-2 18.5q0 2 -0.5 3.5t-0.5 3.5q0 5 1 9.5t1 8.5t-1 6q-4 6 -5 7t-3 10q0 2 -0.5 2.5t-0.5 2.5q0 8 4 15t12 7q10 0 10.5 0.5t8.5 0.5zM174 672q-1 -5 -4 -13t-3 -22q0 -2 0.5 -4.5
t0.5 -7.5q0 -4 -1.5 -10.5t-1.5 -8.5q0 -4 0.5 -7t0.5 -6v-5t-1 -8q-1 -9 -3 -20t-9 -13q-2 -1 -6 -1q-6 0 -10.5 6t-6.5 21q0 11 4 16t4 7t-5 3t-5 9t-2 16q-2 9 -2 16.5t-2 18.5q-2 12 -4.5 15.5t-3.5 14.5q0 4 0.5 5.5t0.5 4.5q0 4 -1 8q0 2 -0.5 2.5t-0.5 2.5
q0 8 4.5 15t12.5 7q9 0 9.5 0.5t8.5 0.5q7 0 19.5 -3t12.5 -13q0 -8 -4 -13.5t-4 -10.5q0 -2 1 -3q1 -3 1 -11v-9z" />
    <glyph glyph-name="numbersign" unicode="#" horiz-adv-x="538" 
d="M455 590q-2 -4 -5.5 -8t-3.5 -10t-4 -11q-2 -3 -2 -10t-3 -12q-8 -10 -9 -19t-7 -20l-8 -19q-1 0 -2 -1q-2 -2 -2 -5q0 -4 7 -4q3 0 12 1t14 1q12 0 17.5 -1t19.5 -1q5 0 12 1t12 1q11 0 13.5 -3.5t2.5 -8.5t-1 -7q-1 -3 -1.5 -8.5t-3.5 -11t-8 -9t-15 -3.5q-6 0 -15.5 2
t-21.5 2h-33q-1 -1 -6.5 -1.5t-12 -1.5t-12 -2.5t-6.5 -4.5q-2 -7 -7 -8t-5 -9q1 -5 1.5 -6t0.5 -3q0 -1 -0.5 -7t-1.5 -9l-8 -23q-2 -5 -5 -9q-2 -4 -4.5 -7.5t-3.5 -4.5q-3 -2 -4.5 -8.5t-3 -14.5t-4 -17t-7.5 -16q-5 -8 -6 -10.5t-1 -5.5t3.5 -5.5t6.5 -2.5q12 0 26 0.5
t28 0.5q1 0 6 -0.5t9 -0.5h9q6 0 12 -1.5t6 -8.5l-8 -20q-4 -9 -8.5 -13t-16.5 -4h-5q-5 1 -12 1.5t-12 0.5h-8q-6 -1 -17.5 -2t-19.5 -1q-2 0 -4.5 0.5t-4.5 0.5q-11 0 -20 -10.5t-9 -15.5q2 -6 2 -10q0 -10 -7.5 -25.5t-7.5 -20.5q0 -7 -7 -13q-5 -6 -5 -10t-2 -9
q-2 -4 -6 -10.5t-6 -14.5t-1 -12t-9 -4q-19 0 -28.5 1.5t-9.5 15.5q0 6 4 21.5t9 22.5q10 15 10.5 31t9.5 35q5 7 9.5 12.5t4.5 10.5q0 4 -6 4q-2 0 -5.5 -0.5t-7.5 -0.5q-2 0 -6 1t-11 1h-9q-14 0 -16 0.5t-6 0.5q1 0 -4.5 0t-12.5 -0.5t-13 -2.5t-7 -5l-8 -28
q-3 1 -5 -4.5t-3.5 -13t-2.5 -15.5t-4 -11q-2 -4 -3.5 -6t-1.5 -7q0 -2 -1 -7t-2.5 -10.5t-3.5 -10t-3 -5.5q-1 -2 -2.5 -6.5t-4 -10t-6.5 -10t-11 -4.5h-5q-19 0 -23 6.5t-4 19.5q0 8 4 12.5t6 12.5q5 14 8 22t5 12l4 9q-1 3 1.5 11t6.5 17.5t7.5 17t3.5 9.5q0 7 -7 7
q-5 -1 -4 -1.5t-2 -0.5q-8 0 -17.5 2.5t-10.5 2.5q-2 0 -4.5 -1t-10.5 -1h-9q-5 0 -9 2t-4 11q0 11 2 19t4 8q4 0 8.5 4t5.5 4q2 -1 9 -1h11q6 0 10.5 1t9.5 1t10 -1t13 -1q13 0 19.5 4.5t9.5 11t4 12.5t2 9l10 23q4 8 10 29.5t16 35.5q4 6 5 16.5t3 15.5q2 4 5 6t3 6
q0 3 -6 4t-8 1h-7q-3 0 -9 0.5t-14 0.5q-23 0 -30 -1t-10 -1q1 0 -8 4t-9 12q0 10 5.5 21t18.5 11h19q7 0 12.5 2t12.5 2h2t5 -0.5t12 -0.5h24q8 0 15 6t9 14t3.5 13t3.5 10l11 30q5 8 12 24t7 24q0 4 10.5 12.5t18.5 8.5q20 0 20 -20q0 -10 -6.5 -15.5t-6.5 -15.5l-4 -18
q-2 -7 -4.5 -14t-4.5 -10q-11 -20 -15 -30.5t-6 -18.5l1 4q0 -7 7 -7q6 0 19.5 1t24.5 1q8 0 11 -1t6 -1q4 0 7 0.5t11 0.5q7 0 11.5 4.5t7 10t3.5 10t3 5.5q-1 -1 4 8.5t11 22.5t11.5 26.5t5.5 21.5q0 1 2 6.5t5.5 11.5t9 11t13.5 5q11 0 18 -1t7 -11q0 -4 -0.5 -7t-1.5 -7
zM332 420q0 6 -1 6h-7.5t-16.5 1h-6q-6 0 -11 -0.5t-11 -1.5h-5q-5 0 -12.5 0.5t-9.5 0.5h3q-8 0 -14.5 -3.5t-10.5 -6.5q-3 -3 -3 -7t-4 -14q-5 -9 -7 -19t-5 -18q-5 -15 -7 -19q-2 -2 -3 -8.5t-6 -8.5t-5 -11t-2 -13q-2 -5 -4.5 -11t-3.5 -11t-4.5 -8.5t-3.5 -4.5
l-1.5 -4.5t-0.5 -3.5q0 -3 4.5 -3.5t8.5 -0.5h23q6 0 11.5 0.5t10.5 0.5q8 0 13 -1t12 -1q8 0 12 5t8 8q2 4 3.5 9t6.5 14q10 20 12 21q1 1 2.5 6t3 11.5t2.5 12.5t2 9q2 6 5 10.5t5 9.5t5 14t4 14q1 6 4 10.5t4 15.5z" />
    <glyph glyph-name="dollar" unicode="$" horiz-adv-x="332" 
d="M58 95q-6 4 -12 9q-5 5 -11 12t-11 18l-2 26v21q2 2 4 5t6 5q2 1 5 1q2 0 4 -0.5t2 -1.5q7 -11 7 -23l2 -9v-5l2 -5l5 -6l5 -14l6 -8l3 -14l24 -22q5 -3 9.5 -6t10.5 -3q5 -2 11.5 -4t14.5 -2q0 5 -1 31.5t-1 69.5q0 5 1 18.5t1 25.5q0 11 0.5 22t0.5 22v11.5t-1 11.5
q-2 11 -2 20v17q0 11 0.5 20.5t1.5 14.5q-5 5 -11 7t-10 4v5l-16 11q-5 10 -8.5 11.5t-11.5 7.5q-7 8 -8 8.5t-6 8.5q-4 6 -14 13t-13 13v5q-6 5 -12 10.5t-7 16.5l-6 9l1 9l-2 3l-4 13l4 14v9q1 7 1.5 17.5t4.5 16.5l9 9l5 17l8 3v4l13 10q5 2 12.5 7.5t9.5 11.5l8 -2
q5 2 7 4.5t6 5.5q1 0 3 -1.5t3 -1.5l7 6l5 -1l2 3q2 0 6 -1t8 -1l4 1v29v17.5t2 11.5q5 7 18 7q2 0 3 -0.5t3 -0.5q5 -1 11 -8t6 -14q0 -5 -1 -16.5t-1 -20.5q6 -1 12 -1.5t12 -2.5l25 -12l2 -3l18 -15l29 -27l4 -18q2 -8 2 -12q0 -6 -2 -14l-13 -12q-2 -1 -4 -1q-4 0 -10 2
l-6 9v11l-2 10l1 6l-2 6l-10 18v4l-3 2l-9 13q-4 2 -8 2t-8 1q-6 6 -14 9l-13 3v-10.5t1 -10.5v-40q0 -3 1 -12t1 -26v-16.5t-2 -17.5q0 -5 2.5 -14.5t2.5 -14.5q-1 -9 -2 -24.5t-3 -22.5q17 -12 25 -25l6 -6l9 -4q8 -10 21 -18t17 -19q8 -4 12.5 -11t10.5 -14l1 -6l3 -7
l13 -15q5 -11 8 -22.5t5 -22.5v-14l3 2q0 -6 -2 -11t-3 -11l5 -5q-2 -33 -22 -58q-2 -3 -3 -6t-4 -5l-3 -17q-5 -8 -12 -14.5t-14 -11.5q-5 -5 -5 -9t-6 -6q-5 -7 -14.5 -9.5t-19.5 -3.5l-24 -14l-4 6l-4 -2q0 -1 0.5 -2t0.5 -2q2 -3 2 -13q0 -8 -1 -16t-1 -10
q0 -5 -4 -10.5t-7 -7.5q-5 -2 -7.5 -2h-7.5q-6 0 -8 7q-2 2 -5.5 5t-3.5 11l2 31l-11 3q-12 0 -20 8l-17 6q-2 0 -6 1t-6 2q-3 3 -7 6.5t-6 6.5zM184 91q-1 -3 -1 -7l5 6q7 1 9.5 3t3.5 5l2 6t6 6q4 6 9 12t5 12v4q8 8 9.5 18.5t2.5 21.5l-2 5l5 9l2 9l-4 10l1 3
q-2 5 -3.5 11t-3.5 12q-1 1 -1 4q0 2 0.5 3.5t0.5 3.5l-3 14q-1 5 -3.5 7.5t-5.5 6.5q-1 8 -8.5 14t-13.5 12q-6 4 -12 12v-16q0 -9 1 -17.5t1 -18.5v-10.5t-2 -11.5q-1 -8 -2.5 -11.5t-1.5 -11.5q0 -5 2 -10t2 -9q0 -20 1 -33t1 -27v-32t-2 -15zM143 566q-1 7 -1.5 25
t-0.5 28l-10 -2t-7 -3l-3 2l-4 -4l-3 1l-10 -3q0 -4 -2 -6t-3 -5l-6 -3l-6 -18l-4 -3l-2 -9l1 -33l-4 -7q0 -6 5 -11l7 -9l-1 -5q8 -7 10 -20q8 -8 18 -15.5t17 -19.5l8 -6v17q0 31 0.5 61.5t0.5 40.5v7z" />
    <glyph glyph-name="percent" unicode="%" horiz-adv-x="589" 
d="M217 629q25 -2 31 -5.5t14 -10.5q9 -7 18 -8.5t13 -5.5q4 -3 9 -9.5t12 -23.5q5 -11 7 -24.5t2 -26.5q0 -11 -1.5 -21.5t-5.5 -16.5q-4 -7 -7 -22t-17 -27l-5 -4q-13 -11 -25 -19.5t-16 -9.5q-2 0 -9 -3.5t-16 -7l-18 -7t-15 -4.5t-12.5 -1.5t-12.5 -0.5q-5 0 -8 0.5
t-5 0.5q-3 0 -9.5 2t-13 3.5t-12 3.5t-8.5 2q-6 1 -10 5t-9 6l-3 3q-8 6 -10.5 10.5t-10.5 15.5l-3 3q-6 8 -6.5 11.5l-2.5 17.5q-1 9 -2 15.5t-1 14.5q0 5 1 11t1 14q0 7 1 11.5t2.5 7.5t4.5 7t7 12q8 15 14 25t18 18q14 8 24.5 14.5t18.5 8.5q13 0 31.5 7.5t34.5 7.5h10z
M186 600q-8 0 -16 -1.5t-18 -10.5l-7 -7q-4 -3 -5.5 -4.5t-2.5 -1.5t-2 -0.5t-4 -1.5q-5 -2 -8.5 -7t-3.5 -10q0 -1 -2 -9t-3 -13l-4 -38q-1 -2 -1 -8q0 -9 4 -21t9.5 -24t11 -21.5t9.5 -12.5q5 -4 14 -8.5t22 -4.5q14 0 30 5.5t20 12.5q3 8 8 12t7 6q2 3 3.5 9.5t4.5 15.5
q2 8 7 18t5 30v4q-2 23 -7 39t-13 24t-16.5 14t-13.5 8q-9 6 -28 6zM542 583q-3 -3 -9.5 -10.5t-13.5 -15t-12.5 -14t-8.5 -7.5q-5 -2 -11.5 -4.5t-6.5 -7.5v-4q0 -8 -2 -10q0 -1 -3 -5t-8 -9t-11.5 -11t-13.5 -10t-10 -6.5t-4 -5t-1 -5t-2 -6.5q-3 -8 -8 -14.5t-11 -12.5
q-5 -6 -14 -15.5t-14 -14.5q-6 -5 -14 -8.5t-10 -10.5t-4 -12.5t-7 -8.5t-11 -14t-21 -25q-8 -7 -11.5 -10.5t-5 -6t-2 -4.5l-1.5 -6q-3 -8 -7 -9.5t-7 -3.5l-7 -7t-12.5 -13.5t-12 -13.5t-5.5 -7q-1 -2 -8.5 -11.5t-11.5 -11.5q-5 -2 -12.5 -9t-7.5 -13q0 -5 -4 -11t-6 -8
l-6 -6t-11 -11.5t-11 -12t-7 -6.5l-11.5 -11.5t-7.5 -12.5q0 -1 -3 -7t-7 -8q-1 -1 -3 -1t-6 1t-6 1q-1 0 -2.5 -3t-4.5 -18q-3 -5 -8 -12.5t-12 -14.5q-3 -3 -9 -10.5t-12 -14.5t-10.5 -13l-4.5 -6q-1 -1 -6 -4t-10 -3q-12 0 -14.5 16t-2.5 32q0 10 13 23q16 16 23.5 22
t10.5 13q2 7 10 17.5t16 17.5q6 5 15 14.5t18.5 18.5t16.5 16.5t8 9.5q3 5 2 7.5t7 10.5q4 4 10.5 11l13 14t12.5 12.5t9 6.5q5 3 9.5 12t6.5 14q3 5 12 10.5t18 19.5q4 6 13 18.5t18.5 25.5t17.5 23t9 11q5 4 16 12t13 13t6.5 11.5t9.5 8.5q5 6 14 17t19.5 23t19.5 22
t14 15l6.5 6.5t3.5 5.5l6 12q7 13 14.5 17t16.5 15q9 10 20 22.5t16 17.5q4 3 9.5 12t14.5 9q1 0 2.5 -0.5t2.5 -0.5q1 -1 4 -5.5t7 -9.5l10 -15q0 -5 -2.5 -11t-4.5 -8zM447 279q25 -2 31 -5.5t14 -10.5q9 -7 18 -8.5t13 -5.5q4 -3 9 -9.5t12 -23.5q5 -11 7 -24.5t2 -26.5
q0 -11 -1.5 -21.5t-5.5 -16.5q-4 -7 -7 -22t-17 -27l-5 -4q-13 -11 -25 -19.5t-16 -9.5q-2 0 -9 -3.5t-16 -7l-18 -7t-15 -4.5t-12.5 -1.5t-12.5 -0.5q-5 0 -8 0.5t-5 0.5q-3 0 -9.5 2t-13 3.5t-12 3.5t-8.5 2q-6 1 -10 5t-9 6l-3 3q-8 6 -10.5 10.5t-10.5 15.5l-3 3
q-6 8 -6.5 11.5l-2.5 17.5q-1 9 -2 15.5t-1 14.5q0 5 1 11t1 14q0 7 1 11.5t2.5 7.5t4.5 7t7 12q8 15 14 25t18 18q14 8 24.5 14.5t18.5 8.5q13 0 31.5 7.5t34.5 7.5h10zM416 250q-8 0 -16 -1.5t-18 -10.5l-7 -7q-4 -3 -5.5 -4.5t-2.5 -1.5t-2 -0.5t-4 -1.5q-5 -2 -8.5 -7
t-3.5 -10q0 -1 -2 -9t-3 -13l-4 -38q-1 -2 -1 -8q0 -9 4 -21t9.5 -24t11 -21.5t9.5 -12.5q5 -4 14 -8.5t22 -4.5q14 0 30 5.5t20 12.5q3 8 8 12t7 6q2 3 3.5 9.5t4.5 15.5q2 8 7 18t5 30v4q-3 46 -20 63q-8 8 -16.5 14t-13.5 8q-9 6 -28 6z" />
    <glyph glyph-name="ampersand" unicode="&#x26;" horiz-adv-x="463" 
d="M361 577q0 -2 0.5 -5.5t0.5 -6.5q0 -4 -1 -5q-6 -7 -14 -7q-13 0 -22 12q-3 3 -3.5 7.5t-0.5 9.5l4 9q0 8 -1.5 16.5t-7.5 18.5l-11 15q-3 2 -7.5 10.5t-11.5 8.5q-4 0 -7 1t-5 1q-4 0 -6 3l-3 3q-1 1 -5 1q-2 0 -5 -0.5t-5 -0.5t-4.5 2.5t-4.5 3.5q-4 0 -5.5 -1t-3.5 -1
q-5 1 -10.5 1.5t-10.5 0.5q-2 0 -6.5 -3.5t-7.5 -4.5l-14 -8q-8 -5 -17.5 -18t-15.5 -21q-1 -1 -7 -6.5t-6 -10.5q0 -2 -0.5 -5t-2.5 -3l-3 -19l-4 -2q-1 -3 -1 -8q0 -4 0.5 -7.5t0.5 -5.5t-1.5 -8.5t-1.5 -7.5v-5q0 -6 1 -14.5t2.5 -17t3 -15.5t2.5 -9q3 -8 8.5 -17
t12.5 -14q2 -2 6 -3t6 -6q2 -2 4 -6t5 -6q12 -7 19.5 -9.5t23.5 -4.5h27q10 0 19 -1t14 -6q14 -14 14 -29q0 -10 -6 -16q-1 -1 -6 -1q-6 0 -16.5 2t-17.5 5q-1 0 -1.5 0.5t-1.5 0.5q-4 0 -6.5 -2t-4.5 -2q-4 4 -13 4h-16h-12.5t-9.5 -2q-3 -2 -8.5 -6t-9.5 -8l-2 -8h-9
q-2 0 -3 -4t-3 -7t-6 -3t-7 -2q-5 -5 -8.5 -13.5t-7.5 -14.5v-8h-4l-2 -10q-1 -2 -3 -3.5t-4 -3.5v-30q0 -3 -2 -6t-3 -4v-11l-2.5 -5t-1.5 -5q0 -4 1 -7t1 -5v-46q2 -5 3 -9.5t3 -10.5q0 -5 0.5 -8t0.5 -8l3 -2q0 -5 4 -10t4 -10q0 -3 1 -3.5t3 -2.5t2 -4t2 -4q2 -4 7 -6.5
t7 -7.5q2 -2 2 -3.5t2 -3.5t3.5 -5t3.5 -4q3 -4 7 -4l10 -14q3 0 8.5 -3.5t8.5 -3.5q3 -2 7 -5.5t8 -4.5q2 1 4 1t4 2q1 0 3.5 -2.5l3.5 -3.5l3 2q2 -1 4 -2.5t5 -1.5l10 4q3 -3 4 -3h16q3 -1 8 -1q9 0 15 3t14 3q1 0 8.5 5t10.5 5q7 0 10 3q2 3 3 4h6q5 3 8.5 9t7.5 10
q2 2 5.5 8t5.5 8q8 5 9 17t3 23q1 5 2 5.5t2 5.5q0 3 -1 6t-1 8q1 3 2.5 5.5t1.5 8.5q-2 5 -3 10t-1 12v26q-1 4 -2 12.5t-4 17.5q-2 4 -8 7t-7 3q-2 0 -9 0.5t-10 1.5q-2 0 -3.5 0.5t-3.5 0.5q-6 0 -8 -2q-1 -1 -6 -1.5t-11 -0.5h-8t-9 1q-8 0 -13.5 -4t-8.5 -4t-5 -6.5
t-5 -7.5q-1 -8 -1.5 -13t-10.5 -6t-15.5 5.5t-5.5 9.5t0.5 8t2.5 14t7.5 14.5t13.5 12.5t19 11t14 6t8 2.5t8 2.5q1 0 1.5 0.5t1.5 0.5q3 0 7.5 -1t8.5 -1q1 0 1.5 0.5t1.5 0.5q1 1 11 1h17q9 0 16.5 1t9.5 1t8 0.5t8 0.5t5.5 -1t6.5 -1t3 2t8.5 3.5t13.5 4.5t7 7.5t6 4.5
t8.5 -3.5t2.5 -9.5q-3 -12 -8 -18q-3 -3 -7.5 -6.5t-6.5 -7.5t-10.5 -8t-8.5 -5t-1 -3.5t-1 -5.5t1 -4q3 -4 3 -15q0 -2 1.5 -8t4.5 -23q3 -15 3 -29q0 -11 -1 -19.5t-1 -15.5q0 -11 -1 -19.5t-5 -14.5q-2 -4 -6.5 -10.5t-6.5 -11.5q0 -2 -0.5 -4t-0.5 -4q-3 -2 -5.5 -4.5
l-4.5 -4.5q-5 -7 -8 -14.5t-10 -11.5h-4q-3 0 -3 -1q-4 -5 -14 -12t-18 -9q-5 -1 -12 -1q0 -2 -2 -3.5t-3 -3.5l-19 -6q-14 -2 -29 -5t-29 -3q-12 0 -20 2t-18 4l-20 2q-13 2 -26 8.5l-23 11.5h-8q-3 1 -5 3.5t-4 3.5q-2 0 -4 0.5t-4 0.5q-4 2 -7 6.5t-6 6.5q-4 3 -7.5 4.5
t-7.5 3.5q-5 3 -8.5 8.5t-6.5 11.5q0 2 -4.5 5t-5.5 4l-5 11l-5 3l-4 11q-1 3 -3.5 6t-3.5 5q-3 6 -3 11t-2 12q-8 19 -8 35q0 6 1 11q0 1 -0.5 2t-0.5 2l-1 1l2 42q1 4 3 9t4 9v8q1 5 4.5 8.5t4.5 8.5l3 20q2 1 3.5 2t3.5 2l2 8l5 3q2 3 3 7t3 8q3 4 7.5 6t9.5 5q5 4 8.5 9
t8.5 10q11 8 19 14t18 11h5q1 1 2 2.5t3 2.5h5q2 2 5 4.5t5 2.5h9l2 3l8 2q-11 2 -20.5 4.5t-18.5 7.5l-2 5h-4q-3 1 -5 3l-4 4h-5l-3 6q-2 1 -4.5 1t-4.5 2q-1 1 -1 4t-1 5q-3 5 -8 7.5t-7 8.5l-2 8q-2 2 -3.5 3t-3.5 3l-3 11q-2 2 -5 4t-4 4q-2 4 -3.5 11.5t-2.5 15.5
t-1.5 15.5t-0.5 10.5q0 1 -0.5 2t-0.5 2v12q0 18 4 26v10q1 2 3.5 5t3.5 6q3 6 4 12.5t5 11.5q2 0 4 1.5t4 1.5q1 4 1 6.5t2 4.5q2 5 8.5 12t9.5 9q4 3 5.5 7t4.5 6q4 3 14 5q5 0 12 5.5t12 5.5l27 14q9 2 23.5 5.5t22.5 4.5q14 0 18 -1l33 -3l10 -7q11 -4 18 -7.5t15 -9.5
q2 -2 3 -4t3 -3q3 -2 6.5 -2t6.5 -2q4 -2 7 -10.5t5 -10.5q18 -12 19 -29t0 -36z" />
    <glyph glyph-name="quotesingle" unicode="'" horiz-adv-x="104" 
d="M80 672q-1 -5 -4 -13t-3 -22q0 -2 0.5 -4.5t0.5 -7.5q0 -4 -1.5 -10.5t-1.5 -8.5q0 -4 0.5 -7t0.5 -6v-5t-1 -8q-1 -9 -3 -20t-9 -13q-2 -1 -6 -1q-6 0 -10.5 6t-6.5 21q0 11 4 16t4 7t-5 3t-5 9t-2 16q-2 9 -2 16.5t-2 18.5q-2 12 -4.5 15.5t-3.5 14.5q0 4 0.5 5.5
t0.5 4.5q0 4 -1 8q0 2 -0.5 2.5t-0.5 2.5q0 8 4.5 15t12.5 7q9 0 9.5 0.5t8.5 0.5q7 0 19.5 -3t12.5 -13q0 -8 -4 -13.5t-4 -10.5q0 -2 1 -3q1 -3 1 -11v-9v0z" />
    <glyph glyph-name="parenleft" unicode="(" horiz-adv-x="181" 
d="M194 -25q-3 -3 -11 -3q-16 0 -22 9q-5 6 -14 13.5t-14 15.5t-12.5 17t-10.5 15q-3 7 -15.5 18t-17.5 19q-5 7 -6.5 14.5t-3.5 12.5q-2 6 -8 10.5t-7 12.5q-1 5 -6 19t-7 21q-2 9 -4.5 17t-7.5 16t-6.5 16.5t-6.5 21.5q-4 14 -6.5 20.5t-3.5 11.5q0 3 1.5 6.5t1.5 6.5
q0 6 -3 7t-3 6q0 2 2 6t2 8q0 3 -1 4q-2 6 -5 17t-3 24v4q1 14 0.5 37.5t3.5 47.5q4 23 6 43.5t2 22.5t2.5 13.5t2.5 13.5t7 4.5t7 4.5l-9 7q0 7 4.5 15.5t6.5 10.5q8 6 37 54q15 25 21 33t11 13q7 5 9.5 14t4.5 9t7.5 9.5t7.5 13.5q1 2 5.5 6t10.5 9.5t12 11.5t10 12
q5 8 11 10t12 2q8 0 10 -1q4 -2 6.5 -9t2.5 -9q-1 -1 -4.5 -4t-7.5 -6t-7.5 -5.5t-4.5 -2.5q-3 -1 -4.5 -5.5t-6.5 -5.5q-4 -1 -3.5 -8.5t-3.5 -15.5t-12.5 -21t-18.5 -35q-11 -21 -16 -37t-10 -27q-7 -11 -8 -24t-3 -22q-2 -8 -6 -12t-4 -9q0 -9 -0.5 -12t-0.5 -20
q0 -5 -3.5 -5t-3.5 -6q0 -5 1 -11.5t1 -7.5q-5 -3 -6.5 -20t-3.5 -40q-1 -5 -1 -18q0 -23 3 -46.5t4 -31.5t3 -14.5t2 -13.5q0 -8 1 -16t1 -15q0 -5 5 -11.5t8 -22.5q0 -2 2.5 -10.5t5 -17.5t5 -17t3.5 -10q1 -1 1 -4q0 -2 -0.5 -6t-0.5 -8q0 -7 3 -8t8 -9q6 -5 6 -10
q0 -2 -0.5 -3t-0.5 -3q0 -5 3.5 -10t9.5 -16q16 -22 20 -36q2 -5 3.5 -14.5t1.5 -10.5q0 -7 6 -9.5t14 -11.5q10 -10 10 -15q0 -3 -3 -4z" />
    <glyph glyph-name="parenright" unicode=")" horiz-adv-x="241" 
d="M8 775q3 3 11 3q16 0 22 -9q5 -6 14 -13.5t14 -15.5t12.5 -17t10.5 -15q3 -7 15.5 -18t17.5 -19q5 -7 6.5 -14.5t3.5 -12.5q2 -6 8 -10.5t7 -12.5q1 -5 6 -19t7 -21q2 -9 4.5 -17t7.5 -16t6.5 -16.5t6.5 -21.5q4 -14 6.5 -20.5t3.5 -11.5q0 -3 -1.5 -6.5t-1.5 -6.5
q0 -6 3 -7t3 -6q0 -2 -2 -6t-2 -8q0 -3 1 -4q2 -6 5 -17t3 -24v-4q-1 -14 -0.5 -37.5t-3.5 -47.5q-4 -23 -6 -43.5t-2 -22.5t-2.5 -13.5t-2.5 -13.5t-7 -4.5t-7 -4.5l9 -7q0 -7 -4.5 -15.5t-6.5 -10.5q-8 -6 -37 -54q-15 -25 -21 -33t-11 -13q-7 -5 -9.5 -14t-4.5 -9
t-7.5 -9.5t-7.5 -13.5q-1 -2 -5.5 -6t-10.5 -9.5t-12 -11.5t-10 -12q-5 -8 -11 -10t-12 -2q-8 0 -10 1q-4 2 -6.5 9t-2.5 9q1 1 4.5 4t7.5 6t7.5 5.5t4.5 2.5q3 1 4.5 5.5t6.5 5.5q4 1 3.5 8.5t3.5 15.5t12.5 21t18.5 35q11 21 16 37t10 27q7 11 8 24t3 22q2 8 6 12t4 9
q0 9 0.5 12t0.5 20q0 5 3.5 5t3.5 6q0 5 -1 11.5t-1 7.5q5 3 6.5 20t3.5 40q1 5 1 18q0 23 -3 46.5t-4 31.5t-3 14.5t-2 13.5q0 8 -1 16t-1 15q0 5 -5 11.5t-8 22.5q0 2 -2.5 10.5t-5 17.5t-5 17t-3.5 10q-1 1 -1 4q0 2 0.5 6t0.5 8q0 7 -3 8t-8 9q-6 5 -6 10q0 2 0.5 3
t0.5 3q0 5 -3.5 10t-9.5 16q-16 22 -20 36q-2 5 -3.5 14.5t-1.5 10.5q0 7 -6 9.5t-14 11.5q-10 10 -10 15q0 2 3 4z" />
    <glyph glyph-name="asterisk" unicode="*" horiz-adv-x="231" 
d="M138 738q0 -6 -3 -12q-1 -2 -2.5 -3.5t-1.5 -3.5t2 -3t2 -3q0 -1 -0.5 -3t-0.5 -8q0 -8 -2.5 -10.5t-3.5 -4.5q-1 -1 1.5 -2t2.5 -2v-8q-1 -2 -1 -5v-6v-4t1 -2l4 4t5 4l6 4t6 3l8 5q1 1 5 7t9 8l20 12h4q3 0 7 -1.5t6 -4.5q2 -4 2 -7.5t3 -5.5q2 0 2 -3v-5t-2 -5
q-2 -4 -10 -7q-5 -2 -10 -2.5t-7 -2.5q-2 -6 -6 -6q-2 0 -12 -6.5t-16 -9.5l-10 -6q-1 0 -2 -1l-2 -2q0 -2 2 -3q4 -2 12.5 -5t12.5 -8q5 -5 7.5 -6t5.5 -2t8 -2t7 -3t9 -6t11 -6q3 -3 3 -8q0 -2 -2 -6t-5 -7q-3 -4 -7 -7.5t-8 -3.5q-3 0 -9 4q-5 4 -6 5.5t-2 1.5l-8 6
q-3 2 -4.5 8.5t-2.5 6.5q-2 0 -3.5 -1.5t-3.5 -1.5q-1 0 -3 2q-2 3 -5.5 4t-3.5 3t-4 4t-6 4q-2 1 -2 2.5t-2 1.5q-3 0 -3 -4q1 -4 2 -5t1 -3t-1 -3l-1.5 -3t-0.5 -4q1 -3 2.5 -5t1.5 -4v-14q0 -3 -0.5 -7t-0.5 -8q0 -2 0.5 -3.5t0.5 -2.5q4 -3 4 -12q0 -4 -2 -10t-11 -6
q-11 0 -18.5 2t-9.5 9q-1 0 -1 2v6q0 3 1 5q1 1 1 4q0 4 -0.5 5t-0.5 3q0 3 1 6.5t1 8.5v4q1 5 2.5 8.5t1.5 8.5v19l-2 2q-1 0 -2 1q-4 -2 -6.5 -6t-3.5 -4q-2 0 -3.5 1t-3.5 1t-3 -1q-2 0 -2 -2t1 -3t1 -3t-2 -2q-4 -2 -4.5 -3t-4.5 -3q-3 -2 -5 -3.5t-6 -3.5t-6.5 -7
t-4.5 -5t-6 -4t-8 -4h-4q-5 3 -9.5 9.5t-4.5 9.5v7q0 8 4 8t6 0.5t4 4.5q3 7 8 9q5 4 15 4q2 1 5 3q2 2 4 2.5t4 2.5q6 4 10.5 5.5t6.5 2.5t4.5 1.5t4.5 2.5l2 1q1 0 1 1t-5 4q-5 2 -10.5 5.5t-6.5 3.5h-4q-7 0 -8 2q0 3 -5 6t-6 4q-3 2 -8 3t-7 3q-2 4 -7.5 7t-6.5 3
q-3 2 -6.5 4t-3.5 7q0 3 2 6t2 5q4 5 9 10.5t10 5.5q1 0 2 -0.5t3 -0.5q6 -5 11.5 -9t6.5 -4q0 -2 1 -4q1 -3 3 -3q1 0 4 -3t5 -4q1 -1 7 -2.5t8 -3.5q4 -4 6 -8t6 -6q4 -1 5.5 -2t2.5 -1q0 1 -1 4.5t-1 6.5q0 10 -2 15q-1 3 -2 5.5t-1 7.5q1 4 2.5 10.5t1.5 9.5
q-1 3 -2.5 7t-1.5 7q0 15 8 17q6 1 10.5 1.5t6.5 0.5h5t4 -1q8 -1 8 -10z" />
    <glyph glyph-name="plus" unicode="+" horiz-adv-x="497" 
d="M240 564q11 -1 19.5 -6.5t8.5 -11.5q0 -5 -1 -12.5t-1 -18.5q0 -5 -3 -10.5t-3 -12.5q0 -6 4.5 -10t4.5 -23q0 -8 -1 -15t-3 -30q0 -4 1 -10.5t1 -11.5l-6 -33h25q8 0 12 0.5t12 0.5q5 0 10 -5t6 -5q6 0 11.5 3.5t11.5 3.5q4 0 5 -2t5 -2q7 0 10 1t4.5 2.5t3.5 2.5t8 1
q10 0 12.5 -0.5t3.5 -0.5h14h43q4 0 9 -3.5t6 -8.5t1 -20q0 -5 -2 -8t-4 -5q-1 -2 -3 -5t-10 -3q-12 0 -18.5 1t-15.5 1q-8 0 -17 -1t-17 -1q-5 0 -15.5 1t-21.5 1q-10 0 -19 0.5t-19 0.5h-6.5t-7.5 -1q-8 -2 -13 -2h-8q-6 0 -6 1t-2 1l-1 -16q0 -8 0.5 -14.5t0.5 -13.5
q0 -5 -7 -8t-7 -8t5.5 -12t5.5 -13q0 -3 3.5 -5.5t3.5 -5.5q0 -8 -0.5 -10.5t-1.5 -3.5t-1.5 -2.5t-0.5 -7.5q0 -5 -0.5 -11t-0.5 -8q0 -5 2 -6.5t2 -6.5q0 -2 -2 -3.5t-2 -2.5q1 -5 1 -14q0 -6 -0.5 -12t-0.5 -9t-5.5 -8t-9.5 -6q-5 -1 -8 -1h-8q-9 0 -15 6q-2 2 -4.5 3.5
t-2.5 9.5q0 12 1 19t1 16q0 8 -1 16t-1 17q0 4 -0.5 15t-0.5 21q0 11 1.5 20t1.5 18v18q-2 8 -2 11.5v6.5q0 6 1 5.5t1 2.5l-9 3q-12 0 -25 -1t-23 -1q-26 0 -38.5 3t-19.5 3q-14 -2 -21 -4t-20 -2h-36t-7 2q-3 2 -4.5 9.5t-1.5 15.5t6 17t12 9q5 0 12 -1t17 -1q5 2 12.5 2
h15.5q34 0 48 -1t25 -2q4 0 11 1.5t11 1.5l34 -6q0 3 0.5 6t0.5 7q0 12 -0.5 21t-0.5 19q0 26 0.5 36t0.5 14q-1 8 -2 23t-1 25v2.5t0.5 3t0.5 8v17.5v15t2 8q2 3 10 4.5t13 1.5z" />
    <glyph glyph-name="comma" unicode="," horiz-adv-x="99" 
d="M-9 -66q0 6 5 9.5t6 3.5l6 3l7 3.5t3 6.5q0 3 2.5 7t2.5 5q2 3 4.5 8.5t3.5 10.5q1 3 2 6.5t1 6.5q0 6 -4 7q-6 2 -14 6.5t-8 15.5q0 7 2 13.5t2 12.5q2 6 4 7t2 9q0 7 7 12.5t15 5.5q10 0 17 -2.5t10 -10.5q2 -2 2 -9t5 -7t7 -1.5t4 -6.5q3 -4 4 -9t1 -10q0 -10 -4 -17
q-4 -9 -4 -12t-1 -6q-4 -6 -9 -9q-2 -2 -5 -2.5t-3 -4.5v-5q0 -1 1 -2q-2 -8 -5 -8q2 0 -2 -5t-4 -4q0 -2 -3.5 -3t-5.5 -5q-3 -2 -6.5 -5t-5.5 -6q-2 -2 -5 -3t-9 -6q-5 -4 -7.5 -5t-7.5 -1t-9 0.5t-4 5.5z" />
    <glyph glyph-name="hyphen" unicode="-" horiz-adv-x="352" 
d="M10 323q0 5 4.5 11.5t11.5 7.5q8 1 9.5 4.5t10.5 3.5q4 0 9 0.5t10 0.5t9.5 -0.5t6.5 -0.5t8 -3t10 -3q2 2 5 4t10 2t18 -0.5t19 -2.5q4 -1 7.5 -1h6.5q8 0 13 1q2 1 10 1q6 0 13.5 -0.5t13.5 -0.5h9q3 0 3 -1q0 -2 -2.5 -5t-2.5 -5q2 -2 4 -2q5 0 15 4q5 3 11.5 7
t15.5 4q5 0 11 0.5t11 0.5q6 0 7 -1q5 -5 16 -5q8 4 18 4q13 -2 13 -12q0 -6 -5.5 -15t-21.5 -11q-8 0 -11 2.5t-6 2.5q-1 0 -1.5 -0.5t-1.5 -0.5q-4 -5 -9.5 -6t-19.5 -1q-11 0 -16 0.5t-14 0.5h-46q-9 1 -21 3t-20 2q-4 0 -8 -2q-6 -2 -11 -2q-4 0 -9 0.5t-10 0.5
q-6 0 -16 -0.5t-19 -0.5q-11 0 -15 1q-2 1 -6 1q-5 0 -10.5 -1.5t-14.5 -1.5q-10 0 -16 5t-6 10z" />
    <glyph glyph-name="period" unicode="." horiz-adv-x="153" 
d="M71 76q5 0 12.5 -5.5t15.5 -7.5q6 -2 7 -11.5t1 -18.5q0 -3 -1.5 -9t-4.5 -12t-6.5 -10t-7.5 -4q-9 0 -15 -4t-12 -4q-11 0 -16 6.5t-10 10.5q-3 4 -6 7.5t-3 11.5q0 15 9 24.5t16 15.5q2 3 8.5 6.5t12.5 3.5z" />
    <glyph glyph-name="slash" unicode="/" horiz-adv-x="284" 
d="M306 669q5 0 5.5 2t5.5 2q4 0 6 -2q3 -3 3 -10q0 -10 -6 -17q-5 -6 -9.5 -8.5t-4.5 -7.5q0 -1 0.5 -1.5t0.5 -1.5q2 -6 2 -8q0 -8 -12 -24q-5 -7 -6.5 -12t-2 -10.5t-1 -12t-4.5 -15.5q-8 -19 -15 -31t-7 -14t-8 -5.5t-8 -11.5q0 -1 0.5 -1.5t0.5 -1.5q2 -5 3 -9t1 -7
q0 -2 -2 -8q-2 -3 -6.5 -6.5t-9.5 -6.5q-6 -4 -13 -7l14 -12q-1 -6 -3 -12q-2 -5 -3 -10.5t-3 -10.5q-4 -9 -7.5 -12.5t-5.5 -11.5q0 -1 -0.5 -1.5t-0.5 -1.5q-2 -8 -4.5 -21t-4.5 -18q-1 -2 -4.5 -8.5t-7.5 -14.5t-7.5 -16t-5.5 -14q-7 -20 -17.5 -42t-24.5 -53
q-1 -8 -5.5 -16t-10 -16.5t-9.5 -15.5t-4 -13q1 -4 1 -10q0 -13 -6 -22.5t-11 -23.5q-5 -16 -13.5 -30.5t-10.5 -22.5t-7 -12.5t-16 -4.5q-13 0 -17 1q-4 0 -7 1q-2 1 -4 3q-3 3 -3 10q0 5 5 12l19 35q5 8 9 18t4 19q2 6 6 19.5t9 28t11 27.5t11 18q10 10 9.5 16.5t5.5 19.5
q11 25 12.5 36t8.5 11q6 0 12.5 12t6.5 17q-1 3 -1 14q0 5 0.5 9t2.5 8q2 3 5.5 11.5t7 18.5t7.5 19t7 14l2 3q6 10 12 20.5t8 21.5t3.5 14t4.5 18t10.5 25t14.5 28t10 31t10 30t11.5 26t9.5 22q1 3 3 9.5t5 13.5t6.5 12.5t6.5 5.5q4 1 9.5 2t10.5 1z" />
    <glyph glyph-name="zero" unicode="0" horiz-adv-x="414" 
d="M220 703q7 0 14.5 -2t12.5 -4h32l4 -5l14 -4q2 -1 4 -3.5t4 -3.5l19 -11l2 -9q1 -3 5 -4.5t6 -3.5q2 -5 4 -11.5t8 -6.5q5 -6 6.5 -14t3.5 -14l2 -3q4 -7 7.5 -14.5t5.5 -15.5l2 -14q2 -4 5 -8t3 -7l1 -19l6 -16q0 -3 -1 -6t-1 -8q3 -14 4.5 -31.5t2.5 -36t1 -35v-27.5
v-62q0 -15 -4.5 -34.5t-4.5 -36.5v-19q0 -8 -2.5 -18t-5.5 -18.5t-5.5 -14.5t-1.5 -6q-1 -6 -3 -9.5t-3 -5.5q-4 -12 -4 -15l-4 -9v-7q-3 -8 -8.5 -13.5t-5.5 -13.5q-6 -12 -15 -23.5t-18 -22.5q0 -5 -6 -11h-4q-2 -2 -4 -5t-4 -5h-3l-4 -6h-10q-4 -2 -7 -5.5t-8 -5.5h-19
q0 -1 -0.5 -1.5t-0.5 -1.5l-32 -2l-42 5l-6 6h-14l-6 5h-9q-11 5 -16.5 8t-8.5 5.5t-4.5 5.5t-5.5 8q-9 8 -15 14t-11 16l-11 13l-3 8q-8 8 -11 18.5t-3 12.5l-3 14l-6 11q-2 5 -2.5 9t-3.5 4v12l-7 18q-1 3 -1 8.5t-1 7.5v24q-2 0 -2.5 9.5t-1 20.5t-1.5 20.5t-2 9.5v43
q-1 5 -1.5 11t-0.5 15q0 11 1 20.5t3 16.5v32q4 15 7 32t7 31v10q2 5 4.5 13.5t4.5 15.5v9l9 8v9q0 9 3.5 16t7 12t6.5 7.5l3 2.5v4q5 7 9 10.5t8 14.5q2 3 5 4.5t5 3.5v7q1 3 5 8t10 5l7 12q2 2 8.5 2.5t6.5 6.5q11 6 13.5 8.5t3.5 4.5q1 0 6 1.5t8 3.5l1 4l26 2l7 5h9
q3 1 6 1h4q3 0 5 3zM283 659q-7 2 -12 6.5t-9 4.5q-7 0 -11 -1t-6 -1q-1 0 -2.5 0.5t-2.5 0.5q0 -2 -4 -2q-2 0 -3 1t-4 1l-19 -8h-7l-21 -21l-8 -13q-3 -2 -6.5 -5.5t-6.5 -7.5l-8 -10q-2 -2 -3.5 -6t-2.5 -6l-12 -13l-11 -41l-4.5 -4.5t-3.5 -6.5q1 -1 1 -2t1 -3
q-5 -14 -6 -23.5t-1 -16.5v-10v-3t-3 -1q-3 -13 -3.5 -29.5t-1.5 -18.5q-1 -3 -1 -16v-19q0 -5 1 -10q-1 -12 -2.5 -24.5t-1.5 -24.5v-10t2 -10q0 -23 -1.5 -44.5t-1.5 -41.5q0 -17 3.5 -32.5t8.5 -29.5q0 -2 -0.5 -4.5t-0.5 -4.5q1 -7 5 -14.5t6 -12.5v-6l8 -6q2 -7 4 -12
t5 -8l7 -9q2 -3 4.5 -8.5t4.5 -7.5t7 -4t7 -4q0 -3 6.5 -12.5t8.5 -9.5q1 0 3 0.5t4 0.5t3.5 -3t3.5 -3h4q0 -2 0.5 -3t0.5 -2h16q1 0 1 -1q0 -2 1 -2l2 -2q1 0 6.5 2.5t10.5 2.5q2 -1 2 -3h4q5 0 13.5 1.5t10.5 3.5l5 8q2 3 7.5 4t9.5 3l8 15q4 3 7.5 5.5t6.5 5.5l4 11
q0 1 5 2.5t6 4.5l2 9q1 0 1.5 1t1.5 1l4.5 15t2.5 7l1.5 3t1.5 4l8 25q3 5 4.5 10t3.5 10v8q2 8 5 17.5t5 18.5q0 2 -0.5 2.5t-0.5 2.5q1 5 3 13t3 13q0 5 -0.5 9.5t-0.5 8.5q0 3 1.5 13t4 20t4 17t1.5 6q0 6 -2 11.5t-2 9.5q2 2 4 8t2 8v5q0 8 -2 22.5t-2 23.5v15
q0 18 -4 37t-4 39q-2 3 -4.5 10.5t-4.5 14.5q0 2 0.5 5.5t0.5 6.5q0 5 -2.5 9t-5.5 12q-1 5 -2 10.5t-4 11.5q-1 2 -6 6t-6 6q-3 5 -5 13t-6 14q-9 7 -12 16t-16 9q-5 3 -8.5 8.5t-8.5 7.5z" />
    <glyph glyph-name="one" unicode="1" horiz-adv-x="275" 
d="M75 533q-2 -4 -6 -8.5t-9 -5.5q-8 0 -17 8t-9 14q0 4 4.5 8t11.5 7.5l14 7t13 7.5q5 4 4 4.5t3 5.5q9 8 12 13.5t4.5 9l3 7t7.5 7.5v6q4 12 10 25t6 20q0 2 -0.5 4t-0.5 4q0 4 4 7.5t9.5 6t9.5 5t4 4.5l9 2q4 0 7 1t5 1q5 0 10.5 -12t5.5 -26q0 -20 -1 -30t-3 -18
q0 -5 0.5 -7t0.5 -5q0 -2 -1 -5.5t-6 -17.5q0 -3 2.5 -7t2.5 -14q0 -8 -1.5 -15t-3.5 -12q0 -14 3 -18q-5 -15 -4.5 -33.5t-1.5 -33.5v-50.5v-33t0.5 -18.5t0.5 -9q0 -1 -2.5 -7.5t-2.5 -11.5q0 -1 1 -4.5t1 -5.5l-4 -4q-4 -4 -4 -6q0 -1 4.5 -2.5t5.5 -1.5q0 -8 -1.5 -14
t-1.5 -10q0 -11 1.5 -17.5t1.5 -11.5v-6v-52v-14.5t0.5 -18t0.5 -19v-15.5v-33q1 0 2 -5t2.5 -11.5t4 -12t7.5 -6.5q0 -12 9 -15.5t16 -3.5t15 1t19 1l2 -5q2 -4 2 -8q0 -13 -8.5 -16.5t-18.5 -3.5q-18 0 -43 9q-11 0 -15 -2q-6 2 -11 2q-6 0 -24 -3q-1 0 -6 0.5t-7 0.5h-2
q-4 2 -8 2q-22 -5 -36 -10t-22 -5t-11.5 5t-3.5 12t5.5 12t11.5 5q4 0 8 -1t8 -1q3 0 11.5 3.5t10.5 4.5q10 5 12.5 14.5t2.5 19.5v24q0 3 2 4.5t3 3.5q-1 1 -1 3q-1 2 -1 5v110q0 17 1 32.5t1 32.5q0 8 -1 15.5t-1 11.5q0 1 1 3q0 2 0.5 3t0.5 2v8t-0.5 6.5t-0.5 8.5v15
q0 2 1 5t1 6q0 2 -1 3t-2 3t-2 3q0 5 2 6.5t2 4.5q0 2 -4 2q0 1 -0.5 6t-0.5 10.5v11v8.5q0 18 0.5 30t1.5 21.5t1.5 17.5t0.5 17q0 5 0.5 13.5t-0.5 16.5t-3 14t-6 6q-5 0 -6.5 -4t-9.5 -6l-2 -5z" />
    <glyph glyph-name="two" unicode="2" horiz-adv-x="408" 
d="M88 61q-5 -4 -4.5 -8t-0.5 -9q0 -1 9.5 -3t23 -3.5t29.5 -3t29 -1.5q28 0 53.5 2t45.5 2q6 0 8.5 -0.5t9.5 -1.5q10 0 16 4.5t14 4.5q9 0 14.5 4t21.5 4q9 0 9 -8q0 -5 -1 -8q-2 -8 -14 -21.5t-36 -13.5h-9t-7 1q-4 1 -7 2h-41q-8 0 -26 -0.5t-29 -0.5t-26.5 1.5
t-35.5 5.5q-3 1 -11 1q-11 0 -24 -2t-24 -4.5t-19.5 -4.5t-9.5 -2q-10 0 -13 5t-5 10l-6.5 6.5t-5.5 6.5v9q-1 3 -3 5t-2 6q2 13 8 16.5t11 8.5q6 4 8.5 10.5t12.5 14.5l2.5 3t5 6.5t4.5 7l2 3.5l16 17v4q5 5 10 9t8 9t5.5 9.5t5.5 7.5q10 10 20 22.5t18 24t14.5 19t8.5 8.5
q6 5 11 13t10 15l13 13q4 9 8 14.5t11 14.5l7 19q2 2 4 10.5t3 10.5q2 2 4 1.5t2 0.5h4q6 7 7 14.5t5 11.5q0 2 3.5 6.5t5.5 6.5q2 6 2.5 13.5t2.5 15.5q2 4 5 9t4 9q1 5 1.5 13t4.5 8q-2 0 1.5 7t3.5 10v10q5 13 8 30t3 31q0 44 -15.5 77t-57.5 46q-5 2 -13 1.5t-14 0.5h-3
q-14 0 -30 -7q-3 -1 -4 -3.5t-3 -3.5h-4q-3 -2 -4.5 -5t-4.5 -4h-6q-2 -4 -8.5 -11.5t-11.5 -12.5q-2 -3 -3.5 -8.5t-3.5 -8.5q0 -5 -4.5 -7t-4.5 -6q0 -6 -5 -16l-6 -12l3 -18q1 -3 3 -7q4 -8 4 -17q0 -10 -9.5 -17.5t-24.5 -7.5q-13 0 -20 6.5t-10 14.5q-4 9 -4 21v15
q1 1 3.5 2.5t2.5 2.5q-1 1 -1 4q0 6 5.5 18.5t5.5 16.5t9.5 20.5t20.5 27.5q3 2 7 3t7 3q8 5 14 11.5t20 9.5l3 5l17 2l1 4q2 0 4 -0.5t4 -0.5q8 7 22 8t24 1q6 0 18.5 -1.5t25.5 -4t22.5 -5.5t9.5 -6h8l3 -3.5t8.5 -8.5t11.5 -10t11 -7q1 -2 1 -5.5t2 -5.5q2 -3 6 -2.5
t6 -3.5v-6q7 -1 7 -11l6 -6q0 -8 5 -17.5t5 -18.5q0 -1 -0.5 -1.5t-0.5 -1.5l3 -2v-22q1 -1 2.5 -1t2.5 -1q0 -26 -4 -52t-10 -51q-1 -2 -3 -4t-2 -4q-2 -7 -1.5 -12t-1.5 -10q0 -2 -2.5 -3.5t-3.5 -3.5q0 -9 -4.5 -15.5t-7.5 -13.5q-3 -6 -5 -13.5t-12 -19.5
q-14 -17 -20 -34t-21 -32q-1 -1 -1 -3q-2 -5 -5.5 -7t-4.5 -3q-2 -5 -6 -12t-11 -12q-3 0 -9.5 -10t-9.5 -10q1 0 -0.5 -2.5t-4.5 -5.5t-6 -5.5t-4 -3.5q-4 -3 -6.5 -7.5t-5.5 -8.5l-8 -2q-7 -5 -9.5 -10t-7.5 -10q-3 0 -6.5 -4.5t-6.5 -10t-5.5 -10.5t-3.5 -6
q-2 -2 -5.5 -2.5t-4.5 -2.5l-6 -17q-2 -2 -6 -2.5t-6 -2.5q-1 -2 -6.5 -9.5t-11.5 -16t-12 -16t-8 -9.5z" />
    <glyph glyph-name="three" unicode="3" horiz-adv-x="421" 
d="M58 81l5 -5q3 -3 5 -6l5 -11q2 -5 11 -12.5t14 -12.5q10 -10 24 -12t26 -6l27 -3q21 0 41 4t33 12l17 19q6 4 8.5 10t6.5 14q2 2 4 2t3 2l4 11q7 11 9 23t2 23q19 44 19 96q0 14 -3 28v21.5t1 9.5q-1 2 -3.5 5.5t-3.5 6.5l-3 27q-6 6 -8.5 14l-5 16t-6 17t-11.5 17
l-33 24q-2 1 -3.5 4.5t-3.5 4.5h-16q-14 3 -31 3q-14 0 -20.5 -6.5t-12.5 -9.5l-13 -2l-2 -3q-8 -5 -20 -14t-14 -10q-3 -2 -8.5 -10.5t-11.5 -8.5q-7 2 -10 7t-3.5 11t0 12t0.5 10q0 16 4.5 26t11.5 18t15 14.5t15 14.5l8 2l7.5 7.5t10 9.5t10.5 8.5t8 3.5q11 17 27 29
t24 27q7 12 20 19.5t21 14.5l10.5 10.5t19 18.5t20 19t13.5 12q0 1 -5 1t-11 0.5t-11 0.5t-5 1q-3 2 -4 2.5t-6 0.5t-7.5 -1t-6.5 -2h-13h-10q-3 0 -4 1h-35q-10 0 -19 -2t-15 -2h-11q-4 0 -6 -2q-3 1 -8 1q-8 0 -14.5 -3t-12.5 -6.5t-11.5 -6.5t-11.5 -3q-3 0 -9 0.5
t-12 2.5t-10.5 6t-4.5 12q0 34 36 34q17 0 24.5 -4t12.5 -4q8 0 14 2t12 2q6 -2 13 -2.5t13 -1.5q7 -1 15 -1q3 0 5 1q5 -1 12 -1h15q21 0 27 2t14 2q6 0 11 -1.5t10 -1.5q4 0 14 2.5t10 3.5h20q5 4 10 7t12 3q4 0 7.5 -6t5.5 -13t3.5 -13t1.5 -7q0 -3 0.5 -10t0.5 -8
q0 -10 -11.5 -22.5t-19.5 -15.5q-9 -5 -11.5 -8t-3.5 -4h-5q-1 -5 -15 -18t-26 -24l-5 -2q-5 -4 -8 -9t-11 -5q-5 -5 -9 -11t-10 -10q-2 -2 -3.5 -2t-3.5 -2q-4 -9 -10.5 -15.5l-17.5 -17.5h-6q-2 -2 -1.5 -4t-1.5 -4t-7 -4t-5 -6q0 -6 10.5 -7.5t24.5 -1.5h17q5 0 10 -0.5
t7 -2.5q7 -4 12.5 -3t12.5 -3l2 -3q23 -11 29.5 -12.5t9.5 -3.5q6 -5 11.5 -11.5t9.5 -12.5t6.5 -9t2.5 0v-6q2 -3 5 -10t6 -10q2 -3 6 -3.5t6 -2.5q3 -5 3 -13t3 -15q7 -11 7.5 -18.5t0.5 -21.5q4 -8 5.5 -21.5t1.5 -27.5q0 -15 -1 -29t-6 -14q0 -23 -1 -31t-3 -15l-4 -15
q-3 -5 -3.5 -10.5t-2.5 -10.5q-2 -3 -5.5 -7t-5.5 -6q0 -2 -5.5 -11t-13 -19.5t-16 -19t-12.5 -10.5q-17 -17 -37 -25.5t-28 -18.5q-1 0 -3 1t-3 1q-8 0 -18 -1t-16 -7h-36q-12 0 -29.5 2t-25.5 5l-20 3q0 1 -0.5 1.5t-0.5 1.5q-10 3 -14 5.5t-6 3.5h-4q-8 5 -14.5 11.5
t-16.5 8.5v8q-6 3 -12.5 11.5t-6.5 15.5q0 6 5 14t16 8q5 0 7 -4t4 -6z" />
    <glyph glyph-name="four" unicode="4" horiz-adv-x="409" 
d="M178 632q-1 8 -3.5 12.5t-7.5 12.5q-4 6 -10 7t-11.5 1t-9.5 2t-4 11q0 8 5.5 17t18.5 9q11 0 19.5 -5t14.5 -11t9 -12t3 -7t3 -5t5 -6q0 -6 1 -8t2.5 -6.5t3 -13.5t1.5 -28v-12t-2 -13v-10q-1 -2 -3.5 -5.5t-2.5 -5.5v-13v-16.5t-1 -16.5t-3 -12q-14 -32 -28.5 -63
t-33.5 -52q-8 -9 -13.5 -19.5t-13.5 -17.5q7 -1 13.5 -1h13.5q49 0 79 0.5t47.5 1t24 2.5t8.5 5q2 5 3 15t1.5 22t1 24.5t0.5 22.5q1 17 1.5 30.5t0.5 27.5q0 11 -1 18.5t-1 24.5q0 12 2.5 22.5t4.5 9.5q0 11 -1.5 20.5t-1.5 19.5v6q0 11 1 22t4 20t9 14.5t17 5.5q3 0 4 -1
l3 12q6 5 9.5 9.5t11.5 4.5t13.5 -3t5.5 -12q0 -8 -3.5 -15t-3.5 -14q-5 -20 -4 -35.5t1 -24.5q0 -4 -1.5 -19t-1.5 -27v-5q0 -16 -3.5 -35.5t-3.5 -33.5q0 -8 1 -10q-1 -2 -3.5 -5t-2.5 -5l6 -8q0 -10 -1.5 -19.5t-1.5 -17.5q0 -5 1 -12t1 -20q0 -15 -0.5 -30t-2.5 -23
q0 -1 1 -5.5t1 -7.5v-13q0 -14 -2 -25t-2 -22q0 -7 1 -13.5t3 -12.5q-2 -5 -3.5 -13t-1.5 -13q0 -3 0.5 -7t1 -10.5t1 -17t0.5 -28.5v-19v-13.5t0.5 0.5t1 2.5t1.5 -8t2.5 -31t3.5 -65.5q0 -8 -3.5 -9.5t-10.5 -1.5q-5 0 -5.5 0.5t-7.5 2.5l-11 2q-24 12 -26.5 23t-2.5 23
q0 8 0.5 15t0.5 15q0 7 -1 12.5t-1 12.5q0 15 2 35.5t2 34.5q0 2 -0.5 11.5t-1.5 20t-1.5 19.5t-0.5 12q0 5 2 9.5t2 9.5q0 3 -2.5 7t-2.5 8q0 5 0.5 8.5t0.5 6.5q-2 12 -5 22.5t-15 10.5q-3 0 -5.5 -1.5t-5.5 -1.5q-1 0 -4.5 3t-7.5 3q-3 0 -4 -1.5t-3 -1.5l-7 5q-1 1 -4 1
t-5 -0.5t-4 -0.5q-6 0 -9.5 0.5t-12.5 0.5q-8 0 -14 -1t-11 -1q-6 0 -11 1t-10 1q-4 0 -7 -0.5t-3 -5.5l-21 3l-11 -6q-4 -1 -12 -1q-7 0 -15 -4.5t-17 -10.5t-18.5 -10.5t-20.5 -4.5q-9 0 -15 9t-6 17q0 4 1 11t2.5 13.5t4.5 11.5t6 6q14 8 29 23.5t28.5 32t23.5 32.5
t13 26l2 8t3 9l7 6q1 2 4 19.5t11 34.5v16q5 12 9 23t4 25q0 8 2.5 12t2.5 13z" />
    <glyph glyph-name="five" unicode="5" horiz-adv-x="426" 
d="M275 661q-17 0 -38 3t-42 3q-2 0 -6 -3t-6 -3q-5 0 -16.5 0.5t-16.5 0.5q-7 -5 -6.5 -19t0.5 -16l-3 -2v-66v-41q-3 -28 -4 -40t-1 -21q0 -11 1 -14q4 2 8 2.5t7 2.5q11 10 26 11.5t26 3.5q12 3 27 3q11 0 19.5 -2.5t18.5 -7.5h5.5t6.5 2q16 -2 27 -8.5t19 -13.5
t13 -13.5t8 -9.5q4 -4 7 -9.5t8 -22.5l13 -30q5 -26 11.5 -52t6.5 -58q0 -17 -3 -36q-2 -8 -6 -15.5t-4 -15.5q0 -7 -0.5 -11.5t-0.5 -9.5l-4 -15q0 -2 -2 -3t-3 -2q0 -3 -2 -9.5t-4.5 -12.5t-4.5 -10t-2 -2q-3 -5 -7 -12.5t-6 -9.5q-3 -6 -8 -9.5t-9 -10.5
q-8 -10 -12.5 -12.5t-11.5 -7.5l-2 -6q-16 -11 -17.5 -13.5t-7.5 -4.5l-2 -3q-10 -3 -19 -5l-14 -3.5t-5 -1.5q-3 0 -4.5 0.5t-2.5 0.5q-4 0 -5.5 -0.5t-2.5 -0.5l-32 -7q-17 0 -33 3t-24 7l-32 6q-11 5 -17 8.5t-10.5 7.5t-9.5 8.5t-12 12.5q-4 2 -7 10.5t-5 10.5
q-3 3 -3 7q0 3 1 6.5t1 5.5q0 1 -0.5 2t-0.5 2l-5 4q0 1 0.5 6t2.5 11t6.5 11t12.5 5q9 0 11 -6t4 -14q2 -11 5.5 -17.5t7.5 -11.5t7.5 -9.5t6.5 -10.5q4 -5 8 -12.5t9 -12.5q14 -4 18 -7.5t10 -5.5h1q3 0 9 -2.5t11 -2.5q3 0 5 2l12 -4q34 0 56 16.5t35 29.5l18 25
q2 5 2.5 8.5t2.5 8.5q16 16 17.5 36t6.5 45q-2 8 -2 11q0 9 3 21.5t3 32.5v51q0 4 -2.5 17t-5.5 27.5t-6 27t-4 16.5q-5 9 -11 20t-14 16h-4q-20 12 -28.5 15t-22.5 2l-19 -1l-27 -9q-5 -2 -8 -4.5t-8 -4.5q-2 -5 -8.5 -13t-14 -16.5t-13.5 -15t-7 -7.5q-4 -4 -5 -9.5
t-11 -5.5q-9 0 -17 6.5t-13 9.5l-10 22q-2 2 -2 6q0 5 2.5 9t2.5 7q2 20 2.5 40.5t0.5 37.5q0 14 -3.5 28t-3.5 28q3 9 4 19.5t1 23.5v28q3 6 4 16.5t1 22.5t-0.5 23t-0.5 17q0 3 9 3q13 0 24 -3.5t13 -5.5h80q5 0 9 -1.5t9 -1.5q7 3 16 3q5 0 10 -0.5t7 -0.5q7 0 10.5 1
t9 2.5t15 2.5t29.5 1q5 0 16 -0.5t22 -2t19 -4.5t8 -9q0 -11 -0.5 -21t-5.5 -12t-11 -5t-14 -3q-6 0 -12 3q-12 6 -23.5 9t-19.5 3t-9 3t-7 3z" />
    <glyph glyph-name="six" unicode="6" horiz-adv-x="467" 
d="M96 325q0 -8 2.5 -16t8.5 -8q3 0 11.5 7.5t12.5 23.5q2 8 10.5 17t16.5 23t15 22.5t14 13.5q3 2 7 3t7 3q4 2 5 4t7 2q3 0 11 5t16 5l2 5q5 0 13.5 1.5t27.5 1.5h20.5t24.5 -2l3 -6q11 0 24 -6.5t15 -6.5q5 -2 7.5 -7.5t7.5 -7.5l9 -4v-4l8 -6v-7l10 -9q7 -7 13.5 -20.5
t6.5 -23.5q0 -2 -0.5 -3.5t-0.5 -3.5q0 -1 2 -7t5 -9q0 -8 0.5 -9.5t3.5 -13.5q-1 -1 -1 -6q2 -10 2.5 -24.5t0.5 -25.5q0 -17 -1 -27.5t-5 -24.5l-3 -23q0 -2 -2.5 -8.5t-5.5 -14t-5.5 -14.5t-2.5 -10q0 1 -3.5 -5t-9.5 -15t-14 -19.5t-16 -17.5l-4 -2t-8.5 -5t-8 -6.5
t-3.5 -6.5q0 2 -4.5 -0.5t-10.5 -6.5t-12.5 -8t-10.5 -4q-1 0 -3 0.5t-4 0.5l-6 -4h-4q-12 0 -12 1t-2 1q-5 0 -5.5 -2t-2.5 -3q-5 -2 -14.5 -3.5t-19.5 -1.5q-16 0 -32 3.5t-30 3.5q-8 2 -11.5 4t-5.5 3.5t-4 2.5t-8 0q-7 0 -13.5 4t-12 9.5t-11 9.5t-10.5 4q-3 0 -9 9.5
t-7 12.5h-3q-1 1 -2 4.5t-2 4.5l-6 4q-1 3 -1.5 9t-1.5 12t-3 10.5t-5 4.5q-3 3 -3 8.5t-2 10.5q-1 2 -3.5 4t-3.5 4l-9 41q-2 12 -4 25.5t-5 26.5q-2 4 -1.5 10t-0.5 8v49q-1 5 -1 18q0 16 1.5 35.5t3.5 29.5v26l7 19v20q2 3 4.5 7.5t3.5 6.5l1 15q2 8 5 17.5t6 16.5
q5 10 8.5 25.5t8.5 22.5l13 20q2 10 11 21.5t16 17.5q5 3 6.5 10t6.5 9q5 5 10 5.5t10 11.5q11 0 12 4t6 9q2 2 8.5 6.5t6.5 5.5l13 3q0 1 6 3.5t14 4.5t15.5 3.5t10.5 1.5l2 4q1 1 8 1t14 -0.5t8 -0.5q7 0 11.5 1.5t14.5 1.5q11 0 16 -3.5t12 -5.5q6 -2 10 -2.5t10 -4.5
l9 -7q4 -2 10 -10.5t6 -11.5q1 -1 3 -1.5t4 -4t3.5 -13t1.5 -28.5q0 -2 -2 -16.5t-12 -26.5q2 3 -3.5 -4t-15.5 -7q-12 0 -21 9.5t-9 26.5q0 10 4 15t9.5 8t10 6t5.5 10q-2 3 -4.5 15.5t-6.5 16.5q-8 16 -27.5 19t-37.5 3q-2 0 -10 -1.5t-11 -1.5l-2 -5q-2 0 -3.5 0.5
t-4.5 0.5q-8 0 -13 -8l-9 -2q-5 -4 -11.5 -10t-12.5 -10l-3.5 -7t-6 -11t-7.5 -10.5t-8 -4.5q-2 0 -4 -4t-4 -9.5t-4.5 -10t-3.5 -4.5q-2 -1 -2.5 -6t-2.5 -7q-5 -8 -10 -12.5t-8 -18.5q0 -6 -4.5 -14.5t-5.5 -13.5q-2 -6 -1.5 -10t-1.5 -9q-6 -5 -6 -15v-10v-4l-6 -13
q0 -5 -2.5 -16t-2.5 -23q-1 2 -2 -8.5t-2.5 -26t-3 -31.5t-2.5 -23zM193 376q-8 -8 -15.5 -18.5t-14.5 -20.5q-8 -11 -15 -23q-5 -6 -10 -22.5t-9.5 -34.5t-7 -34t-2.5 -21q0 -3 1 -11.5t2.5 -17.5t2.5 -16.5t1 -10.5q4 -16 7.5 -25.5t17.5 -28.5q5 -5 8.5 -15t8.5 -15
q9 -8 12.5 -12t11.5 -10q2 -2 8 -3.5t9 -3.5l2 -3q2 0 4 1q2 0 3.5 0.5t2.5 0.5l4 -5q1 -1 4 -1q2 0 3.5 0.5t3.5 0.5l7 -3q42 0 66 21t38 47q4 6 3 10.5t1 9.5l8 11q6 11 8 28t5 31l2 39q-2 4 -2 13q2 8 3 20t1 17q0 2 -1.5 4.5t-1.5 3.5v30q0 18 -3 29.5t-7.5 20t-10 15
t-11.5 13.5q-2 3 -1.5 5.5t-1.5 4.5q-9 11 -17.5 13t-15.5 5q-4 7 -11.5 8t-15.5 1q-16 0 -31.5 -5t-17.5 -16q-2 -1 -7 -5t-11 -8.5t-11.5 -8.5t-6.5 -5z" />
    <glyph glyph-name="seven" unicode="7" horiz-adv-x="418" 
d="M148 642q-12 0 -17 -6.5t-17 -12.5q-6 -3 -10 -14t-14 -11q-3 0 -8.5 2.5t-5.5 12.5q0 4 4.5 18t10 28t10.5 25.5t7 11.5q12 0 25 -5.5t42 -5.5q5 0 13 1.5t14 1.5q5 0 12.5 -0.5t16 -1t16 -1t11.5 -0.5q11 0 20.5 2.5t20.5 6.5q5 0 8 -0.5t5 -0.5q4 0 6 1q17 5 27 4
t23 2q5 0 8 1t7 1q10 0 16.5 -12.5t6.5 -20.5t-4.5 -20t-10.5 -24.5t-12 -24t-10 -17.5q-2 -3 -2.5 -7.5t-2.5 -7.5q-1 0 -5.5 0.5t-5.5 0.5q0 -5 0.5 -7t0.5 -4q1 -5 -2 -8.5t-10 -13.5q-6 -8 -12 -11.5t-9 -16.5l-3 -2q-2 -2 -2 -13l-4.5 -4.5t-4.5 -5.5l-2 -9
q-2 -2 -4.5 -5t-4.5 -6q-2 -4 -2 -7t-2 -8l-5 -3l1 -10q-3 -8 -13 -23t-10 -27l-7 -18q-2 -3 -5 -6q-5 -5 -7 -12q-1 -3 -5 -13t-9 -21t-9 -20.5t-5 -10.5q-3 -4 -6 -7q-6 -6 -7 -6t2.5 -1t3.5 -5l-2.5 -4.5t-6 -11l-7 -13t-5.5 -9.5q-2 -4 -5.5 -8.5t-4.5 -8.5
q0 -9 -6.5 -14.5t-6.5 -19.5q0 -2 -0.5 -2t-2.5 -2v-11q-1 0 -3.5 -3.5t-5.5 -8t-5.5 -8.5l-2.5 -4q-2 -6 -5.5 -18t-3.5 -18q0 -4 -3 -8.5t-4 -8.5l-6 -4q0 -4 1 -7q0 -3 1 -6q-1 -2 -3.5 -3t-3.5 -3q2 -2 2 -4q-3 -9 -4 -18.5t-3.5 -18.5t-8 -16.5t-17.5 -12.5l-3 6
q-3 1 -6 1q-8 0 -14 5t-11 12q-5 8 -9 18q0 20 5 34t13 28q0 1 3 6.5t6.5 13t7.5 15t6 12.5l2 13q5 8 9.5 16.5t9.5 17.5l5 16q1 1 3.5 2t2.5 3l2 11l8 17q-3 3 -3 7t4 7t5 7v5l5 2v9q3 9 8.5 17t5.5 16q0 1 -0.5 2t-0.5 2q0 3 2 7.5t4 9.5t4 9t2 5q4 1 9 12t7 14l10 21
q1 2 5 5.5t6 6.5q0 9 6 18t9 11l2 11q2 6 7 11t7 10t3 9.5t3 9.5q0 2 2.5 4t3.5 4q2 5 3 10.5t5 10.5l5.5 5.5t5.5 8.5q4 11 7 23.5t12 23.5h7q0 5 -0.5 7.5t-0.5 4.5q0 5 4 8t6 9q1 1 6 10.5t11 20t10.5 19.5l4.5 9l-2 6h-5q-14 0 -32.5 -2t-37.5 -2q-14 0 -22.5 -4
t-23.5 -4t-26.5 -6t-33.5 -6z" />
    <glyph glyph-name="eight" unicode="8" horiz-adv-x="409" 
d="M187 698q9 2 18.5 3t18.5 1q16 0 35 -2t31 -13q2 0 4 1t4 1q4 0 9 -3t10 -7.5t9 -9t6 -6.5q6 -6 12 -16t6 -7q0 -1 -0.5 -2t-0.5 -3q6 -11 10 -22q0 -2 -2 -5t-2 -5q10 0 10 -7.5v-9.5v-5q1 -2 1 -5.5v-6.5q0 -12 -1.5 -18.5t-4 -12t-4 -10.5t-1.5 -13q-3 -10 -7.5 -15
t-10.5 -17q-6 -7 -13.5 -11t-13.5 -10q-6 -5 -8.5 -14t-10.5 -9q-2 0 -6.5 -3t-9.5 -7.5t-9 -10t-4 -11.5q0 -4 5 -15t9 -16q7 -8 15 -11t14 -14q0 -5 1 -7l25 -23v-6q13 -5 18 -15t13 -21l10 -9q0 -8 3 -10.5t3 -5.5v-8q4 0 6.5 -4.5t4 -11.5t2 -14t0.5 -11q0 -2 -0.5 -3.5
t-0.5 -3.5q0 -6 3 -8t3 -14q0 -57 -18 -91t-56 -58q-15 -10 -31.5 -18.5t-28.5 -8.5h-4q-2 -1 -4 -4t-5 -2q-3 0 -6 2t-8 2h-4q-7 -2 -22 -3.5t-30 -1.5q-13 0 -23.5 2t-15.5 7q-2 0 -3.5 -1t-3.5 -1l-4 3q-8 2 -14 2q-8 8 -12.5 8t-10.5 2q-4 1 -6.5 4.5t-5.5 5.5
q-4 3 -7 3t-8 3q-6 4 -14.5 15t-15.5 26t-12 32t-5 34q0 8 0.5 14.5t0.5 15.5v28q0 1 3 3.5t4 4.5q1 7 1 13t2 12q1 3 5 6t6 8l3 11l6 3q8 14 18.5 25t21.5 22q4 5 11.5 14.5t11.5 12.5h7q4 2 5.5 7t4.5 7l9 2l2 4q3 2 8.5 5.5t11.5 7.5t10.5 8.5t5.5 7.5q-8 6 -13.5 14.5
t-11.5 17.5l-36 19q-2 3 -1.5 6.5t-1.5 7.5q-3 4 -7 7t-7 7q0 5 -6.5 10.5t-8.5 10.5q-2 4 -3 8.5t-5 9.5q-1 2 -3 3.5t-3 3.5q-4 9 -5 16.5t-1 16.5q0 6 0.5 12.5t0.5 14.5q0 6 -1 11t-1 10q0 24 12 40.5t22 26.5q4 2 6.5 3t5.5 3q3 3 11.5 14.5t16.5 11.5l9 6q15 1 26 4
t16 3zM226 681q-5 -1 -13 -1t-12 -2q-2 -1 -4 -4t-3 -3h-5q-6 -2 -11 -8.5t-10 -9.5q-5 -2 -8 -2.5t-6 -2.5l-10 -14v-12q0 -2 -3.5 -5.5t-4.5 -5.5v-7l-3 -2v-15q-1 -2 -1 -10q0 -10 2.5 -21.5t6.5 -22t8.5 -18.5t9.5 -11l-1.5 -3t-1.5 -5q2 -2 7 -5.5t10.5 -8t10 -9
t6.5 -7.5v-5q1 -2 6 -3.5t5 -5.5q4 -14 17.5 -19t23.5 -5q1 0 7.5 5t14 11t13.5 12t7 8q6 0 7 -1q0 5 -1 6q1 3 5.5 7.5t9 9.5t8.5 10t5 8v9l5 3q0 8 4.5 15t4.5 18q0 16 -0.5 31t-1.5 18q-6 10 -5 16.5t-9 17.5q-3 3 -3.5 7.5t-2.5 6.5q-7 5 -14 14t-13 11q-8 5 -21.5 8
t-24.5 3h-5.5t-5.5 -1zM192 355q-9 -9 -22.5 -13.5t-27.5 -18.5q-5 -3 -9 -5.5t-8 -3.5q-6 -5 -9.5 -11.5t-7.5 -11.5l-14 -9q-2 -5 -6.5 -9.5l-9.5 -9.5t-9 -11.5t-5 -15.5q-2 -1 -2.5 -6.5t-1.5 -7.5l-12 -42l2 -16q-1 -3 -1.5 -4t-0.5 -3v-28q0 -6 2 -17t10 -23l9 -15
q2 -4 4.5 -5t4.5 -3l13 -14q0 -2 2.5 -1.5t3.5 -0.5l5 -9q5 -3 11 -4t12 -3q9 -10 19.5 -15t28.5 -5q33 0 48.5 1t23 2.5t11.5 3t13 2.5l1 4l10 2q2 1 3 4t2 4q1 2 5 4.5t5 4.5q2 3 2.5 5.5t3.5 5.5q2 4 6.5 7t6.5 7q2 5 1.5 13t6.5 8q2 6 5.5 22t3.5 32q0 11 -2 22.5
t-4 22.5q-2 13 -7.5 18t-6.5 13q-2 2 -4.5 3.5t-3.5 3.5q0 2 0.5 4t0.5 4q0 5 -8 8.5t-11 10.5q-2 2 -1.5 4.5t-1.5 4.5q-5 5 -11.5 9t-10.5 9l-12 4q-3 3 -3 5t0.5 3t0.5 3t-3 7.5t-5 9.5q-2 3 -5 3t-5 2q-3 2 -5.5 7t-5.5 7l-6 10q-3 2 -5.5 5.5t-4.5 5.5h-9z" />
    <glyph glyph-name="nine" unicode="9" horiz-adv-x="454" 
d="M368 373q0 8 -2.5 16t-8.5 8q-3 0 -11.5 -7.5t-12.5 -23.5q-3 -8 -11 -17t-16 -23t-15 -22.5t-14 -13.5q-3 -2 -7 -3t-7 -3q-4 -2 -5.5 -4t-6.5 -2q-3 0 -11 -5t-16 -5l-2 -5q-5 0 -14 -2t-27 -2q-9 0 -20.5 0.5t-24.5 2.5l-3 6q-11 0 -24 6.5t-15 6.5q-5 2 -7.5 7.5
t-7.5 7.5l-9 4v4l-8 6v7l-10 9q-8 6 -14 20t-6 24q0 2 0.5 3.5t0.5 3.5q0 1 -2 7t-5 9q0 8 -0.5 9.5t-3.5 13.5q1 1 1 6q-2 10 -2.5 24.5t-0.5 25.5q0 17 1 27.5t5 24.5l3 23q0 2 2.5 8t5.5 13.5t5.5 15t2.5 10.5q0 -2 3.5 4t9.5 15.5t13.5 20t16.5 17.5l3.5 2t8 4.5t8.5 6
t4 7.5q0 -2 4 0.5t10 6.5t12.5 8t11.5 4q1 0 3 -0.5t4 -0.5l6 4h4q12 0 11.5 -1t2.5 -1q5 0 5.5 2t2.5 3q5 2 14.5 3.5t19.5 1.5q15 0 31.5 -3.5t30.5 -3.5q8 -2 11.5 -4t5 -3.5t4 -2.5t8.5 0q7 0 13.5 -4t12 -9.5t11 -9.5t10.5 -4q3 0 9 -9.5t7 -12.5h3q1 -1 2 -4.5t2 -4.5
l6 -4q1 -3 1.5 -9t1.5 -12t3 -10.5t5 -4.5q3 -3 3 -8.5t2 -10.5q1 -2 3.5 -4t3.5 -4l9 -41q2 -12 4 -25.5t5 -26.5q2 -4 1.5 -10t0.5 -8v-49q1 -5 1 -18q0 -16 -1.5 -35.5t-3.5 -29.5v-26l-7 -19v-20q-2 -3 -4.5 -7.5t-3.5 -6.5l-1 -15q-2 -8 -5 -17.5t-6 -16.5
q-5 -11 -8.5 -26t-8.5 -22l-13 -20q-2 -10 -11 -21.5t-16 -17.5q-5 -3 -6.5 -10t-6.5 -9q-6 -6 -10.5 -6.5t-9.5 -10.5q-11 0 -12 -4.5t-6 -8.5q-2 -2 -8.5 -6.5t-6.5 -5.5l-13 -3q0 -2 -4.5 -4t-10.5 -4t-12 -3.5t-9 -1.5l-2 -4q-1 -1 -9 -1q-6 0 -13 0.5t-8 0.5
q-7 0 -12 -1.5t-14 -1.5q-11 0 -16 3t-12 6q-6 2 -15 2.5t-15 4.5l-9 7q-4 2 -10 10.5t-6 11.5q-2 1 -4 1.5t-3.5 4t-3 13t-1.5 28.5q0 4 2.5 19.5t20.5 31.5q2 2 5 2.5t5 0.5q11 0 20.5 -9.5t9.5 -26.5q0 -10 -4.5 -15t-9.5 -8t-9.5 -6t-5.5 -10q2 -3 4.5 -15.5t6.5 -16.5
q1 -2 6 -5t11 -5.5t11 -5l7 -3.5q5 -2 20 -2.5t20 -0.5q2 0 5 1.5t6 1.5l2 5q2 0 3.5 -0.5t4.5 -0.5q8 0 13 8l9 2q5 4 11.5 9.5t12.5 10.5q1 1 3.5 6.5t6 11.5t7.5 10.5t8 4.5q1 0 3.5 4t4.5 9.5t4 10t4 4.5q2 1 2.5 6t2.5 7q5 8 10 12.5t8 18.5q0 6 4.5 14.5t5.5 13.5
q2 6 1.5 10t1.5 9q6 4 6 15v10v4l6 13v18l4 5q0 4 0.5 8t0.5 8q1 -2 2 8.5t2.5 26l3 31t2.5 23.5zM271 322q8 8 15.5 18t14.5 20q8 11 15 24q4 6 9.5 22.5t9.5 34.5t7 34t3 21q0 3 -1 11.5t-2.5 17.5t-2.5 16.5t-1 10.5q-4 16 -8 25.5t-17 28.5q-5 5 -8.5 15t-8.5 15
q-9 8 -12.5 12t-11.5 10q-2 2 -8 3.5t-9 3.5l-2 3q-2 -1 -4 -1q-2 -1 -6 -1l-4 5q-1 1 -4 1q-2 0 -3.5 -0.5t-3.5 -0.5l-7 3q-42 0 -66.5 -21t-37.5 -47q-4 -6 -3 -10.5t-1 -9.5l-8 -11q-6 -11 -8 -28t-5 -31l-2 -39q2 -4 2 -13q-2 -8 -3 -20t-1 -17q0 -2 1.5 -4.5t1.5 -3.5
v-30q0 -18 3 -30t7.5 -20.5t10 -14.5t11.5 -13q2 -3 1.5 -5.5t1.5 -4.5q9 -11 17.5 -13t15.5 -5q4 -7 11.5 -8t15.5 -1q16 0 31.5 5t17.5 16q1 1 6.5 5t11.5 8.5t11 8t7 5.5z" />
    <glyph glyph-name="colon" unicode=":" horiz-adv-x="166" 
d="M78 224q5 0 12.5 -5.5t14.5 -7.5q6 -2 7 -11.5t1 -18.5q0 -4 -1.5 -10t-4 -12t-6 -10t-7.5 -4q-8 0 -14 -4t-12 -4q-10 0 -14.5 6.5t-9.5 11.5q-4 3 -6.5 6.5t-2.5 11.5q0 16 9 25.5t14 15.5q2 3 8.5 6.5t11.5 3.5zM43 297q-2 5 -3 11t-1 13q0 11 3 21t9 16q5 5 11 6.5
t12 1.5q5 0 10 -0.5t9 -0.5q8 0 10 -5.5t2 -11.5q0 -4 -0.5 -7t-0.5 -5q-2 -11 -6.5 -18t-7.5 -15q-4 -13 -17 -13q-6 0 -10 -1t-8 -1q-9 0 -12 9z" />
    <glyph glyph-name="semicolon" unicode=";" horiz-adv-x="151" 
d="M78 364q5 0 12.5 -5.5t14.5 -7.5q6 -2 7 -11.5t1 -18.5q0 -4 -1.5 -10t-4 -12t-6 -10t-7.5 -4q-8 0 -14 -4t-12 -4q-10 0 -14.5 6.5t-9.5 11.5q-4 3 -6.5 6.5t-2.5 11.5q0 16 9 25.5t14 15.5q2 3 8.5 6.5t11.5 3.5zM21 44q0 -5 4 -5.5t9 -0.5t7.5 1t7.5 5q6 5 9 6t5 3
q2 3 5.5 6t6.5 5q2 4 5.5 5t3.5 3q0 -1 4 4t2 5q3 0 5 8q-1 1 -1 2v5q0 4 3 4.5t5 2.5q5 3 9 9q1 3 1 6t4 12q4 7 4 17q0 5 -1 10t-4 9q-2 5 -4 6.5t-7 1.5t-5 7t-2 9q-3 8 -10 10.5t-17 2.5q-8 0 -15 -5.5t-7 -12.5q0 -8 -2 -9t-4 -7q0 -6 -2 -12.5t-2 -13.5q0 -11 8 -15.5
t14 -6.5q4 -1 4 -7q0 -3 -1 -6.5t-2 -6.5q-1 -5 -3.5 -10.5t-4.5 -8.5q0 -1 -2.5 -5t-2.5 -7q0 -5 -3 -6.5l-7 -3.5l-6 -3q-1 0 -6 -3.5t-5 -9.5z" />
    <glyph glyph-name="less" unicode="&#x3c;" horiz-adv-x="371" 
d="M320 548q2 2 4 2h4q5 0 12 -5t11 -10q2 -2 2 -16q0 -2 0.5 -4t0.5 -4q0 -3 -3 -6q-14 -11 -29.5 -22.5t-31.5 -24.5q-6 -5 -11 -10t-11 -10q-3 -2 -8.5 -4t-8.5 -4l-31 -22q-7 -5 -17.5 -16.5t-20.5 -11.5q-4 0 -7 -4.5t-6 -4.5q-6 0 -8 -5t-5 -6l-52 -38q-5 -3 -9.5 -4
t-4.5 -6t2.5 -6t6.5 -4q5 -4 10.5 -4t9.5 -8l3 -6t6 -4q1 0 4 -2t5 -4q8 -6 16 -10t15 -12q2 -2 2 -5q0 -4 0.5 -5t0.5 -4q0 -5 4.5 -7.5t10 -3t11.5 -1t9 -2.5l4 -19q10 -8 25.5 -8t24.5 -7q8 -6 12 -16.5t11 -15.5q4 -2 5 -2q2 0 4 0.5t6 0.5q11 -5 18 -12t15 -13l23 -19
q5 -3 5 -11q0 -5 -2 -13t-6 -10q-5 -2 -11.5 -5t-11.5 -3q-4 0 -6 1q-3 2 -20 12.5t-46 31.5q-6 5 -13 11.5t-15 11.5q-1 1 -6 1q-4 0 -8 -0.5t-8 -0.5q-5 0 -6 1q-5 4 -6.5 13t-7.5 13l-25 18l-26 9q-7 2 -9.5 10t-8.5 13q-11 8 -20.5 12t-21.5 18q-2 2 -1.5 5t-1.5 5
q-3 2 -9 3t-9 3l-24 20q-15 11 -15 26q0 11 9 20q6 5 10 8t8.5 5.5t10.5 6t14 9.5q8 5 16 13.5t17 15.5l22 16q3 2 7 4t7 4q10 8 19.5 20t20.5 20q4 2 6 2t4 -0.5t4 -0.5q4 0 5 1q5 4 7.5 11t7.5 12q4 4 9.5 7l16.5 9t31 19t53 38z" />
    <glyph glyph-name="equal" unicode="=" horiz-adv-x="425" 
d="M10 429q0 7 5 15.5t13 9.5t9.5 5.5t11.5 5.5q5 0 10.5 0.5t10.5 0.5t10 -0.5t8 -0.5q3 -1 12 -5.5t15 -4.5h2q1 0 1 1l6 6t11 3t20.5 -1t20.5 -3q4 -2 9.5 -2h10.5h10t9 2q2 1 11 1q7 0 15 -0.5t15 -0.5h10q3 0 3 -2t-3 -6.5t-3 -6.5q1 -3 5 -3q3 0 7.5 2t8.5 4
q8 5 18.5 9.5t22.5 4.5q5 0 12 1t12 1t7 -2t6.5 -4.5t8.5 -2.5q1 0 1.5 0.5t1.5 0.5q3 2 8.5 3.5t11.5 1.5q5 -1 9.5 -4.5t4.5 -11.5t-6 -20t-20 -14h-4q-8 0 -11.5 3.5t-6.5 3.5q-1 0 -3 -2q-5 -5 -11 -7t-21 -2q-13 0 -23 1t-21 1h-8q-8 -1 -13 -1h-10h-9.5t-10.5 1
q-10 1 -26 3.5t-27 2.5q-6 0 -10 -2q-5 -3 -12 -3q-5 0 -10 0.5t-11 0.5q-7 0 -21 -0.5t-26 -0.5h-11t-8 1q-2 1 -6 1q-6 0 -12 -2t-16 -2q-11 1 -17.5 7t-6.5 13zM408 316q0 -7 -1 -16t-9 -10t-13.5 -5t-15.5 -5q-5 -1 -10.5 -1h-10.5h-10t-8 1t-12 5.5t-15 4.5
q-1 0 -1 -0.5t-1 -0.5h-1l-6 -6t-11 -3t-20.5 1t-20.5 3q-5 1 -10 1.5t-10 0.5q-11 0 -19 -2q-2 -1 -11 -1q-7 0 -15 0.5t-15 0.5h-10q-3 0 -3 2t3 6.5t3 6.5q-2 3 -5 3t-7.5 -2t-8.5 -4q-8 -5 -18.5 -9.5t-22.5 -4.5q-5 0 -12 -1t-12 -1t-7 2t-6.5 4.5t-8.5 2.5
q-1 0 -1.5 -0.5t-1.5 -0.5q-3 -2 -8.5 -3.5t-11.5 -1.5q-5 1 -9.5 12t-4.5 19q0 15 26 19h4q8 0 11.5 -3.5t6.5 -3.5q1 0 3 2q5 5 11 7t21 2q13 0 23 -1t21 -1h8q8 0 13 0.5t10 0.5t9 -0.5t11 -0.5q10 -1 26 -3.5t27 -2.5q6 0 10 2q4 3 12 3q5 0 10 -0.5t11 -0.5q7 0 21 0.5
t26 0.5h11t8 -1q2 -1 6 -1q6 0 12 2t16 2q11 -1 17.5 -7t6.5 -13z" />
    <glyph glyph-name="greater" unicode="&#x3e;" horiz-adv-x="381" 
d="M54 548q33 -25 53 -38t31 -19l16.5 -9t9.5 -7q5 -5 7.5 -12t7.5 -11q4 -2 6 -2t4 0.5t4 0.5q4 0 5 -1q11 -8 20.5 -20t19.5 -20q3 -2 7 -4t7 -4l22 -16q9 -7 17 -15.5t16 -13.5q16 -12 24 -15.5t19 -13.5q9 -9 9 -20q0 -15 -15 -26l-24 -20q-3 -2 -9 -3t-9 -3
q-2 -2 -1.5 -5t-1.5 -5q-12 -14 -21.5 -18t-20.5 -12q-6 -5 -8.5 -13t-9.5 -10l-26 -9l-25 -18q-6 -4 -8.5 -9.5t-7.5 -9.5q-4 -3 -13 -4.5t-13 -3.5q-8 -5 -15 -11.5t-13 -11.5q-29 -21 -46 -31.5t-20 -12.5q-2 -1 -6 -1q-5 0 -11.5 3t-11.5 5q-4 2 -6 10t-2 13q0 8 5 11
l23 19q8 6 15 13t18 12q4 0 6 -0.5t4 -0.5q1 0 5 2q7 5 11 15.5t12 16.5q9 7 24.5 7t25.5 8l4 19q3 2 9.5 2.5l13 1t11.5 1t5 3.5t-1.5 7t-1.5 8q0 3 2 5q7 8 15 12t16 10q2 2 5 4t4 2q4 0 6 4l3 6q4 8 9.5 8t10.5 4q4 3 6.5 4t2.5 6t-4.5 6t-9.5 4l-52 38q-3 2 -3.5 13
t-3.5 13q-1 1 -3 1q-4 0 -8.5 -3t-9.5 -3q-14 7 -20.5 13.5t-15.5 13.5l-31 22q-3 2 -8.5 4t-8.5 4q-6 5 -11 10t-11 10q-16 13 -31.5 24.5t-29.5 22.5q-3 3 -3 6q0 2 0.5 4t0.5 4q0 14 2 16q4 5 11 10t12 5h4t4 -2z" />
    <glyph glyph-name="question" unicode="?" horiz-adv-x="322" 
d="M204 517q0 -1 2.5 6.5t6.5 7.5q6 0 6 3v21q0 6 -0.5 9t-5.5 10l-7 43q-5 27 -18.5 37.5t-25.5 15.5q-2 1 -5.5 2t-5.5 1q-9 0 -15 -3.5t-10.5 -7.5t-7.5 -8t-6 -5q-4 -4 -8 -4.5t-6 -0.5q-4 0 -8 1.5t-4 0.5q0 -3 1.5 -9t1.5 -9q0 -11 -3.5 -15t-5.5 -12q-2 -4 -4.5 -11
t-2.5 -10q0 -12 -0.5 -20.5t-0.5 -21.5q0 -1 -3 -4t-5 -3q-5 0 -13.5 5.5t-16.5 13.5t-13.5 17t-5.5 17q0 13 6.5 25.5t5.5 12.5q7 0 10 10q2 10 6.5 18t12.5 13q5 3 9 4t6 3l5 5t5 3t3 -0.5t5 -0.5q3 1 4 4.5t5 5.5q11 4 26 8.5t26 4.5h6q24 0 33.5 -2.5t20.5 -15.5
q2 -2 4.5 -3.5t4.5 -1.5q4 0 6.5 1t7.5 1q9 0 17.5 -6.5t15 -14t10.5 -15t4 -8.5q0 -5 -0.5 -6.5t-0.5 -4.5q0 -2 0.5 -2t1.5 -2h6q3 -1 5.5 -7t4.5 -13q2 -5 4 -9t3 -10q0 -2 -1.5 -5t-1.5 -6q1 -6 1 -12.5v-11.5q0 -2 -2 -5t-2 -4q0 -3 2 -5t2 -7q-1 -9 -3 -19t-5 -14
q-5 -5 -7.5 -5.5t-2.5 -5.5t0.5 -7t0.5 -7q0 -1 -2 -5l-8 -16t-9 -15q-2 -2 -6.5 -2.5t-6.5 -2.5q-1 -1 -1 -8q-5 -5 -9.5 -9t-11.5 -11q-5 -6 -6.5 -8t-2 -4.5t-2 -5.5t-5.5 -10l-10 -16t-11 -15l-13 -14l-10 -10t-14 -21q-5 -10 -8 -15.5t-5.5 -10t-4 -10t-3.5 -14.5
q-3 -17 -3 -28q0 -18 6 -24q7 -12 15 -12q4 0 4 3q0 5 7 13t15 8q10 0 15 -6.5t6 -16.5q0 -7 -2 -13q-1 -3 -1 -5q-1 -3 -4 -6q-5 -5 -12 -8q-7 -4 -14.5 -5t-15.5 -1q-4 0 -12 10.5t-14 10.5q-2 0 -4 -2l-2 -2q-3 0 -5 4l-1 1q-1 0 -2 1v1q0 -1 -2 3l-9.5 19t-7.5 33v4
q2 17 6 20t4 8q0 1 -0.5 2t-0.5 2q-2 5 -2.5 7t-0.5 5q0 6 2 10q2 8 9 12.5t7 12.5l-4 6q0 5 4 11.5t9 20.5l4 8t5 9q2 2 4 2t4 2q1 2 1 4t-0.5 4t-0.5 4q4 9 8.5 16.5t4.5 11.5q5 8 9 7t9 3t8 14t4 20q0 4 1.5 6t3 4.5t4.5 6t6 12.5q3 8 4 13.5t1 11.5q0 8 -1 12t-1 3z
M155 84q6 0 14.5 -6t16.5 -8q7 -2 8 -12.5t1 -20.5q0 -4 -2 -10.5t-5 -12.5t-7 -10.5t-8 -4.5q-10 0 -16.5 -4.5t-13.5 -4.5q-11 0 -16.5 7t-11.5 12q-4 4 -7 7.5t-3 12.5q0 17 10 27.5t17 16.5q2 4 9.5 7.5t13.5 3.5z" />
    <glyph glyph-name="at" unicode="@" horiz-adv-x="580" 
d="M393 419q9 -1 19.5 -4.5t30.5 -8.5q5 -1 8 -5.5t6 -5.5q10 -3 18 -4.5t15 -6.5q13 -7 21.5 -16t16.5 -21q2 -5 3 -8t4 -5q2 -3 5.5 -6.5l6.5 -6.5q7 -17 10 -33l1 -15q4 -17 4 -40q0 -7 -0.5 -14t-1.5 -14q-2 -11 -4 -21t-5 -18q-2 -9 -2.5 -15t-4.5 -11q-6 -10 -8 -18.5
t-8 -16.5q-3 -3 -10.5 -3t-11.5 -3q-1 -1 -1 -4t1.5 -6t1.5 -6q0 -2 -2 -4q-11 -12 -16.5 -16t-11.5 -9q-5 -5 -19 -15t-26 -15q-7 -2 -19 -3t-26 -1q-11 0 -26.5 10t-20.5 18q-3 3 -5.5 9t-2.5 14v26q0 17 1 28t3 22l-4 2q-4 -5 -8.5 -8t-7.5 -6q-1 -1 -3 -4t-2 -5
q-5 -10 -12 -11q-4 0 -5 -5t-3 -9q-5 -5 -10 -12.5t-9 -12.5q-14 -12 -24 -23t-24 -21q-3 -2 -9 -5l-12 -6t-14 -3q-5 0 -7 1q-6 2 -17 8.5t-15 12.5q-7 11 -10.5 24t-5.5 27q-1 7 -1.5 14t-0.5 14q0 8 0.5 13t1.5 10q0 8 1.5 10t1.5 4l1.5 3t0.5 3q0 1 -0.5 2.5t-0.5 3.5
q0 1 2 7q2 2 5.5 6t5.5 4l-1 6q0 3 1 6.5t2 7.5q1 2 5.5 9t8.5 9q1 2 5.5 3.5t4.5 6.5q0 2 -2 5t-2 4q0 7 7.5 7t11.5 7q0 2 1.5 7.5t1.5 7.5q4 5 9.5 8t10.5 8q6 8 17 14t18 14q6 2 13.5 2.5t13.5 4.5q2 2 5.5 2.5t6.5 1.5l26 8q6 1 12.5 1h12.5h15q5 0 8 -2t8 -2
q19 -3 32 -13.5t22 -24.5q5 -8 10.5 -15t6.5 -14v-14q0 -1 0.5 -1.5t0.5 -1.5q0 -5 -5 -8.5t-13 -3.5q-6 0 -10 6t-6 8q0 7 3 12.5t3 12.5q-2 5 -5 8l-8 8q-8 5 -17 10t-21 5q-13 -1 -26 -3t-22 -8q-4 -2 -6.5 -2.5t-5.5 -2.5q-5 -1 -8.5 -5t-5.5 -6q-3 -2 -3.5 -4t-1.5 -5
l-15 -17q-3 -4 -3 -7.5t-5 -3.5q-5 -2 -6.5 -7.5t-5.5 -9.5q0 -4 -7 -6t-9 -2t-2 -4q0 -3 2.5 -7.5t2.5 -9.5q-2 -5 -6 -8t-6 -9q-4 -8 -6.5 -16t-7.5 -16q-5 -12 -6.5 -23.5t-1.5 -27.5q0 -2 -0.5 -4t-0.5 -4q0 -3 1 -3q0 -3 3 -12.5t10 -9.5h4q2 0 3 1l21 12l12 17
q5 7 10.5 12.5t11.5 10.5q10 11 17.5 22t18.5 19l13 32q1 4 3 11.5t2 10.5q3 8 9 11.5t11 7.5l19 15q2 2 4 2q9 0 18 -12t11 -18q3 -4 5 -8v-30q0 -6 -5 -11.5t-7 -11.5q2 -5 4 -8t2 -12v-10t-2 -14q-1 -3 -3 -4.5t-4 -6.5v-4t2 -8q0 -5 -4.5 -7t-4.5 -4q0 -1 10 -2
q2 -4 4 -13t7 -9q2 0 7.5 -2t10.5 -2q2 0 3 1q3 2 10 5t15 13q5 7 10 8.5t8 8.5q0 1 3 6t6.5 11t6.5 11.5t3 6.5q2 6 2 14t1 15q1 4 4 7.5t3 7.5q0 3 -2.5 14t-2.5 23l7 9v61q-2 8 -5 19.5t-5 19.5l-4.5 12t-7.5 12q-8 11 -13.5 17.5t-19.5 14.5q-5 3 -8 11.5t-11 9.5
q-16 6 -36.5 8.5t-45.5 2.5l-11 4q-23 0 -42 -8.5t-39 -14.5q-11 -3 -21 -13t-24 -10q-8 0 -10.5 -4t-9.5 -9q-11 -6 -14.5 -12.5t-16.5 -14.5q-11 -5 -19 -17.5t-15 -23.5l-3 -4q-2 -2 -5 -2t-4 -4q-2 -3 -3 -7.5t-2 -8.5q-3 -8 -7 -13.5t-6 -13.5q-5 -13 -6 -23.5
t-6 -18.5q0 -2 -2.5 -4.5t-2.5 -5.5q3 -8 3 -10q-4 -15 -4 -31q0 -19 4 -31q2 -12 5 -24t5 -28q0 -3 -3 -6t-3 -8q2 -2 9.5 -5t9.5 -5q9 -8 12 -20t14 -17q12 -7 24 -12.5t24 -5.5l9 4q5 0 6.5 -1.5t6.5 -1.5q1 0 3.5 2.5l3.5 3.5q2 1 5.5 1h6.5h12q9 3 20 12.5t16 14.5
q6 5 8 13.5t6 13.5l5 5t8 3q2 0 5 -2t6 -3q2 -2 2.5 -3.5t1.5 -3.5q0 -4 -3 -11t-7 -10l-12 -13q-5 -5 -10 -9.5t-13 -4.5h-5q-1 -1 -2.5 -5.5t-2.5 -4.5q-7 -4 -14 -7.5t-15 -6.5t-17 -4t-19 -1h-11q-9 0 -19 1t-19 3q-21 0 -32 11q-4 2 -7.5 5.5l-5.5 5.5q-1 1 -5 1
q-2 0 -4 1q-12 8 -23.5 21.5t-19.5 29.5q-9 14 -14 31t-8 37q-2 7 -3 14t-1 14q0 8 1 11q2 11 1.5 21.5t1.5 21.5q3 17 8.5 31.5t12.5 30.5l4 15q8 14 17 25.5t20 24.5l3 3q8 8 15.5 18.5t15.5 18.5q6 5 11 6t12 6q8 5 14.5 11t16.5 10q11 7 26.5 14t30.5 13q23 10 50 13.5
t57 3.5h11q12 0 24 -0.5t22 -1.5z" />
    <glyph glyph-name="A" unicode="A" horiz-adv-x="451" 
d="M233 703q11 -1 17 -4.5t13 -17.5q6 -14 7.5 -23.5t7.5 -14.5q5 -5 4 -11t4 -19q4 -14 10 -26.5t6 -33.5q0 -20 1.5 -28.5t5.5 -19.5q0 -1 1 -2t1 -2q5 -12 6 -32.5t7 -36.5q3 -8 5 -13t4.5 -10.5t4 -13.5t3.5 -22q0 -4 0.5 -7t0.5 -6q0 -8 -1 -13t-1 -8q0 -5 2 -8t9 -10
q6 -7 8 -12t2 -10t-1 -10.5t-1 -12.5q0 -2 0.5 -4.5t0.5 -4.5q4 -19 6.5 -34t15.5 -15q11 0 16.5 5t14.5 5q8 0 15.5 -9.5t7.5 -17.5t-9 -14.5t-14 -6.5q-6 0 -10 -4t-11 -9q-12 -10 -12 -24q0 -6 1 -9q4 -11 7.5 -20t5.5 -26q1 -8 1 -13t0.5 -9t2 -7.5t5.5 -9.5t5.5 -10.5
t2.5 -9t1.5 -11t2.5 -15.5q1 -5 1.5 -9t0.5 -8q0 -17 -11 -28q-6 -6 -12 -11.5t-23 -5.5q-15 0 -17.5 7t-4.5 27v15t-0.5 9.5t-2 9t-4.5 12.5t-5.5 14l-5 12t-4 13t-1.5 18q0 10 -1.5 14.5t-3 6.5t-2.5 4.5t-1 10.5q0 15 -5 24t-11 14q-2 2 -6 2h-9q-8 0 -19 -0.5t-25 -1.5
q-10 0 -20 -1t-23 -4q-9 -2 -15.5 -4t-13.5 -2t-11 1q-7 2 -16.5 3.5t-17.5 1.5q-3 0 -11 -1.5t-8 -6.5q-3 -7 -5.5 -16t-4.5 -23t-6.5 -19.5t-4.5 -16.5q0 -8 2 -15.5t2 -16.5q0 -12 -4 -21q-3 -7 -14 -7q-7 0 -11 1q-12 1 -12 27q0 20 8.5 38.5t11.5 35.5q1 5 1 12
q0 18 -8 18q-2 0 -6 -0.5t-9 -0.5q-8 0 -15.5 1t-9.5 4q-3 4 -3 10q0 7 4 11q4 5 10 11t18 6q13 0 24.5 5t13.5 16q1 11 4 23.5t5 28.5q1 7 4 21.5t7 30.5t8 30l6 21q2 8 8.5 18.5t6.5 27.5q0 20 3 31t9 26q7 17 9 39t11 36q4 7 7 12.5t4.5 11.5t2.5 14t3 20q2 11 2 18v13
t0.5 12.5t2.5 18.5q2 15 12 33t29 18zM220 601q-4 0 -9 -15.5t-9.5 -35.5t-8.5 -38.5t-5 -25.5q-4 -12 -11.5 -36t-12.5 -44q-2 -8 -9 -27.5t-12 -39.5t-7 -36t-5 -32q-4 -16 -9 -32t-5 -38q0 -7 3 -10t8.5 -3.5t12 -1t13.5 -2.5q12 -3 19 -3q5 0 10 1t12 2q10 2 16.5 3
t23.5 1q11 0 16 2t12 4t19 8t18 13q3 4 3 11q0 8 -2.5 18.5t-4.5 22.5q-3 17 -6.5 29.5t-10.5 26.5q-3 7 -4.5 12t-2 11t-1 14.5t-2.5 21.5q-3 26 -7.5 40.5t-9.5 27.5q-2 5 -2.5 9t-0.5 9q0 12 -1 17.5t-5 10.5q-5 5 -7.5 22t-5 35.5t-4.5 33t-6 14.5z" />
    <glyph glyph-name="B" unicode="B" horiz-adv-x="455" 
d="M28 674q1 11 12.5 12.5t20.5 1.5q8 0 19.5 3.5t18.5 3.5q8 0 17.5 -1t19.5 -1h9t8 2q6 2 16 2.5t20.5 1t20 0.5t15.5 1q5 1 13 1.5t17 0.5q10 0 20 -1t18 -4q15 -5 31 -17t24 -22q8 -9 18.5 -30t10.5 -40q0 -23 -1.5 -46t-10.5 -34t-19 -26.5t-18 -24.5t-21 -13t-20 -15
q-5 -9 -17.5 -15.5t-12.5 -9.5q0 -2 8.5 -5t19.5 -7.5t22.5 -9.5t17.5 -10q3 -2 9.5 -6.5t14 -10.5t13 -12.5t5.5 -11.5q0 -11 13.5 -22.5t20.5 -22.5q3 -6 6.5 -16.5t5.5 -23.5t3.5 -26.5t1.5 -24.5q0 -17 -4 -41.5t-7 -39.5q-3 -17 -12.5 -33.5t-17.5 -19.5
q-17 -6 -22 -22q-3 -9 -5.5 -16t-9.5 -11t-18.5 -7t-14.5 -6q-2 -3 -8 -10t-17 -13q-10 -6 -16 -10.5t-18 -6.5q-4 -1 -9 -1h-10q-14 0 -26.5 1t-16.5 2q-5 2 -11.5 11t-6.5 17q2 11 8 19t14 8q1 0 14.5 -4t23.5 -4q5 0 13 -2.5t16 -2.5t11 2q9 5 17.5 11t19.5 16
q10 10 13.5 22t7.5 20q6 6 8.5 15.5t2.5 28.5q0 17 2 29.5t2 26.5q0 24 -1 38.5t-6 26.5q-4 12 -11 30t-17 33q-5 7 -13 16t-17.5 17t-18.5 14.5t-15 9.5q-12 6 -25.5 12t-16.5 14q-1 3 -1 9q0 16 16 21q11 3 21.5 9.5t15.5 12.5t13.5 13t13.5 17t9 22t9 31q4 19 6.5 29
t2.5 23q-1 13 -5.5 25t-7.5 26t-16.5 24.5t-21.5 13.5t-27 3.5t-30 2.5q-10 2 -19 2q-10 0 -19 -1.5t-11 -5.5q-3 -5 -3.5 -14t-1.5 -25q-2 -12 -4 -29.5t-2 -31.5q0 -9 1 -13q3 -11 6.5 -21t3.5 -21q0 -6 -1 -10q-4 -20 -4 -64q0 -6 -1.5 -16t-3 -21t-2.5 -21t-1 -17
q0 -10 -1.5 -36.5t-1.5 -50.5q0 -10 0.5 -18.5t1.5 -13.5q3 -16 5.5 -33t2.5 -28q0 -2 -0.5 -3.5t-0.5 -3.5q-2 -7 -4.5 -20t-3.5 -34t-3 -40t-5 -37q-2 -17 -11.5 -23.5t-15.5 -8.5q-2 -2 -5 -2t-5.5 3.5t-8.5 11.5q-8 10 -13.5 19.5t-5.5 23.5q0 21 2 44.5t2 45.5
q0 17 1 43.5t1 46.5q0 7 -0.5 13t-0.5 14q0 9 1 22.5t2.5 27t3 24.5t3.5 15q4 10 4 22q0 14 -5 29q-2 8 -2.5 22t-0.5 51q0 2 -0.5 11t-0.5 21.5t-0.5 26.5t-0.5 28t0.5 24.5t1.5 15.5t1 9v8q0 15 -2 21q0 1 -5 1t-8.5 -0.5t-7.5 -0.5q-3 0 -5.5 0.5t-5.5 1.5q-5 3 -8 7.5
t-3 15.5z" />
    <glyph glyph-name="C" unicode="C" horiz-adv-x="372" 
d="M299 605q-7 2 -13.5 12t-6.5 20v25t-2 12q-3 7 -15 7q-5 0 -9 -1t-7 -1q-6 -1 -19.5 -8.5t-21.5 -20.5q-9 -13 -16 -28.5t-13 -21.5t-14.5 -20t-8.5 -30q0 -11 -5 -20.5t-8 -24.5q-4 -16 -5 -29t-3 -27q-2 -11 -4.5 -19.5t-2.5 -20.5v-6.5t1 -7.5q1 -6 1 -11v-10
q0 -17 -4 -26q-4 -8 -4 -24v-10.5t1 -10.5q2 -14 4 -24.5t3 -20.5q2 -10 4 -28.5t3 -36.5t8 -38t10 -30q2 -10 7.5 -16.5t8.5 -20.5q2 -14 15 -27.5t18 -18.5t14 -8.5t13 -10.5q2 -4 9 -5t15 -1q18 0 26 3q7 2 14 15.5t11 18.5q3 5 5 15t4 17t10.5 11t16.5 4q6 0 9.5 -5.5
t3.5 -13.5q0 -6 -6.5 -20.5t-13.5 -20.5t-12 -14.5t-19 -18.5t-23 -12t-21 -4q-3 -1 -10 -1q-11 0 -24 2t-22 3q-11 1 -23.5 8.5t-19.5 11.5t-14.5 8.5t-12.5 15.5t-12.5 20t-12.5 12t-7.5 5.5t-7.5 10.5t-4 18t-7 18q-4 4 -8.5 11t-8.5 15.5t-6.5 16.5t-2.5 14
q0 11 -4.5 19.5t-4.5 21.5q0 20 -2.5 32t-3.5 26q-1 10 -1.5 20.5t-0.5 20.5v11.5t2 10.5q5 14 6 32.5t3 35.5t6 32.5t9 29.5q4 14 6.5 25.5t4.5 25.5t6.5 20.5t11.5 11.5t11 18t11 28t20 31t22 24q10 8 15 10.5t11 2.5t12 7.5t14 12.5t22 10.5t29 5.5t31.5 -8t19.5 -15
t13.5 -16t10.5 -22q0 -8 -5 -14t-5 -13q-8 -14 -19 -14q-4 0 -6 1z" />
    <glyph glyph-name="D" unicode="D" horiz-adv-x="405" 
d="M83 706q6 1 14.5 1h17.5h22.5t17.5 -1q12 -1 25.5 -7.5t21.5 -6.5q4 0 12 -4t17 -9.5t18 -12.5t14 -13q11 -12 23.5 -30t19.5 -26q8 -8 14.5 -24t12.5 -28q2 -5 3 -9.5t2.5 -10.5t4.5 -15t9 -24q3 -7 5 -12t3.5 -10.5t2 -13t0.5 -19.5q0 -16 -1.5 -25.5t-1.5 -16.5
q0 -4 2 -10q6 -12 6 -29q0 -5 -0.5 -11t-1.5 -12q-3 -15 -6 -26t-5 -27t-4.5 -28.5t-11.5 -24.5q-5 -6 -6.5 -15t-2.5 -19t-2.5 -20t-4.5 -17t-8 -16.5t-9.5 -18.5t-9.5 -16t-8 -9q-8 -4 -14 -15.5t-14 -19.5q-4 -4 -12.5 -11.5t-17.5 -15.5t-17.5 -14t-12.5 -6
q-8 -1 -21 -2t-20 -6q-3 -3 -9 -3h-14.5t-15.5 -2q-18 -2 -27.5 -4.5t-16.5 -2.5q-5 0 -7 1q-8 2 -10 14t-2 21q0 8 -1.5 20.5t-1.5 26.5q0 19 2 29t2 18q0 13 -4 24t-5 18.5t-1 16.5v10t1 11q2 18 3 28t1 21q0 7 -1.5 24t-1.5 33q0 10 2.5 19.5t2.5 24.5q0 14 -1.5 28
t-1.5 31q0 12 1 26t1 25t-0.5 15t-0.5 7q0 9 1 19.5t1 20.5q0 8 -2 16q-5 11 -5 36q0 7 0.5 15t0.5 21q0 11 -1.5 19.5t-1.5 17.5q0 8 3 22q5 22 13.5 30t20.5 9zM127 673q-2 -4 -2.5 -8t-0.5 -9q0 -8 1 -18.5t1 -21.5t1 -18t2 -13t2 -12.5t1 -16.5v-9t-1 -11q-3 -27 -3 -40
q0 -8 0.5 -13t0.5 -11q0 -17 -3.5 -33.5t-3.5 -34.5q0 -7 1.5 -14.5t3.5 -21.5q4 -20 4 -33q0 -8 -2 -15t-4 -17q-3 -11 -3 -21q0 -11 2 -24t2 -31q0 -14 0.5 -22.5t1 -16t1 -16t0.5 -21.5q0 -17 -1 -32t-3 -29q-1 -5 -1.5 -11.5t-0.5 -12.5q0 -13 2 -23.5t7 -10.5
t12.5 -2.5t18.5 -2.5t22 4q20 7 36.5 27.5t26.5 37.5q4 7 7.5 18.5t6.5 24t5.5 23t5.5 14.5t4 13.5t2 21.5t2.5 24.5t3.5 22.5q4 20 4 32t2 30q2 11 3 22.5t1 22.5q0 19 -4 27t-4 26q0 8 0.5 17.5t0.5 21.5q0 15 -5.5 36.5t-11.5 35.5q-3 7 -3.5 16.5t-2 20t-4 20.5t-9.5 17
q-13 14 -22 27.5t-14 22.5t-18 12t-27 12q-11 8 -23 8q-15 0 -21 -12z" />
    <glyph glyph-name="E" unicode="E" horiz-adv-x="329" 
d="M252 659q-5 2 -15.5 7t-18.5 7t-19 2q-8 0 -15.5 -0.5t-12.5 -0.5q-9 0 -20 -3t-16 -10q-4 -4 -4 -14t2 -23t2 -30q0 -15 -0.5 -36.5t-0.5 -41.5q0 -12 3.5 -14.5t11.5 -6.5q4 -2 18 -2q10 0 21 0.5t19 1.5q9 1 22 2.5t23 1.5q7 0 9 -1q8 -2 12.5 -8t4.5 -18
q0 -2 -1.5 -6t-2.5 -4q-4 0 -7 -2q-2 -1 -5 -1q-5 0 -12 4t-20 4q-11 0 -27.5 1t-27.5 1t-23.5 -4t-16.5 -13q-1 -3 -1.5 -5.5t-0.5 -6.5q0 -8 1.5 -18t1.5 -20v-20v-27t-0.5 -27.5t-0.5 -20.5q0 -11 2 -25.5t2 -27.5q0 -7 -2 -13t-2 -14q0 -7 2 -14t5 -18q1 -5 1.5 -10
t0.5 -10q0 -11 -3 -23t-3 -23q-1 -5 -1 -10.5v-10.5q0 -15 1 -29.5t1 -25.5t1 -21t6 -10q4 0 19 -0.5t29 -0.5h12.5t8.5 1q11 1 18.5 6t13 10t9.5 9.5t8 6.5q7 3 18 3q19 0 19 -19q0 -5 -3 -17q-1 -6 -6.5 -8.5t-13 -4t-15 -2.5t-12.5 -3q-8 -3 -24 -3q-8 0 -15.5 0.5
t-14.5 0.5q-11 0 -23 -1.5t-32 -1.5q-9 0 -18 1t-22 1q-8 0 -15.5 -0.5t-14.5 -0.5q-8 0 -7.5 7t-0.5 13q-1 4 -2 15.5t-1 23.5q0 9 2 19q2 8 2 17.5v19.5q0 26 -0.5 34t-0.5 14q0 12 2.5 23.5t2.5 26.5q0 19 -2 37t-4 26q-2 5 -2 10.5v10.5q0 7 1 16t1 31v32.5t-1 27.5
q-1 14 -2 32t-3 20t-11 7t-9 15q0 7 5.5 11t12.5 6q3 1 4 7t1 15q0 10 -0.5 21.5t-0.5 22.5q0 5 1.5 14.5t1.5 19.5q0 13 -3 21q-2 4 -2 20q0 14 1.5 30t2.5 24q1 7 11 7q7 0 15 -2t14 -2q5 0 7.5 1t4.5 2t5 2t9 1q9 0 17.5 2t16.5 2q6 0 11 -3q3 -3 11 -3q9 0 20 3t20 3
q10 0 26.5 -1t27.5 -2q17 -2 17 -21q0 -7 -2 -11q-5 -11 -10 -18.5t-13 -7.5q-7 0 -9.5 8t-7.5 10z" />
    <glyph glyph-name="F" unicode="F" horiz-adv-x="384" 
d="M37 683q0 10 8.5 12.5t19.5 2.5h12t11 -1q2 0 4.5 -0.5t11.5 -0.5q12 0 24 1.5t29 1.5q18 0 38 -3t35 -3q9 0 13 1q14 3 34.5 5.5t39.5 2.5t28 -4.5t11 -10.5q0 -1 0.5 -1.5t0.5 -2.5q0 -11 -12 -26q-7 -8 -15 -15.5t-17 -7.5q-6 0 -11 8.5t-6 13.5q-1 6 -11.5 10
t-24.5 7q-3 1 -9 1q-10 0 -19 -3t-25 -3q-12 0 -23.5 1.5t-21.5 1.5q-13 0 -18 -4q-5 -3 -6.5 -10t-1.5 -16v-19.5t-1 -9.5q-2 -14 -4.5 -38t-2.5 -41q0 -11 1.5 -26.5t10.5 -20.5q4 -2 7 -2q7 0 15 3t16 3q5 0 8 -1q6 -2 8 -2q6 0 10.5 3t10.5 4q5 1 14 1h19q8 0 14.5 -0.5
t13.5 -0.5q5 0 10.5 1t9.5 1q7 0 7 -11t-6 -16.5t-11 -14.5q-3 -5 -9 -5t-13.5 3.5t-13.5 3.5q-8 0 -17 4t-28 4q-5 0 -11 -0.5t-13 -1.5q-8 -2 -23.5 -1.5t-22.5 -0.5t-8 -20.5t-6 -47.5q-4 -19 -4 -44q0 -18 1.5 -36.5t2.5 -37.5q1 -15 1.5 -24.5t0.5 -17.5v-15.5v-18.5
q0 -22 -1.5 -42.5t-4.5 -55.5q-1 -11 -1 -19v-15q0 -13 1 -20.5t1 -17.5t-4.5 -19.5t-12.5 -9.5q-25 0 -33 4q-13 7 -13 50q0 22 -1.5 42t-1.5 36q0 11 2 21q1 8 2.5 22t2 29t1 27.5t0.5 18.5q0 8 -2 23t-2 31q0 8 1 15t3 12q3 7 3 16q0 11 -3 23.5t-3 26.5q0 5 0.5 10
t0.5 10q0 11 -0.5 19t-1.5 15q0 4 -3 6t-6.5 2.5t-6.5 1.5t-3 3q0 11 1.5 16t6.5 9q11 8 14.5 21.5t3.5 26.5q0 32 0.5 49.5t3.5 29.5q1 3 1 9q0 14 -7 24t-13 12q-8 3 -9.5 10.5t-1.5 12.5z" />
    <glyph glyph-name="G" unicode="G" horiz-adv-x="412" 
d="M331 638q-15 2 -19.5 3t-6.5 12q-3 11 -10.5 18t-15.5 10q-6 2 -11 2q-10 0 -22 -4t-20 -13q-11 -12 -16.5 -24.5t-14.5 -26.5q-5 -7 -9.5 -11t-8.5 -9t-8 -12t-8 -19q-5 -12 -7.5 -19t-4.5 -12t-3 -9.5t-2 -11.5q-2 -8 -5.5 -18.5t-7 -29t-6.5 -46.5t-3 -70
q0 -5 -0.5 -9.5t-0.5 -7.5q0 -7 0.5 -10.5t1.5 -7t2.5 -8t2.5 -13.5q1 -11 2 -19l2 -16t1.5 -18t0.5 -25t1 -23.5t2.5 -14.5t4 -12t6.5 -18t6.5 -18.5t4.5 -11.5t4.5 -9t6.5 -11t6.5 -15.5t5.5 -16.5t7 -15t12 -11q16 -8 23.5 -13t24.5 -5q15 0 26 17t19 29q8 13 8.5 30.5
t3.5 31.5q2 11 4.5 21.5t2.5 24.5q0 7 -1 13.5t-1 17.5q0 14 2.5 25.5t2.5 24.5q0 32 0.5 48.5t2.5 27.5q0 2 0.5 3t0.5 3q0 12 -8.5 17.5t-14.5 5.5q-5 2 -19.5 2h-25.5q-6 0 -9.5 6.5t-3.5 14.5q0 10 4 14q5 7 12.5 13t19.5 6q5 0 8 -1t9 -1q12 0 22.5 4t27.5 4
q28 0 28 -19q0 -2 -2 -10q-2 -6 -2 -10q0 -8 1 -12t2 -6.5l2 -5t1 -7.5q0 -7 -3 -25q-2 -12 -3 -19l-2 -14t-1.5 -17t-0.5 -27t-1 -28t-2 -19t-2.5 -16t-2.5 -20q-2 -23 -7.5 -38t-10.5 -37q-3 -11 -5 -17t-4 -10t-4 -8.5t-4 -11.5q-5 -15 -14 -19.5t-23 -17.5t-31.5 -15
t-40.5 -2q-16 0 -33.5 4t-25.5 9q-10 5 -19 14.5t-14 18.5q-2 4 -7 9l-10.5 10.5l-10 10t-4.5 9.5q0 9 -8.5 21t-13.5 25q-4 12 -8.5 30t-4.5 40q0 14 -5 31t-8 31q-1 5 -1 10v10q0 12 1 24.5t2 23.5q2 17 2.5 33.5t0.5 27.5q0 6 1 16t3 22t4.5 24.5t5.5 23.5q10 42 25 65
q4 6 5.5 10t2 8t1.5 9t4 14q7 17 12.5 21t10.5 12q6 8 8.5 15t8.5 17q7 10 20 21.5t20 12.5t20.5 7t20.5 12t24 8.5t32 2.5q12 0 29.5 -3t24.5 -6t14.5 -12t7.5 -21q0 -10 -4 -17t-13 -7z" />
    <glyph glyph-name="H" unicode="H" horiz-adv-x="460" 
d="M107 688q13 9 21 9q11 0 12.5 -11t1.5 -25q0 -17 -1 -33.5t-1 -33.5q0 -7 1 -14.5t1 -24.5q0 -14 -2 -26t-2 -24q0 -10 2 -20t2 -23q0 -15 -1.5 -29t-2.5 -27q0 -4 -0.5 -7.5t-0.5 -6.5q0 -28 9 -29q3 0 10 -0.5t15.5 -1.5t16 -1.5t10.5 -1.5q2 -1 7.5 -1h12.5h13.5
t11.5 -1t18.5 -1h50.5q11 0 15 8t9 13q3 3 4 10.5t1 17.5q0 32 0.5 48.5t0.5 29.5t1.5 28.5t6.5 27.5q2 8 2 15q0 12 -2 25t-2 21q0 5 -1 14.5t-1.5 20t-1.5 20t-1 15.5q0 15 5.5 33.5t8.5 23.5q2 6 6 7.5t11 1.5q6 0 12.5 -4t6.5 -15q0 -8 1.5 -17.5t1.5 -20.5v-30.5
t-2 -25.5q-1 -3 -1 -12t-0.5 -20t-1.5 -22.5t-3 -19.5q-1 -3 -1 -9q0 -11 2.5 -21t2.5 -18q0 -4 -2 -10t-2 -18q0 -17 2 -39.5t2 -35.5q0 -5 -0.5 -8t-0.5 -6q0 -5 3 -9.5t10 -4.5t15.5 3.5t19.5 3.5q8 0 9.5 -7t1.5 -17q0 -8 -2.5 -15t-7.5 -10q-6 -4 -22 -3.5t-22 -0.5
q-5 -1 -6 -10.5t-1 -25.5q0 -27 2.5 -56t2.5 -49q0 -13 -1 -30t-1 -37q0 -17 2 -38.5t2 -32.5q-1 -13 -2.5 -23t-7.5 -14t-13 -4.5t-16 -5.5q-2 -1 -4 -1q-7 0 -7 14q0 5 0.5 9.5t1.5 9.5q0 2 0.5 2.5t0.5 2.5q0 10 -4.5 20.5t-4.5 19.5q0 5 1 7q4 15 3.5 29t1.5 27
q2 7 2 11.5v9.5q0 11 -3 19q-2 4 -2.5 13t-0.5 20q0 8 0.5 15t1.5 12q1 4 1 17q0 16 -1.5 35t-2.5 25q-1 5 -8.5 7t-16.5 2q-6 0 -12 -0.5t-10 -2.5q-3 -1 -11 -1q-11 0 -25 2t-25 2t-32 -4t-34 -5q-6 0 -11 -7t-9 -16t-6.5 -19t-3.5 -17q-1 -4 -1 -8v-9q0 -12 1 -28t1 -45
q0 -14 -0.5 -29.5t-2.5 -29.5q-1 -4 -1 -11q0 -15 6.5 -24.5t6.5 -19.5q0 -8 -6 -18t-13 -18q-6 -8 -21 -16.5t-24 -8.5q-5 0 -8 7t-5 15q-1 4 -1 15q0 8 1.5 16.5t1.5 16.5q0 14 -3 25t-3 19t2 23t2 28q0 23 2.5 37.5t2.5 24.5q0 9 -2 28.5t-2 35.5q0 10 1 13q1 2 1 6
q0 7 -7.5 9.5t-15.5 2.5q-5 2 -9.5 5t-4.5 16q0 14 6 17.5t12 6.5q8 4 11 12.5t3 15.5q0 5 -1.5 13.5t-1.5 18.5q0 8 3.5 16t3.5 17t-4.5 16.5t-4.5 18.5q0 7 -1 16t-1 18q0 7 2 15q2 6 2 12.5v14.5q0 23 -0.5 34t-0.5 19q0 10 1 19.5t4 16.5q5 13 13 20t25 18z" />
    <glyph glyph-name="I" unicode="I" horiz-adv-x="275" 
d="M34 25q2 5 7 6.5t12 1.5q6 0 15 -0.5t31 -1.5q0 2 4 3t4 4q0 8 -5 26.5t-5 34.5q0 10 2 14q3 9 3 25q0 17 -2 36.5t-2 30.5v27q0 10 1 19t4 16q4 7 4 17t-5 28q0 1 -0.5 2t-0.5 2q-2 7 -2 15.5v19.5q0 14 0.5 28t1.5 25q2 18 2.5 41t2.5 39q0 18 -1 36.5t-1 32.5
q0 7 2 13.5t2 14.5q0 12 -9 30q-4 7 -4 16q0 11 3.5 21.5t4.5 21.5q-5 0 -11 -0.5t-11 -0.5q-6 0 -8 1t-6 1q-7 0 -13.5 -2t-7.5 -2q-4 0 -9 3t-7 6q-2 4 -2 10q0 7 2 11q3 6 13 6q6 0 13 -1.5t15 -2.5q2 0 5 -0.5t5 -0.5q10 0 18 1.5t16 2.5q28 0 46.5 -0.5t31 -1t19 -1
t10.5 -0.5q8 -1 16.5 -4t8.5 -9q0 -2 -1 -4q-4 -8 -9 -13.5t-12 -5.5h-49q-2 -17 -3 -37t-3 -32q-2 -5 -2 -13.5v-18.5q0 -14 -0.5 -29.5t-0.5 -26.5q0 -25 1.5 -46.5t3.5 -34.5q1 -5 1 -10.5v-13.5q0 -17 -1.5 -34.5t-4.5 -27.5q-2 -10 -2 -20q0 -20 2.5 -44t3.5 -37
q0 -17 -3 -44.5t-6 -52.5q0 -17 3.5 -39.5t3.5 -39.5q0 -8 -2 -16q-2 -5 -3 -8.5t-2 -7.5q12 0 27 1t30 3q11 0 17.5 -3.5t6.5 -8.5q0 -4 1 -7t1 -6q0 -4 -3 -7q-2 -2 -5 -2q-4 0 -7.5 1.5t-7.5 1.5t-5 -1q-3 -3 -12 -3q-5 0 -10.5 0.5t-14.5 0.5q-7 -1 -16.5 -2t-19.5 -1
q-14 0 -24 3q-11 0 -29.5 -0.5t-30.5 -1.5q-18 0 -24 6q-4 4 -4 9q0 7 2 12z" />
    <glyph glyph-name="J" unicode="J" horiz-adv-x="345" 
d="M227 691q13 6 24 10.5t19 4.5q14 0 19 -18t5 -36q0 -12 -0.5 -25.5t-0.5 -24.5q0 -10 0.5 -22t0.5 -27q0 -22 -2.5 -32.5t-2.5 -19.5q0 -12 5 -29t5 -42q0 -26 -3 -44.5t-3 -30.5q0 -10 0.5 -20.5t0.5 -21.5q0 -16 -3 -26q-8 -25 -9.5 -58.5t-5.5 -61.5q0 -2 -0.5 -3
t-0.5 -3q0 -15 -4 -32.5t-10 -31.5q-8 -14 -13.5 -27t-13.5 -24q-20 -28 -39.5 -42t-45.5 -14q-19 0 -41 8q-8 3 -17.5 6t-14.5 10q-7 10 -15 14.5t-13 10.5q-8 13 -14 30t-6 31v14q0 8 1.5 13t6.5 10q7 5 12 9t15 4q11 0 18.5 -6.5t7.5 -23.5q0 -5 -2 -12t-2 -12
q0 -6 2 -10.5t2 -9.5q0 -14 3.5 -25t12.5 -19q4 -4 7 -7.5t10 -4.5q6 -1 12.5 -3t11.5 -2q12 0 17.5 5.5t13.5 15.5q3 4 8 7.5t8 8.5t3.5 11.5t2.5 11.5q7 19 12 40t7 35q2 17 3.5 30.5t1.5 30.5q0 8 -0.5 16.5t-0.5 19.5q0 20 2.5 32.5t2.5 23.5t-3 26t-3 31q0 24 2.5 47
t2.5 37q0 7 -1 15.5t-3 20.5q-3 18 -3 30q0 10 1 19t1 20q0 4 -0.5 7.5t-0.5 8.5q-2 17 -4 33.5t-2 30.5v21q0 13 2 25t11 16z" />
    <glyph glyph-name="K" unicode="K" horiz-adv-x="435" 
d="M51 658q2 10 10.5 23t21.5 15q7 2 13 3t11 1q9 0 10 -8q1 -7 1.5 -20.5t0.5 -27.5q0 -7 -0.5 -13.5t-0.5 -15.5q0 -12 3 -27t3 -29q0 -2 -0.5 -5t-0.5 -5q-2 -6 -2 -12.5v-13.5q0 -10 0.5 -20.5t0.5 -21.5q0 -19 -1 -47t-2 -47q-1 -15 -2.5 -31.5t-3.5 -30.5
q-3 -16 -5 -31q2 -12 5 -24q2 -11 3.5 -22.5t1.5 -21.5q0 -9 -1 -12q-1 -4 -1 -12q0 -11 1.5 -22.5t1.5 -21.5q0 -8 -1 -12t-1 -13q0 -8 1 -17t1 -17q0 -6 -2 -14q-2 -4 -2 -15q0 -10 1.5 -20t1.5 -18q0 -2 -0.5 -3.5t-0.5 -3.5q-3 -10 -13.5 -20t-21.5 -10q-13 0 -19 0.5
t-12 3.5q-4 3 -4 14q0 12 2.5 28.5t2.5 36.5v29t-2 35q-2 14 -2.5 23.5t-0.5 20.5v16t2 21q3 28 3 42q0 9 -0.5 17.5t-2.5 19.5q0 3 -0.5 6t-0.5 6q0 12 1.5 24t1.5 29v11.5t-1 13.5q-2 16 -3 28.5t-1 23.5q0 12 1.5 24.5t4.5 29.5q2 12 3 21t1 17q0 11 -1.5 20l-3.5 21
q-3 18 -3 29q0 7 0.5 12.5t0.5 10.5v14.5t2 14.5zM152 335q0 14 4.5 24t9.5 20q12 22 26 38t17 30q2 7 6.5 17t9.5 21t10.5 21t10.5 16t8 8.5t5 4t3 4.5t3 11q4 17 12 26t16 20t14 19t12 22t12.5 21t14.5 18t13.5 20.5t13.5 14.5t17 5q11 0 14 -8q1 -2 1 -8q0 -8 -3.5 -15.5
t-9.5 -9.5q-4 -1 -7.5 -5t-6.5 -9.5t-5.5 -10t-5.5 -5.5q-7 -2 -14.5 -13t-15.5 -19t-13.5 -18t-11.5 -21t-11 -18t-13 -21q-5 -7 -8.5 -12t-7 -10.5t-7 -13t-7.5 -19.5q-8 -24 -19.5 -43.5t-21.5 -26.5q-9 -7 -8.5 -14t-2.5 -15q-1 -1 -1 -5q0 -8 7 -20t14 -22
q9 -11 23 -25.5t19 -22.5q2 -4 7.5 -14t12.5 -21t13.5 -20.5t11.5 -12.5q8 -6 13.5 -17.5t17.5 -19.5q6 -4 10.5 -11t8.5 -14.5t7.5 -14t7.5 -9.5t8.5 -10.5t8.5 -16.5t7.5 -16.5t6.5 -10.5q4 -4 4 -12q0 -5 -2.5 -10.5t-10.5 -11.5q-10 -8 -16.5 -10.5t-17.5 -2.5
q-11 1 -21.5 16.5t-20.5 29.5q-9 14 -16 21.5t-12 14.5q-6 7 -6 18.5t-8 17.5t-17 18t-18 20t-15.5 16t-11.5 23t-11.5 22.5t-17.5 19.5q-10 12 -24 32t-15 35z" />
    <glyph glyph-name="L" unicode="L" horiz-adv-x="329" 
d="M47 625q0 35 21 46q12 6 13 15t9 14q8 4 16 4t13.5 -4t5.5 -15q0 -18 -3 -30t-3 -23q0 -12 1 -20.5t1 -16.5t-1.5 -15t-1.5 -13q0 -9 1 -18.5t1 -18.5q0 -7 -1 -11t-1 -8q0 -11 3 -24.5t3 -24.5q0 -17 -6 -34t-6 -34v-6.5t1 -6.5q0 -2 0.5 -2.5t0.5 -2.5q2 -15 4 -31.5
t2 -29.5q0 -3 -0.5 -6t-0.5 -6q0 -14 1 -22.5t1 -18.5q0 -8 -1 -15.5t-1 -15.5q0 -14 1.5 -26.5t1.5 -24.5q0 -5 -0.5 -9t-1.5 -9q-2 -15 -3 -21t-1 -17t0.5 -20t0.5 -15q0 -13 1 -26.5t3 -24.5q2 -8 10 -13t18 -5q5 0 11 2t8 2q5 0 9.5 -2t11.5 -2q3 0 11 2q17 5 29.5 7.5
t27.5 4.5q11 2 22 5.5t19 3.5q6 0 8 -2q4 -3 4 -9q0 -15 -17 -29q-8 -6 -19 -10t-20 -4q-5 0 -9 2q-8 4 -22.5 6.5t-31.5 2.5q-16 0 -25 -1.5t-25 -3.5q-8 0 -16.5 2t-29.5 4q-8 0 -16 -1t-14 -1q-15 0 -15 11q0 28 -0.5 45t-0.5 31v12.5t1 10.5q3 21 3 39q0 9 -0.5 19
t-1.5 21q-1 5 -1 9.5v9.5q0 14 1.5 27.5t1.5 36.5q0 20 0.5 32t0.5 23v11.5t-1 13.5q-2 16 -4.5 26.5t-2.5 19.5q0 7 3 16q3 7 3 22q0 18 -2.5 40.5t-2.5 39.5q0 20 2.5 34t2.5 26q0 11 -1 16q-2 8 -3 17t-1 17z" />
    <glyph glyph-name="M" unicode="M" horiz-adv-x="570" 
d="M81 676q2 17 7 21.5t13 4.5q12 -1 19 -11t10 -25t6 -23.5t8 -19.5t10.5 -25.5t10.5 -30.5q3 -8 7.5 -20.5t9 -26.5t7.5 -27.5t3 -22.5q0 -19 2.5 -25.5t8.5 -14.5q3 -4 7.5 -12t8.5 -17.5t7 -18.5t3 -15t2.5 -15t6.5 -18.5t8.5 -18.5t8.5 -13q4 -5 6 -13.5t4 -18.5
t3.5 -19.5t4.5 -15.5t6 -6q5 0 9.5 9.5t7.5 18.5q0 1 0.5 1.5t0.5 1.5q2 7 4.5 18t5.5 22.5t6.5 21.5t6.5 16q6 12 5.5 28.5t3.5 33.5q0 1 0.5 1.5t0.5 1.5q3 14 5.5 22t10.5 21q8 14 11.5 32.5t11.5 35.5q4 8 6.5 12.5t4.5 9.5t3.5 12t3.5 21t3.5 20t3.5 10t4.5 7t6.5 11
t5.5 14t2.5 11.5t2 11.5t5 13q7 14 10.5 33t11.5 27q6 5 14 9.5t15 4.5q6 0 11 -5q3 -3 5.5 -12.5t5 -20.5t3.5 -23t1 -20q0 -3 -0.5 -5t-0.5 -4q0 -14 4 -31t4 -30q0 -19 1 -36t1 -35q0 -6 -0.5 -11t-1.5 -10q-5 -18 -5 -33q0 -9 1 -18t3 -17q2 -14 6.5 -38t4.5 -45
q0 -11 -1 -16q-1 -7 -1.5 -15t-0.5 -16q0 -20 1.5 -38.5t3.5 -28.5q2 -11 3.5 -23.5t1.5 -22.5q0 -3 -0.5 -5.5t-0.5 -4.5q-2 -10 -2 -24q0 -10 0.5 -21t1.5 -22q2 -19 7 -30.5t5 -19.5q0 -10 -3 -24t-10 -22t-12 -19.5t-12 -16.5q-4 -4 -11 -4q-8 0 -14 10q-5 10 -7 23.5
t-2 27.5q0 11 1 20.5t1 17.5q0 14 -4 22q-2 4 -2.5 7.5t-0.5 8.5q0 8 1.5 16.5t1.5 16.5q0 4 -2 12q-5 14 -6 35.5t-1 43.5t-3.5 42t-3.5 46q0 14 1.5 24t1.5 21q0 8 -1 17t-3 21q-3 14 -4 22t-1 15q0 8 1 14.5t1 16.5q0 21 -3.5 41t-3.5 31q0 12 -0.5 22.5t-3.5 16.5
q0 1 -2.5 -3.5t-5.5 -11l-6 -13t-4 -8.5q-2 -4 -6 -16l-8.5 -25.5t-9 -26t-7.5 -17.5q-5 -10 -6 -19t-6 -30t-13 -43t-13 -38q-3 -8 -6 -23.5t-6.5 -32t-6.5 -31t-6 -19.5q-5 -11 -8 -27.5t-4 -29.5t-4.5 -36.5t-10.5 -40.5t-17 -23t-20 -6q-5 0 -8.5 9.5t-6.5 22t-6 26
t-7 21.5q-5 8 -11.5 27.5t-13.5 42t-12 42.5t-5 29q-1 17 -7 27t-8 27t-12.5 33t-12.5 29q-1 6 -4 10.5t-6.5 9.5t-6.5 13t-3 21q0 8 -3 19t-6.5 21t-7 16.5t-4.5 6.5q-3 -1 -5.5 -21t-4 -46t-3.5 -51t-3 -35q-2 -11 -2.5 -23t-1.5 -24t-1.5 -22t-1.5 -16q-1 -3 -1 -7v-9
q0 -8 0.5 -17t0.5 -17q0 -11 -2 -21q-1 -3 -1 -11q0 -9 1.5 -20t1.5 -21q0 -6 -2 -14q-3 -14 -2.5 -37t-1.5 -41q-1 -11 -2.5 -18.5t-1.5 -15.5q0 -17 -1.5 -28.5t-1.5 -21.5q0 -11 -7 -13t-15 -2q-7 0 -11.5 5t-4.5 19q0 23 1.5 37t6.5 33q3 17 8.5 34t5.5 32q0 7 -1 10
q-3 19 -3 40q0 7 0.5 13t1.5 11q3 12 5 32t2 43t2 49t4 48t3 33.5t5 21.5q2 4 2 14q0 5 -0.5 10.5t-0.5 12.5q0 5 0.5 10.5t1.5 12.5q0 4 0.5 7.5t0.5 7.5q0 13 -1 27t-1 27q0 19 4 32t4.5 26.5t0.5 27.5v17.5t2 16.5z" />
    <glyph glyph-name="N" unicode="N" horiz-adv-x="473" 
d="M60 693q6 7 19 7q8 0 14 -2.5t8 -5.5q1 -3 5.5 -10t9 -16t8.5 -18.5t5 -18.5q3 -17 14 -32.5t13 -32.5q3 -17 14 -29t15 -32q2 -10 5.5 -16t7.5 -12.5t9 -14.5t10 -21q5 -12 7.5 -18.5t4.5 -10.5l4.5 -9t7.5 -14q2 -2 3.5 -6.5t5.5 -10.5q5 -9 8 -18t3 -26
q0 -19 8.5 -26.5t15.5 -20.5t14 -28.5t13 -30.5q3 -8 7.5 -17.5l9 -19t8.5 -18t5 -12.5t4.5 -9.5t7 -10.5t7.5 -8.5t7 -3.5t3 3q1 5 1 18t0.5 27.5t1 26.5t2.5 15q1 2 1 13q0 8 -0.5 19t-0.5 19q1 14 4 38t3 44q0 4 -0.5 7.5t-0.5 6.5q-1 4 -1 9v11q0 14 1 32.5t1.5 35
t1.5 28t1 12.5v23q0 10 -0.5 22t-0.5 24q0 23 3 35q3 9 3 17q0 10 -2 19.5t-4 17.5t-3 22.5t-1 28.5q0 8 0.5 14.5t0.5 11.5q2 26 12 26q3 0 5 -1q8 -4 16.5 -6.5t10.5 -11.5q1 -3 1 -10q0 -8 -2 -19t-4 -25q-2 -10 -2 -17.5v-15t-1 -16.5t-4 -22q-2 -7 -2 -13.5v-13.5
q0 -14 1 -27t1 -24q0 -13 -2 -17t-2 -11q0 -8 2.5 -16.5t2.5 -22.5q0 -8 -1 -13q-2 -9 -2 -14.5v-10.5q0 -8 1 -11.5t1 -7.5q0 -7 -0.5 -14.5t-0.5 -15.5q-1 -23 -1.5 -35.5t-0.5 -22.5t0.5 -19t1.5 -20q0 -17 -3 -40.5t-3 -44.5q0 -17 -1.5 -30.5t-1.5 -30.5v-10.5t1 -11.5
q1 -5 1 -15q0 -20 -4 -36t-4 -39q0 -17 -7.5 -24t-18.5 -7q-5 0 -8.5 5t-7 12t-7.5 14.5t-10 12.5q-14 11 -21.5 25t-12.5 25q-6 11 -13.5 21t-14.5 22t-14.5 24t-8.5 23t-7.5 20t-14.5 21t-16 25t-9 30q-2 17 -6 22.5t-11 15.5t-13 22t-6 28t-8 24.5t-14 19.5q-3 5 -7 13.5
t-8 17.5t-8 16.5t-6 12.5q-2 3 -5.5 13t-8 20.5t-8.5 18.5t-5 8q-2 0 -4 -13.5t-4 -24.5q-2 -6 -2.5 -10.5t-0.5 -12.5q0 -11 3 -38q1 -8 1.5 -15.5t0.5 -13.5q0 -7 -0.5 -13.5t-1 -17t-2 -28t-2.5 -46.5q-1 -10 -2.5 -22.5t-1.5 -27.5q0 -19 4 -34q3 -17 3 -25
q0 -5 -0.5 -10.5t-1 -17t-1 -31.5t-0.5 -54q0 -9 1.5 -17.5t1.5 -16.5q0 -12 -4 -20q-3 -5 -8 -5t-9.5 4t-9.5 6q-7 2 -7 16q0 5 0.5 10t0.5 10q0 7 -0.5 16t-0.5 19q0 8 1 16.5t3 13.5t2.5 9.5t0.5 10.5q0 10 -1 21t-1 22t-1 24.5t-1 25.5q0 18 4 26q3 6 3 16
q0 13 -2.5 29.5t-2.5 32.5q0 18 2 33t4 25q2 5 2 12q0 11 -3.5 21t-3.5 21q0 15 5 31t5 27q0 10 -5 25.5t-5 28.5q0 4 2 10q3 6 3 15t-2.5 18t-3.5 16q-1 3 -1 17q0 16 2.5 35.5t7.5 26.5z" />
    <glyph glyph-name="O" unicode="O" horiz-adv-x="457" 
d="M200 698q19 12 55 12q14 0 26.5 -3t24.5 -12q11 -10 23 -18.5t21 -20.5q9 -14 16 -29t15 -29q11 -16 16 -35t5 -39t6 -38.5t6 -38.5q0 -3 -0.5 -5.5t-0.5 -5.5q-1 -3 -1 -6.5v-6.5q0 -18 4 -37t4 -48q0 -22 -3 -43.5t-11 -41.5t-6.5 -42.5t-5.5 -43.5q-6 -17 -9.5 -35
t-15.5 -32q-11 -11 -16 -24.5t-11 -27.5q-10 -21 -27 -35.5t-38 -17.5q-10 -2 -20 -3t-20 -1q-21 0 -40 6q-17 5 -32.5 13.5t-29.5 22.5q-6 6 -14 12t-14.5 12.5t-11.5 14t-5 17.5q0 8 -4 14.5t-8.5 13.5t-8.5 14t-4 15q0 19 -10 35.5t-10 35.5q0 6 -0.5 12t-0.5 12
q-1 19 -4 38t-3 39q0 14 3 29q3 10 3 23q0 11 -1.5 23t-1.5 23v8.5t1 8.5q5 32 11.5 63t18.5 60q7 17 14.5 36t22.5 29q13 8 18.5 20.5t16.5 21.5q14 11 28.5 18t28.5 17zM243 679q-20 -9 -37.5 -25t-27.5 -36t-16 -41t-17 -39q-6 -11 -8.5 -24t-3.5 -26t-1.5 -26.5
t-3.5 -25.5q-4 -17 -5 -37.5t-1 -53.5q0 -17 3.5 -34t3.5 -34q0 -14 3.5 -26.5t7 -24t7 -23.5t3.5 -25q0 -8 3 -15t7 -13.5t7.5 -13t4.5 -14.5q2 -22 13.5 -37.5t25.5 -29.5q9 -9 22 -13.5t27 -4.5t23 4q18 8 33.5 25.5t20.5 37.5q4 16 10 30t14 28q11 17 11 37t7 39
q7 20 7 41t2 42q0 5 0.5 9.5t0.5 9.5q0 14 -1 28.5t-1 28.5q0 20 -4 38.5t-4 38.5q0 25 -9.5 48t-9.5 48q0 3 -4.5 12.5t-10.5 19.5t-11.5 18.5t-7.5 10.5q-6 10 -12.5 20.5t-16.5 16.5q-9 6 -19 10t-20 4q-8 0 -15 -3z" />
    <glyph glyph-name="P" unicode="P" horiz-adv-x="412" 
d="M24 684q0 5 4.5 7.5t11 4t13.5 1.5t13 1q13 0 23.5 -0.5t19.5 -0.5q5 0 10 1t13 1q7 0 13.5 -1.5t14.5 -1.5q7 0 12 1q17 4 36.5 4.5t33.5 2.5q4 1 8 1h8q20 0 37 -6q11 -4 27 -9t26 -19q4 -7 7.5 -11.5t6.5 -8.5t6 -8.5t7 -12.5q8 -16 12 -28t6 -28q1 -5 1 -9v-9
q0 -9 -1.5 -18.5t-3.5 -21.5q-3 -18 -8.5 -28.5t-11.5 -22.5q-7 -12 -14 -27t-18 -22t-14 -14.5t-17 -18.5q-7 -6 -17 -11.5t-20.5 -10t-20.5 -8t-17 -3.5q-11 -1 -25.5 -3.5t-30.5 -2.5q-14 0 -14 9q0 3 3 8q5 7 15.5 8t27.5 3q20 2 39.5 13.5t33.5 28.5q6 7 10.5 17.5
t8 21t6.5 20t7 15.5q4 7 4 18q0 8 -1 16t-1 16q0 5 2 11q1 2 1 8q0 8 -2.5 17.5t-6.5 19.5q-3 8 -7 20t-6 20q-2 12 -11.5 19t-20.5 13l-3 2q-8 5 -13.5 7.5t-15.5 2.5q-2 0 -4.5 -0.5t-4.5 -0.5q-15 -2 -32.5 -2.5t-36.5 -7.5q-11 -4 -15.5 -12.5t-6 -19t-1.5 -20.5t-2 -17
q-3 -12 -3 -24q0 -9 1 -19t2 -23q1 -5 1 -9.5v-9.5q0 -17 -1.5 -33t-1.5 -33q0 -14 0.5 -27.5t0.5 -24.5v-11.5t-1 -10.5t-1 -8.5v-8.5v-19.5t1 -21.5q1 -8 1 -15v-12q0 -11 -0.5 -18.5t-0.5 -12.5v-13.5t-1 -17.5q-1 -9 -1.5 -15.5t-0.5 -11.5q0 -11 1 -18.5t2 -21.5
q0 -20 2 -37t2 -34t-2 -34t-12 -25q-11 -8 -17 -14.5t-11 -10.5q-4 -2 -8 -2q-7 0 -14 3.5t-10 10.5q-1 2 -1 5.5v6.5q0 10 3 21t3 23q0 8 -1.5 17.5t-1.5 19.5v8t2 8q3 9 3 16t-4.5 13.5t-4.5 12.5q-3 6 -3 26q0 10 1 22t1.5 23t1.5 20t1 14q0 17 -1 35t-1 33q0 7 0.5 11.5
t1.5 8.5q2 8 2 17q0 13 -1.5 28t-1.5 27v10t2 7q2 4 2 14t-1.5 24t-1.5 48q0 8 1 15.5t3 15.5q2 10 2 18q0 17 -2.5 36.5t-3.5 25.5q-1 9 -4 12.5t-7 4.5t-8 1t-7 1q-6 2 -6 19z" />
    <glyph glyph-name="Q" unicode="Q" horiz-adv-x="443" 
d="M207 700q12 2 20 6t19 4t31.5 -4.5t37.5 -14.5q8 -5 12 -9.5t7 -10t6 -12.5t10 -17t11 -16t6.5 -11t4.5 -11t5 -17q5 -22 9.5 -36t9.5 -37q1 -10 2.5 -18.5t3 -18.5t2 -23.5t0.5 -32.5q0 -35 -1 -63.5t-6 -45.5q-5 -19 -5.5 -39t-0.5 -43q-1 -14 -3.5 -34t-10.5 -34
q-5 -6 -8.5 -16t-6.5 -19.5t-4.5 -16.5l-1.5 -7q0 -5 9 -7t22 -10q7 -5 16 -5q5 0 8.5 1t6.5 1q6 0 9 -4q6 -9 6 -23q0 -6 -1 -11.5t-3 -10.5q-3 -5 -7 -5q-6 0 -14 5.5t-16 6.5q-5 0 -7 2t-4 4.5t-6 6t-13 8.5q-10 5 -17 5t-10 -3.5t-9 -5.5q-8 -3 -15.5 -9t-17.5 -20
q-5 -7 -9 -10.5t-8 -6t-8.5 -6t-10.5 -10.5q-8 -8 -18.5 -11t-21.5 -3q-8 0 -14.5 1t-10.5 1q-9 1 -22.5 5.5t-30.5 7.5t-23.5 11t-14.5 20t-15 23t-12 29q-2 9 -7 18l-10 18t-9 17t-4 16t-0.5 19t-0.5 23t1 23.5t4 19.5q2 6 2 9q0 12 -6.5 28t-6.5 33q0 8 1 12q3 13 3 27
q0 11 -1 21t-1 19q0 15 4 24q3 7 5.5 18t5 21.5t5 19t6.5 11.5t6 14.5t4 24.5t3.5 25t4.5 17q5 11 18.5 30.5t24.5 29.5q5 5 8 12.5t5.5 15t6 13t9.5 6.5t12.5 6t13 11t13 11t13.5 7zM227 656q-3 -5 -18 -15.5t-22 -29.5t-13.5 -33.5t-11.5 -28.5t-7 -34.5t-12 -41.5
q-5 -11 -8.5 -25t-6 -28.5t-4 -27t-2.5 -19.5q-1 -4 -1 -9.5v-12.5q0 -14 0.5 -32t0.5 -44q0 -17 1 -34.5t3 -32t5 -25t7 -14.5q4 -5 14.5 -10t22.5 -9t23.5 -7.5t19.5 -4.5q15 -3 29 -10t32 -7q31 0 43.5 12t17.5 36q4 19 4.5 40.5t5.5 41.5t10 39t5 40q0 13 -0.5 28
t-0.5 30v19.5t2 17.5q1 5 1 14q0 17 -2.5 33.5t-3.5 35.5q-1 13 -3.5 22.5t-5.5 17t-5.5 13.5t-3.5 13q-2 14 -11 30.5t-21 27.5t-25 19t-18 10q-2 1 -11 1q-8 0 -18 -1.5t-12 -4.5zM138 120q0 -5 3 -14t9.5 -19.5t16.5 -21t24 -17.5q5 -2 15 -4t21 -2q13 0 21 3q6 2 15 7
t18 11t16 10.5t8 6.5q1 3 -14.5 8.5t-26.5 8.5t-29 3.5t-25 5.5q-3 2 -10.5 5t-17.5 6t-19.5 5.5t-16.5 2.5q-8 0 -8 -5z" />
    <glyph glyph-name="R" unicode="R" horiz-adv-x="441" 
d="M30 696q6 6 21 6q11 0 22.5 -2t21.5 -4q8 -2 15 -2h13q32 0 51 2.5t27 3.5q20 -2 36 -2t33 -4q23 -5 33 -9.5t20 -4.5q9 0 23.5 -8.5t20.5 -22.5q3 -7 6 -10.5t7 -8t7.5 -10.5t8.5 -17q7 -16 10 -25.5t3 -17.5q0 -4 -0.5 -7t-1.5 -8q-2 -14 -1.5 -30.5t-9.5 -28.5
q-5 -6 -7.5 -12t-5 -11t-6 -10t-10.5 -9q-12 -7 -12.5 -12t-9.5 -14t-24.5 -18.5t-24.5 -13.5q-17 -7 -30 -15.5t-13 -22.5q0 -13 11 -28.5t22 -31.5q11 -17 17.5 -27t10.5 -29q1 -9 6.5 -18.5t12 -19t13 -18.5t10.5 -18q8 -17 12.5 -28.5t15.5 -23.5q11 -11 20.5 -28
t10.5 -31q0 -7 -2.5 -12.5t-6.5 -12.5q0 -2 -1 -2.5t-1 -2.5q-6 -11 -15.5 -18.5t-20.5 -7.5q-5 0 -7.5 4.5t-5 11t-5 13.5t-6.5 13q-8 11 -9.5 23t-6.5 21q-5 10 -14 23.5t-20 21.5t-15 24.5t-9 24.5t-12 15t-10 18t-9.5 21.5t-9.5 24.5q-2 7 -6.5 16t-10 17t-10.5 14t-8 8
q-5 3 -11.5 13.5t-6.5 22.5q0 5 1 8q5 14 15 17.5t24 8.5q14 4 33 14t29 16q9 6 18 22.5t18 27.5q8 11 11.5 30t7.5 32q1 3 1 7q0 8 -3.5 15t-3.5 15q0 5 1 8q1 2 1 7q0 14 -10 30t-13 27q-2 12 -14 26t-25 15t-22 5t-23 4q-7 0 -17.5 -1t-20.5 -1.5t-18 -1.5t-10 -1
q-8 0 -12 -7t-9 -16q0 -5 -3.5 -8t-3.5 -8q-5 -20 -5 -43q0 -10 1 -21t3 -23q3 -15 3 -21q0 -4 -1 -6.5t-2 -7t-2 -12.5t-1 -23q0 -14 0.5 -27.5t0.5 -24.5q0 -6 -0.5 -11.5t-1.5 -10.5q-1 -4 -1 -11q0 -11 2.5 -22t2.5 -26v-6.5t-1 -7.5q-1 -6 -1.5 -11t-0.5 -10
q0 -12 1.5 -23.5t1.5 -25.5v-11t-1 -12q-1 -10 -1.5 -18t-0.5 -15q0 -14 1 -26t1 -26v-17.5t-1 -11t-2.5 -8.5t-4.5 -9q-2 -6 -2 -8q0 -7 3 -15t3 -19v-7.5t-2 -8.5q-7 -22 -11 -33t-20 -18q-9 -3 -15 -3q-9 0 -13.5 5.5t-6.5 13.5q-2 11 -2 32v31q0 6 -1 14t-1 16
q0 12 4 20q2 4 2.5 9t0.5 11q0 8 -0.5 16t-0.5 15t1 10q1 2 1 13q0 9 -0.5 21.5t-1.5 25.5t-1.5 26t-0.5 23q1 4 1 9.5v12.5q0 14 -0.5 30t-0.5 27q0 8 1 20.5t2.5 25.5t3 25t1.5 19q0 9 -3 20.5t-3 23.5q0 5 2 13q2 10 2 15q0 11 -2.5 20.5t-2.5 20.5q0 14 3 36t3 34
t-7.5 17t-13.5 7q-5 2 -8.5 4.5t-3.5 10.5q0 3 2 11z" />
    <glyph glyph-name="S" unicode="S" horiz-adv-x="308" 
d="M221 645q0 10 -4 20t-12 15q-10 5 -20 5q-11 0 -18 -6q-13 -11 -23 -27.5t-13 -34.5q-2 -6 -2 -12v-12q0 -10 0.5 -19.5t1.5 -19.5q1 -14 7.5 -23.5t11.5 -21.5q3 -11 8 -22.5t10 -22.5q6 -15 17 -28.5t12 -31.5q1 -13 5 -25.5t14 -20.5q20 -16 31.5 -40t20.5 -48
q11 -29 11 -66q0 -35 -1 -53t-6 -32q-4 -13 -6 -27.5t-10 -25.5q-7 -9 -14.5 -17t-15.5 -16q-12 -14 -21 -23.5t-29 -15.5q-9 -3 -19 -3q-15 0 -30 5.5t-29 5.5q-13 3 -25.5 10.5t-18.5 21.5q-2 4 -2 12q0 17 14 29q3 3 7 3q8 0 17.5 -8.5t13.5 -16.5q5 -11 15.5 -23
t21.5 -12q12 0 23 6t20 16q11 11 15.5 27.5t12.5 30.5q5 8 6.5 16.5t1.5 17.5q0 10 -1 19.5t-2 18.5q-1 14 -9 24.5t-10 24.5q-2 13 -6 25t-9 24q-5 11 -13.5 20.5t-10.5 23.5q-2 11 -6 22.5t-13 19.5q-11 9 -21.5 19.5t-10.5 24.5q0 29 -21 47q-15 12 -22.5 32t-9.5 40
q-1 12 -4 24.5t-3 24.5q0 4 0.5 7t1.5 7q4 11 6 23.5t7 23.5q6 16 19 26.5t26 21.5q5 5 11.5 8t13.5 3q12 1 21.5 10.5t22.5 11.5q3 1 9 1q11 0 21.5 -3.5t21.5 -3.5q21 0 31 -21q7 -16 7 -30q0 -4 -2 -12q-3 -7 -7 -13.5t-12 -6.5q-10 0 -17.5 6.5t-7.5 19.5z" />
    <glyph glyph-name="T" unicode="T" horiz-adv-x="378" 
d="M23 698q4 8 13 8q5 0 10 -2t9 -4q3 -2 9.5 -3t13.5 -1q3 0 7 0.5t11.5 0.5t19.5 0.5t32 0.5q8 0 16.5 0.5t15.5 1.5q5 1 9.5 1h9.5q14 0 24.5 -1.5t18.5 -1.5q11 0 29 2t32 4q8 1 16 1.5t15 0.5q6 0 10 -0.5t7 -1.5q8 -3 8 -15q0 -2 -0.5 -4t-0.5 -4q-3 -13 -18 -13
q-2 0 -4 0.5t-4 0.5q-5 1 -14 1h-19h-19t-14 2q-2 1 -8 1q-10 0 -19.5 -4t-14.5 -9q-3 -3 -3 -19t2 -39t2 -44q0 -15 -0.5 -25.5t-0.5 -18.5v-14.5v-13.5q0 -15 2.5 -32.5t2.5 -43.5q0 -20 -7 -39t-7 -33q0 -8 1 -22t1 -30v-18.5t-2 -17.5q-1 -4 -1 -12q0 -14 5.5 -23
t5.5 -18q0 -10 -2 -14t-7 -22q-2 -10 -2 -17q0 -17 3 -38t3 -37q0 -13 -2.5 -29.5t-6.5 -23.5q-2 -5 -11 -8t-20 -3t-18 3q-14 5 -19.5 12.5t-5.5 18.5t3.5 24.5t5.5 21.5q0 1 0.5 2t0.5 3q0 11 -4 28t-4 30q0 6 1 8q3 11 6.5 22.5t3.5 29.5q0 14 -0.5 24t-0.5 21
q0 26 1.5 62t1.5 93v16.5t1 12.5t1.5 8.5t0.5 7.5q0 8 -3.5 16.5t-3.5 16.5q-3 9 -3 18q0 11 2.5 24t4.5 30q0 4 0.5 7.5t0.5 8.5q0 23 -3 46t-3 29q0 7 -9 13.5t-27 6.5q-9 0 -18 1t-17 1q-2 0 -4 -0.5t-4 -0.5q-10 -2 -20 -2q-11 0 -21 2q-8 1 -8 12q0 8 4 16z" />
    <glyph glyph-name="U" unicode="U" horiz-adv-x="472" 
d="M54 695q5 11 13.5 14t21.5 3h9h4q10 0 15.5 -6t11.5 -16q7 -11 7 -25q0 -7 -1 -15t-4 -19t-3.5 -19t-0.5 -14q0 -16 -1.5 -33t-1.5 -37q0 -11 -3 -24q-2 -10 -2 -15q0 -14 4.5 -27.5t4.5 -30.5t-2 -31.5t-2 -29.5v-9t1 -9q1 -8 1.5 -16t0.5 -16q0 -7 -1 -17t-2.5 -19
t-2.5 -15.5l-1 -6.5q-5 -15 -5 -17t1.5 -5t4.5 -11q3 -6 5 -17t3.5 -23t3.5 -24t5 -20q5 -17 14.5 -34.5t11.5 -37.5t22 -34.5t49 -14.5q22 0 34 11.5t21 23.5q8 10 16.5 23.5t13.5 22.5t12 29.5t15 36.5q9 16 11 36.5t6 38.5q2 9 3 25.5t1.5 33.5t1 31t0.5 19q1 4 1 14
t0.5 21t2 21.5t5.5 17.5t4 16q0 14 -2 28t-2 30q0 11 -1 23t-1 21q0 14 -1.5 27t-1.5 28q0 5 1 9t1 9q0 7 -1.5 17.5l-3 21t-3 19.5t-1.5 14t-0.5 12t-0.5 15t1 16t5 13q5 6 15 6q7 0 13 -1.5t10 -1.5q6 0 10.5 -11.5t4.5 -16.5t-5.5 -22.5t-7.5 -31.5q-1 -5 -1 -9.5v-9.5
q0 -23 2.5 -45.5t2.5 -46.5q0 -8 -3.5 -15.5t-3.5 -17.5q0 -12 3 -26t3 -26q0 -6 -1.5 -12t-1.5 -15q0 -8 1 -15.5t1 -14.5q0 -5 -2 -13q-2 -7 -2.5 -14.5t-0.5 -15t-1 -14.5t-5 -13q-6 -7 -6 -18q0 -7 1.5 -16t1.5 -26q0 -27 -2.5 -49t-6.5 -36q-3 -14 -6.5 -23.5
t-11.5 -15.5t-9 -23.5t-7 -30.5t-8.5 -21.5t-8.5 -14.5q-3 -3 -6.5 -3.5t-7.5 -2.5t-8.5 -6.5t-8.5 -15.5q-8 -22 -28.5 -34t-37.5 -19q-9 -4 -23 -4q-15 0 -29 3t-20 5q-9 2 -18.5 6t-20.5 7t-16 14t-16 27q-10 16 -15 23t-7 22q-3 15 -6 27.5t-5 27.5q-2 14 -7 27t-5 32
q1 11 1 15v7q0 15 -3.5 27.5t-3.5 35.5q0 10 -0.5 19.5t-0.5 20.5q0 10 2 20t2 21q0 23 -2.5 46.5t-2.5 58.5q0 11 0.5 22t2.5 21q1 4 1 12q0 11 -2.5 20.5t-2.5 17.5q0 7 2 11q3 6 4 15t1 17q0 18 -3 26q-3 6 -3 19q0 8 1.5 17t5.5 18z" />
    <glyph glyph-name="V" unicode="V" horiz-adv-x="464" 
d="M29 651q1 4 5.5 10.5t10 12.5t11.5 10t11 4q3 0 5.5 -4.5t4.5 -11.5t4.5 -15t6.5 -14q4 -8 8.5 -22.5t9 -32.5t8.5 -36t9 -32q4 -14 7 -22.5t5 -15t3 -13t2 -16.5q1 -20 9.5 -40t16.5 -42q4 -11 6.5 -17t4.5 -12t4 -13.5t5 -20.5q2 -14 2.5 -21t1 -11.5t2 -7.5t6.5 -8
q10 -11 14.5 -31.5t9.5 -49.5q2 -14 6 -30t9.5 -30t10.5 -23t9 -9q2 0 6 19t9.5 43t10.5 46.5t8 29.5q6 15 7.5 30t11.5 29q9 14 9.5 31t4.5 33q4 15 7.5 39t6.5 39q2 15 6.5 31.5t14.5 27.5q4 6 5 15t2 19.5t2 20.5t6 18q5 7 6.5 15.5t2 16.5t1 15t3.5 11t4.5 12.5
t2.5 17.5t1 17.5t1 13.5t3 15.5t4.5 21t6 19t8.5 10.5q1 0 2 0.5t2 0.5q8 0 15.5 -8.5t7.5 -15.5t-2 -16t-4 -17q-3 -10 -6 -19q-4 -17 -7 -29.5t-8 -30.5q-5 -17 -11 -39.5t-12 -45.5q-6 -22 -12 -38t-13 -39q-8 -23 -8.5 -41t-4.5 -42t-7.5 -42.5t-14.5 -48.5
q-5 -15 -7 -22.5t-3.5 -12.5t-3 -11.5l-4.5 -19.5q-7 -26 -9.5 -46.5t-13.5 -37.5q-6 -9 -8.5 -20t-3.5 -23t-1.5 -23t-1.5 -19q-2 -16 -6.5 -25t-15.5 -20t-15.5 -12.5t-19.5 -3.5q-8 0 -14 4.5t-10 11.5t-6.5 14.5t-3.5 12.5q-2 11 -8.5 24.5t-7.5 33.5q0 10 -1.5 16.5
t-4 12.5t-4.5 12.5t-2 16.5q0 9 -2 14.5t-4.5 10t-5 10t-4.5 14.5q-2 10 -3 18t-3 16t-5.5 16t-10.5 17q-14 20 -21.5 44.5t-7.5 45.5q-2 22 -10 32.5t-8 13.5q-2 2 -2.5 8.5t-2.5 14.5q-4 17 -9.5 28t-5.5 29q0 14 -7.5 31t-11.5 32q-3 8 -6 21.5t-6 27.5t-4.5 26t-1.5 18
q0 12 4 14.5t7 13.5z" />
    <glyph glyph-name="W" unicode="W" horiz-adv-x="603" 
d="M54 699q11 10 20 10t12.5 -7t4.5 -12q1 -6 5 -14.5t4 -22.5q0 -6 -1 -10q0 -2 -0.5 -4.5t-0.5 -4.5q0 -12 3.5 -20t4.5 -28q0 -12 2 -20.5t3.5 -16.5t3 -16.5t1.5 -19.5q0 -17 1.5 -34t1.5 -36q0 -6 -0.5 -13.5t-0.5 -20.5q0 -23 7 -43t7 -44q0 -19 1.5 -30t3.5 -19.5
t4 -16t3 -18.5q3 -26 4.5 -51.5t4.5 -41.5q1 -6 2.5 -19t4 -26.5t5.5 -23.5t6 -10t5.5 8t5.5 19t6 21t7 15q4 4 6.5 13t4.5 19.5t4.5 20.5t6.5 17q8 13 8.5 24.5t8.5 13.5q6 1 6 17q0 15 0.5 21t2.5 9q4 6 7.5 25t7.5 41t7.5 40t8.5 22q5 5 7 21t2 36q0 11 5.5 24t12.5 27
q1 3 3.5 9.5t5.5 13.5t7 12t9 5q6 0 11.5 -3.5t12.5 -23.5q8 -24 17 -51.5t9 -55.5q0 -10 5 -23.5t11 -23.5t6 -27t6 -31q3 -7 6.5 -20.5t7.5 -27.5t7 -27t3 -19t3 -18t6.5 -23t7 -19t5.5 -7q1 1 3 14t5 31t6 37t8 33q4 13 5.5 23.5t1.5 24.5q0 7 3 18.5t6.5 25t8 26
t7.5 21.5q7 18 6 25.5t3 17.5q2 5 3 15t1.5 20.5t1.5 20.5t4 15t4 14t1 17.5t0.5 16t2.5 9.5t4.5 13t4.5 24t3 25t1 18q0 7 -1.5 19.5t-1.5 23.5q0 8 1 14t5 8q7 6 16 6q7 0 19 -5q11 -4 11 -15q0 -7 -1 -12q-2 -11 -5 -25t-8 -28q-4 -13 -3.5 -25.5t-4.5 -30.5t-10 -37.5
t-11 -37.5q-3 -9 -3 -17.5t-0.5 -18.5t-2.5 -23t-8 -31t-9 -27.5t-4.5 -15.5t-2.5 -10.5t-4 -12.5q-3 -9 -5 -20l-4 -22t-4 -21t-3 -16q-4 -14 -3.5 -37.5t-12.5 -46.5q-6 -12 -8 -25t-2 -26.5v-26t-4 -21.5q-8 -18 -10.5 -35.5t-7.5 -22.5q-3 -2 -9.5 -5.5t-14.5 -3.5
q-10 0 -17 8q-8 11 -6.5 21t-5.5 20q-7 11 -6 20t-5 20q-5 11 -9 19t-6 19t-5 29t-8 26q-4 8 -6 25t-7 25t-9 24t-5 30q0 7 -3 20.5t-7 27.5t-8.5 24.5t-7.5 10.5q-2 0 -6 -8t-8.5 -19l-9 -22t-7.5 -18q-2 -6 -3 -15.5t-1.5 -20t-1.5 -19.5t-4 -12q-6 -7 -10.5 -19t-8 -26.5
t-6.5 -28.5t-7 -24q-7 -17 -11.5 -35.5t-12.5 -31.5q-4 -7 -5.5 -11t-2.5 -7t-2 -6.5t-5 -7.5q-8 -10 -9 -23.5t-6 -29.5q-4 -17 -11 -23.5t-15 -15.5q-4 -5 -8.5 -6t-9.5 -1t-9 0.5t-6 0.5q-3 0 -6.5 6.5t-7 15t-6 16.5t-2.5 12q0 6 -4.5 20t-4.5 27q0 5 2 10t2 11
q0 9 -6 19t-9 36q-3 23 -7.5 37.5t-4.5 25.5q0 7 2 13.5t2 14.5q0 13 -2.5 28t-6.5 25q-3 6 -5.5 16t-4.5 21.5t-3 23.5t-1 22q0 6 1 12t1 16q0 14 -2.5 30t-4.5 29q-2 14 -6 27t-4 23q0 14 -2 28t-3 30q3 12 3.5 16.5t0.5 7.5q0 13 -5.5 29t-7.5 27q0 18 35 49z" />
    <glyph glyph-name="X" unicode="X" horiz-adv-x="356" 
d="M30 700q8 9 27 9q12 0 22.5 -2.5t12.5 -6.5q4 -6 8 -18.5t7 -26.5q2 -14 12 -28t12 -33q1 -9 4 -14.5t7 -10t7 -10t5 -14.5q4 -18 7 -25t7 -18q3 -11 7.5 -20.5t6.5 -25.5q0 -2 2 -9.5t5 -15.5t6.5 -14.5t6.5 -6.5q4 0 8.5 8t8 19.5t7 22.5t6.5 17t4 10l2 8t2.5 8.5
t5.5 12.5q8 15 7 24t4 20t7 17.5t8 15.5t6 20.5t8 25.5t10.5 25.5t9.5 20.5q6 9 10 9q2 0 4 -0.5l6 -1.5q10 -3 10 -12q0 -3 -2 -13q-2 -11 -8 -18.5t-13 -23.5t-11 -24.5t-6 -22.5q-3 -14 -8.5 -24.5t-8.5 -19.5q-2 -9 -8 -23t-9 -28q-2 -14 -6.5 -27t-12.5 -28
q-9 -15 -11 -27t-6 -29q-1 -3 -1 -9q0 -15 5 -30t7 -25q2 -11 9 -30.5t12 -36.5q4 -17 10 -29.5t9 -29.5q1 -9 4 -13.5t6 -8.5t6 -9t3 -15t2 -15.5t4.5 -10t5 -8.5t5.5 -10q5 -12 11 -29.5t7 -25.5q1 -5 3 -14t2 -17q0 -9 -4 -14q-6 -9 -16.5 -18.5t-20.5 -9.5t-15 8.5
t-8 16.5q-2 8 -7 19t-10 17q-2 3 -4.5 10t-4.5 14.5t-3 15t-1 11.5q0 8 -7.5 21t-7.5 28t-5.5 24t-10.5 14q-2 2 -5.5 9t-6.5 15.5t-5.5 16.5t-2.5 13q-1 3 -3.5 12.5t-6.5 19t-8 17t-8 7.5q-10 0 -11 -15.5t-4 -32.5q-4 -17 -12 -30.5t-13 -28.5q-6 -15 -11.5 -33.5
t-13.5 -35.5q-4 -9 -5.5 -20.5t-2 -23.5t-1.5 -22.5t-3 -17.5q-5 -14 -5.5 -20t-11.5 -6q-3 0 -9.5 2.5t-13 6t-11.5 7.5t-5 7q0 5 4.5 15t8.5 24q2 7 6.5 17.5t10 21.5t11 21t8.5 17q6 14 7 25.5t9 22.5t10 19.5t3 19.5t7.5 25.5t14.5 27.5q7 11 9.5 28.5t2.5 28.5
q0 8 -2.5 18t-5.5 19.5t-5.5 18t-2.5 14.5q0 12 -9.5 23t-10.5 25q-2 14 -7.5 24.5t-8.5 23.5q-2 13 -8.5 29.5t-8.5 26.5t-8 22t-11 20q-4 7 -8 16t-4 17q0 2 0.5 4t0.5 6q0 9 -9.5 19t-14.5 21q-2 8 -2 10q0 5 3 9.5t8 10.5z" />
    <glyph glyph-name="Y" unicode="Y" horiz-adv-x="428" 
d="M43 692q6 6 12 6q4 0 6 -1.5t3 -2.5t6 -3t11 -6.5t11.5 -11.5t8.5 -16q5 -14 11 -21t17 -24t17.5 -28.5t13.5 -27.5q8 -17 17.5 -25.5t20.5 -22.5q7 -9 9 -16.5t9 -18.5q3 -6 8 -15.5t9.5 -18.5t8.5 -16t6 -7q3 0 7.5 6.5t9 15t8 16.5t6.5 10q5 5 9 21.5t9 28.5
q6 12 11.5 27.5t16.5 29.5t10.5 24.5t5.5 15.5q3 2 4.5 9.5t3 16t3.5 16.5t6 12t5.5 10t2 12t2 10.5t4.5 6.5q6 2 10 2q6 0 12.5 -2.5t10.5 -7.5q4 -4 4 -10q0 -7 -3.5 -13.5t-7.5 -10.5q-5 -5 -11.5 -19.5t-10.5 -21.5q-5 -7 -9 -20t-9 -24t-11 -26t-14 -21t-11 -18.5
t-7 -21.5q-5 -9 -10 -24t-13 -31q-7 -14 -10 -22.5t-10 -19.5q-4 -5 -5 -11.5t-1 -14.5q0 -5 0.5 -12.5t0.5 -21.5q0 -8 0.5 -18t0.5 -21q0 -18 -3 -27t-3 -19q0 -9 1 -20.5t2 -25.5v-26q0 -12 0.5 -22.5t2.5 -24.5q1 -5 1 -16q0 -17 -2 -35t-4 -31q-2 -16 -4 -25.5
t-10 -19.5q-4 -5 -10.5 -9t-13.5 -7.5t-12 -5.5l-5 -2q-3 0 -4 6t-1 14t-1 15t-1 18q0 9 1 20.5t1 21.5t-1 13q-2 8 -2 14q0 10 2 21.5t5 22.5q1 3 1.5 5.5t0.5 5.5q0 13 -4.5 26.5t-4.5 21.5q0 11 -2.5 38.5t-2.5 50.5q0 20 3 28q2 8 2 13q0 11 -2.5 20.5t-2.5 15.5
q0 8 -10 17.5t-14 17.5q-5 8 -9.5 16.5t-7.5 23.5q-1 7 -4.5 11.5t-8 7.5t-8.5 6t-7 8q-4 9 -13.5 21t-19.5 24t-18 23.5t-8 20.5q-2 18 -13.5 27.5t-15.5 17.5q-3 7 -11 16.5t-8 32.5q0 9 2 14t5.5 7.5t8 4.5t8.5 6z" />
    <glyph glyph-name="Z" unicode="Z" horiz-adv-x="368" 
d="M72 687q3 8 19 8q7 0 14 -1t15 -2q2 0 3 -0.5t3 -0.5q5 -1 10 -1h10q10 0 20 0.5t22 1.5q15 1 20.5 5t18.5 4q2 0 4.5 -0.5t4.5 -0.5q5 -1 16 -1q16 0 31.5 2.5t28.5 4.5q3 1 9 1q11 0 16.5 -6t10.5 -15q2 -4 2 -6q0 -9 -8.5 -17t-10.5 -16q-1 -5 -2.5 -13t-3.5 -17
t-4.5 -17.5t-5.5 -13.5q-6 -10 -9 -20t-13 -22t-13 -23.5t-8 -36.5t-7.5 -38t-10.5 -19q-4 -3 -9.5 -18t-11.5 -32.5t-11.5 -33.5t-9.5 -21t-7 -13.5t-6 -17.5l-5.5 -16.5t-4.5 -10.5q-3 -6 -9.5 -11t-14.5 -14q-4 -5 -5 -11.5t-2 -14.5t-3 -17.5t-8 -18.5
q-11 -19 -13.5 -30t-9.5 -26t-12 -32t-10 -27q-1 -1 -1 -3q0 -7 15 -7t26 -1q2 0 5 -0.5t5 -0.5q10 0 19 1.5t20 2.5q13 1 21.5 4t19.5 3q20 0 33.5 8t23.5 11q10 2 15 2q8 0 14.5 -2t11.5 -4q12 -7 12 -19q0 -3 -1 -5q-3 -6 -14 -9.5t-18 -5.5t-23.5 -6t-26.5 -7
q-13 -4 -29 -4q-20 0 -40.5 -0.5t-44.5 -0.5q-14 0 -23.5 -7.5t-22.5 -10.5q-14 -3 -30 -6.5t-34 -5.5q-10 0 -13 5.5t-3 15.5q0 3 0.5 6t0.5 6q2 16 5.5 29.5t10.5 26.5q8 13 12 31t8 27q5 9 7.5 22.5t11.5 17.5q5 2 7.5 13t5 24t4.5 24.5t6 15.5q8 8 12.5 21.5t15.5 28.5
q5 8 9 22.5t4 23.5q5 12 9 19.5t12 15.5q4 4 5.5 11.5t3 15.5t3.5 16t5 13q7 10 12 29.5t8 30.5q2 11 9 21t12 21q3 5 6 16t7 23.5t8 24.5t9 18q6 9 6 20q0 8 -2.5 14.5t-4.5 7.5t-7.5 1.5t-13 1l-15 1t-12.5 0.5q-10 0 -20.5 -5t-21.5 -6t-21 -4t-20 -5t-18 -2t-15 1.5
t-11 5.5t-4 10q0 5 1.5 10.5t2.5 11.5z" />
    <glyph glyph-name="bracketleft" unicode="[" horiz-adv-x="255" 
d="M95 718q1 -18 1 -26.5v-25.5v-33q0 -4 2 -16t2 -32q0 -10 -1.5 -22.5t-2.5 -23.5q0 -3 0.5 -12.5t1.5 -20t1.5 -20t0.5 -12.5q-1 -14 -1.5 -20t-1 -9t-1 -4t-0.5 -4q0 -8 0.5 -12t1.5 -9q0 -2 -0.5 -13t-0.5 -27.5t-0.5 -37.5t-0.5 -42q0 -11 0.5 -21.5t0.5 -22.5v-13
t-1 -15q-1 -9 -4.5 -10t-3.5 -10q0 -5 4 -17t4 -17v-20t0.5 -12.5t0.5 -11v-14.5v-30t-1 -7q-1 -6 -1.5 -12.5t-0.5 -12.5q0 -7 0.5 -13.5t1.5 -12.5q0 -3 0.5 -9.5t0.5 -14v-14.5v-11h11l14 2q8 0 11.5 -4t7.5 -4h9q5 3 3.5 4.5t4.5 2.5h2l1 1h4q5 -1 9.5 -1h9.5q8 0 11 1
t10 1q6 0 12 -0.5t8 -0.5q3 0 7.5 -4t5.5 -9q0 -2 0.5 -4t0.5 -6q0 -5 -1.5 -6.5l-3.5 -3.5t-3.5 -5.5t-8.5 -3.5q-13 2 -23.5 2.5t-15.5 0.5q-26 0 -38.5 -0.5t-22.5 -0.5t-18.5 -1t-18.5 -1q-25 -2 -31.5 -2.5t-11.5 -0.5q-8 0 -11.5 11t-3.5 18q2 22 2 41v27q0 3 -1 26.5
t-1 79.5q0 6 1 23t1 33q0 14 0.5 28.5t0.5 28.5v14t-1 15q-2 13 -2 24v22q0 20 1 33.5t1 18.5t-0.5 12t-0.5 23q0 8 0.5 19t0.5 25q0 19 -0.5 36.5t-0.5 33.5q0 38 0.5 65.5t0.5 41.5v9q-3 42 -3 82v22.5t1 22.5v23t2 15q4 8 12 8q2 1 5 1q5 0 12.5 0.5t15.5 0.5
q17 0 33 -0.5t20 -0.5q5 0 8.5 -2t6.5 -2h3q3 0 8 0.5t12 3.5q22 0 28.5 0.5t11.5 0.5q6 0 12 -0.5t8 -0.5q3 0 7.5 -4t5.5 -9t1 -6.5v-6.5q0 -4 -1.5 -5.5l-3.5 -3.5t-3.5 -5t-8.5 -3h-5q-7 1 -16 1h-18h-33q-4 0 -8 1t-6 1q-5 -1 -8 -2t-14 -1q-4 0 -9 -0.5t-7 -1.5
q-1 -1 -1.5 -7.5t-1 -15t-0.5 -16.5v-12z" />
    <glyph glyph-name="backslash" unicode="\" horiz-adv-x="351" 
d="M12 765q6 0 11.5 -1.5t10.5 -2.5q3 0 7 -6t7 -14.5t5 -16t3 -10.5q5 -14 10 -24t12 -30q8 -20 11 -35t11 -35q7 -20 15 -31.5t11 -28.5l3 -13.5t2 -7.5t2 -6.5t2 -9.5q2 -12 8.5 -24.5t12.5 -23.5l2 -3q3 -6 7.5 -16.5t8.5 -21.5t7.5 -20.5t5.5 -13.5q2 -5 2.5 -9.5
t0.5 -9.5q0 -13 -1 -16q0 -3 2 -8.5t5 -11t7 -9.5t7 -4q7 0 8.5 -12.5t13.5 -41.5q3 -7 4 -12.5t2 -10t3 -8.5t7 -10q6 -6 12 -21t11.5 -31.5t9.5 -31.5t6 -22q0 -11 4.5 -22t9.5 -20l21 -40q5 -8 5 -14q0 -5 -4 -11q-2 -3 -4 -4q-3 -1 -7 -1q-3 -1 -8 -1h-10
q-11 0 -16.5 5.5t-8.5 13.5q-2 9 -11 26t-14 35q-5 15 -11.5 26.5t-6.5 25.5q0 7 1 12q0 6 -4.5 14.5t-10 17.5t-10.5 18.5t-6 18.5q-16 35 -26.5 60.5t-18.5 48.5q-2 6 -6 15.5t-8 18.5t-8 16t-5 10q-2 5 -4.5 20t-4.5 24q0 2 -0.5 2.5t-0.5 1.5q-2 8 -6 12.5t-8 14.5
q-2 5 -3.5 11.5t-3.5 12.5q-2 7 -3 14l15 14l-14 8q-5 3 -10.5 6.5t-6.5 7.5q-1 3 -1.5 5t-0.5 5t1 7.5t3 10.5q0 1 0.5 1.5t0.5 1.5q0 9 -8.5 13.5t-8.5 6.5t-7.5 15.5t-15.5 35.5q-4 10 -5 17.5t-1 13.5t-1.5 12t-7.5 14q-8 11 -10.5 17t-2.5 10q0 3 0.5 5t1.5 4
q0 2 0.5 2.5t0.5 1.5q0 5 -5 8t-10 10q-6 9 -6 19q0 9 3 12q2 2 7 2t5.5 -2t5.5 -2z" />
    <glyph glyph-name="bracketright" unicode="]" horiz-adv-x="240" 
d="M170 29q-1 18 -1 26.5v25.5v33q0 4 -2 16t-2 32q0 10 1.5 22.5t2.5 23.5q0 3 -0.5 12.5t-1.5 20t-1.5 20t-0.5 12.5l1.5 19.5t1 9.5t1 4t0.5 4q0 8 -0.5 12t-1.5 9q0 2 0.5 13t0.5 27.5t0.5 37.5t0.5 42q0 11 -0.5 21.5t-0.5 22.5v13t1 15q1 9 4.5 10t3.5 10q0 5 -4 17
t-4 17v20t-0.5 12.5t-0.5 11v14.5v30t1 7q1 6 1.5 12.5t0.5 12.5q0 7 -0.5 13.5t-1.5 12.5q0 3 -0.5 9.5t-0.5 14v14.5v11h-11l-14 -2q-8 0 -11.5 4t-7.5 4h-9q-5 -3 -3.5 -4.5t-4.5 -2.5q-1 -1 -2 -1h-1h-4q-5 1 -9.5 1h-9.5q-8 0 -11 -1t-10 -1q-6 0 -12 0.5t-8 0.5
q-3 0 -7.5 4t-5.5 9q0 2 -0.5 4t-0.5 6q0 5 1.5 6.5l3.5 3.5t3.5 5.5t8.5 3.5q13 -2 23.5 -2.5t15.5 -0.5q26 0 38.5 0.5t22.5 0.5t18.5 1t18.5 1q25 2 31.5 2.5t11.5 0.5q8 0 11.5 -11t3.5 -18q-2 -22 -2 -41v-27q0 -3 1 -26.5t1 -79.5q0 -6 -1 -23t-1 -33
q0 -14 -0.5 -28.5t-0.5 -28.5v-14t1 -15q2 -13 2 -24v-22q0 -20 -1 -33.5t-1 -18.5t0.5 -12t0.5 -23q0 -8 -0.5 -19t-0.5 -25q0 -19 0.5 -36.5t0.5 -33.5q0 -38 -0.5 -65.5t-0.5 -41.5v-9q3 -42 3 -82v-22.5t-1 -22.5v-23t-2 -15q-4 -8 -12 -8q-2 -1 -5 -1q-5 0 -12.5 -0.5
t-15.5 -0.5q-17 0 -33 0.5t-20 0.5q-5 0 -8.5 2t-6.5 2h-3q-3 0 -8 -0.5t-12 -3.5q-22 0 -28.5 -0.5t-11.5 -0.5q-6 0 -12 0.5t-8 0.5q-3 0 -7.5 4t-5.5 9t-1 6.5v6.5q0 4 1.5 5.5l3.5 3.5t3.5 5t8.5 3h5q7 -1 16 -1h18h33q4 0 8 -1t6 -1q5 1 8 2t14 1q4 0 9 0.5t7 1.5
q1 1 1.5 7.5t1 15t0.5 16.5v12z" />
    <glyph glyph-name="asciicircum" unicode="^" horiz-adv-x="507" 
d="M19 327q25 33 38 53t19 31t8.5 16.5t7.5 9.5q5 5 12 7.5t11 7.5q2 4 2 6t-0.5 4t-0.5 4q0 4 1 5q8 11 20 20.5t20 19.5q2 3 4 7t4 7l16 22q7 9 15.5 17t13.5 16q6 8 9.5 14t6 10.5t5.5 8.5t8 10q9 9 20 9q15 0 26 -15l20 -24q2 -3 3 -9t3 -9q2 -2 5 -1.5t5 -1.5
q14 -12 18 -21.5t12 -20.5q5 -6 13 -8.5t10 -9.5l9 -26l18 -25q4 -6 13 -7.5t13 -6.5q1 -1 1 -6q0 -4 -0.5 -8.5t-0.5 -8.5t1 -5q5 -8 11.5 -15t11.5 -13q21 -29 31.5 -46t12.5 -20q1 -2 1 -6q0 -5 -3 -11.5t-5 -11.5q-2 -4 -10 -6t-13 -2q-8 0 -11 5l-19 23q-6 8 -13 15
t-12 18q0 4 0.5 6t0.5 4q0 1 -2 5q-5 7 -15.5 11t-16.5 12q-7 9 -7 24.5t-8 25.5l-19 4q-2 3 -2.5 9.5l-1 13t-1 11.5t-3.5 5t-7 -1.5t-8 -1.5q-3 0 -5 2q-8 7 -12 15t-10 16q-2 2 -4 5t-2 4q0 4 -4 6l-6 3q-8 4 -8 9.5t-4 10.5q-3 4 -4 6.5t-6 2.5t-6 -4.5t-4 -9.5l-38 -52
q-2 -3 -13 -3.5t-13 -3.5q-1 -1 -1 -3q0 -4 3 -8.5t3 -9.5q-7 -14 -13.5 -20.5t-13.5 -15.5l-22 -31q-2 -3 -4 -8.5t-4 -8.5q-5 -6 -10 -11t-10 -11q-13 -16 -24.5 -31.5t-22.5 -29.5q-3 -3 -6 -3q-2 0 -4 0.5t-4 0.5q-14 0 -16 2q-5 4 -10 11t-5 12v4t2 4z" />
    <glyph glyph-name="underscore" unicode="_" horiz-adv-x="543" 
d="M10 -48q0 5 5 10.5t12 5.5q7 1 8.5 4t11.5 4h46q5 -1 12.5 -4t12.5 -3q1 0 1.5 0.5t1.5 0.5q1 1 7 2t13 2t14 1.5t10 0.5q8 0 19 -2t19 -4h6q8 0 19.5 1.5t30.5 1.5h47q7 0 8.5 -6t5.5 -6q5 0 15 4.5t15 6.5q3 2 16.5 2.5t27.5 0.5q8 0 14 -0.5t8 -0.5q5 0 12 0.5t12 0.5
q7 0 8 -1q2 -1 10 -1.5t17 -0.5q6 0 11 0.5t7 0.5q3 1 13.5 1h15.5q5 -1 9 -3.5t4 -7.5q0 -3 -1.5 -8t-4.5 -10.5t-7.5 -9.5t-10.5 -5h-6q-12 0 -27 2.5t-23 2.5q-5 0 -6 -1q-4 -4 -10 -5t-20 -1q-11 0 -30 0.5t-34 0.5h-16q-11 0 -25 3t-26 3q-9 0 -15 -3q-9 -4 -25 -4
q-14 0 -29 2t-24 2q-4 -2 -14 -2q-7 0 -15 0.5t-16 0.5q-11 0 -14 -1q-6 -1 -15 -1.5t-19 -0.5q-12 0 -22 0.5t-15 1.5q-2 0 -3.5 0.5t-3.5 0.5q-6 0 -11.5 -1.5t-13.5 -1.5q-11 1 -17 10t-6 14z" />
    <glyph glyph-name="grave" unicode="`" horiz-adv-x="190" 
d="M165 446q8 0 8 -7t-10 -7q-9 0 -15 3q-7 2 -9.5 6t-8.5 4q-2 0 -4.5 1t-5.5 1q-4 0 -6 1.5t-4 2.5q-2 0 -10 4q-4 2 -7 4q0 5 -6 6.5t-11 4.5q-8 5 -12 8.5t-9 6.5q-4 4 -5 8.5t-1 8.5q-3 2 -8 3t-13 8q-2 4 -7 10.5t-5 9.5q0 13 7 15t12 7q7 7 17 7q5 0 10.5 -5.5
t7.5 -10.5q3 -12 10.5 -15.5t9.5 -15.5q2 -5 8.5 -9.5t8.5 -7.5q3 -2 3 -4.5v-5.5q0 -5 5 -5t9 -5q5 -5 9.5 -8.5t5.5 -4.5q4 -4 7 -5.5t8 -7.5q6 -6 11 -6z" />
    <glyph glyph-name="a" unicode="a" horiz-adv-x="318" 
d="M83 271q-8 0 -17 4.5t-9 17.5q2 15 5 22.5t7 11.5q8 8 13 18q4 11 21 24q10 7 17.5 10t11.5 10t15 10.5t33 3.5q16 0 23 -3t15 -8q9 -5 17.5 -14t13.5 -18t7 -19.5t8 -17.5q5 -5 4.5 -13t1.5 -15t2 -14.5v-16.5q0 -20 -1.5 -32.5t-1.5 -21.5q0 -10 2 -14q4 -9 5 -27
t1 -34q0 -11 -1 -18t-1 -13q0 -5 1 -11.5t1 -17.5q0 -14 -0.5 -30t-1.5 -28q-1 -17 -4 -22t-4 -10t-1.5 -10t-2.5 -9q-3 -4 -7.5 -3t-7.5 -3q-3 -5 -9 -5q-4 0 -8 3q-10 9 -12 29q-1 17 -9 25q-3 4 -7 4q-3 0 -7 -3q-5 -4 -15 -7t-11 -3q-4 0 -9 -4.5t-19 -4.5
q-8 0 -13.5 -2t-11.5 -2q-12 0 -28 5t-30.5 14.5t-25.5 22t-12 27.5q0 5 -0.5 8t-0.5 5q0 11 2 11.5t4 2.5q2 3 2 11.5t3 16.5q4 8 16.5 19.5t22.5 17.5t21 14t22 12q22 7 41 9q6 1 10 2.5t9 1.5q2 0 4 -0.5t5 -1.5q7 -2 13 -4.5t10 -2.5q5 0 5 4q0 3 0.5 10t0.5 15t-0.5 16
t-0.5 14q-1 9 -2.5 17t-1.5 17q0 11 -2.5 20.5t-3.5 20.5q0 20 -4 31q-8 25 -28 25q-16 0 -26.5 -9t-23.5 -11q-10 -2 -10 -4.5t-2 -7.5t-4 -13t-2 -31q0 -9 -1 -12q-2 -5 -6 -8.5t-10 -3.5zM209 128q0 12 -3.5 14t-7.5 7q-5 5 -13.5 7.5t-16.5 2.5q-11 0 -19.5 -4t-19.5 -4
q-5 0 -8.5 -1.5t-6.5 -1.5q-4 0 -12.5 -5t-13.5 -8t-9.5 -10t-4.5 -18t1.5 -19t8.5 -22q4 -8 10 -14t8 -11q3 -5 13.5 -5.5t15.5 -5.5q4 -4 11 -4t17 4l9 3t14 3t19 4t10 10q0 2 0.5 3.5t0.5 3.5q0 6 -1 13.5t-1 21.5t-0.5 19t-0.5 17z" />
    <glyph glyph-name="b" unicode="b" horiz-adv-x="364" 
d="M49 694q1 5 6 11t9 20q5 14 9.5 16t15.5 6q6 2 8 2q14 0 17 -27q1 -9 1 -19v-21v-20.5t2 -18.5q1 -4 1 -8v-8q0 -14 -1.5 -28t-3.5 -27q0 -3 -0.5 -6.5t-0.5 -6.5q0 -14 1.5 -26t3.5 -20q1 -3 1 -12q0 -16 -2 -39t-2 -38q0 -13 -0.5 -21.5t-0.5 -17.5v-10t1 -10
q1 -13 7 -13q3 0 7 4.5t7 10.5q5 11 17 20.5t22 14.5q9 4 23.5 7t25.5 3q8 0 11 -1q5 -2 14 -5.5t17.5 -8.5t16 -11t9.5 -11q5 -11 12 -28t15 -28q4 -6 5.5 -17t1.5 -24.5v-28.5t1 -27q0 -5 0.5 -9t0.5 -9q0 -19 -3 -34t-8 -23q-8 -10 -9 -18t-3 -17q-4 -9 -12.5 -21.5
t-18.5 -21.5q-5 -5 -10 -9.5t-10 -7.5q-5 -4 -10 -7q-2 -6 -6 -10q-3 -4 -8 -7t-13 -3q-15 -1 -22 -5t-20 -4q-11 0 -23.5 0.5t-20.5 5.5t-20 5q-3 0 -5 -7.5t-2 -11.5q-1 -8 -4 -18.5t-14 -16.5q-12 -7 -19 -7q-9 0 -10 14q-1 5 -1 15v5.5t1 12t2.5 23.5t4.5 41q0 5 -2 15
q-3 11 -4 22t-1 22v23q0 12 -3.5 26.5t-3.5 31.5q0 5 0.5 9.5t1.5 9.5q3 18 3 31q0 11 -1 19.5t-1 17.5q0 7 -0.5 12t-1 9.5t-1 11t-0.5 17.5q0 32 0.5 48t2.5 27q1 5 1 10.5v10.5q0 8 -1 18t-3 25q-1 7 -1.5 13t-0.5 11q0 13 1.5 20.5t1.5 14.5t1 19.5t1 26.5q0 5 -0.5 9.5
t-0.5 9.5q-2 15 -3.5 31.5t-1.5 24.5q0 9 1 12.5t2 8.5zM124 295q0 -20 -4 -43t-9 -39q-2 -10 -2 -15q0 -11 3 -21.5t5 -27.5q1 -7 1.5 -12t0.5 -10q0 -6 -0.5 -11.5t-0.5 -10.5q0 -3 0.5 -6t0.5 -7q1 -8 1 -12.5t0.5 -8t1.5 -7t3 -9.5q3 -9 11 -9q5 0 11 0.5t12 0.5
q6 -2 12.5 -2.5t23.5 -0.5q8 0 11 1.5t4.5 3.5t2.5 4t6 4t10 8t8.5 13l7 14l5.5 11q3 8 5.5 25.5t6.5 29.5q5 15 5 26t-2.5 21.5t-2.5 24.5q0 5 0.5 9.5t0.5 8.5q0 8 -4 13q-4 4 -5 14.5t-1 27.5q0 8 -1 15t-5 13q-8 14 -12.5 25t-16.5 17q-6 3 -11 3q-7 0 -14 -3t-17 -5
q-6 -2 -9.5 -4.5t-6 -6t-5 -8t-8.5 -9.5q-10 -9 -16.5 -15.5t-6.5 -29.5z" />
    <glyph glyph-name="c" unicode="c" horiz-adv-x="307" 
d="M250 303q-14 2 -16.5 9.5t-2.5 15.5q0 7 3.5 10t3.5 9q0 5 -2 9q-2 6 -2.5 9.5t-1 6t-2 4.5t-4.5 7q-9 11 -22 11q-11 0 -19.5 -7t-17.5 -17q-8 -9 -15 -18.5t-9 -23.5t-8.5 -23.5t-7.5 -14.5q0 -5 -3 -19t-7 -28q-3 -12 -3 -25q0 -8 0.5 -16t0.5 -18q0 -9 -1 -17t-1 -27
q0 -22 5.5 -41t8.5 -30q2 -11 8.5 -18t14.5 -19q5 -9 15.5 -14.5t18.5 -5.5q4 0 6 1q17 5 32 17q7 5 10 13.5t8 16.5q2 3 2 11t-2 15.5t-2 8.5q0 6 6.5 10t16.5 8q6 2 7 2q6 0 8.5 -5.5t2.5 -12.5q0 -4 -0.5 -7.5t-0.5 -17.5q0 -8 -6 -16t-14 -15q-7 -8 -11 -15.5t-12 -14.5
t-18 -13.5t-23 -8.5q-5 -1 -16 -1q-10 0 -19 1t-15 1q-7 1 -21 8t-23 10t-18 9t-11 13q-3 7 -7.5 17t-14.5 28q-5 9 -7 20.5t-3 23t-1 21v15.5q0 5 -0.5 9t-0.5 8q0 10 4 15q3 4 3 13q0 5 -0.5 10.5t-0.5 12.5q0 3 0.5 6t0.5 6q1 17 10.5 38.5t15.5 31.5q7 10 9 20.5
t13 15.5t12 8.5t6 13.5q5 9 15 14t16 13q12 17 40 17q5 0 4.5 2.5t10.5 5.5q9 3 17 3q14 0 30 -8l16 -8t8 -11q2 -5 4 -13.5t2 -17.5t1.5 -16.5t1.5 -19.5q0 -7 -6.5 -14.5t-13.5 -7.5q-2 0 -3 0.5t-3 0.5z" />
    <glyph glyph-name="d" unicode="d" horiz-adv-x="356" 
d="M250 687q1 14 11 16t18 8q4 3 9 3q6 0 11 -5t6 -13q1 -9 2.5 -25t1.5 -29q0 -14 -2.5 -27.5t-2.5 -30.5q0 -5 0.5 -11t0.5 -11q0 -11 -1 -20.5t-3 -12.5q-3 -5 -3 -19q0 -9 1 -21t3 -24q2 -14 3 -25t1 -20q0 -11 -1 -16q-2 -11 -2.5 -34.5t-3.5 -50.5q0 -5 -0.5 -9.5
t-0.5 -7.5q0 -10 1 -15.5t2 -24.5q0 -13 -1 -28t-1 -30q0 -5 0.5 -9t0.5 -8q2 -15 3.5 -22t1.5 -19q0 -3 -0.5 -6.5t-0.5 -7.5q-1 -5 -1 -8.5v-6.5q0 -9 1 -14.5t1 -13.5q0 -25 1.5 -40t1.5 -25q0 -5 -2 -11q-1 -1 -1 -5q0 -7 2.5 -15.5t2.5 -15.5q0 -9 -5 -11t-8.5 -3
t-7.5 -1q-13 0 -18 17q-4 15 -6.5 22t-2.5 15t-2 10.5t-4 2.5q-5 0 -8.5 -2.5t-7.5 -2.5q-12 -4 -20 -9t-16.5 -9.5t-19 -7.5t-25.5 -3q-18 0 -39 4t-32 18q-9 10 -14 15t-8 8.5t-4.5 8.5t-3.5 16q-4 23 -10.5 39t-9.5 32q-1 5 -1 10.5v11.5q0 14 1.5 28t3.5 28q4 20 5.5 33
t6.5 31q3 9 6 11.5t6 4t6 4t5 12.5q5 20 14.5 32t19.5 21q11 8 28.5 20t31.5 14q5 1 10 1h11q11 0 22.5 -0.5t16.5 -0.5t6.5 7t1.5 18v34q0 10 -1 20.5t-1 18.5q0 10 5 14q3 2 3 9q0 5 -1 10.5t-1 9.5v31t0.5 21t0.5 15v13t1 18t2 21.5t2 19t1 10.5zM202 372
q-9 -1 -19.5 -5.5t-20.5 -11.5q-20 -15 -20 -33q0 -9 -7.5 -20.5t-12.5 -28.5q-4 -15 -9 -28.5t-5 -28.5q0 -7 0.5 -10.5t0.5 -5.5q0 -9 -1.5 -17t-1.5 -17q0 -4 0.5 -7.5t1.5 -8.5q3 -14 3 -23q0 -8 -1 -15.5t-1 -16.5q0 -14 8.5 -27.5t16.5 -21.5q14 -19 32 -25q3 -1 9 -1
q14 0 32 10q11 7 19.5 15.5t11.5 14.5q3 7 3.5 17.5t5.5 23.5q2 4 2 14t-2 20.5t-2 25.5q0 8 -1.5 19t-1.5 21q0 7 1 10q3 12 3 29q0 8 -0.5 15t-1.5 13q-2 11 -2.5 29.5t-0.5 33.5t-3.5 24.5t-9.5 11.5q-5 2 -12.5 3.5t-13.5 1.5z" />
    <glyph glyph-name="e" unicode="e" horiz-adv-x="283" 
d="M29 258q1 8 3.5 11t5.5 4t5.5 1.5t4.5 2.5q3 5 6 11.5t5 14.5t6.5 20.5t9.5 18.5t8 17t8 16q6 6 20 15.5t22 11.5t14 8.5t11 10.5q6 4 10.5 4t6.5 1q5 0 13 2t9 2q8 0 15 -6t14 -14q15 -20 15 -40q0 -26 0.5 -35t2.5 -12q4 -8 7 -17.5t3 -17.5q0 -7 -4 -12t-15 -5
q-26 0 -36 -3q-5 -3 -13 -3t-15 -1q-5 0 -11.5 0.5t-12.5 0.5q-8 0 -11 -1q-7 -2 -14.5 -5t-8.5 -14q-2 -29 -4 -47t-3.5 -29t-2 -17.5t-0.5 -12.5q0 -11 3 -18t3 -13t1 -17.5t3 -20.5q2 -8 6 -10.5t6 -11.5t6.5 -15.5t8.5 -11.5q5 -5 12 -6.5t15 -1.5q6 0 11.5 1t11.5 9
q7 8 11 12.5t7 18.5q2 14 6 18t5 10q3 13 17 13q5 0 8 -6.5t3 -14.5q0 -7 -3 -13q-5 -11 -9 -18.5t-9 -17.5q-5 -9 -7.5 -16t-10.5 -14t-15 -11t-18 -6q-2 0 -4.5 -0.5t-4.5 -0.5q-7 0 -13.5 1t-16.5 3q-14 1 -22 4t-14 8l-8 6l-1 1q-2 1 -4 4q-2 2 -4 5t-4 8
q-5 9 -7.5 11.5t-7.5 11.5q-6 9 -11 19.5t-7 25.5q-4 36 -5.5 64.5t-1.5 51.5q0 11 2.5 21t2.5 23q-1 2 -3.5 2.5l-5 1t-4.5 2.5t-2 7zM125 299q1 -7 7 -7q7 -1 10 -1.5t7 -0.5q7 0 14 2t17 2q7 0 11 -1t9 -1q7 0 9 7t5 17q1 3 1 10t-1 13.5t-2 14.5q-1 10 -5.5 12t-6.5 15
q-1 13 -6.5 18t-10.5 6q-4 0 -10 -4t-11 -9q-5 -6 -9.5 -7t-7.5 -8q-5 -6 -7.5 -12.5t-5.5 -16.5q-1 -2 -1 -7t1 -9t1 -8q0 -2 -2 -6t-4.5 -6t-2.5 -7q0 -4 1 -6z" />
    <glyph glyph-name="f" unicode="f" horiz-adv-x="258" 
d="M217 664q-5 7 -9.5 8t-11.5 3q-1 0 -1.5 0.5t-1.5 0.5q-7 0 -16 -6t-15 -14q-7 -8 -11.5 -9.5t-9.5 -9.5t-8 -16.5t-8 -24.5q-3 -11 -3 -24q0 -14 1.5 -28t2.5 -23q0 -18 -3.5 -39t-3.5 -53h29t16 1q4 1 7.5 1.5t8.5 0.5q9 0 19 -2q8 -2 13 -5.5t5 -9.5q0 -3 -1 -5
q-2 -5 -8 -4.5t-15 -2.5q-11 -3 -19 -3q-3 0 -6 0.5t-6 0.5q-2 1 -15 1h-28q0 -21 4 -40q1 -5 1 -10v-10q0 -17 -2 -31.5t-2 -19.5q2 -9 3 -31.5t1 -39.5t-2.5 -30.5t-2.5 -23.5q0 -8 2 -20.5t2 -23.5q0 -4 -1 -7t-1 -8q0 -8 2.5 -16t2.5 -17v-14.5t-0.5 -18t-1.5 -18
t-2 -13.5q-3 -10 -12 -17t-20 -7q-10 0 -17 7t-7 15t-1 25.5t-3 34.5q-2 10 -3 22.5t-1 24.5q0 18 3 26q2 5 3.5 9.5t1.5 10.5t-3 17q-2 9 -2.5 16t-0.5 15t-1 15t-1 18t1.5 22.5t3.5 25.5q0 7 -3.5 27.5t-3.5 37.5q0 4 1 8.5t1 10.5q0 7 -1.5 12.5t-2.5 12.5q-4 -1 -10 -2
t-11 -1q-10 0 -13 7q0 2 -0.5 2.5t-0.5 2.5q0 11 14 13q6 1 11 3t11 4q0 4 -0.5 7.5t-0.5 7.5q0 10 4 18q6 13 5.5 32t1.5 33t3 26t4 28q4 16 11.5 34.5t12.5 27.5t13.5 17.5t13.5 12.5q2 2 7 2.5t10 1.5t10 2.5t8 6.5q11 19 43 19q14 0 30 -7t16 -16q0 -5 3.5 -9t5.5 -7
q2 -4 4 -11t2 -13q0 -4 -0.5 -8t-2.5 -9q-4 -7 -11 -9.5t-13 -2.5t-8 1q-7 2 -10 7.5t-3 10.5q0 2 0.5 2.5t0.5 1.5q1 4 3 9.5t2 10.5q0 4 -3 9z" />
    <glyph glyph-name="g" unicode="g" horiz-adv-x="326" 
d="M240 385q2 0 2 9.5t8 15.5q8 5 14 8.5t11 3.5t9.5 -8.5t4.5 -20.5q0 -2 -0.5 -4t-0.5 -4q-2 -15 -1.5 -25.5t-1.5 -24.5t-1.5 -33.5t-0.5 -37.5q0 -9 -1.5 -22t-3 -26.5t-3 -26t-1.5 -18.5q0 -8 -0.5 -9.5t-0.5 -3.5q0 -4 1 -9q1 -6 1 -12v-14v-16t2 -17q2 -13 3.5 -22.5
t1.5 -20.5v-10t-2 -11q-4 -20 -5 -46.5t-2 -43.5q-1 -9 -1 -20.5t-0.5 -24t-1.5 -25t-4 -22.5q-4 -14 -8 -20t-9 -20t-15 -23t-19 -16q-9 -6 -22 -10t-24 -4t-26 4t-22 8q-6 4 -11.5 15t-5.5 19q0 12 9 23t23 11q15 0 21 -15q0 -9 -2 -15.5t-5 -16.5q0 -5 8 -9.5t19 -4.5
q18 0 28 26q5 13 9 23t8 30q3 21 3 31t-2 19.5t-2 22.5q0 8 1 14.5t1 12.5q0 15 -1.5 32t-1.5 33q0 9 -0.5 12t-1.5 4t-1.5 2t-0.5 6q0 7 -3 7q-2 0 -5.5 -3.5t-5.5 -6.5q-3 -5 -11.5 -12.5t-18.5 -9.5q-8 -2 -11 -3.5t-8 -6.5q-3 -3 -11.5 -4.5t-17.5 -1.5q-8 0 -12 1
q-9 2 -20.5 6.5t-14.5 12.5q-4 8 -14.5 19t-12.5 20q-2 10 -3 16t-6 23q-4 13 -4 28q0 8 1.5 16t3.5 17q2 5 2 15q0 9 -2 18t-2 20q2 12 4 23t5 25q2 15 9.5 23t9.5 12q2 5 2 12.5t2 16.5q4 10 14 26t18 21q7 5 10.5 11t11.5 8q7 2 14.5 5.5t15.5 5.5q7 2 14 6.5t19 4.5
t20 -2t12 -10q3 -8 9 -10t10 -2zM225 348q-3 9 -6.5 11.5t-7.5 8.5q-6 11 -20 11q-5 0 -7 -1q-9 -2 -16.5 -5t-14.5 -11q-8 -8 -10.5 -21t-9.5 -23q-8 -9 -12.5 -16.5t-6.5 -19.5q-2 -11 -2.5 -24.5t-2.5 -24.5q-1 -5 -1 -11v-12v-12t-2 -11q-3 -11 -5.5 -24t-2.5 -26
q1 -19 3 -26t4 -23q2 -15 9 -24t10 -17q2 -7 11.5 -12t16.5 -5q20 0 32 11t21 26q6 9 8 18.5t3 20.5v30.5v17.5t0.5 9t0.5 5q3 14 4 30t3 32q1 14 1.5 32t0.5 31v14q0 6 1 13t1 14q0 8 -3 14z" />
    <glyph glyph-name="h" unicode="h" horiz-adv-x="357" 
d="M57 651q3 29 3 50.5t12 27.5q13 6 18 11.5t10 7.5q1 0 1.5 0.5t1.5 0.5q5 0 12 -6t9 -17q0 -2 0.5 -4.5t0.5 -5.5q0 -9 -1 -21t-1 -32q0 -8 0.5 -14t0.5 -12q0 -23 -4 -36q-1 -6 -2 -19t-2 -28.5t-2.5 -30t-2.5 -23.5q0 -2 -0.5 -4.5t-0.5 -4.5q0 -12 3.5 -19t4.5 -21
q0 -5 0.5 -9t0.5 -9q0 -14 -1 -27.5t-1 -23.5q1 -13 2 -27t6 -14q7 0 20 11.5t24 14.5q8 2 19.5 9t22.5 7q6 0 9 -2q11 -7 22.5 -8.5t19.5 -4.5q4 -2 10 -8t11.5 -15t10 -19.5t5.5 -20.5q3 -17 6 -32t3 -26q-2 -16 -4 -30t-2 -31q1 -12 2.5 -28t1.5 -30q0 -16 -1 -24t-1 -16
q0 -7 1 -11q1 -8 3.5 -13t2.5 -12q0 -2 -2 -10q-5 -11 -8 -16t-10 -8q-2 0 -5 -1.5t-5 -1.5q-5 0 -10 4q-7 5 -12 8.5t-11 9.5q-8 8 -8 17q0 2 2 8q1 5 3 13.5t2 18.5q0 4 -0.5 7t-1.5 7l-3 12t-1 9q0 2 0.5 5t1.5 8q4 13 6.5 17t2.5 16q0 6 -0.5 15.5t-1.5 21t-1.5 23
t-0.5 20.5q0 14 -3 23.5t-4 16.5q-1 8 -8 16t-9 19q-3 10 -11.5 17t-18.5 7q-14 -2 -20 -7.5t-13 -10.5t-13.5 -8t-12.5 -12q-5 -9 -9 -23.5t-9 -27.5t-4.5 -22.5t-1.5 -25.5q-1 -4 -1 -8v-9q0 -11 0.5 -23t0.5 -32q0 -10 1 -17.5t1 -15.5q0 -5 -0.5 -8.5t-2.5 -8.5
q-5 -12 -5.5 -24.5t-1.5 -23.5q0 -11 1 -22t1 -20q0 -13 -3 -19q0 -1 -0.5 -1.5t-0.5 -1.5q-4 -11 -9 -19t-19 -8q-7 0 -11 1q-8 2 -12 15t-4 31v8.5t1 8.5q2 16 3 28t1 24v11.5t-1 12.5q-2 16 -2.5 33t-0.5 33q0 13 1 22.5t2 17.5t2 16.5t1 20.5q0 9 1 22t1.5 26t1.5 25
t1 19q-1 14 -3 25.5t-2 24.5q1 14 1 31.5v43.5q0 8 -0.5 17t-0.5 18v9t1 8q3 18 3 74q0 8 1 16.5t1 18.5q0 9 -1 17.5t-1 16.5z" />
    <glyph glyph-name="i" unicode="i" horiz-adv-x="169" 
d="M88 554q5 0 12.5 -5.5t14.5 -7.5q6 -2 7 -11.5t1 -18.5q0 -4 -1.5 -10t-4 -12t-6 -10t-7.5 -4q-8 0 -14 -4t-12 -4q-10 0 -14.5 6.5t-9.5 11.5q-4 3 -6.5 6.5t-2.5 11.5q0 16 9 25.5t14 15.5q2 3 8.5 6.5t11.5 3.5zM91 400q8 0 9.5 -3t6.5 -8q3 -2 4 -9.5t2 -16.5t1 -18
v-13q0 -8 -3 -23.5t-3 -27.5q0 -5 2 -11q2 -3 2 -11q0 -7 -1.5 -15t-1.5 -15t3 -11q4 -8 4 -28q0 -11 -0.5 -22t-0.5 -22v-23t-0.5 -28t-1 -27.5t-1.5 -21.5q-3 -35 -10 -37q-5 -1 -10 -9.5t-13 -12.5q-8 -2 -10 -2q-5 0 -8.5 5t-4.5 20t-2.5 26t-1.5 20q0 8 1 12q2 11 4 23
t2 20q0 9 -2 23t-5 26q-3 13 -3 27q0 5 0.5 9.5t0.5 9.5q1 9 3.5 13t2.5 24q0 5 -0.5 8.5t-0.5 7.5q0 10 1 18.5t1 16.5q0 3 -0.5 6t-0.5 6q-2 13 -4.5 21t-2.5 17q0 7 1 11q5 14 10 18.5t10 9.5q5 4 9 10.5t12 6.5z" />
    <glyph glyph-name="j" unicode="j" horiz-adv-x="164" 
d="M44 350q0 4 2 11.5t5.5 15.5t7 14t6.5 8q4 2 12 4.5t16 2.5q11 0 11 -8q0 -11 4 -30.5t4 -39.5q0 -9 -1 -14q-1 -10 -1.5 -17t-0.5 -13q0 -14 4 -25q3 -8 3.5 -18t0.5 -35q0 -12 0.5 -23.5t0.5 -23.5v-12t-1 -12q-3 -19 -4 -38.5t-1 -36.5q0 -8 0.5 -15t0.5 -15
q0 -10 -1 -19t-5 -14q-2 -3 -2.5 -8.5t-0.5 -11.5q0 -7 0.5 -14t0.5 -15q0 -9 -2 -19q-3 -14 -5 -32t-7 -32t-9.5 -31t-9.5 -25q-20 -30 -39.5 -41.5t-28.5 -11.5q-13 0 -24.5 5.5t-11.5 17.5q0 14 1 20t8 12q8 7 17 7q2 0 10 -2q7 -3 11 -9t9 -6q8 0 13.5 8.5t8.5 15.5
q4 7 4.5 19.5t2.5 31.5q2 14 2.5 27.5t0.5 26.5q0 17 -0.5 34.5t-0.5 34.5q0 14 0.5 28.5t0.5 31.5q0 13 -2 35.5t-2 42.5v14t2 11q1 4 1 11q0 12 -3.5 23.5t-3.5 27.5q0 29 -1 41t-1 23t1 17.5t1 13.5q0 10 -1.5 16t-2.5 15zM43 527q-2 5 -3 11t-1 13q0 11 3 21t9 16
q5 5 11 6.5t12 1.5q5 0 10 -0.5t9 -0.5q8 0 10 -5.5t2 -11.5q0 -4 -0.5 -7t-0.5 -5q-2 -11 -6.5 -18t-7.5 -15q-4 -13 -17 -13q-6 0 -10 -1t-8 -1q-9 0 -12 9z" />
    <glyph glyph-name="k" unicode="k" horiz-adv-x="347" 
d="M62 712q6 5 17 5q7 0 15 -2q5 -2 12.5 -9.5t7.5 -21.5q0 -2 -0.5 -3.5t-0.5 -3.5q-3 -17 -3 -48v-15t0.5 -20.5t0.5 -31v-46.5q0 -8 -2 -21.5t-2 -25.5q0 -8 2 -14q4 -8 4 -20q0 -7 -1.5 -14.5t-1.5 -18.5q0 -7 0.5 -15.5t0.5 -18.5t-1 -18.5t-3 -13.5q-4 -9 -4 -21
q0 -5 0.5 -10t0.5 -10t-2 -13q0 -2 -0.5 -3t-0.5 -3q0 -10 4 -22t4 -20q0 -4 -1 -5q-1 -5 -1.5 -13.5t-0.5 -19.5q0 -21 1 -44t1 -33q0 -12 0.5 -25t0.5 -24q0 -13 -1 -20.5t-1 -14.5v-22q0 -7 -2.5 -16.5t-8.5 -11.5q-2 0 -8.5 -1.5t-11.5 -1.5q-9 0 -13 4q-5 6 -10 13.5
t-5 18.5q0 9 1.5 27.5t1.5 32.5q0 3 -0.5 8t-0.5 22v8.5t-2 11.5q-1 4 -1 10q0 11 1 21t1 21q0 6 0.5 13.5t0.5 12.5q0 8 -1.5 22.5t-1.5 28.5q0 3 0.5 6.5t0.5 5.5q2 11 3.5 27t1.5 30q0 3 -0.5 6t-0.5 5q-1 6 -1 11.5v10.5q0 17 -1 35.5t-1 32.5t2 18q1 3 1.5 6t0.5 8
q0 15 -3.5 33t-3.5 27q0 6 3.5 22t3.5 33q0 10 -1 14q-2 8 -2 17v18q0 13 0.5 25t1.5 21q2 16 2 26.5t8 16.5zM128 201q0 14 8 20t11 10q4 4 11 13t10 20q2 11 2.5 16.5t6.5 12.5t9.5 12t8.5 15t10.5 16.5t10.5 13.5q9 11 14.5 17.5t10 12t9 10.5t11.5 13q2 4 9 8.5t12 4.5
q1 0 1.5 -0.5t1.5 -0.5q3 -2 5.5 -7.5t2.5 -11.5q0 -7 -5 -12q-10 -8 -13.5 -11.5t-5 -6.5t-3 -6.5t-7.5 -12.5q-3 -3 -7.5 -8.5l-9 -11t-9 -10.5t-6.5 -7t-5 -9.5t-5.5 -15t-5 -14t-4.5 -7.5q-8 -2 -14 -12q-2 -5 -6 -11t-4 -11q0 -2 1 -3q3 -3 8.5 -9.5t12.5 -9.5t9.5 -6
t4.5 -12t11 -17t13 -13q3 -5 11 -13.5t10 -15.5q3 -7 12.5 -19.5t15.5 -17.5q5 -4 8 -9t5.5 -10t6 -10t9.5 -9q8 -5 8 -16q0 -8 -5 -11q-5 -4 -9 -12t-15 -9l-4 1t-8.5 3t-8.5 5t-5 6q-3 9 -9 10t-12 8q-5 7 -9 13t-14 16q-12 12 -25.5 24.5t-15.5 28.5q-1 11 -2.5 14.5
t-6.5 7.5t-16 12t-19 17q-4 4 -7 6t-5 4t-3.5 5.5t-1.5 11.5z" />
    <glyph glyph-name="l" unicode="l" horiz-adv-x="157" 
d="M62 712q6 5 15 5q6 0 14 -2q5 -2 12.5 -9.5t7.5 -21.5q0 -2 -0.5 -3.5t-0.5 -3.5q-1 -8 -2 -21t-1.5 -27t-0.5 -27v-21v-65q0 -8 -2 -21.5t-2 -25.5q0 -8 2 -14q3 -9 3 -22q0 -7 -0.5 -12.5t-1.5 -10.5q0 -11 2.5 -27.5t2.5 -30.5q0 -12 -2 -16q-2 -5 -2.5 -12.5
t-0.5 -26.5q0 -8 -1 -13t-1 -9q0 -9 3.5 -20.5t3.5 -19.5q0 -5 -1.5 -8.5t-1.5 -7.5q0 -7 2 -13.5t2 -13.5q0 -8 -3 -13t-3 -12q0 -11 2 -24.5t2 -23.5q0 -8 0.5 -14t0.5 -11q0 -6 -1.5 -9t-1.5 -7q0 -5 1.5 -11t1.5 -12q0 -7 -1 -15t-1 -27q0 -7 -2 -16.5t-8 -11.5
q-4 -1 -9.5 -2t-11.5 -1q-10 0 -14 4q-5 6 -10 13.5t-5 18.5q0 9 1.5 27.5t1.5 32.5q0 13 -0.5 25.5t-2.5 24.5q-1 4 -1 10q0 11 1 21t1 21q0 6 0.5 13.5t0.5 12.5q0 8 -1.5 22.5t-1.5 28.5q0 3 0.5 6.5t0.5 5.5q2 11 3.5 27t1.5 30q0 3 -0.5 6t-0.5 5q-1 6 -1 13.5v24.5
q0 5 -1 21.5t-1 30.5q0 10 2 17t2 15q0 15 -3.5 33t-3.5 27q0 6 3.5 22t3.5 33q0 10 -1 14q-2 8 -2 17v18q0 13 0.5 25t1.5 21q2 16 2 26.5t8 16.5z" />
    <glyph glyph-name="m" unicode="m" horiz-adv-x="529" 
d="M63 440q5 10 12.5 14t14.5 6q4 0 6.5 1t4.5 1q9 0 15 -9q5 -9 7.5 -15t2.5 -17t3 -21.5t6 -15.5q1 -2 5 -2q5 0 11 4t11 7q7 4 17 10t21 6l25.5 -3t16.5 -6t19 -18t28 -41q5 -7 8 -15t7 -10q5 0 13 6.5t13 11.5q4 5 10 15.5t16 13.5t14 11t11 13q5 5 14 7t19 2
q2 0 4.5 -0.5t4.5 -0.5q11 -2 24 -13.5t17 -22.5t8 -24.5t4 -24.5q0 -6 -0.5 -18.5t-0.5 -24.5q0 -9 0.5 -16.5t2.5 -12.5q5 -10 5 -21q0 -23 -0.5 -32.5t-2.5 -17.5q-2 -9 -4 -16.5t-2 -12.5q0 -3 2 -5q3 -3 3 -13q0 -12 -3 -19q-5 -10 -5 -25q0 -4 0.5 -7t1.5 -7t1.5 -10
t0.5 -25q0 -9 -4.5 -16t-8.5 -12t-7.5 -9t-11.5 -4t-11.5 1t-8.5 5q-3 3 -7 8.5t-4 10.5v4.5t1 4.5q3 13 3.5 22.5t0.5 18.5q0 22 -2 35t-2 22q0 7 1 11t1.5 8.5t1.5 10.5t1 15q0 8 -1 13.5t-1 13.5q0 7 1 11q1 5 1 9v9q0 8 -0.5 17t-0.5 21q0 14 -3 22t-3 15q0 2 2 8t2 11
q0 9 -3 19t-5 18q-1 10 -15 10q-6 0 -9 -1q-9 -2 -15 -12.5t-11 -18.5t-9.5 -9t-11.5 -16q-4 -8 -6 -11t-3 -5t-1.5 -4.5t-1.5 -8.5q-2 -11 -5 -21.5t-3 -30.5q0 -14 -1.5 -32.5t-2.5 -28.5q-1 -11 -3 -22.5t-4 -21.5q-3 -10 -2 -18.5t-8 -16.5q-9 -7 -14 -15t-13 -8
q-10 2 -14.5 2t-6.5 11q-3 13 -3 26q0 10 1 15q1 6 1.5 17.5t0.5 24v25t1 19.5q0 2 0.5 5.5t0.5 7.5q0 17 -2.5 38t-5.5 33q-5 15 -7 21.5t-8 17.5q-3 5 -5 13t-5 16t-7 14.5t-11 8.5q-4 1 -6.5 1.5t-5.5 0.5q-8 0 -14 -2.5t-10 -3.5q-5 -2 -10.5 -10.5t-11.5 -13.5
t-10.5 -17t-4.5 -24q1 -11 2 -21t1 -19q0 -10 -2 -15q-3 -11 -6.5 -50t-3.5 -92v-20t-2 -11q-2 -3 -2.5 -9.5t-0.5 -29.5q0 -8 1 -14t1 -11q0 -9 -5 -14q-7 -8 -11 -18.5t-5 -14.5t-11 -6t-12 -4q-5 0 -13.5 5t-8.5 19q1 15 2 27.5t1 29.5q0 25 -2 36.5t-2 21.5q0 4 0.5 7.5
t1.5 8.5q2 7 2.5 14.5t0.5 15.5q0 11 -0.5 21t-0.5 18q0 7 1 12.5t1.5 12.5t1.5 17t1 26q0 26 1.5 41t1.5 26q-1 11 -1 14v5t0.5 6t0.5 22q0 11 -0.5 22t-0.5 20q0 12 1 21.5t5 14.5z" />
    <glyph glyph-name="n" unicode="n" horiz-adv-x="362" 
d="M52 381q0 14 5.5 21.5t11.5 8.5t11.5 2t10.5 5q1 1 4 1q5 0 9 -5.5t4 -17.5q0 -8 2 -15.5t2 -15.5q0 -5 -2 -13q-1 -3 -1 -7q0 -11 5 -13q1 0 7 4t8 9q6 9 12.5 14.5t13 10l13 9t12.5 11.5q6 6 15 8.5t21 4.5q6 1 12.5 1.5t12.5 0.5q7 0 15 -2q6 -2 18 -11t14 -23
q3 -14 8.5 -18.5t9.5 -14.5q3 -10 5 -28t2 -32q0 -11 1.5 -33t1.5 -37q0 -11 -1 -13q-1 -4 -1 -12t-0.5 -17t-1.5 -17.5t-2 -14.5q-1 -3 -1 -9q0 -14 0.5 -26.5t0.5 -24.5q0 -7 1 -10q3 -11 3 -26q0 -9 -1 -12q-3 -7 -6.5 -9t-11.5 -4q-10 -2 -16 -5.5t-13 -3.5q-5 0 -14 6
q-5 3 -6.5 10.5t-1.5 15.5v6.5t1 6.5q2 7 3.5 20t2 27t1 27t0.5 21q1 5 1 9v7v17t1 10t1 12q0 6 -1 10t-1 11q0 16 -3.5 23.5t-3.5 15.5q0 5 1 8t1 10q0 11 -3 22t-3 18q0 8 -3 24t-9 22t-11.5 7.5t-12.5 2.5q-18 0 -35 -15t-25 -26q-5 -8 -4 -14.5t-6 -8.5t-8.5 -8.5
t-5.5 -14.5q-3 -8 -5.5 -24.5t-2.5 -59.5q0 -15 -0.5 -28t-3.5 -17q-2 -4 -2 -9q0 -7 1.5 -17t1.5 -30q0 -10 -1.5 -15.5t-1.5 -10.5q0 -8 2 -19.5t2 -19.5q-2 -35 -3 -56.5t-3 -23.5q-3 -2 -4.5 -6t-15.5 -6q-9 -1 -15 -5.5t-11 -4.5q-6 0 -8 11q-3 13 -3 22q0 8 1 16t2 21
q0 11 -2 18.5t-2 19.5q0 8 1 13q2 16 4 27t2 21q0 7 -1 11q-2 11 -5 35.5t-3 43.5q0 21 3.5 45t3.5 44v44t-0.5 25.5t-0.5 16v15.5z" />
    <glyph glyph-name="o" unicode="o" horiz-adv-x="315" 
d="M166 413q4 2 12 2t15.5 -3.5t14.5 -3.5q11 -4 17 -7t12 -5q5 -2 9 -9.5t11 -16.5q6 -8 8.5 -26t3.5 -27t5 -28.5t4 -31.5q0 -3 -1 -7.5t-1 -9.5q0 -7 0.5 -15t0.5 -18q0 -4 -1 -12.5t-1.5 -18.5t-2 -19.5t-2.5 -13.5q-3 -9 -3.5 -22.5t-5.5 -27.5q-4 -14 -8 -21t-9 -16
q-5 -8 -10 -19.5t-12 -13.5q-6 0 -13 -2t-9 -6q-2 -11 -12.5 -14.5l-19.5 -6.5q-3 -1 -13 -1q-12 0 -27 2.5t-23 6.5q-11 6 -18.5 13.5t-14.5 15.5q-8 9 -9.5 13.5t-6.5 12.5q-3 7 -4.5 14.5t-1.5 21.5q0 8 -3 15t-5 22q-2 14 -3.5 24t-1.5 22q1 11 3 21.5t5 12.5q2 1 2 7
q0 5 -0.5 10.5t-1.5 13.5q0 7 1 16.5t5 15.5q4 8 8.5 15t6.5 19q3 23 13 38q6 7 7.5 13.5t12.5 9.5q9 3 16 11.5t11 13.5q3 5 16.5 10t23.5 10zM224 369q-9 16 -37 16q-13 0 -23.5 -10t-15.5 -12q-4 -2 -11 -8.5t-12 -17.5q-5 -10 -7.5 -20t-6.5 -23q-2 -8 -2 -13v-12v-12
t1 -16q0 -3 0.5 -6.5t0.5 -6.5q0 -17 -3 -33.5t-3 -30.5q0 -7 -2 -14t-2 -14q0 -8 4.5 -17.5t6.5 -18.5q3 -11 7 -18t6 -17q1 -9 9 -16l16 -14q6 -5 11 -7.5t14 -2.5q8 0 18 8.5t15 13.5t13 18.5t11 19.5q2 6 4.5 18.5t4.5 23.5t2.5 21.5t4.5 18.5q3 6 3 15q0 5 -0.5 10.5
t-0.5 12.5q0 2 0.5 7t0.5 10v10.5t-1 10.5t-1.5 15t-1 20.5t-1.5 19.5t-3 12q-3 7 -2.5 16t-5.5 17q-5 8 -5.5 12t-5.5 14z" />
    <glyph glyph-name="p" unicode="p" horiz-adv-x="354" 
d="M51 420q0 8 4 11.5t13 8.5q14 7 26 7q5 0 7 -1q9 -4 9 -20q0 -7 -1 -11v-31t-1 -11q0 -5 2 -10t5 -5q2 0 4 2q15 15 33 21.5t39 11.5q13 3 29 3h7.5t8.5 -1q12 -2 23 -12.5t20 -15.5q8 -5 14 -15.5t11 -24.5t8.5 -35t3.5 -34q0 -38 -3 -56q-2 -11 -3 -22.5t-4 -19.5
q-4 -8 -10 -21.5t-8 -27.5q-1 -3 -5.5 -12.5t-10.5 -20t-12 -19.5t-9 -10q-8 -2 -10.5 -6.5t-7.5 -10.5t-12 -10.5t-18 -5.5q-9 -1 -17.5 -7.5t-18.5 -6.5q-2 0 -2.5 0.5t-2.5 0.5q-4 1 -7 1.5t-6 0.5q-14 0 -16 -5q-1 -1 -3 -1t-8 2q-3 1 -5 2q-3 -5 -5 -9q-5 -8 -5 -14
q0 -8 -1 -14.5t-1 -14.5q0 -5 3.5 -15t3.5 -20q0 -5 -2 -11q-3 -11 -3 -25q0 -8 0.5 -15t0.5 -11q0 -5 1.5 -13.5t1.5 -18.5q0 -5 -2 -15q-2 -13 -1 -26t-9 -18q-9 -4 -12.5 -7.5t-13.5 -3.5q-9 0 -18 6t-9 21q0 6 1 12.5t1 13.5q0 11 -0.5 21.5t-0.5 20.5q0 17 -0.5 33.5
t-0.5 34.5q0 24 1 36t3 18q2 5 2.5 9t0.5 12q0 19 -1 32t-2.5 22.5t-2.5 17.5t-1 17t0.5 21.5t0.5 26t0.5 26.5t0.5 23t-0.5 18t-0.5 16.5t-0.5 19.5t-0.5 27q0 22 3 28.5t3 15.5q0 8 -1 18.5t-1 22.5q0 6 1 21t1 29q0 7 -0.5 13.5t-0.5 14.5zM111 304q-2 -2 -2 -11v-21
v-24.5t-1 -20.5q-1 -5 -1 -10v-10q0 -10 0.5 -24t0.5 -50v-11.5t-1 -15.5q-1 -6 -1 -12v-11q0 -32 9 -46q4 -6 16 -6q7 0 13 1t9 1q5 0 13 2t14 3q11 2 22 10t22 13q5 3 6 12t2 17t2.5 10.5t7.5 10.5q4 5 4.5 12t0.5 14t1.5 14t1.5 17v14t1 9t2.5 11.5t1.5 13.5
q0 3 -1.5 6.5t-1.5 6.5q-2 7 -4 15.5t-2 18.5q0 5 1.5 10t1.5 12q0 9 -4 14t-8 15q-5 12 -9.5 15t-11.5 11q-6 8 -14 10.5t-14 3.5q-2 0 -4.5 0.5t-6.5 0.5q-8 0 -17 -1.5t-12 -3.5q-5 -4 -11 -12.5t-11 -12.5q-6 -4 -9 -10.5t-6 -10.5z" />
    <glyph glyph-name="q" unicode="q" horiz-adv-x="342" 
d="M243 387q0 2 2 11.5t8 13.5q7 4 12 11.5t14 12.5q4 3 10 3q5 0 9 -5t4 -19q0 -20 1.5 -34.5t1.5 -28.5q-1 -5 -2 -13t-1.5 -17t-1.5 -17t-2 -14v-8q0 -8 0.5 -18.5t0.5 -18.5q0 -10 -1 -13q-1 -5 -1.5 -17t-0.5 -26.5t-0.5 -29t-0.5 -24.5q0 -13 3 -22.5t3 -17.5
q0 -2 -0.5 -2.5t-0.5 -2.5q-2 -5 -2 -10.5v-13.5v-16t-1 -17q-1 -13 -3 -25.5t-2 -23.5q0 -5 0.5 -8.5t1.5 -7.5q0 -2 0.5 -4.5t0.5 -4.5q0 -10 -1.5 -22t-1.5 -23v-9t2 -7q2 -7 2.5 -15t0.5 -30q0 -14 -1.5 -17t-2.5 -11q0 -4 0.5 -11.5t0.5 -15.5q0 -10 -2 -19t-10 -13
t-11.5 -11t-11.5 -7q-8 2 -13 8.5t-10 11.5q-4 5 -4 8t-1 17q0 7 0.5 13t1 13t1 16.5t0.5 25.5q0 11 -0.5 16.5t-0.5 13.5q0 5 0.5 10.5t1.5 13.5q2 13 2.5 28.5t0.5 45.5q0 5 -0.5 12t-1 13.5t-2.5 10.5t-5 4q-6 -1 -9 -9t-12 -9q-8 -1 -22 -9.5t-28 -8.5q-14 1 -33.5 2
t-31.5 11q-11 9 -21 16.5t-15 19.5q-3 6 -5.5 14t-5 17t-4.5 17t-2 13q-1 8 -2 18.5t-1 21.5t1 15q3 12 2 21.5t4 26.5q4 17 6.5 33.5t8.5 21.5q8 8 10.5 15.5t2.5 20.5q0 15 9 32t20 28q12 13 19 16.5t11 4.5q3 1 6 6.5t11 12.5q7 6 25 9.5t34 3.5q5 0 11.5 -3.5t12 -8
t9 -8.5zM240 335q-2 11 -5 22.5t-10 13.5q-8 4 -15.5 6.5t-18.5 2.5q-10 0 -14 -1.5t-10 -6.5q-9 -7 -16 -11t-11 -9q-4 -6 -6.5 -18.5t-10.5 -29.5q-7 -17 -7.5 -27t-2.5 -27q-3 -16 -4.5 -25t-5.5 -20q-5 -13 -5 -28q0 -3 0.5 -6t0.5 -6q0 -11 1.5 -18.5t1.5 -20.5
q0 -6 2.5 -9.5t5.5 -6t5.5 -6t2.5 -10.5q2 -14 1.5 -19t4.5 -18q5 -14 16 -20t15 -12q1 -2 6 -2q7 0 16.5 3.5t20.5 5.5q14 2 15.5 7.5t7.5 13.5q3 4 5 12.5t4 18t3.5 18.5t1.5 15q0 3 0.5 6.5t0.5 7.5q0 12 -1 25t-1 21q0 11 0.5 20t5.5 23q3 7 3 19t-2.5 24t-4.5 18
q-1 2 -1 7q0 9 2.5 21.5t2.5 25.5z" />
    <glyph glyph-name="r" unicode="r" horiz-adv-x="325" 
d="M58 401q4 10 14.5 12.5t17.5 5.5q2 1 5 1q11 0 13 -17q1 -7 2.5 -16t1.5 -18q0 -11 -2 -16q-1 -3 -1 -8q0 -8 2 -15t2 -13q-1 -8 -2 -19t-1 -21t2 -18q1 -5 6 -5q9 0 14 12q2 8 4 18t6 17q3 7 7.5 17t8.5 15t7.5 11.5t9.5 13.5t13.5 16.5t13.5 17.5t21.5 10.5t23.5 2.5
q10 0 22.5 -7t17.5 -15t12 -18t7 -18q0 -3 -1 -11t-3 -16.5t-4.5 -16t-5.5 -10.5q-7 -7 -18 -7q-4 0 -10 2q-5 3 -12.5 7t-7.5 13q0 1 -1.5 9.5t-1.5 16.5q0 2 0.5 4t0.5 4q0 5 -4 12t-10 8q-4 1 -6.5 2.5t-5.5 1.5t-9 -7q-6 -9 -9 -16t-8 -10q-4 -3 -8 -8.5t-8 -19.5
q-2 -7 -4 -9.5t-4 -4t-4.5 -4t-3.5 -8.5q-4 -13 -6.5 -20.5t-7.5 -18.5t-7.5 -21t-7.5 -27q-4 -17 -8 -27t-4 -25q-1 -15 -2.5 -28t-3.5 -33q0 -10 1.5 -20t1.5 -18q0 -6 -2 -12q-3 -9 -3.5 -15t-8.5 -11q-7 -5 -11 -10t-13 -5q-12 2 -18.5 7t-6.5 20v12q0 17 -1.5 39
t-1.5 35q0 15 0.5 30t5.5 22q4 7 4 17q0 9 -3 20q0 1 -0.5 1.5t-0.5 1.5q-2 8 -3 15.5t-1 14.5t1 9q3 7 3 18q0 4 -0.5 9t-1.5 12q-2 12 -3.5 18.5t-1.5 15.5v8.5t1 10.5q2 21 4 44t6 33z" />
    <glyph glyph-name="s" unicode="s" horiz-adv-x="211" 
d="M119 414q2 0 3 0.5t3 0.5q9 0 20.5 -3t16.5 -8q5 -6 12.5 -9t9.5 -11q1 -2 1 -6q0 -8 -3.5 -15.5t-6.5 -9.5q-8 -6 -17 -6q-7 0 -10 3t-7.5 9.5t-5.5 12.5q-1 5 -7 10t-15 5q-8 0 -13 -4q-13 -7 -13 -15q0 -3 1 -5q2 -8 1.5 -16.5t2.5 -16.5q3 -6 10.5 -12.5t7.5 -15.5
q0 -2 -0.5 -2.5t-0.5 -2.5q0 -13 7.5 -17t12.5 -8t9 -10.5t8 -13.5q0 -13 12 -24.5t16 -23.5q6 -12 12 -33.5t6 -35.5q0 -6 -1 -8q-3 -12 -7 -21t-6 -15q-3 -6 -10.5 -21.5t-12.5 -23.5q-11 -17 -23 -21q-7 -2 -18.5 -11.5t-22.5 -13.5q-8 -3 -16 -7t-16 -4q-2 0 -2.5 0.5
t-2.5 0.5q-10 2 -20 4.5t-14 10.5q-1 3 -1 9q0 13 8 19q3 3 7 6.5t9 3.5q4 0 7 -3q5 -6 12.5 -5.5t9.5 -5.5q2 -4 6 -5t9 -1q6 0 12 2q5 2 10.5 4t7.5 11t6 14t6 16q1 6 1.5 12.5t0.5 12.5q0 5 -0.5 8.5t-0.5 6.5t-0.5 10.5t-1.5 15.5t-3.5 16t-6.5 12q-8 8 -10 14.5
t-6 14.5t-7.5 19.5t-10.5 18.5q-6 8 -14.5 21t-15.5 27q-6 14 -11.5 25.5t-5.5 22.5q1 14 3 23t5 18q5 9 9 14t14 10t18.5 12.5t15.5 9.5q6 2 7.5 2t9.5 2z" />
    <glyph glyph-name="t" unicode="t" horiz-adv-x="265" 
d="M69 579q2 8 7.5 10t8.5 2q4 0 13 7.5t14 7.5q4 0 8 -6.5t4 -17.5q0 -17 -2.5 -30t-2.5 -17q0 -3 2 -8t2 -10q0 -4 -2 -8q-3 -6 -3 -12v-23q-1 -9 -2.5 -17t-1.5 -13q0 -4 2 -6q2 -3 11 -3.5t14 -0.5q3 0 9 0.5t13 1t13.5 1t9.5 0.5q10 0 16 -0.5t11 -1.5t8.5 -9.5
t3.5 -15.5q0 -6 -5.5 -9.5t-10.5 -3.5t-7 2q-3 3 -11 4.5t-16 1.5t-10 -1t-5.5 -1h-17.5h-6.5t-9.5 -1q-7 -1 -9 -6t-2 -11q0 -5 0.5 -9.5t0.5 -6.5q0 -9 -4 -18t-4 -19q0 -5 1 -10t2.5 -15t3 -25t1.5 -39q0 -15 -2.5 -22t-2.5 -14q0 -6 3 -15q3 -14 3 -23q0 -6 -0.5 -12.5
t-0.5 -15.5q0 -12 1 -30.5t8 -24.5q8 -7 7.5 -10.5t3.5 -14.5q5 -11 13 -20.5t22 -14.5q2 -1 6 -1q13 0 22.5 14t9.5 25q0 8 -6.5 13.5t-6.5 13.5q0 14 7 20.5t15 6.5t15.5 -2t10.5 -11q2 -8 2 -12q0 -8 -1.5 -16t-1.5 -16q0 -11 -10.5 -21.5t-20.5 -18.5
q-11 -10 -20.5 -16.5t-21.5 -6.5q-8 0 -17.5 1t-17.5 3t-18.5 5t-17.5 13t-15 15t-12 22q-5 17 -5 27.5t-5 18.5q-5 6 -5 18v18.5t-1 10.5q-1 8 -1.5 14.5t-0.5 12.5q0 8 0.5 14.5t0.5 13.5q0 3 -0.5 11t-1 19t-1 23t-0.5 23v27t1 32q0 18 1 38q0 12 -3 13q-4 2 -9 1t-9 4
q-3 3 -6.5 7t-3.5 8q0 2 3 5q5 5 15 7t13 4q4 2 4 12.5t1 29.5q1 14 4.5 18t3.5 9q0 4 -3 10q-4 9 -4 18q0 6 1.5 11.5t2.5 11.5q2 10 2.5 18.5t2.5 13.5z" />
    <glyph glyph-name="u" unicode="u" horiz-adv-x="345" 
d="M72 375q6 2 11 4t10 2q4 0 7 -3q11 -7 11 -28q0 -9 -2 -14q-2 -8 -2.5 -15.5t-0.5 -14.5v-17q0 -5 1.5 -17t1.5 -23q0 -8 -1 -12t-1 -8q0 -10 3 -21t3 -19q0 -2 -0.5 -2.5t-0.5 -2.5q-1 -4 -2 -12t-1.5 -17t-0.5 -17.5v-13.5q0 -13 4 -28.5t4 -25.5q0 -11 3 -12t6 -6
q2 -5 12 -14t21 -9q13 0 21 3t12 7l12.5 10t12.5 8q6 2 9.5 12t5.5 15q1 1 1 5q0 3 -0.5 7.5t-0.5 10.5q0 3 0.5 8t0.5 16t-1.5 21.5t-1.5 23.5v8t1 9q2 23 2 42t2 28q1 3 1 6.5v6.5q0 7 -0.5 13t-0.5 12q1 9 1 16.5t4 18.5q2 4 2 10.5v26.5q3 17 8 35q2 7 12.5 14.5
t16.5 12.5q3 3 6 3q5 0 9.5 -7t4.5 -17q0 -5 -1 -8q-3 -12 -3 -24v-18v-10t-1 -10q-2 -7 -2 -14v-21v-6.5t-1 -7.5q-2 -14 -2 -26v-20q0 -11 -1.5 -27.5t-1.5 -30.5q0 -10 2 -18q1 -5 1.5 -12.5t0.5 -16.5q0 -14 -1 -28.5t-3 -23.5q-1 -5 -1.5 -8t-0.5 -6q0 -7 1.5 -11.5
t1.5 -10.5q0 -7 0.5 -14.5t0.5 -12.5q-1 -6 -3 -16t-5 -15q-2 -5 -4.5 -10.5t-12.5 -7.5q-5 -1 -13 -1t-9 5l-3.5 17.5t-2.5 20.5q0 9 -7 9q-5 0 -12 -5t-11.5 -10t-13.5 -7q-8 -2 -19 -2.5t-16 -4.5q-5 -3 -14 -3q-12 0 -19 4t-16 5t-15 11q-5 10 -13.5 16t-9.5 14t-8 17.5
t-7 26.5q0 23 -2 35t-4 26q-1 4 -1 14q0 12 1.5 23.5t1.5 19.5q1 8 1 17.5v20.5t-0.5 21t-0.5 18v18q0 5 -0.5 11t-0.5 12q0 5 0.5 9.5t1.5 9.5q4 22 22 27z" />
    <glyph glyph-name="v" unicode="v" horiz-adv-x="308" 
d="M28 358q0 19 5 27t19 13q6 2 9 2q9 0 14 -6t8 -13q5 -8 14.5 -23t9.5 -32t1.5 -34t8.5 -27t12.5 -22t5.5 -27t3 -19.5t6 -9.5q4 -5 4 -16t1 -20t4.5 -20.5t8.5 -14.5q6 0 10 10t7 20q2 9 5 13t7 9q5 5 7 19t5 23q5 16 8 23.5t4.5 11.5t2.5 8t2 15q1 10 2.5 16t3 11
t3.5 10.5t4 15.5t3 16t1.5 11t2.5 11l5 15q7 18 8 28t8 16q5 5 13 5q7 0 13 -2q2 0 2 -5q0 -6 -3 -15t-6 -17q0 -14 -7.5 -26.5t-10.5 -26.5q-2 -13 -6 -20.5t-4 -12.5q1 -3 2 -7t1 -9q0 -3 -0.5 -7t-2.5 -9q-6 -14 -13 -25.5t-9 -21.5l-5.5 -27.5t-8.5 -28.5
q-2 -5 -3.5 -12t-3.5 -14t-4 -12t-5 -6q-6 -2 -6 -22q0 -11 -2 -18.5t-4 -9.5t-3 -14t-2 -22q-1 -18 -18 -26q-10 -4 -19 -4q-8 0 -16 3.5t-12 13.5q-5 16 -5 25.5t-4 20.5q-3 11 -5 24t-10 26t-9 24.5t-11 34.5q-5 11 -7.5 17t-3.5 11t-2 10.5t-3 15.5q-3 20 -3 34.5
t-10 23.5q-5 4 -8 12.5t-5 19t-3 21t-1 18.5z" />
    <glyph glyph-name="w" unicode="w" horiz-adv-x="421" 
d="M28 394q14 11 16.5 13.5t9.5 3.5q2 0 4 0.5t4 0.5q4 0 7 -2t5 -10q2 -6 4 -10t3.5 -9.5t2.5 -13.5t1 -22q0 -11 0.5 -20.5t4.5 -14.5q4 -7 3.5 -20.5t2.5 -24.5q1 -6 2.5 -16.5t3 -22t3 -22.5t2.5 -17q1 -11 5.5 -18.5t4.5 -16.5q0 -2 -0.5 -2.5t-0.5 -2.5q-1 -3 -1 -10
q0 -8 2.5 -19t5.5 -11t8.5 10t8.5 16q4 12 8.5 20.5t9.5 13.5t11.5 15t8.5 19t6.5 21.5t9.5 18.5t13 9t15 3t17 -10.5t12 -23.5t7.5 -27t8.5 -23q2 -9 6 -20t9 -17q2 -3 4 -8.5t3.5 -12t2.5 -12.5t1 -10q1 -8 5.5 -19t9.5 -10t6.5 14.5t3.5 20.5q3 7 6.5 24t6.5 27
q2 10 6 27.5t5 31.5q0 3 0.5 6.5t0.5 6.5q0 18 0.5 26t2.5 14q4 13 5 17t3 18t3 26t4 23q4 11 4 23t3 28q2 16 3 26t9 10q9 0 15.5 -6t6.5 -17q0 -10 -3 -26.5t-5 -23.5q-2 -4 -2 -22q0 -5 -0.5 -9.5t-2.5 -9.5q-8 -26 -11 -45q-1 -10 -3.5 -22.5t-4.5 -20.5t-6 -30.5
t-6 -39.5t-1.5 -31t-5.5 -25q-5 -11 -9 -27t-5 -23q0 -3 -1.5 -10.5t-2.5 -16t-2 -16t-1 -10.5q0 -7 -3 -16t-11 -14q-7 -4 -10.5 -10t-10.5 -6q-2 0 -4 1q-18 6 -21 25q-2 8 -5.5 22.5t-8.5 22.5t-6.5 13t-6.5 19q-4 13 -3 18.5t-5 16.5q-5 11 -11 18t-8 19q-1 8 -1.5 15
t-0.5 10t-5.5 13t-9.5 16q-2 4 -4 4q-4 0 -11 -18q-5 -12 -7.5 -15.5t-6.5 -14.5q-5 -11 -8.5 -18t-8.5 -9t-5.5 -9.5t-4.5 -14.5q-5 -7 -9.5 -17.5t-6.5 -20.5t-2.5 -20.5t-7.5 -16.5q-6 -6 -15 -14t-17 -8q-12 0 -14.5 8t-2.5 16q0 3 0.5 9.5t0.5 9.5q0 14 -4 23t-4 20
q-2 8 -2.5 13.5t-1 10t-1 9.5t-3.5 13q-6 16 -7 29t-3 32t-4.5 29t-2.5 25q0 8 0.5 17t0.5 18q0 8 -1 15t-3 12q-5 11 -6.5 21t-2.5 20q-1 6 -3 15t-2 18q0 14 9 22z" />
    <glyph glyph-name="x" unicode="x" horiz-adv-x="315" 
d="M36 413q5 2 10 5t10 3q6 0 11 -5l16.5 -16.5t9.5 -19.5t5 -18t10 -12q3 -3 12.5 -15t14.5 -27t10.5 -23t10.5 -13q2 -2 4 -2q9 0 17 22q5 14 10 23t12 17t12.5 20.5t9.5 23.5q3 11 6 18.5t8 16.5t8.5 14.5t10.5 10.5q5 4 16 4t15 -4q2 -2 2 -8q0 -5 -2 -11t-7 -10
q-7 -5 -10 -13t-7 -16q-2 -4 -4.5 -11.5t-5.5 -15.5t-6.5 -15t-7.5 -11q-8 -8 -12.5 -18.5t-11.5 -21.5t-9 -18.5t-7 -15.5t-10 -18t-5 -17q0 -3 4 -11t9 -17.5t9.5 -18.5t5.5 -15q2 -11 11.5 -20.5t10.5 -17.5t7 -10t12 -13t7 -21.5t6 -16.5t14 -16.5t11 -15.5q0 -4 3.5 -7
t3.5 -8t-5 -9q-4 -3 -5 -7t-2.5 -7t-4 -6t-8.5 -5q-8 -2 -12 -2q-14 0 -20 11q-4 7 -9.5 17t-10.5 17t-15 15t-12 21t-4 18t-7 8t-6.5 2t-3.5 8q-1 4 -4.5 11t-8 13.5t-8.5 12t-5 8.5q-2 4 -3 7.5t-3 3.5l-4 -2q-2 -2 -4.5 -7t-5.5 -10t-5.5 -8.5t-5.5 -3.5q-7 0 -7 -2.5
t-6 -12.5q-2 -5 -2.5 -9t-0.5 -8q0 -9 -3 -10q-5 -2 -10 -7t-7 -6t-4 -8t-3 -14t-2.5 -13t-6.5 -11t-6.5 -11t-8.5 -7q-1 0 -3.5 -0.5t-4.5 -0.5q-5 0 -8.5 3t-4.5 11q-1 4 -1 9q0 6 2 9.5t4 6.5q4 4 10 18.5t11 22.5t11 16t8 10t3.5 8.5t6.5 14.5q4 8 8 20.5t10 15.5
q5 3 7 8.5t3 10.5q1 3 2 7.5t1 9.5q0 9 -4 14q-5 8 -11 19.5t-11 25.5q-2 7 -3.5 10.5t-3 6.5t-4 6.5t-6.5 8.5q-10 11 -13 18.5t-11 18.5q-6 10 -9.5 20.5t-8.5 20.5q-3 8 -5.5 11.5t-2.5 9.5q0 21 17 28z" />
    <glyph glyph-name="y" unicode="y" horiz-adv-x="343" 
d="M54 364q4 8 16 13.5t20 7.5q2 1 6 1q6 0 12 -4t8 -13q3 -14 3 -22q0 -5 -2 -11q-2 -3 -2.5 -9.5t-1 -14t-1 -14.5t-2.5 -11q-1 -2 -1 -5q0 -5 2 -8.5t2 -10.5q0 -8 -1.5 -15t-1.5 -14q0 -12 1 -26.5t1 -28.5q0 -5 -0.5 -11t-0.5 -11q0 -8 0.5 -14t1.5 -11q2 -7 2.5 -12.5
t0.5 -16.5q0 -10 2.5 -16.5t6.5 -12.5q0 -5 4.5 -11.5t5.5 -11.5q2 -8 7 -8.5t11 -4.5q5 -4 10.5 -7.5t11.5 -3.5q8 1 13.5 5t15.5 8q9 4 11 8.5t10 12.5q7 8 9 14.5t2 14.5q0 4 -0.5 12t-1 17.5l-1 19t-0.5 15.5q0 13 2.5 28t3.5 23q0 9 -3 22t-3 29q1 11 2.5 18t1.5 12
q0 4 -1 6q-1 5 -1.5 11.5t-0.5 16.5v17q0 18 1 34t4 24t5.5 15t7.5 15q7 8 11.5 12.5t12.5 6.5t10 2q11 0 11 -12q-2 -13 -2 -25.5t-3 -20.5q-1 -3 -1 -9t1.5 -13t1.5 -14q0 -2 -0.5 -3t-0.5 -3t-0.5 -4.5t-0.5 -6.5q0 -11 1 -26.5t1 -24.5q-1 -11 -4.5 -23t-3.5 -23l6 -36
q1 -5 1.5 -18t0.5 -26q0 -14 -1 -19q-2 -11 -1.5 -31.5t-0.5 -44.5q0 -5 -0.5 -10t-2.5 -10q-3 -6 -3 -11t1.5 -11t1.5 -11q0 -4 -2 -16.5t-4.5 -27t-5.5 -28.5t-5 -20q-4 -13 -3 -25.5t-2 -20.5t-6 -17t-8 -18t-4 -15t-8 -16t-15.5 -21.5t-15.5 -14.5q-8 -2 -18 -11t-23 -9
q-5 0 -8 1q-16 5 -25 16t-9 25q0 17 2 25q2 4 7 12t10 10q10 4 18 4q6 0 11 -3q4 -2 5.5 -7.5t1.5 -11.5q0 -11 -3 -15q-4 -5 -7.5 -8t-3.5 -9q0 -8 3 -12.5t5 -4.5q16 0 22 14q3 8 6.5 17t5.5 17t4.5 21.5t2.5 19.5t2.5 17t4.5 19q1 3 1 8.5v25.5q1 11 1.5 18t2.5 15
q2 4 2 27q0 7 1 11q3 10 3 21q0 8 -2 8t-5.5 -2t-7 -5t-6.5 -5.5t-4 -2.5q-2 -1 -5 -6t-12 -5t-13.5 -1.5l-10.5 -3.5q-3 -1 -16 -1q-9 0 -19 1t-16 6q-11 7 -18 10.5t-12 9.5t-11.5 9.5t-8.5 17.5t-11.5 29t-9.5 31q1 17 1.5 28t0.5 25q0 10 -1 19.5t-1 23.5v10.5t1 12.5
q2 23 5 31.5t3 16.5q0 2 -0.5 3t-0.5 3q-4 13 -4 23q0 8 1 12q1 5 1 11v12v11t2 9z" />
    <glyph glyph-name="z" unicode="z" horiz-adv-x="327" 
d="M56 368q-1 2 -1 6q0 8 4.5 14.5t9.5 8.5q4 2 8.5 3.5t12.5 1.5q6 0 9 -1q11 -2 18 -2.5t15 -2.5q7 -2 17.5 -4.5t18.5 -2.5q10 1 21.5 1.5t19.5 0.5h11q8 0 18 0.5t18 3.5q9 3 15 5.5t13 2.5q6 0 9 -1q8 -2 11.5 -8t3.5 -11t-2 -7q-5 -6 -12 -16t-11 -13q-2 -2 -5 -6.5
t-7 -9.5t-7.5 -10t-4.5 -7q-4 -5 -4.5 -10.5t-2.5 -10.5q-6 -18 -17 -32.5t-13 -16.5q-8 -5 -11.5 -6.5t-6.5 -12.5q-4 -11 -9.5 -19t-5.5 -17q-1 -9 -2.5 -16t-6.5 -13t-10.5 -9t-7.5 -11q-3 -8 -12 -23t-15 -23q-7 -8 -10 -15t-8 -15t-10.5 -15t-5.5 -12q0 -1 0.5 -1.5
t0.5 -1.5q2 -4 8.5 -5t14.5 -1q10 0 13 1q6 0 11 -1.5t10 -1.5t7 1q9 2 21.5 3t41.5 1q13 0 17 1q3 1 11 1q6 0 11.5 -1t7.5 -3q3 -3 3 -16q0 -5 -1 -10t-3 -6q-1 -1 -4 -1q-6 0 -13.5 2.5t-12.5 4.5q-1 0 -1.5 0.5t-2.5 0.5q-8 0 -20.5 -3t-23.5 -3q-5 1 -13.5 1.5
t-16.5 0.5h-10t-9 -1q-10 -2 -22.5 -3t-24.5 -1t-22.5 1.5t-24.5 1.5q-6 0 -11 -0.5t-10 -0.5q-13 0 -14 10v8q0 7 1.5 10t6.5 11q5 7 10 16.5t10 19.5t10 18t11 13q16 12 21 40q3 13 12 29t17 21q9 5 12.5 20t12.5 26q8 11 18 23.5t15 24.5q2 6 2.5 9.5t1.5 6.5t2.5 6.5
t6.5 9.5q10 12 15 22.5t10 17.5q1 1 1 3q0 4 -10 4q-4 0 -8.5 -0.5t-7.5 -0.5h-28.5t-14.5 1q-12 0 -18 -1t-12 -1h-5t-10 1q-8 0 -16 -1t-15 -1q-12 0 -14 5z" />
    <glyph glyph-name="braceleft" unicode="{" horiz-adv-x="277" 
d="M315 742q0 -5 -6.5 -12t-15.5 -9q-1 -1 -5 -1t-6.5 0.5t-4.5 0.5q-4 0 -5 -3q-4 -5 -7 -6t-9 -4q-6 -4 -6.5 -6t-8.5 -10q-5 -5 -11 -5h-6q-2 0 -2 -3q0 -5 -3 -10.5t-4 -6.5q-2 -3 -4.5 -8l-8.5 -17q-7 -14 -7 -20.5t-2 -12.5q-3 -6 -6 -15.5t-5 -13.5q0 -3 0.5 -6
t0.5 -7t-1 -7q-2 -9 -3.5 -14.5t-2 -10t-2 -9t-3.5 -11.5q-5 -15 -4.5 -19t-3.5 -11q-5 -8 -8.5 -14.5t-5.5 -14.5q0 -5 1.5 -8t1.5 -8q0 -4 -3 -14q-5 -14 -12 -25.5t-9 -19.5t-12.5 -19.5t-15.5 -14.5q-5 -4 -13.5 -7t-8.5 -8t2.5 -5t11.5 -5t16 -12t13 -19q6 -11 4.5 -14
t3.5 -9q5 -5 5.5 -8t1.5 -6q3 -9 10 -26.5t9 -31.5q3 -14 3 -20t5 -14q4 -8 5 -11t3 -11t3.5 -12.5t5.5 -13.5q3 -9 4 -23t6 -25q4 -11 5 -14t7 -11q5 -8 10.5 -20t10.5 -20q5 -9 6.5 -16.5t9.5 -11.5q8 -3 10.5 -4t8.5 -7q6 -5 14 -11t16 -8t16 -6t8 -11q0 -5 -5.5 -6.5
t-12.5 -1.5h-13q-12 2 -20 4.5t-13 3.5t-18 3.5t-17 4.5q-5 3 -8 6.5t-8 5.5q-4 2 -11 3t-12 4q-4 2 -16.5 15.5t-17.5 32.5q-5 18 -6 23.5t-6 12.5l-2 3q-2 5 -2.5 9t-0.5 10q0 5 -1.5 7l-3 4t-3 5.5t-1.5 11.5q0 17 -2.5 28.5t-3.5 19.5q0 4 -1 11t-1.5 15t-2 16t-3.5 13
q-1 4 -1 10q0 5 0.5 9.5t0.5 9.5q0 10 -5 16q-6 8 -8.5 12.5t-2.5 12.5q-3 12 -9.5 26.5t-8.5 18.5q-3 4 -8 7.5t-13 5.5t-20.5 4.5t-13.5 9.5q0 8 4.5 11.5t17.5 5.5q5 1 13 1h5q6 0 10 4l18 18q3 6 6 13q2 6 3.5 13t2.5 13q1 12 2.5 22.5t2.5 18.5t3.5 12t2.5 13
q0 10 1.5 16t1.5 12l6 30q-1 6 -1 11q-1 5 -1 10v10q0 9 2.5 16t4.5 18t4 16t4 18q1 14 6 20.5t9 17.5q2 5 2.5 9t2.5 7.5t6 7t12 8.5q17 10 33 17t26 9q9 2 22.5 4t26.5 4q12 2 19 5t10 3q1 0 8.5 -0.5t7.5 -3.5z" />
    <glyph glyph-name="bar" unicode="|" horiz-adv-x="99" 
d="M50 756q6 -1 12.5 -8.5t6.5 -15.5q0 -7 -1 -22.5t-1 -25.5v-5q1 -6 1 -16t1 -20v-45q0 -3 1 -13.5t1 -28.5v-18t-2 -20q0 -6 3 -16t3 -16q-2 -23 -7 -40.5t-5 -23.5t2 -11.5t3 -10.5q0 -3 0.5 -30.5t0.5 -64.5q0 -10 1 -19.5t1 -20.5v-11t-2 -13q-1 -8 -2.5 -13t-1.5 -13
q0 -5 2 -10.5t2 -10.5q0 -23 1 -36.5t1 -29.5v-36t-2 -17q-1 -5 -1.5 -10.5t-0.5 -10.5q0 -6 0.5 -12t1.5 -12q2 -4 2 -15q0 -9 -1 -17.5t-1 -11.5q0 -5 -4.5 -11.5t-7.5 -8.5q-5 -2 -8.5 -2h-8.5q-7 0 -9 8q-2 2 -6 5t-4 13v6q2 14 2 30.5v23.5q0 2 -1 33t-1 80q0 5 1 20
t1 29q0 13 1 25t1 24v13t-2 13q-2 12 -2 22v19q0 17 1 30t1 17v69q0 17 -0.5 32t-0.5 29q0 34 0.5 57t0.5 34v8q0 4 -0.5 11.5t-1 16t-0.5 17v14.5v54v19.5t2 12.5q6 8 20 8q2 0 3.5 -0.5t3.5 -0.5z" />
    <glyph glyph-name="braceright" unicode="}" horiz-adv-x="276" 
d="M-39 -78q0 5 6.5 12t15.5 9q1 1 5 1t6.5 -0.5t4.5 -0.5q4 0 5 3q4 5 7 6t9 4q6 4 6.5 6t8.5 10q5 5 11 5h6q2 0 2 3q0 5 3 10.5t4 6.5q2 3 4.5 8l8.5 17q7 14 7 20.5t2 12.5q3 6 6 15.5t5 13.5q0 3 -0.5 6t-0.5 7t1 7q2 9 3.5 14.5t2 10t2 8.5t3.5 12q3 7 3.5 11.5t1 7.5
t1 5t2.5 6q5 8 8.5 14.5t5.5 14.5q0 5 -1.5 8t-1.5 8q0 3 0.5 6t2.5 8q5 14 12 25.5t9 19.5t12.5 19.5t15.5 14.5q5 4 13.5 7t8.5 8t-2.5 5t-11.5 5t-16 12t-13 19q-6 11 -4.5 14t-3.5 9q-5 5 -5.5 8t-1.5 6q-3 9 -10 26.5t-9 31.5q-3 14 -3 20t-5 14q-4 8 -5 11t-3 11
t-3.5 12.5t-5.5 13.5q-3 9 -4 23t-6 25q-4 11 -5 14t-7 11q-5 8 -10.5 20t-10.5 20q-5 9 -6.5 16.5t-9.5 11.5q-8 3 -10.5 4t-8.5 7q-6 5 -14 11t-16 8t-16 6t-8 11q0 5 5.5 6.5t12.5 1.5h13q12 -2 20 -4.5t13 -3.5t18 -3.5t17 -4.5q5 -3 8 -6.5t8 -5.5q4 -2 11 -3t12 -4
q4 -2 16.5 -15.5t17.5 -32.5q5 -18 6 -23.5t6 -12.5l2 -3q2 -5 2.5 -9t0.5 -10q0 -5 1.5 -7l3 -4t3 -5.5t1.5 -11.5q0 -17 2.5 -28.5t3.5 -19.5q0 -4 1 -11t1.5 -15t2 -16t3.5 -13q1 -4 1 -10q0 -5 -0.5 -9.5t-0.5 -9.5q0 -10 5 -16q6 -8 8.5 -12.5t2.5 -12.5
q3 -12 9.5 -26.5t8.5 -18.5q3 -4 8 -7.5t13 -5.5t20.5 -4.5t13.5 -9.5q0 -8 -4.5 -11.5t-17.5 -5.5q-5 -1 -13 -1h-5q-3 0 -5 -0.5t-5 -3.5l-18 -18l-6 -14q-2 -6 -4 -12.5t-2 -12.5q-1 -12 -2.5 -22.5t-2.5 -18.5t-3.5 -12t-2.5 -13q0 -10 -1.5 -16t-1.5 -12l-6 -30
q0 -6 1 -11q0 -5 0.5 -10.5t0.5 -9.5q0 -9 -2.5 -16t-4.5 -18t-4 -16t-4 -18q-1 -14 -6 -20.5t-9 -17.5q-2 -5 -2.5 -9t-2.5 -7.5t-6 -7.5t-12 -8q-17 -10 -33 -17t-26 -9q-9 -2 -22.5 -4t-26.5 -4q-12 -2 -19 -5t-10 -3q-1 0 -8.5 0.5t-7.5 3.5z" />
    <glyph glyph-name="asciitilde" unicode="~" horiz-adv-x="479" 
d="M460 254q-3 -4 -7.5 -8.5t-5.5 -8.5q-3 -6 -7 -10l-17 -14l-8 -6q-4 -2 -7.5 -5t-6.5 -5q-7 -4 -12 -8t-19 -4q-17 0 -29.5 1.5t-15.5 3.5t-8 5.5t-10 3.5q-2 0 -3 -1q-2 -1 -5 -1q-4 0 -6 1.5t-6 3.5l-27 5q-1 0 -4 1q-7 2 -14 7q-11 5 -19.5 8t-10.5 3t-12.5 3t-15.5 5
l-35 10q-2 1 -5 2q-6 2 -11 2q-8 -1 -14.5 -0.5t-9.5 -1.5t-13 -2.5t-15 -3.5q-4 -3 -5 -3t-8 -4q-4 -2 -7.5 -2.5t-6.5 -1.5q-4 -1 -6 -1q-2 -3 -5 -5q-2 -2 -4 -3.5t-3 -2.5t-5.5 -3.5t-9.5 -2.5q-1 0 -2.5 1.5t-2.5 1.5q-2 1 -2 8q0 2 3 6.5l5 7.5q4 5 8 6.5t5 5.5
q2 3 4 7q2 2 3 4.5t3 3.5q5 4 9.5 7.5t14.5 9.5q9 5 19.5 9.5t15.5 6.5q4 2 15 4.5t22 2.5q8 0 11 -1q10 -3 18.5 -5.5t13.5 -2.5h5q4 0 6.5 -0.5l7.5 -1.5q3 -1 10.5 -3t15.5 -4.5t15.5 -5.5t10.5 -4q6 -2 18 -7t16 -5q1 0 5 -1t6 -1q10 -2 12.5 -3.5t7.5 -2.5q5 0 18 -3.5
t18 -5.5q3 -2 8.5 -3t9.5 -1h4q2 2 9.5 1.5t11.5 1.5t13 2.5t15 4.5q5 4 10 7.5t7 5.5q3 3 7 3t5 -1q2 -2 4.5 -4t2.5 -3q0 -3 -3 -6z" />
    <glyph glyph-name="exclamdown" unicode="&#xa1;" horiz-adv-x="146" 
d="M42 -143.958q2 -11 8.5 -13.999q6.5 -3 17.5 -9q5 -4 13 -4q5 0 8.5 1t6.5 1q4 0 5 -1q3 -3 6 -3q2 0 4 4.5t4 9.5q2 5.99902 2 13.999q0 16.999 -2.5 30.498t-5.5 21.498q0 3 2.5 3t2.5 5q0 1 -2.5 3t-2.5 3.99902q2 5 3 6.5t1 9.5q0 4.99902 -4.5 9.99902t-4.5 5.99902
q0 2 1 5.5t1 4.5q0 4 1 6.99902q3 11 4.5 18.499q1.5 7.5 1.5 15.499q0 8 -2 21.999t-4 22.998q-2 4 -2 11q0 5 0.5 15.999t0.5 21.998v21.999q0 10.999 0.5 14.499t0.5 8.5v4.99902t-2 9q-2 10.999 -4.5 17.499q-2.5 6.49902 -2.5 14.499q0 1 -1 2t-1 2.99902q0 2 5 2
q0 2 0.5 2.5t0.5 2.5q0 4 -1 7q-1 2.99902 -1 7.99902q0 2 0.5 7.5q0.5 5.49902 0.5 12.499q0 6.99902 0.5 13.499t0.5 10.499q-2 17.999 -2.5 29.498q-0.5 11.5 -5.5 18.499q-1 1 -1 5t1 8q1 3.99902 1 4.99902q-1 1 -1 5v7.99902q0 3 -1 7t-3 21.999
q-2 17.998 -6.5 20.998t-9.5 3t-10.5 -5.5q-5.5 -5.49902 -5.5 -20.498v-8q0 -14.999 -3 -29.498t-3 -25.498q0 -2 0.5 -3t0.5 -3q2 -4 2 -7q0 -5.99902 -1 -15.499q-1 -9.49902 -2 -19.498q-1 -10 -2 -18.999q-1 -9 -1 -14.999q0 -6 0.5 -16.499q0.5 -10.5 0.5 -20.999
t0.5 -19.499q0.5 -8.99902 0.5 -12.999q1 -6.99902 6 -5.5q5 1.5 5 -5.49902q0 -3 -1 -4q-5 -6.99902 -9 -8.99902t-4 -11l5 -3q0 -4.99902 -2 -6.99902t-2 -8.99902v-22.999q0 -9.99902 -1 -13.999q-2 -11 -2.5 -19.999t-0.5 -18.999v-39.9971q0 -5 0.5 -9
q0.5 -3.99902 0.5 -8.99902q0 -14.999 -3 -35.998q-1 -10.999 -1.5 -25.998t-0.5 -23.999v-6.99902q0 -10 1 -14.999zM78 454.005q5 0 12.5 5.5t14.5 7.49902q6 2 7 11.5q1 9.49902 1 18.499q0 3.99902 -1.5 9.99902t-4 11.999q-2.5 6 -6 10q-3.5 3.99902 -7.5 3.99902
q-8 0 -14 4t-12 4q-10 0 -14.5 -6.5q-4.5 -6.49902 -9.5 -11.499q-4 -3 -6.5 -6.5q-2.5 -3.49902 -2.5 -11.499q0 -15.999 9 -25.498q9 -9.5 14 -15.499q2 -3 8.5 -6.5t11.5 -3.5z" />
    <glyph glyph-name="cent" unicode="&#xa2;" horiz-adv-x="354" 
d="M52 434q0 2 -2 4t-2 3q0 2 6.5 14t14.5 22l3 3q6 9 17.5 20.5t30.5 23.5q20 12 35 10.5t20 3.5t20 5v20v14t2 9q3 5 14 5h5q4 -1 8.5 -6.5t4.5 -10.5t-0.5 -12.5t-0.5 -14.5l2 -3q22 0 44.5 -8.5t29.5 -16.5q14 -17 22 -29.5t8 -20.5q0 -2 -4.5 -7t-10.5 -9.5t-12.5 -8
t-11.5 -3.5t-5 9q0 8 -3.5 19t-3.5 19q0 2 0.5 2.5t0.5 3.5q-1 2 -2.5 1.5t-3.5 1.5q-6 5 -14.5 11.5t-15.5 8.5q-5 2 -9.5 2h-9.5v-12q0 -2 0.5 -9t0.5 -20v-13t-1 -14q0 -5 2 -11.5t2 -11.5q-1 -17 -4.5 -28.5t-3.5 -16.5t1.5 -8.5t1.5 -7.5v-3q0 -2 0.5 -7.5t0.5 -13.5
q0 -7 0.5 -13.5t0.5 -14.5v-8t-1 -9q-1 -6 -2 -9.5t-1 -9.5q0 -3 1.5 -7t1.5 -8q0 -16 0.5 -25.5t0.5 -20.5v-25.5t-1 -12.5q-1 -1 -1 -4q14 0 24.5 4t22.5 12q7 2 9 5q2 2 5.5 2.5t5.5 0.5q3 0 2.5 3.5t0.5 5.5q2 3 4.5 5t4.5 4q7 8 11.5 14t7.5 6q2 0 4 -1t2 -4
q0 -2 -1 -11t-3 -13q-2 -8 -4 -14.5t-2 -16.5q0 -5 -5 -5h-7q-3 -3 -7 -5q-8 -5 -20 -5q-3 0 -4 1.5t-3 1.5q-1 -2 -2 -3l-2 -2l-1 -1q-2 -2 -15.5 -4.5t-27.5 -4.5l1 -2q1 -3 1 -11q0 -6 -0.5 -12t-0.5 -8q0 -4 -3 -8.5t-5 -6.5q-5 -1 -12 -1q-6 0 -7 6q-2 2 -4.5 3.5
t-2.5 8.5v5q1 7 1.5 14t0.5 13q-11 2 -24.5 3.5t-26.5 5.5q-4 2 -7.5 4.5t-4.5 1.5q0 -1 -2 -1t-4 2l-2 2q-2 0 -7.5 2t-11.5 4.5t-10.5 5t-4.5 3.5q0 6 -0.5 7.5t-2.5 1.5h-5h-2q-3 5 -11.5 10t-15.5 17q-5 11 -6 14t-2 8q-2 7 -8 17t-6 21q0 8 -1.5 11.5t-3.5 7.5
q-2 1 -2 7v8q0 3 3 8t3 7q0 5 -3.5 8.5t-3.5 5.5q0 5 1.5 9.5t1.5 9.5q0 3 -1 8t-1 7q0 5 1 7q0 1 1 6t3 11t5 11t7 7q7 2 6.5 4.5t2.5 9.5zM163 206q10 -14 33 -24q-1 11 -1 26v35q0 3 1 13.5t1 20.5q0 9 0.5 17.5t0.5 17.5v9t-1 9q-2 8 -2 15.5v13.5q0 12 1 21.5t1 11.5v7
q0 11 -0.5 22t-0.5 21q0 23 0.5 39.5t0.5 24.5q0 5 -0.5 5.5t-0.5 1.5q-2 -1 -7 -5t-10.5 -8t-10.5 -7t-6 -3q-3 -2 -4.5 -4t-1.5 -7q0 -2 -2 -3q-10 -10 -13 -21.5t-5 -12.5q-3 0 -3 -2v-5q0 -5 -2 -8q-8 -11 -8.5 -21t-1.5 -23q0 -4 1 -7t1 -9q0 -3 -1.5 -4t-1.5 -5
q0 -3 0.5 -6t0.5 -13q0 -5 -2 -9t-2 -8q0 -3 2 -5.5t2 -5.5q0 -8 -2.5 -8t-2.5 -5q1 -1 2.5 -5.5t1.5 -7.5q0 -2 -1 -2h-3q-3 0 -3 -4q0 -3 4 -3q2 0 2 -2q0 -1 -0.5 -2t-0.5 -2q0 -2 3 -2q6 0 7 -4.5t3 -14.5q2 -8 8 -15.5t7 -7.5q4 -2 8 -8.5t9 -11.5z" />
    <glyph glyph-name="sterling" unicode="&#xa3;" horiz-adv-x="445" 
d="M311 560q5 -2 6.5 -3t3.5 -1q5 0 7 4q6 8 8 26q1 5 1 12v13q0 8 -1 11q-2 5 -4 16t-9 20q-8 8 -14.5 13t-9.5 7t-11.5 2t-12.5 4q-1 2 -8 2q-8 0 -21.5 -1.5t-29.5 -10.5q-8 -5 -14.5 -14t-11.5 -18.5t-9 -18t-6 -12.5q-4 -8 -5 -14t-3 -10q-2 -2 -1.5 -5t-1.5 -8t-2 -18
v-8q0 -6 -2 -8t-2 -4.5v-4.5q0 -3 0.5 -6t0.5 -4q0 -4 1.5 -13t2.5 -20q1 -13 2 -15.5l3 -7.5q2 -6 3 -10t1 -12q0 -6 1.5 -12t1.5 -11q0 -4 5 -11.5t5 -9.5t1.5 -9t4.5 -13q4 -5 5 -11t5 -11q3 -4 4.5 -8t7.5 -4h13t14 1q2 1 6.5 1h9.5h11.5t9.5 -1q8 0 14.5 -0.5
t11.5 -3.5t5 -10q-2 -7 -5 -12q-2 -5 -4 -9t-4 -5h-47q-5 0 -7 -0.5t-5 -0.5q-4 0 -9 0.5t-10 0.5q-2 0 -2 -4q0 -6 1.5 -11t1.5 -10q0 -1 -0.5 -2t-0.5 -2q-1 -1 -1 -2q0 -3 2 -5.5t2 -7.5t1 -12.5t1 -21.5q0 -8 -0.5 -13.5t-0.5 -10.5v-10l-8 -27q-2 -7 -5.5 -14.5
t-6.5 -10.5q-3 -4 -5 -10t-3 -6q-4 1 -8 -8t-5 -12q-2 -2 -6 -7.5t-8 -7.5q-4 -3 -4 -8q0 -2 1.5 -4.5t3.5 -3.5q2 0 2.5 -0.5t1.5 -0.5q5 0 8 3.5t9 3.5q7 0 11.5 -9t6.5 -9q1 0 3 0.5t7 0.5h5t8 -1q4 -1 12 -7t10 -8q1 -1 6 -1.5t11 -0.5q10 0 18 2q2 1 5 1q5 0 10.5 -2.5
t10.5 -2.5t10 1t9 1q5 0 16.5 3.5t13.5 3.5h6.5t8.5 2q3 3 4.5 8.5t5.5 6.5q6 1 11 12l12 24q4 6 8 6q5 0 7 -5v-4q0 -8 -3 -22t-5 -19q-4 -12 -7 -13q-2 -1 -2 -9v-6t-1 -3q-4 -2 -12 -2q-4 0 -3.5 -8.5t-1.5 -10.5t-4 -5.5t-5 -3.5q-4 0 -10.5 -6.5t-14.5 -8.5
q-3 -1 -7 -1q-2 0 -4.5 0.5t-4.5 0.5q-3 0 -5 -1q-6 -4 -20.5 -5t-23.5 -3h-4q-6 0 -14.5 1.5t-16.5 3.5t-15 4t-10 4q-6 3 -16 4.5t-16 6.5q-3 3 -10 5.5t-14.5 5t-14 4.5t-8.5 4q-5 2 -15 4t-17 4q-1 1 -3 1q-7 0 -13.5 -4t-12.5 -4q-3 0 -8 -2.5t-10 -5.5q-5 -4 -11 -7
q-7 -5 -11 -8t-7 -5q-4 -3 -6 -4q-3 0 -8 13t-7 21q0 7 6 16t12 12q6 2 9 4.5t11 5.5q8 2 10 5.5t9 7.5q5 5 5.5 7.5t15.5 10.5q13 8 16 22.5t8 21.5t7.5 14.5t4.5 12.5q0 5 1 14t3 14q2 6 1.5 11.5t0.5 14.5q1 8 2.5 12.5t1.5 10.5q0 1 -0.5 2.5t-0.5 3.5q-2 9 -3.5 21.5
t-5.5 20.5q-5 8 -8 10.5t-6 3.5h4q-5 0 -6.5 0.5t-6.5 2.5h-47q-3 0 -9 -1t-10 -1q-3 0 -7 2q-1 0 -1.5 2t-0.5 4q0 5 4 15l6 15q1 5 7 5q2 0 4 -0.5t6 -0.5q2 0 7 1t10 1t8 -1h23q2 0 3.5 5.5t1.5 6.5q0 5 -5.5 11.5t-5.5 12.5q-3 6 -4 16t-6 27q-4 16 -4 26v13
q-1 5 -1.5 12t-0.5 8q0 3 -2 7t-3 28q0 11 0.5 18t0.5 13q0 8 5.5 26.5t11.5 38.5q8 20 16.5 31t15.5 20q4 4 10.5 9.5t13.5 11t13.5 9t9.5 3.5q6 0 16 3t30 8q5 2 8.5 2h6.5q5 0 9.5 -0.5t7.5 -0.5q6 0 12 -1t14 -1q18 -1 38.5 -11.5t26.5 -17.5t10 -13t12 -23
q5 -11 6 -17.5t1 -10.5q0 -2 -0.5 -4.5t-0.5 -4.5q0 -5 -0.5 -10.5t-5.5 -9.5q-5 -3 -4.5 -8t-4.5 -15q-5 -11 -20.5 -23.5t-29.5 -15.5q-2 0 -3 -0.5t-2 -0.5q-18 0 -18 18q0 8 3.5 14.5t11.5 6.5q3 0 4 -1z" />
    <glyph glyph-name="yen" unicode="&#xa5;" horiz-adv-x="428" 
d="M143 315q1 -1 7.5 -2t14.5 -1.5t16.5 -1.5t13.5 -1l3 11q2 8 2 13q0 11 -2.5 20.5t-2.5 15.5q0 8 -10 17.5t-14 17.5q-5 8 -9.5 16.5t-7.5 23.5q-1 7 -4.5 11.5t-8 7.5t-8.5 6t-7 8q-4 9 -13.5 21t-19.5 24t-18 23.5t-8 20.5q-2 18 -13.5 27.5t-15.5 17.5q-3 7 -11 16.5
t-8 32.5q0 9 2 14t5.5 7.5t8 4.5t8.5 6q6 6 12 6q4 0 6 -1.5t3 -2.5t6 -3t11 -6.5t11.5 -11.5t8.5 -16q5 -14 11 -21t17 -24t17.5 -28.5t13.5 -27.5q8 -17 17.5 -25.5t20.5 -22.5q7 -9 9 -16.5t9 -18.5q3 -6 8 -15.5t9.5 -18.5t8.5 -16t6 -7q3 0 7.5 6.5t9 15t8 16.5t6.5 10
q5 5 9 21.5t9 28.5q6 12 11.5 27.5t16.5 29.5t10.5 24.5t5.5 15.5q3 2 4.5 9.5t3 16t3.5 16.5t6 12t5.5 10t2 12t2 10.5t4.5 6.5q6 2 10 2q6 0 12.5 -2.5t10.5 -7.5q4 -4 4 -10q0 -7 -3.5 -13.5t-7.5 -10.5q-5 -5 -11.5 -19.5t-10.5 -21.5q-5 -7 -9 -20t-9 -24t-11 -26
t-14 -21t-11 -18.5t-7 -21.5q-5 -9 -10 -24t-13 -31q-7 -14 -10 -22.5t-10 -19.5q-4 -5 -5 -11.5t-1 -14.5q0 -5 0.5 -12.5t0.5 -21.5v-10.5t1 -11.5h3q3 0 3 -2t-3 -6.5t-3 -6.5q1 -3 5 -3q3 0 7.5 2t8.5 4q8 5 18.5 9.5t22.5 4.5q5 0 12 1t12 1t7 -2t6.5 -4.5t8.5 -2.5
q1 0 1.5 0.5t1.5 0.5q3 2 8.5 3.5t11.5 1.5q5 -1 9.5 -4.5t4.5 -11.5t-6 -20t-20 -14h-4q-8 0 -11.5 3.5t-6.5 3.5q-1 0 -3 -2q-5 -5 -11 -7t-21 -2q-13 0 -23 1t-21 1h-8q-5 -1 -8.5 -1h-6.5q-1 -4 -1 -11q0 -9 1 -20.5t2 -25.5v-18h3q5 0 10 -0.5t11 -0.5q7 0 21 0.5
t26 0.5h11t8 -1q2 -1 6 -1q6 0 12 2t16 2q11 -1 17.5 -7t6.5 -13t-1 -16t-9 -10t-13.5 -5t-15.5 -5q-5 -1 -10.5 -1h-10.5h-10t-8 1t-12 5.5t-15 4.5q-1 0 -1 -0.5t-1 -0.5h-1l-6 -6t-11 -3h-21l1 -1q1 -5 1 -16q0 -17 -2 -35t-4 -31q-2 -16 -4 -25.5t-10 -19.5
q-4 -5 -10.5 -9t-13.5 -7.5t-12 -5.5l-5 -2q-3 0 -4 6t-1 14t-1 15t-1 18q0 9 1 20.5t1 21.5t-1 13q-2 8 -2 14q0 7 1 16t3 17h-7q-7 0 -15 0.5t-15 0.5h-10q-2 0 -5.5 -1.5t-3.5 -0.5q-5 0 -12 -1t-12 -1t-7 2t-6.5 4.5t-8.5 2.5q-1 0 -1.5 -0.5t-1.5 -0.5q-3 -2 -8.5 -3.5
t-11.5 -1.5q-5 1 -9.5 12t-4.5 19q0 15 26 19h4q8 0 11.5 -3.5t6.5 -3.5q1 0 3 2q5 5 11 7t21 2q8 0 14 -0.5t11 -0.5t9 -0.5t11 -0.5q2 0 4.5 -0.5t5.5 -0.5q-3 10 -3 19q0 8 -1.5 25.5t-3.5 36.5q-4 0 -7 0.5t-6 0.5q-6 0 -10 -2q-1 -1 -5 -1.5t-9 -1t-9.5 -0.5h-6.5h-11
t-8 1q-2 1 -6 1q-6 0 -12 -2t-16 -2q-11 1 -17.5 7t-6.5 13t5 15.5t13 9.5t9.5 5.5t11.5 5.5q5 0 10.5 0.5t10.5 0.5t10 -0.5t8 -0.5z" />
    <glyph glyph-name="brokenbar" unicode="&#xa6;" horiz-adv-x="86" 
d="M53 349q-7 0 -15.5 5t-9.5 13t-5.5 9.5t-5.5 11.5q-1 5 -1 10.5v10.5v10t1 8q0 2 4.5 9t4.5 11l-6 6t-3 11t1 20.5t3 20.5q2 10 2 15q0 4 -0.5 7t-1.5 7q-1 2 -1 11q0 7 0.5 15t0.5 15v10q0 3 2 3t6.5 -3t6.5 -3q3 1 3 5q0 3 -2 7.5t-4 8.5q-4 6 -9 13t-5 18q0 5 -1 12
t-1 12t2 7t4.5 6.5t2.5 8.5q0 1 -0.5 1.5t-0.5 1.5q-2 3 -3.5 8.5t-1.5 11.5q1 5 4.5 9.5t11.5 4.5t17.5 -6t11.5 -20v-4q0 -8 -3.5 -11.5t-3.5 -6.5q0 -1 2 -3q5 -5 7 -11t2 -21q0 -13 -1 -18.5t-1 -15.5v-8q0 -8 0.5 -13t0.5 -10t-0.5 -9.5t-0.5 -10.5q-1 -10 -3.5 -23
t-2.5 -22q0 -4 2 -8q3 -5 3 -12q0 -5 -0.5 -10t-0.5 -11q0 -7 0.5 -18t0.5 -21q0 -13 -1 -17q-1 -2 -1 -6q0 -6 2 -12t2 -16q-1 -11 -4.5 -17.5t-10.5 -6.5zM53 -111q-7 0 -15.5 5t-9.5 13t-5.5 9.5t-5.5 11.5q-1 5 -1 10.5v10.5v10t1 8q0 2 4.5 9t4.5 11l-6 6t-3 11t1 20.5
t3 20.5q2 10 2 15q0 4 -0.5 7t-1.5 7q-1 2 -1 11q0 7 0.5 15t0.5 15v10q12 3 12 13q0 11 -8 28.5t-8 31.5q0 5 2 7t4.5 6.5t2.5 8.5q0 1 -0.5 1.5t-0.5 1.5q-2 3 -3.5 8.5t-1.5 11.5q1 5 4.5 9.5t11.5 4.5t17.5 -6t11.5 -20v-4q0 -8 -3.5 -11.5t-3.5 -6.5q0 -1 2 -3
q5 -5 7 -11t2 -21q0 -13 -1 -18.5t-1 -15.5v-8q0 -8 0.5 -13t0.5 -10t-0.5 -9.5t-0.5 -10.5q-1 -10 -3.5 -23t-2.5 -22q0 -4 2 -8q3 -5 3 -12q0 -5 -0.5 -10t-0.5 -11q0 -7 0.5 -18t0.5 -21q0 -13 -1 -17q-1 -2 -1 -6q0 -6 2 -12t2 -16q-1 -11 -4.5 -17.5t-10.5 -6.5z" />
    <glyph glyph-name="section" unicode="&#xa7;" horiz-adv-x="342" 
d="M267 538q2 0 5 4.5t5 8.5q2 5 2 10.5t2 14.5q1 4 1 13q0 5 -0.5 9.5t-0.5 9.5t-2.5 11.5t-3.5 11.5q-1 6 -3.5 7t-3.5 3q-1 3 -4 10.5t-5 9.5q-2 4 -5 7l-7 7q-3 2 -10 4t-12 4h-10h-11t-11 -1q-7 -2 -11 -5t-12 -5q-4 -2 -7.5 -4t-4.5 -3q-6 -6 -13 -7q-3 -1 -7 -8.5
t-8 -15.5q-3 -4 -4 -8.5t-2 -8.5t-1 -9v-21q0 -5 2 -9.5t2 -9.5q0 -3 2 -6l4 -6q1 -4 4 -10t8 -14q5 -7 17.5 -18.5t14.5 -14.5t6.5 -7.5t6.5 -5.5q2 -2 4.5 -7t4.5 -7q1 -2 5 -6t14 -9q7 -3 14 -11.5t9 -8.5q8 -4 8 -10q2 -4 4.5 -6t5.5 -6l6 -6l6 -6l6.5 -6.5t6.5 -9.5
q2 -4 1.5 -5t1.5 -4q2 -2 5.5 -9t8.5 -12q5 -6 5.5 -11.5t2.5 -11.5q4 -5 5 -13t3 -11q2 -4 2 -9t1 -13q1 -7 1.5 -10t0.5 -6v-6q0 -7 -2 -11t-1.5 -10.5t-1.5 -11.5q-2 -6 -4 -16t-3 -17t-2.5 -13.5t-3.5 -11.5t-3.5 -10.5t-5.5 -10.5q-3 -4 -4.5 -7.5t-4.5 -13.5
q-2 -11 -10 -25t-13 -19t-5 -6.5t-3 -6.5t-4.5 -7t-6.5 -5q-4 -5 -4 -6.5t-4 -5.5q-3 -3 -4.5 -5.5t-2.5 -3.5q-2 -1 -5 -3.5t-6 -4.5l-13 -9q-5 -2 -8 -6t-7 -4t-8 -3.5t-11 -5.5q-6 -2 -19 -5t-18 -3t-18.5 0.5t-20.5 0.5t-15.5 4.5t-10.5 6.5l-9.5 9.5t-11.5 12.5
q-4 4 -6.5 4t-4.5 5t-3 10.5t-3 11.5q-5 10 -5 11t-1.5 9.5t-2.5 29.5q0 3 1.5 9.5t3.5 13.5t4.5 13t4.5 9q2 2 5.5 3t5.5 3q3 1 5 5.5t8 9.5q6 8 8.5 9t10.5 2q5 0 5 -7q0 -4 -1 -4q-2 -1 -5 -3.5t-6 -8.5q-3 -7 -4.5 -15t-1.5 -9q0 -2 -3 -4t-3 -5q0 -2 1 -7.5t1 -10.5v-7
q0 -2 0.5 -5t0.5 -6t1.5 -9.5t1.5 -8.5q0 -4 4.5 -14t6.5 -15t7 -9.5t7 -6.5q3 -3 7.5 -6.5t8.5 -5.5q4 -1 11 -1h35q6 0 13 4t14 8.5t12.5 9.5t7.5 7q5 6 8 19t3 24q0 4 1 8.5t1 10.5q0 1 -0.5 2t-0.5 3q-2 9 -3.5 18t-3.5 11q-3 3 -7.5 14.5t-7.5 19.5q-3 7 -6.5 11.5
t-6.5 10.5q-4 5 -5 7t-8 7q-7 3 -9 10t-6 11q-4 5 -9 9t-7 7q-2 4 -9.5 9t-9.5 7q-3 4 -8 7.5t-10 8.5q-4 6 -5.5 6.5t-6.5 4.5q-4 5 -3.5 5.5t-1.5 6.5q-2 5 -6 8.5t-9 9.5t-9.5 10.5t-6.5 8.5q-2 5 -5 8t-6 8q-2 3 -3.5 7t-3.5 8q-3 4 -5 9l-3 27q0 2 -1.5 8t-1.5 8
q0 11 1 24.5t1 19.5q2 9 3.5 8.5t3.5 5.5q2 4 2 10v7v5.5t1 7.5q2 13 9.5 27.5t12.5 23.5q5 10 9.5 17.5t9.5 15.5q5 7 8 8.5t8 5.5q6 2 8 10.5t7 12.5q4 3 6.5 8t6.5 6q3 3 4 5.5t6 5.5q4 2 8.5 5t10.5 11q6 5 10 6t12 6q10 5 24.5 9t19.5 6q2 1 7 1q6 0 12 -2t14 -2
q4 -1 14.5 -4.5t15.5 -6.5q5 -2 7 -4.5t6 -6.5q5 -5 8 -6.5t6 -6.5q3 -4 6 -10.5t6 -11.5q2 -8 2 -11q1 -3 3 -7.5t3 -6.5q0 -2 0.5 -3t0.5 -2q0 -3 -2 -9q-1 -6 -1 -12v-14q-2 -8 -4 -11.5t-6 -8.5q-2 -5 -3.5 -8t-5.5 -7q-4 -3 -5.5 -3.5t-5.5 -5.5q-3 -6 -5.5 -10
t-11.5 -11q-3 -1 -10 -1q-13 0 -13 10q0 2 0.5 2.5t0.5 1.5q2 5 6 6.5t7 1.5h4zM249 156q3 2 10 10t7 9q1 6 6 10t5 6t0.5 9.5t2.5 10.5q2 5 3 12.5t1 17.5q0 8 -2.5 12t-4.5 9q-1 7 -6.5 18t-7.5 16q-3 6 -6 11t-8 14q-7 11 -6.5 13.5t-3.5 5.5q-2 2 -2 4t-0.5 5t-3 6.5
t-9.5 8.5q-15 10 -20 17t-10 12q-5 4 -20 15t-24 22q-8 11 -9 14t-6 8q-8 10 -14 12q-4 2 -11 9.5t-10 16.5q-3 8 -6.5 16t-4.5 15q0 6 1 16.5t1 12.5t-2.5 5.5t-4.5 3.5q-4 0 -5 -4q-5 -7 -6.5 -10.5t-3.5 -6.5q-2 -5 -3 -10t-4 -10q-4 -6 -4 -14q-1 -5 -1.5 -9t-0.5 -8
q0 -5 1 -6.5t1 -8.5q0 -5 -1.5 -8.5t-1.5 -5.5t2 -3t3 -5q2 -8 3.5 -15t4.5 -13q4 -7 5 -13t6 -11q5 -2 4.5 -6t2.5 -6q4 -3 8.5 -8t6.5 -7q2 -3 13 -12q5 -5 12 -14t13 -13q5 -3 11 -9.5t10 -11.5q5 -4 6 -3.5t8 -5.5t9 -8.5t8 -9.5l18 -23q3 -3 6 -7q2 -3 3.5 -5.5
t2.5 -4.5q2 -2 8 -13.5t8 -19.5t5.5 -13t3.5 -11q0 -15 1.5 -21.5t1.5 -9.5z" />
    <glyph glyph-name="dieresis" unicode="&#xa8;" horiz-adv-x="294" 
d="M75 584q6 0 14.5 -6t16.5 -8q7 -2 8 -12.5t1 -20.5q0 -4 -2 -10.5t-5 -12.5t-7 -10.5t-8 -4.5q-10 0 -16.5 -4.5t-13.5 -4.5q-11 0 -16.5 7t-11.5 12q-4 4 -7 7.5t-3 12.5q0 17 10 27.5t17 16.5q2 4 9.5 7.5t13.5 3.5zM237 576q5 -3 9.5 -13t11.5 -15q5 -5 0.5 -15
t-9.5 -18q-2 -3 -6.5 -8t-10 -8.5t-11.5 -5.5t-10 0q-8 5 -16 4t-14 2q-10 6 -11 15t-4 16q-2 5 -3 9.5t4 12.5q8 15 22 19t23 6q4 2 12 1.5t13 -2.5z" />
    <glyph glyph-name="copyright" unicode="&#xa9;" horiz-adv-x="447" 
d="M312 590q1 0 2.5 -5t1.5 -9q0 -3 -2 -5q0 -2 -0.5 -4.5t-2.5 -4.5q-2 -1 -4 -4.5t-5 -3.5h-1q-2 0 -3 1q-4 2 -11 3.5t-8 2.5t-3 1t-8 3q-5 2 -12 4.5t-14 2.5l-8 -3h-4h-7t-9 -2q-8 -2 -12.5 -2.5t-9.5 -5.5q-5 -4 -8.5 -4t-5.5 -4q-3 -3 -5 -7t-7 -10t-6.5 -12t-3.5 -9
q-3 -4 -4.5 -9.5l-7.5 -27.5q0 -2 1 -2q4 -3 3 -4t2 -6t7.5 -18t4.5 -19q1 -7 2.5 -9t5.5 -4q5 -2 12.5 -7t10.5 -8q3 -2 5.5 -3.5t10.5 -3.5q10 -3 14.5 -4.5t9.5 -1.5q3 0 7.5 -2t9.5 -2q3 0 7 2q6 4 16 7t12 3t10.5 4t13.5 4q2 0 4 -2q3 -5 4 -10.5t1 -7.5q0 -3 -1 -8.5
t-7 -8.5t-13.5 -5t-11.5 -4t-6 -2.5t-5 -0.5h-6q-5 0 -9 -1.5t-15 -2.5h-8q-8 0 -10 0.5t-7 1.5q-2 0 -9.5 2t-15.5 3.5t-15.5 3.5t-9.5 2q-8 1 -18 10q-5 5 -4.5 6t-10.5 8t-16.5 22t-8.5 20t-5 9t-2 10v29v10t1 8q2 12 6 22.5t6 15.5t4 11t6 9q5 4 9.5 13.5t14.5 13.5
t22 11t21 9q8 2 19 4.5t22 2.5h19q5 0 9.5 -0.5t9.5 -3.5q9 -5 18 -5t14 -2q5 -1 5.5 -2.5t1.5 -2.5zM326 670q8 -5 12.5 -12.5t9.5 -9.5t8 -5.5t8 -8.5q5 -4 12.5 -10.5t14.5 -17.5q3 -6 7.5 -13.5t9 -14.5t8 -13t4.5 -8q0 -1 0.5 -1.5t0.5 -1.5q0 -4 -1.5 -8t-1.5 -7
q0 -1 1 -3t2 -2q4 -4 4.5 -6l2.5 -10q1 -6 4 -16.5t3 -21.5q0 -5 -0.5 -8t-1.5 -7q-5 -14 -7 -21.5t-4 -14.5q0 -2 0.5 -4.5t0.5 -6.5t-1.5 -10.5t-7.5 -17.5q-11 -22 -22.5 -38.5t-13.5 -16.5t-6.5 -5.5t-8.5 -8.5q-4 -2 -15 -10t-25 -16q-6 -3 -17 -8t-25 -9.5t-29.5 -8
t-30.5 -3.5q-9 0 -14 1q-33 4 -44 7t-16 4q-5 2 -11.5 6.5t-9.5 7.5q-4 4 -14.5 12t-17.5 10q-6 3 -10.5 10.5t-13.5 13.5q-5 3 -13 12t-16.5 22t-15.5 28t-8 30q-2 23 -3 37t-1 23q0 7 1 8q2 5 3.5 18.5t4.5 22.5t5 19.5t12 22.5q10 13 12 23.5t13 17.5t20 15t14 12
q4 4 14.5 10t20.5 11q10 4 21.5 10t19.5 7l20 4t26 3q6 0 8 -1q11 -3 23 -2.5t23 -3.5t27 -8t25 -9zM294 632q-3 4 -11 9.5t-21 7.5q-14 2 -24 2.5t-24 1.5q-13 0 -23.5 -5t-32.5 -15q-12 -5 -18 -8.5t-9 -5.5t-5 -3.5t-5 -2.5q-7 -3 -10 -9.5t-10 -13.5q-7 -6 -8 -11
t-6 -11q-4 -5 -6.5 -9t-2.5 -11q-1 -8 -4 -16.5t-5 -21.5q-1 -4 -2 -6.5t-1 -5.5t1 -4.5t1 -3.5t-1 -3t-1 -3v-7q0 -8 2 -16t2 -19t3.5 -16t3.5 -12v-14q0 -4 10.5 -10.5t10.5 -7.5q1 0 3 -10t5 -12q4 -2 8 -7t8 -7q3 -3 18 -10.5t30 -13.5q7 -4 18.5 -6t23 -3.5t20.5 -2
t12 -0.5q7 0 20 5.5t21 8.5q1 0 1.5 0.5t1.5 0.5q8 2 16 5t16 8q5 3 11 11.5t11 17t8.5 15.5t4.5 8q2 3 6 9.5t9 13.5t5 16t3 24q3 12 3 23q0 16 -2 30t-2 20q0 8 -4 17t-8 23q-5 13 -19 25.5t-20 15.5q-5 3 -7.5 8t-9.5 10q-6 4 -9.5 4t-5.5 3z" />
    <glyph glyph-name="ordfeminine" unicode="&#xaa;" horiz-adv-x="318" 
d="M83 612q-8 0 -17 4.5t-9 17.5q2 15 5 22.5t7 11.5q8 8 13 18q4 11 21 24q10 7 17.5 10t11.5 10t15 10.5t33 3.5q16 0 23 -3t15 -8q9 -5 17.5 -14t13.5 -18t7 -19.5t8 -17.5q5 -5 4.5 -13t1.5 -15t2 -14.5v-16.5q0 -20 -1.5 -32.5t-1.5 -21.5q0 -10 2 -14q4 -9 5 -27
t1 -34q0 -11 -1 -18t-1 -13q0 -5 1 -11.5t1 -17.5q0 -14 -0.5 -30t-1.5 -28q-1 -17 -4 -22t-4 -10t-1.5 -10t-2.5 -9q-3 -4 -7.5 -3t-7.5 -3q-3 -5 -9 -5q-4 0 -8 3q-10 9 -12 29q-1 17 -9 25q-3 4 -7 4q-3 0 -7 -3q-5 -4 -15 -7t-11 -3q-4 0 -9 -4.5t-19 -4.5
q-8 0 -13.5 -2t-11.5 -2q-12 0 -28 5t-30.5 14.5t-25.5 22t-12 27.5q0 5 -0.5 8t-0.5 5q0 11 2 11.5t4 2.5q2 3 2 11.5t3 16.5q4 8 16.5 19.5t22.5 17.5t21 14t22 12q22 7 41 9q6 1 10 2.5t9 1.5q2 0 4 -0.5t5 -1.5q7 -2 13 -4.5t10 -2.5q5 0 5 4q0 3 0.5 10t0.5 15t-0.5 16
t-0.5 14q-1 9 -2.5 17t-1.5 17q0 11 -2.5 20.5t-3.5 20.5q0 20 -4 31q-8 25 -28 25q-16 0 -26.5 -9t-23.5 -11q-10 -2 -10 -4.5t-2 -7.5t-4 -13t-2 -31q0 -9 -1 -12q-2 -5 -6 -8.5t-10 -3.5zM209 469q0 12 -3.5 14t-7.5 7q-5 5 -13.5 7.5t-16.5 2.5q-11 0 -19.5 -4t-19.5 -4
q-5 0 -8.5 -1.5t-6.5 -1.5q-4 0 -12.5 -5t-13.5 -8t-9.5 -10t-4.5 -18t1.5 -19t8.5 -22q4 -8 10 -14t8 -11q3 -5 13.5 -5.5t15.5 -5.5q4 -4 11 -4t17 4l9 3t14 3t19 4t10 10q0 2 0.5 3.5t0.5 3.5q0 6 -1 13.5t-1 21.5t-0.5 19t-0.5 17z" />
    <glyph glyph-name="guillemotleft" unicode="&#xab;" horiz-adv-x="416" 
d="M239 450q4 -4 4 -8q0 -2 -0.5 -2.5t-0.5 -1.5l-1 -1q1 0 3 -3.5t2 -5.5q0 -3 -5.5 -9t-12 -12t-11.5 -10.5t-4 -4.5q-4 -2 -5 -5.5t-5 -5.5t-7.5 -6.5t-14.5 -13.5q-9 -8 -20 -12t-15 -18q0 -2 -1 -3q-7 -5 -9.5 -7t-9.5 -9t-17.5 -21t-17.5 -22t-11 -16t-6 -13
q-1 -2 -1 -7q0 -12 10 -29q8 -12 14 -19.5t8 -12.5t5.5 -6.5t8.5 -6.5q3 -3 3.5 -6.5t0.5 -7.5t0.5 -6.5t2.5 -2.5q10 0 17.5 -4t12.5 -8t12.5 -9.5t15.5 -15.5q5 -6 5 -8q0 -1 -1 -0.5t-1 -1.5t1 -3q3 -5 14.5 -10t16.5 -9t14.5 -11.5t12.5 -12.5q2 -4 4.5 -10t2.5 -12
q0 -3 -2 -5q-4 -5 -8 -12t-11 -7q-4 0 -8 3q-11 8 -17 9t-9 8t-10 10t-11 6t-10 10t-10 11l-40 36l-16 16l-18 18q-3 2 -7.5 8t-6.5 9l-5 7.5t-8 9.5q-3 2 -7 6l-8.5 8.5t-7.5 8t-3 4.5q0 2 -5.5 13t-5.5 29v6.5t1 6.5q4 23 18 41.5t22 23.5t11 9.5t6 8.5q1 2 1.5 2.5t1.5 2
t3.5 3.5t7.5 7q11 10 21 18t15 13t9 13t15 18t15 14.5t18 13.5t23 18t13 11q2 1 5 1q7 0 14 -8zM389 450q4 -4 4 -8q0 -2 -0.5 -2.5t-0.5 -1.5l-1 -1q1 0 3 -3.5t2 -5.5q0 -3 -5.5 -9t-12 -12t-11.5 -10.5t-4 -4.5q-4 -2 -5 -5.5t-5 -5.5t-7.5 -6.5t-14.5 -13.5
q-9 -8 -20 -12t-15 -18q0 -2 -1 -3q-7 -5 -9.5 -7t-9.5 -9t-17.5 -21t-17.5 -22t-11 -16t-6 -13q-1 -2 -1 -7q0 -12 10 -29q8 -12 14 -19.5t8 -12.5t5.5 -6.5t8.5 -6.5q3 -3 3.5 -6.5t0.5 -7.5t0.5 -6.5t2.5 -2.5q10 0 17.5 -4t12.5 -8t12.5 -9.5t15.5 -15.5q5 -6 5 -8
q0 -1 -1 -0.5t-1 -1.5t1 -3q3 -5 14.5 -10t16.5 -9t14.5 -11.5t12.5 -12.5q2 -4 4.5 -10t2.5 -12q0 -3 -2 -5q-4 -5 -8 -12t-11 -7q-4 0 -8 3q-11 8 -17 9t-9 8t-10 10t-11 6t-10 10t-10 11l-40 36l-16 16l-18 18q-3 2 -7.5 8t-6.5 9l-5 7.5t-8 9.5q-3 2 -7 6l-8.5 8.5
t-7.5 8t-3 4.5q0 2 -5.5 13t-5.5 29v6.5t1 6.5q4 23 18 41.5t22 23.5t11 9.5t6 8.5q1 2 1.5 2.5t1.5 2t3.5 3.5t7.5 7q11 10 21 18t15 13t9 13t15 18t15 14.5t18 13.5t23 18t13 11q2 1 5 1q7 0 14 -8z" />
    <glyph glyph-name="logicalnot" unicode="&#xac;" horiz-adv-x="450" 
d="M28 419q-7 0 -10 3t-5 12q-1 2 -1 6q0 7 3 17t7 10q7 -1 11.5 -1.5t7.5 -0.5q6 0 8.5 1t6.5 1q18 1 34.5 2.5t33.5 1.5q16 0 31 -1.5t29 -1.5q42 0 67 1t31 2h10h16.5t18 -0.5t14.5 -1t8 -0.5h45h19.5t12.5 -2t5 -12t2 -14q1 -2 1 -5q-1 -5 -1.5 -14t-0.5 -15v-4
q1 -4 1 -10.5t1 -13.5v-19q0 -5 -3 -7.5t-3 -6.5q0 -1 0.5 -1.5t0.5 -1.5q2 -5 2.5 -6t1.5 -7q0 -1 0.5 -3t0.5 -4q-1 -5 -1 -9v-9q0 -8 1 -11t1 -10q0 -6 -0.5 -11.5t-0.5 -7.5q0 -3 -3.5 -7.5t-7.5 -5.5t-12.5 -1h-12.5t-5.5 1.5l-3.5 3.5t-4.5 3.5t-2.5 8.5v4q2 9 2 19
v15v58q-1 5 -1.5 14.5t-0.5 14.5v8q0 4 -0.5 9t-1.5 7q-2 2 -11.5 3t-17.5 1h-7q-6 -1 -16 -1t-20 -1h-30q-3 0 -15 -0.5t-29 -0.5h-17.5t-19.5 1q-6 0 -16 -2t-16 -2q-16 1 -31.5 5t-32.5 4q-8 -2 -9.5 -2.5t-10.5 -1.5h-9h-16t-17 -0.5t-11 -0.5z" />
    <glyph glyph-name="registered" unicode="&#xae;" horiz-adv-x="445" 
d="M325 660q8 -5 12 -12.5t10 -9.5q5 -1 7.5 -5t7.5 -8q6 -5 13 -11t14 -17q3 -6 7.5 -13.5t9 -14.5t8 -13t4.5 -8q0 -1 0.5 -1.5t0.5 -2.5q0 -3 -1 -7t-1 -7q0 -1 0.5 -3t1.5 -2q4 -4 5 -6t2 -10q1 -6 4 -16.5t3 -21.5q0 -10 -2 -15q-5 -14 -7 -21.5t-3 -14.5v-10
q0 -4 -1.5 -11t-6.5 -18q-12 -21 -23.5 -38t-12.5 -17q-2 0 -7 -5t-9 -8q-3 -3 -14.5 -10.5t-25.5 -15.5q-6 -4 -16.5 -9t-24.5 -9.5t-29.5 -7.5t-30.5 -3q-9 0 -14 1q-33 4 -43.5 7t-15.5 4q-5 2 -11.5 6t-10.5 8t-14.5 11.5t-16.5 10.5q-7 3 -11 10.5t-13 12.5
q-5 3 -13 12t-16.5 22t-15.5 28.5t-8 30.5q-2 23 -3 36.5t-1 21.5v9q3 5 4 18.5t5 22.5q3 9 4.5 19t11.5 23t12.5 23t13.5 18q10 6 19 14.5t14 11.5q4 4 14.5 10t20.5 11q10 4 22 10.5t19 6.5l20 4t26 3q6 0 8 -1q11 -3 23 -2.5t23 -3.5q10 -3 26.5 -7.5t25.5 -9.5zM292 623
q-2 3 -10 8.5t-21 7.5q-14 2 -24 2.5t-24 1.5q-13 0 -23.5 -5t-32.5 -15q-12 -5 -18 -8.5t-9 -5.5t-5 -3.5t-5 -2.5q-6 -2 -9.5 -9t-9.5 -13q-8 -6 -9 -11.5t-5 -10.5q-5 -5 -7 -9t-3 -12q0 -7 -3 -15.5t-6 -21.5q-1 -4 -1.5 -6.5t-0.5 -5.5t0.5 -4.5t0.5 -3.5t-0.5 -3
t-0.5 -3v-7q0 -8 1.5 -16t1.5 -18q0 -12 4 -17t4 -12v-14q0 -2 3 -4.5t7 -5.5t7 -5t3 -3q2 0 3.5 -9.5t5.5 -11.5t8 -7t7 -8t18 -10l30 -14q7 -3 18.5 -5.5t23 -4t20.5 -2t12 -0.5q6 0 19.5 6t21.5 9q1 0 1.5 0.5t1.5 0.5q8 2 16 5t16 8q5 3 10.5 11t10.5 16.5t9 15.5t5 9
q2 2 5.5 8.5t8.5 14.5q5 6 5 15t4 24q1 6 1.5 11.5t0.5 11.5q0 16 -2 30t-2 20q0 7 -3.5 16t-8.5 23q-2 6 -7 13t-11 13t-11.5 10t-8.5 5q-5 3 -8 8t-9 10t-10 4.5t-6 3.5zM309 541q0 -3 -1 -5.5t-1 -4.5t1 -2q1 -4 1 -6v-6q-1 -4 -1.5 -6.5t-2.5 -8.5l-4 -10t-7 -9t-7 -5.5
t-7 -4.5q-5 -2 -10.5 -4t-4.5 -4q0 -1 6.5 -3t9.5 -5t5.5 -4.5t2.5 -4.5l4 -8q2 -3 1.5 -4t1.5 -6t4 -13.5t4 -17.5t2.5 -13.5t2.5 -8.5q3 -4 3 -11v-5.5t1 -5.5q3 -3 3 -4q0 -4 -7 -4q-5 1 -16 1h-14q-2 0 -7 2t-7 6q-1 4 -2.5 8t-1.5 12q-1 5 -1 7.5t-2 7.5l-5 20
q-1 6 -3 11q-3 10 -12 15q-7 5 -8.5 6.5t-8.5 3.5q-5 2 -7.5 2h-5.5q-2 0 -3 -0.5t-3 -0.5q-1 0 -3 0.5t-3 0.5q-7 0 -7 -4q-1 -4 -2.5 -9t-1.5 -10v-12q1 -5 2 -5.5t1 -9.5t-1.5 -12t-1.5 -11q0 -5 1.5 -13t1.5 -10q0 -3 -1 -4.5t-8 -1.5q-5 0 -12.5 1t-11.5 1h-3
q-2 0 -2.5 -0.5t-1.5 -0.5q-7 0 -7 10v17v7q-2 2 -2 7q0 3 1 6t1 8v7v18q0 2 0.5 4.5t0.5 5.5q0 4 -0.5 7.5t-0.5 7.5q-2 2 -2 6q0 5 2 7t2 7q-1 4 -1 12t-1 12v6q0 5 0.5 8.5t0.5 7.5q0 2 -0.5 2.5t-0.5 1.5q0 2 -1.5 7.5t-1.5 11.5q0 7 1 10q2 2 2 7.5v7.5v10q2 3 2.5 7.5
t8.5 4.5q7 0 18.5 1t14.5 1q4 0 7.5 1t7.5 1q2 0 5 -1.5t8 -1.5q2 0 3 0.5t3 0.5h5q5 0 10 -1t12 -1q2 0 8 -1t11 -4q6 -5 7.5 -4.5t6.5 -5.5q5 -5 11.5 -7t9.5 -6q5 -7 9 -18v-2zM258 537q-2 7 -9 10.5t-12 5.5q-1 0 -1 0.5t-1 0.5h-2q-2 0 -3.5 -0.5t-4.5 -0.5
q-2 0 -3 0.5t-3 0.5q-8 2 -11 2.5t-8 0.5t-6.5 -1.5t-3.5 -6.5q-1 -2 -1 -9v-10q0 -11 -5 -17q-1 0 -1 -2t6 -10v-5q0 -2 -0.5 -3t-0.5 -4q0 -5 8 -5h4q2 0 4.5 -0.5t4.5 -0.5h4h18q5 0 9 3.5t9 6.5q5 2 6 3.5l3 4.5q1 1 1 5v7q0 4 1 6t1 6q0 1 -3 12z" />
    <glyph glyph-name="degree" unicode="&#xb0;" horiz-adv-x="275" 
d="M167 629q11 -1 17.5 -2t10 -2.5t6 -4t6.5 -5.5q8 -6 15.5 -8t11.5 -4t8.5 -7.5t11.5 -22.5q5 -11 6.5 -23t1.5 -23t-1.5 -20t-4.5 -14q-4 -6 -6.5 -19.5t-15.5 -24.5t-26.5 -21t-17.5 -11q-2 0 -8 -3t-13.5 -6t-15 -5.5t-12.5 -3.5q-6 -1 -12 -1.5t-11 -0.5q-4 0 -7 0.5
t-5 0.5q-6 1 -18 4t-17 4t-10.5 5.5t-12.5 9.5t-9 9t-10 14l-3 3q-5 7 -5.5 10t-2.5 16q-1 8 -1.5 14t-0.5 13q0 5 0.5 10t0.5 12t1 11t3 7t4.5 7t6.5 11q8 14 14 23.5t17 16.5q13 8 22 13t16 7q12 0 27.5 5.5t29.5 5.5h9zM137 597q-8 0 -11.5 -1.5t-11.5 -8.5
q-5 -5 -9.5 -9t-8.5 -5t-8.5 -7t-4.5 -11v-5.5t-1 -9.5l-2 -31q-1 -2 -1 -7q0 -7 3 -18t7.5 -21.5t9.5 -19.5t8 -12t8 -5.5t20 -2.5q14 0 23.5 5t11.5 11t6.5 11.5t6.5 7.5t1.5 6t1.5 12q2 7 5.5 15t3.5 25q-1 22 -5.5 36t-10.5 21t-10 10.5t-6 5.5t-8 5t-18 3z" />
    <glyph glyph-name="plusminus" unicode="&#xb1;" horiz-adv-x="465" 
d="M228 531q9 -1 17 -6t8 -10t-1 -16t-1 -21q0 -4 -2.5 -9t-2.5 -11q0 -5 4 -9t4 -21q0 -4 -0.5 -6.5t-1 -6.5t-1 -10.5t-1.5 -16.5q0 -4 1 -10t1 -10l-5 -29h22q7 0 11 0.5t11 0.5q4 0 8.5 -4.5t5.5 -4.5q5 0 10.5 3t10.5 3q3 0 4 -2t4 -2q7 0 9.5 1t4 2.5t3.5 2.5t7 1
q8 0 10.5 -0.5t3.5 -0.5q5 -1 9.5 -1h9.5q8 0 11 1t11 1q6 0 11.5 -0.5t7.5 -0.5q3 0 7.5 -3.5t5.5 -7.5q1 -5 1 -18q0 -7 -5 -12q-2 -2 -3.5 -4.5t-8.5 -2.5q-11 0 -21 1t-18 1t-15.5 -1t-15.5 -1q-4 0 -13.5 1t-18.5 1t-17.5 0.5t-16.5 0.5h-6t-7 -1q-8 -2 -12.5 -2h-6.5
q-5 0 -5 1t-2 1l-1 -15q0 -7 0.5 -12.5t0.5 -12.5q0 -5 -6.5 -9t-6.5 -5q0 -5 5 -11t5 -11q0 -3 3.5 -5t3.5 -5q0 -7 -0.5 -9.5t-1.5 -3.5t-1.5 -2.5t-0.5 -6.5q0 -4 -0.5 -9.5t-0.5 -7.5q0 -4 2 -5.5t2 -5.5t-2 -8.5t-2 -5.5q1 -5 1 -12q0 -6 -0.5 -11.5t-0.5 -7.5
q0 -3 -5 -7.5t-9 -5.5q-5 -1 -14 -1q-8 0 -13 5q-2 2 -4.5 3.5t-2.5 8.5q0 11 1 21.5t1 18.5t-1 14.5t-1 14.5q0 4 -0.5 14t-0.5 19q0 10 2 18t2 16v7.5t-1 8.5q-2 8 -2 11v5q0 5 1 5t1 2l-8 3q-11 0 -22.5 -1t-20.5 -1q-23 0 -34.5 3t-17.5 3q-12 -2 -18.5 -4t-17.5 -2
h-36.5t-11.5 2t-3.5 9t-1.5 13q0 8 5.5 16t10.5 8t15.5 -1t19.5 -1q4 1 10.5 1t14.5 1q31 0 43 -1t22 -2q4 0 10 1t10 1l30 -5q0 3 0.5 6t0.5 6q0 11 -0.5 19t-0.5 17q0 23 0.5 32t0.5 13q-1 7 -2 20.5t-1 21.5q0 5 0.5 9.5t0.5 27.5v13t2 8t9 3.5t12 1.5zM40 39q0 7 5 10.5
t13 4.5t9.5 5.5t11.5 5.5q5 0 10.5 0.5t10.5 0.5t10 -0.5t8 -0.5q3 -1 12 -5.5t15 -4.5h2q1 0 1 1l6 6t11 3t20.5 -1t20.5 -3q4 -2 9.5 -2h10.5h10t9 2q2 1 11 1q7 0 15 -0.5t15 -0.5h10q3 0 3 -2t-3 -6.5t-3 -6.5q1 -3 5 -3q3 0 7.5 2t8.5 4q8 5 18.5 9.5t22.5 4.5
q5 0 12 1t12 1t7 -2t6.5 -4.5t8.5 -2.5q1 0 1.5 0.5t1.5 0.5q3 2 8.5 3.5t11.5 1.5q5 -1 9.5 -4.5t4.5 -11.5t-6 -15t-20 -9h-4q-8 0 -11.5 3.5t-6.5 3.5q-1 0 -3 -2q-5 -5 -11 -7t-21 -2q-13 0 -23 1t-21 1h-8q-8 -1 -13 -1h-10h-9.5t-10.5 1q-10 1 -26 3.5t-27 2.5
q-6 0 -10 -2q-5 -3 -12 -3q-5 0 -10 0.5t-11 0.5q-7 0 -21 -0.5t-26 -0.5h-11t-8 1q-2 1 -6 1q-6 0 -12 -2t-16 -2q-11 1 -17.5 7t-6.5 13z" />
    <glyph glyph-name="uni00B2" unicode="&#xb2;" horiz-adv-x="253" 
d="M58.1543 339.903q-3.19043 -2.55078 -2.87109 -5.10254q0.319336 -2.55078 -0.319336 -5.73926q0 -0.637695 6.0625 -1.91309q6.0625 -1.27637 14.6768 -2.23242q8.61426 -0.957031 18.8242 -1.91309q10.21 -0.957031 18.5059 -0.957031q17.8672 0 34.1396 1.27539
t29.0342 1.27539q3.8291 0 5.4248 -0.318359q1.59473 -0.319336 6.06152 -0.957031q6.38184 0 10.21 2.87012q3.8291 2.87012 8.93359 2.87012q5.74316 0 9.25293 2.55078t13.7197 2.55078q5.74316 0 5.74316 -5.10156q0 -3.18945 -0.637695 -5.10254
q-1.27637 -5.10156 -8.93359 -13.7119q-7.6582 -8.60938 -22.9727 -8.60938h-5.74316t-4.4668 0.637695q-2.55273 0.637695 -4.4668 1.27539h-26.1631q-5.10547 0 -16.5918 -0.318359q-11.4854 -0.319336 -18.5049 -0.319336t-16.9102 0.957031
q-9.8916 0.956055 -22.6533 3.50781q-1.91504 0.637695 -7.01953 0.637695q-7.01953 0 -15.3154 -1.27539q-8.29492 -1.27637 -15.3145 -2.87012q-7.01953 -1.59473 -12.4434 -2.87012t-6.0625 -1.27539q-6.38086 0 -8.2959 3.18848q-1.91406 3.18848 -3.19043 6.37793
q-1.91406 1.91309 -4.14746 4.14551q-2.2334 2.23145 -3.50977 4.14551v5.73926q-0.637695 1.91309 -1.91406 3.18848q-1.27637 1.27637 -1.27637 3.82715q1.27637 8.29102 5.10449 10.5225q3.8291 2.23242 7.01953 5.4209q3.8291 2.55176 5.42383 6.69727
q1.5957 4.14551 7.97656 9.24707l1.5957 1.91309q1.59473 1.91309 3.19043 4.14551t2.87207 4.46484l1.27539 2.23145l10.21 10.8418v2.55176q3.19141 3.18848 6.38184 5.73926t5.10449 5.74023q1.91504 3.18848 3.50977 6.05859q1.5957 2.87012 3.50977 4.7832
q6.38086 6.37695 12.7627 14.3496q6.38086 7.97168 11.4863 15.3057q5.10449 7.33398 9.25293 12.1172q4.14746 4.7832 5.42383 5.4209q3.82812 3.18945 7.01953 8.29102q3.19043 5.10254 6.38086 9.56641l8.2959 8.29102q2.55176 5.73926 5.10449 9.24707t7.01953 9.24805
l4.4668 12.1172q1.27637 1.27539 2.55273 6.69629t1.91406 6.69629q1.27637 1.27539 2.55273 0.957031q1.27637 -0.319336 1.27637 0.318359h2.55176q3.8291 4.46484 4.46777 9.24805q0.637695 4.7832 3.19043 7.33398q0 1.27539 2.2334 4.14551t3.50977 4.14551
q1.27637 3.82617 1.59473 8.60938q0.319336 4.7832 1.5957 9.88574q1.27637 2.55078 3.19043 5.73926q1.91406 3.18945 2.55273 5.74023q0.637695 3.18848 0.957031 8.29102q0.319336 5.10156 2.87109 5.10156q-1.27539 0 0.958008 4.46484q2.2334 4.46387 2.2334 6.37695
v6.37793q3.19043 8.29102 5.10449 19.1328t1.91406 19.7705q0 28.0605 -9.89062 49.1064t-36.6914 29.3369q-3.19141 1.27539 -8.2959 0.957031q-5.10547 -0.319336 -8.93359 0.318359h-1.91504q-8.93359 0 -19.1436 -4.46387q-1.91406 -0.637695 -2.55176 -2.23242
q-0.638672 -1.59375 -1.91504 -2.23145h-2.55273q-1.91406 -1.27637 -2.87109 -3.18945t-2.87207 -2.55078h-3.82812q-1.27637 -2.55078 -5.42383 -7.33398q-4.14844 -4.7832 -7.33887 -7.97266q-1.27637 -1.91309 -2.2334 -5.4209q-0.957031 -3.50684 -2.2334 -5.4209
q0 -3.18848 -2.87109 -4.46387q-2.87207 -1.27539 -2.87207 -3.82617q0 -3.82715 -3.19043 -10.2041q-3.19043 -6.37793 -3.8291 -7.65332l1.91504 -11.4795q0.637695 -1.91406 1.91406 -4.46484q2.55273 -5.10156 2.55273 -10.8418q0 -6.37695 -6.0625 -11.1602
t-15.6338 -4.7832q-8.2959 0 -12.7627 4.14453q-4.4668 4.14551 -6.38086 9.24805q-2.55273 5.74023 -2.55273 13.3926v9.56641q0.637695 0.637695 2.2334 1.59473q1.5957 0.956055 1.5957 1.59473q-0.638672 0.637695 -0.638672 2.55078q0 3.82617 3.50977 11.7979
q3.50977 7.97266 3.50977 10.5234t6.0625 13.0742q6.06152 10.5225 13.0811 17.5381q1.91406 1.27539 4.4668 1.91309t4.4668 1.91309q5.10547 3.18945 8.93359 7.33398q3.8291 4.14551 12.7627 6.05957l1.91406 3.18848l10.8486 1.27539l0.637695 2.55078
q1.27637 0 2.55273 -0.318359q1.27637 -0.319336 2.55273 -0.319336q5.10449 4.46484 14.0381 5.10254q8.93457 0.637695 15.3154 0.637695q3.82812 0 11.8047 -0.957031q7.97656 -0.956055 16.2725 -2.55078t14.3574 -3.50781q6.0625 -1.91309 6.0625 -3.82617h5.10547
l1.91406 -2.23242t5.42383 -5.4209t7.33887 -6.37793q3.82812 -3.18848 7.01953 -4.46387q0.637695 -1.27539 0.637695 -3.50781t1.27637 -3.50781q1.27637 -1.91309 3.82812 -1.59375q2.55273 0.318359 3.8291 -2.23242v-3.82617q4.4668 -0.638672 4.4668 -7.01562
l3.8291 -3.82715q0 -5.10156 3.19043 -11.1602t3.19043 -11.7988q0 -0.637695 -0.319336 -0.956055q-0.318359 -0.319336 -0.318359 -0.957031l1.91406 -1.27539v-14.0312q0.637695 -0.637695 1.5957 -0.637695q0.957031 0 1.59473 -0.637695q0 -16.5811 -2.55273 -33.1631
q-2.55176 -16.5811 -6.38086 -32.5254q-0.637695 -1.27539 -1.91406 -2.55078t-1.27637 -2.55176q-1.27637 -4.46387 -0.957031 -7.65234q0.318359 -3.18945 -0.957031 -6.37793q0 -1.27539 -1.5957 -2.23242q-1.5957 -0.956055 -2.2334 -2.23145
q0 -5.74023 -2.87207 -9.88574q-2.87109 -4.14551 -4.78516 -8.60938q-1.91504 -3.82715 -3.19043 -8.61035q-1.27637 -4.7832 -7.6582 -12.4355q-8.93359 -10.8418 -12.7617 -21.6836q-3.8291 -10.8418 -13.4014 -20.4082q-0.637695 -0.637695 -0.637695 -1.91406
q-1.27637 -3.18848 -3.50977 -4.46387t-2.87109 -1.91309q-1.27637 -3.18945 -3.8291 -7.65332t-7.01953 -7.65332q-1.91406 0 -6.0625 -6.37695q-4.14746 -6.37793 -6.06152 -6.37793q0.637695 0 -0.319336 -1.59473q-0.957031 -1.59375 -2.87109 -3.50684
q-1.91504 -1.91406 -3.8291 -3.50781q-1.91406 -1.59473 -2.55273 -2.23242q-2.55273 -1.91309 -4.14746 -4.7832q-1.5957 -2.87012 -3.50977 -5.4209l-5.10547 -1.27539q-4.4668 -3.18848 -6.06152 -6.37793q-1.5957 -3.18848 -4.78613 -6.37695
q-1.91406 0 -4.14746 -2.87012t-4.14844 -6.37793q-1.91406 -3.50781 -3.50977 -6.69629q-1.59473 -3.18848 -2.2334 -3.82617q-1.27637 -1.27539 -3.50977 -1.59473t-2.87109 -1.59473l-3.8291 -10.8418q-1.27539 -1.27539 -3.82812 -1.59375
q-2.55273 -0.319336 -3.8291 -1.59473q-0.637695 -1.27539 -4.14746 -6.05859t-7.33887 -10.2041q-3.82812 -5.4209 -7.65723 -10.2041t-5.10547 -6.05859z" />
    <glyph glyph-name="uni00B3" unicode="&#xb3;" horiz-adv-x="279" 
d="M37.0078 356.599l3.19043 -3.18457q1.91406 -1.91113 3.19043 -3.82227l3.18945 -7.00781q1.27637 -3.18457 7.01953 -7.96191q5.74219 -4.77832 8.93262 -7.96289q6.37988 -6.37012 15.3135 -7.64453q8.93262 -1.27441 16.5898 -3.82227l17.2275 -1.91113
q13.3994 0 26.1602 2.54785q12.7607 2.54883 21.0557 7.64453l10.8477 12.1035q3.82812 2.54785 5.42285 6.37012q1.5957 3.82227 4.14746 8.91797q1.27637 1.27441 2.55273 1.27441t1.91406 1.27441l2.55273 7.00684q4.46582 7.00781 5.74219 14.6514
q1.27637 7.64453 1.27637 14.6523q12.123 28.0283 12.123 61.1543q0 8.91797 -1.91406 17.8359v13.6963t0.637695 6.05176q-0.637695 1.27441 -2.2334 3.50391q-1.59473 2.22949 -2.2334 4.14062l-1.91406 17.1992q-3.82812 3.82227 -5.42285 8.91895
q-1.5957 5.0957 -3.19043 10.1924q-1.5957 5.0957 -3.8291 10.8291q-2.23242 5.7334 -7.33691 10.8291l-21.0566 15.2891q-1.27539 0.636719 -2.2334 2.86621q-0.957031 2.22949 -2.23242 2.86621h-10.209q-8.93359 1.91113 -19.7803 1.91113q-8.93262 0 -13.0801 -4.14062
t-7.97559 -6.05176l-8.29492 -1.27344l-1.27637 -1.91113q-5.10449 -3.18555 -12.7617 -8.91895q-7.65625 -5.73242 -8.93262 -6.37012q-1.91406 -1.27344 -5.42285 -6.68848q-3.50977 -5.41504 -7.33789 -5.41504q-4.4668 1.27441 -6.38086 4.45996
q-1.91406 3.18457 -2.2334 7.00684t0 7.64453t0.319336 6.37012q0 10.1924 2.87109 16.5625t7.33789 11.4668q4.4668 5.0957 9.57031 9.23633q5.10547 4.14062 9.57129 9.2373l5.10449 1.27344q1.91406 1.91113 4.78516 4.77832q2.87207 2.86621 6.38086 6.05176
q3.50977 3.18457 6.7002 5.41406t5.10449 2.22949q7.01855 10.8301 17.2275 18.4746q10.209 7.64355 15.3135 17.1992q4.46582 7.64453 12.7607 12.4219t13.3994 9.2373q1.27637 1.27344 6.7002 6.68848q5.42285 5.41406 12.123 11.7852q6.69922 6.37012 12.7607 12.1035
q6.06152 5.73242 8.61426 7.64355q0 0.637695 -3.19043 0.637695t-7.01855 0.318359q-3.8291 0.318359 -7.01855 0.318359q-3.19043 0 -3.19043 0.636719q-1.91406 1.27441 -2.55273 1.59277q-0.637695 0.318359 -3.82812 0.318359t-4.78516 -0.636719
q-1.5957 -0.636719 -4.14746 -1.27441h-8.29492h-6.38086q-1.91406 0 -2.55176 0.637695h-22.333q-6.37988 0 -12.123 -1.27441q-5.74219 -1.27441 -9.57031 -1.27441h-7.01855q-2.55273 0 -3.8291 -1.27344q-1.91406 0.636719 -5.10449 0.636719
q-5.10449 0 -9.25195 -1.91113t-7.97559 -4.14062t-7.33789 -4.14062q-3.50879 -1.91113 -7.33691 -1.91113q-1.91504 0 -5.74316 0.318359t-7.65625 1.59277t-6.7002 3.82227q-2.87109 2.54785 -2.87109 7.64453q0 21.6582 22.9707 21.6582q10.8467 0 15.6318 -2.54785
q4.78613 -2.54785 7.97656 -2.54785q5.10352 0 8.93262 1.27344q3.82812 1.27441 7.65625 1.27441q3.8291 -1.27441 8.29492 -1.59277q4.4668 -0.318359 8.29492 -0.955078q4.4668 -0.637695 9.57129 -0.637695q1.91406 0 3.18945 0.637695
q3.19043 -0.637695 7.65723 -0.637695h9.57129q13.3984 0 17.2275 1.27441q3.82812 1.27441 8.93262 1.27441q3.82812 0 7.01855 -0.956055q3.19043 -0.955078 6.38086 -0.955078q2.55176 0 8.93262 1.5918q6.38086 1.59277 6.38086 2.23047h12.7607
q3.19043 2.54785 6.38086 4.45898t7.65723 1.91113q2.55176 0 4.78516 -3.82227t3.50977 -8.28125q1.27539 -4.45898 2.23242 -8.28125t0.957031 -4.45898q0 -1.91113 0.319336 -6.37109q0.319336 -4.45898 0.319336 -5.0957q0 -6.37012 -7.33789 -14.333t-12.4424 -9.87402
q-5.74219 -3.18457 -7.33789 -5.0957q-1.59473 -1.91113 -2.2334 -2.54883h-3.18945q-0.638672 -3.18457 -9.57129 -11.4658t-16.5898 -15.2891l-3.19043 -1.27344q-3.18945 -2.54883 -5.10449 -5.7334q-1.91406 -3.18555 -7.01855 -3.18555
q-3.19043 -3.18457 -5.74219 -7.00684q-2.55273 -3.82227 -6.38086 -6.37012q-1.27637 -1.27441 -2.2334 -1.27441t-2.2334 -1.27441q-2.55176 -5.73242 -6.69922 -9.87402q-4.14746 -4.14062 -11.166 -11.1475h-3.82812q-1.27637 -1.27441 -0.957031 -2.54785
q0.318359 -1.27441 -0.957031 -2.54785q-1.27637 -1.27441 -4.4668 -2.54883q-3.19043 -1.27344 -3.19043 -3.82227q0 -3.82129 6.7002 -4.77734q6.69922 -0.955078 15.6318 -0.955078h10.8477q3.19043 0 6.37988 -0.319336q3.19043 -0.318359 4.4668 -1.5918
q4.4668 -2.54883 7.97559 -1.91113q3.50977 0.636719 7.97559 -1.91113l1.27637 -1.91113q14.6758 -7.00781 18.8232 -7.96289q4.14746 -0.956055 6.06152 -2.22949q3.82812 -3.18555 7.33789 -7.32617q3.50879 -4.14062 6.06152 -7.96289
q2.55176 -3.82227 4.14746 -5.73242q1.59473 -1.91113 1.59473 0v-3.82227q1.27637 -1.91113 3.19043 -6.37012q1.91406 -4.45996 3.82812 -6.37109q1.27637 -1.91113 3.82812 -2.22949q2.55273 -0.318359 3.8291 -1.5918q1.91406 -3.18555 1.91406 -8.28125
q0 -5.09668 1.91406 -9.55566q4.4668 -7.00781 4.78516 -11.7852q0.319336 -4.77734 0.319336 -13.6963q2.55176 -5.0957 3.50879 -13.6953q0.957031 -8.60059 0.957031 -17.5186q0 -9.55566 -0.637695 -18.4736t-3.82812 -8.91797q0 -14.6523 -0.637695 -19.748
q-0.638672 -5.09668 -1.91504 -9.55566l-2.55176 -9.55566q-1.91406 -3.18457 -2.2334 -6.68848q-0.319336 -3.50293 -1.59473 -6.68848q-1.27637 -1.91113 -3.50977 -4.45898q-2.2334 -2.54883 -3.50977 -3.82227q0 -1.27441 -3.50879 -7.00781
q-3.50977 -5.73242 -8.29492 -12.4219q-4.78516 -6.68848 -10.209 -12.1035q-5.42383 -5.41406 -7.97559 -6.68848q-10.8477 -10.8291 -23.6084 -16.2441t-17.8662 -11.7852q-0.637695 0 -1.91406 0.637695q-1.27539 0.636719 -1.91406 0.636719
q-5.10449 0 -11.4844 -0.636719q-6.38086 -0.637695 -10.209 -4.45898h-22.9707q-7.65625 0 -18.8232 1.27344q-11.166 1.27441 -16.2705 3.18555l-12.7607 1.91113q0 0.636719 -0.319336 0.955078q-0.318359 0.318359 -0.318359 0.956055
q-6.38086 1.91016 -8.93359 3.50293q-2.55176 1.59277 -3.82812 2.22949h-2.55273q-5.10352 3.18555 -9.25098 7.32617t-10.5283 5.41504v5.0957q-3.82812 1.91113 -7.97559 7.32617q-4.14746 5.41406 -4.14746 9.87402q0 3.82129 3.19043 8.91797
q3.19043 5.0957 10.209 5.0957q3.19043 0 4.46582 -2.54785q1.27637 -2.54785 2.55273 -3.82227z" />
    <glyph glyph-name="acute" unicode="&#xb4;" horiz-adv-x="190" 
d="M27 455q7 0 12 7q2 3 6.5 3.5t5.5 0.5t1.5 3.5t1.5 4.5t5.5 4.5t9.5 8.5q3 5 10 5t7 5q0 3 -1 4.5t-1 2.5q0 2 2 4t8.5 7t8.5 10q2 12 9.5 15.5t10.5 15.5q2 5 7.5 10.5t10.5 5.5t11 -3.5t6 -4.5q2 -4 4 -6t8 -2q5 0 6 -4.5t1 -8.5q0 -3 -4.5 -10t-7.5 -10
q-8 -8 -17 -8.5t-11 -3.5q0 -2 1 -5t1 -5v-4t-1 -2l-21 -16q-5 -2 -11 -4t-6 -7q-3 -2 -7 -4q-8 -4 -10 -4q-2 -1 -4 -2.5t-7 -1.5q-2 0 -4 1t-4 1q-6 0 -9 -6t-10 -8q-8 -3 -15 -3q-11 0 -11 7t8 7z" />
    <glyph glyph-name="mu" unicode="&#xb5;" horiz-adv-x="325" 
d="M62 412q6 5 15 5q6 0 14 -2q5 -2 12.5 -9.5t7.5 -21.5q0 -2 -0.5 -3.5t-0.5 -3.5q-1 -8 -2 -21t-1.5 -27t-0.5 -27v-21v-65q0 -8 -2 -21.5t-2 -25.5q0 -8 2 -14q3 -9 3 -22q0 -7 -0.5 -12.5t-1.5 -10.5q0 -9 2 -22t3 -26q9 -10 24 -21.5t24 -11.5q13 0 21 3t12 7l12.5 10
t12.5 8q6 2 9.5 12t5.5 15q1 1 1 5q0 3 -0.5 7.5t-0.5 10.5q0 3 0.5 8t0.5 16t-1.5 21.5t-1.5 23.5v8t1 9q2 23 2 42t2 28q1 3 1 6.5v6.5q0 7 -0.5 13t-0.5 12q1 9 1 16.5t4 18.5q2 4 2 10.5v26.5q3 17 8 35q2 7 12.5 14.5t16.5 12.5q3 3 6 3q5 0 9.5 -7t4.5 -17q0 -5 -1 -8
q-3 -12 -3 -24v-18v-10t-1 -10q-2 -7 -2 -14v-21v-6.5t-1 -7.5q-2 -14 -2 -26v-20q0 -11 -1.5 -27.5t-1.5 -30.5q0 -10 2 -18q1 -5 1.5 -12.5t0.5 -16.5q0 -14 -1 -28.5t-3 -23.5q-1 -5 -1.5 -8t-0.5 -6q0 -7 1.5 -11.5t1.5 -10.5q0 -7 0.5 -14.5t0.5 -12.5q-1 -6 -3 -16
t-5 -15q-2 -5 -4.5 -10.5t-12.5 -7.5q-5 -1 -13 -1t-9 5l-3.5 17.5t-2.5 20.5q0 9 -7 9q-5 0 -12 -5t-11.5 -10t-13.5 -7q-8 -2 -19 -2.5t-16 -4.5q-5 -3 -14 -3q-12 0 -19 4q-4 2 -8 2.5t-9 2.5v-11q0 -8 -1 -13t-1 -9q0 -9 3.5 -20.5t3.5 -19.5q0 -5 -1.5 -8.5t-1.5 -7.5
q0 -7 2 -13.5t2 -13.5q0 -8 -3 -13t-3 -12q0 -11 2 -24.5t2 -23.5q0 -8 0.5 -14t0.5 -11q0 -6 -1.5 -9t-1.5 -7q0 -5 1.5 -11t1.5 -12q0 -7 -1 -15t-1 -27q0 -7 -2 -16.5t-8 -11.5q-4 -1 -9.5 -2t-11.5 -1q-10 0 -14 4q-5 6 -10 13.5t-5 18.5q0 9 1.5 27.5t1.5 32.5
q0 13 -0.5 25.5t-2.5 24.5q-1 4 -1 10q0 11 1 21t1 21q0 6 0.5 13.5t0.5 12.5q0 8 -1.5 22.5t-1.5 28.5q0 3 0.5 6.5t0.5 5.5q2 11 3.5 27t1.5 30q0 3 -0.5 6t-0.5 5q-1 6 -1 13.5v24.5q0 5 -1 21.5t-1 30.5q0 10 2 17t2 15q0 15 -3.5 33t-3.5 27q0 6 3.5 22t3.5 33
q0 10 -1 14q-2 8 -2 17v18q0 13 0.5 25t1.5 21q2 16 2 26.5t8 16.5z" />
    <glyph glyph-name="paragraph" unicode="&#xb6;" horiz-adv-x="442" 
d="M420 697l4 -4t2 -7q0 -1 -0.5 -5.5t-1.5 -6.5q-4 -5 -6.5 -6.5t-4.5 -2.5q-1 -1 -2 -1h-1q-2 0 -3.5 0.5t-4.5 0.5q-5 0 -13 -1.5t-13 -1.5h-21q-8 0 -10 -8v-13q0 -7 -1 -10v-7v-9q1 -6 1 -12.5v-15.5q0 -8 -0.5 -14.5t-0.5 -11.5v-26v-6v-3q0 -5 -2 -9.5t-2 -10.5
q0 -3 2 -7q2 -5 3 -5q2 0 2 -4v-8l-2 -25v-33v-12q0 -7 -1 -12q-1 -7 -0.5 -16.5t-1.5 -11.5l-1 -1v-2q0 -6 1.5 -17.5t1.5 -17.5q0 -8 -1 -16.5t-3 -15.5q0 -2 -5 -2t-5 -2q0 -1 4 -2.5t6 -3.5q4 -4 4 -3q2 0 2 -2t-0.5 -3.5t-0.5 -6.5q0 -3 -0.5 -5t-0.5 -4v-40v-2
q0 -2 0.5 -3.5t0.5 -3.5v-4q0 -3 1.5 -6t1.5 -5t-1 -4q-3 -8 -4 -9t-1 -7v-4v-1q0 -1 0.5 -2t0.5 -4v-5.5t0.5 -0.5t0.5 -1v-8q0 -4 0.5 -11t0.5 -12v-24q-1 -2 -1 -6v-17q0 -5 -0.5 -9t-0.5 -7v-6q0 -8 1 -15q1 -6 1.5 -13t0.5 -12q0 -6 -1 -8q0 -3 -7.5 -10t-10.5 -7
q-1 0 -11 2t-10 7q0 2 -1 6.5t-2 12.5t-2 15t-1 15v22q-1 2 -1 5q-1 3 -1 11v7q2 3 2 18.5v32.5v56q0 9 0.5 17.5t2.5 13.5q2 2 2 5.5v5.5q0 6 -1 11t-1 10q1 5 1 18v15.5t-1 13.5v54v20.5t-1 14.5q0 7 -0.5 11.5t-1.5 9t-1.5 10t-0.5 14.5v6q0 17 2.5 27t2.5 21t1 25.5
t1 24.5t-1 19t-1 24t-0.5 28t-0.5 17t-1 8.5t-7 6.5q-5 2 -9.5 4t-10.5 2q-1 0 -2 -0.5t-3 -0.5q-10 -2 -11.5 -3.5t-7.5 -1.5h-3q-5 0 -10.5 -1t-5.5 -6v-38q0 -5 -3 -8t-3 -7q0 -3 2 -3q3 -5 3 -10.5t1 -10.5v-25q0 -4 -1 -10t-1 -13q0 -3 2 -9q1 -5 1 -10t-0.5 -7.5
t-0.5 -4.5q0 -4 -1.5 -9t-1.5 -17t1 -16.5t2 -18.5q0 -13 1.5 -17.5t1.5 -12.5q-1 -8 -2 -18t-1 -21t-1 -13t-1 -8v-6q2 -12 2 -16v-8v-12v-27v-25v-9v-4v-4v-8v-5v-2q0 -1 1 -2q0 -2 -0.5 -5t-0.5 -8v-5q2 -7 2.5 -7.5t0.5 -5.5v-6q-1 -11 -2.5 -19.5t-2.5 -15.5v-37
q0 -8 1 -14.5t1 -14.5v-10q-1 -5 -1 -8v-7q0 -9 0.5 -16t0.5 -13v-5q0 -7 -5 -12.5t-11 -7.5q-1 -1 -3 -1h-3q-7 0 -13 6.5t-6 20.5v33v6v18v6q0 3 0.5 11t1.5 10q0 5 -0.5 16.5t-0.5 23.5t-0.5 21.5t-0.5 12.5v61v36v26q0 1 1 3q2 4 2 11q0 2 -0.5 4.5t-0.5 4.5
q-2 12 -1.5 12.5t-0.5 9.5v16v10q0 5 -2 8.5t-8 4.5q-8 2 -23.5 4.5t-30.5 8.5q-15 5 -24 11t-11 10q-2 3 -8.5 6t-9.5 6q-2 1 -7 7.5t-10.5 14t-10.5 14.5t-5 10q-2 4 -7 16.5t-6 22.5q0 8 -1.5 11.5t-1.5 11.5v5t1 8q2 18 1 26.5t3 13.5q4 6 2.5 7.5t4.5 8.5q7 6 9.5 11.5
t3.5 9.5t8 7t9 7q2 3 7 6t12 8q8 5 12.5 9.5t17.5 8.5q11 5 19 6.5t21 4.5q27 9 49 9h34q5 -1 9 -1q5 -1 18 -1q8 0 12 1q3 1 8 1t8 -0.5t8 -0.5h5q9 0 17.5 -1.5t16.5 -1.5h6q2 1 7 1q3 0 6.5 -0.5t8.5 -0.5h4.5t4.5 1q11 2 21 3t15 1t5.5 -3t1.5 -5z" />
    <glyph glyph-name="periodcentered" unicode="&#xb7;" horiz-adv-x="161" 
d="M32 309q0 5 -4.5 6t-4.5 7t7 9.5t12 6.5q8 5 11 11q2 3 6 8t6 4q1 -1 3 -1.5t4 -1.5l4 -2q-2 2 -3 5q-2 6 -2 8t2 4q4 3 7 5.5t5 2.5t7 -6t6 -10v-4q0 -7 2 -7q13 0 16 -6q2 -3 6 -8t6 -6q1 0 7.5 -4.5t6.5 -9.5q0 -6 -7 -11t-12 -8q-3 -2 -10 -2q-4 0 -4 -1t-7.5 -3.5
t-7.5 -6.5q0 -1 6 -2t5 -4q-2 -7 -7 -11q-3 -2 -6.5 -7.5t-8.5 -5.5t-9 6.5t-5 9.5q0 4 0.5 6t0.5 4t-1 3t-3 1q-3 0 -6 1q-5 2 -8 2t-6 6t-8.5 6.5t-5.5 5.5z" />
    <glyph glyph-name="cedilla" unicode="&#xb8;" horiz-adv-x="233" 
d="M87 2h21q6 0 14 1q-1 -7 -2 -13q-1 -5 -1 -10v-6q0 -5 4.5 -7t10.5 -2q5 0 11 1t13 1q10 0 13 -3t8 -3q3 0 7 3.5t12 3.5q16 0 16 -23q-2 -20 -8 -24q-2 -2 -2.5 -5.5t-1.5 -6.5q-1 -4 -1 -8q-1 -1 -3 -4q-4 -6 -8 -10q-3 -2 -7 -4.5t-8 -4.5q-4 -3 -9 -5q-3 -2 -9.5 -5
t-11.5 -3q-3 1 -5.5 2t-4.5 1q-3 0 -5 -3q-3 -6 -9.5 -7.5t-14.5 -3.5l-6 -1.5t-5 -0.5q-4 0 -9.5 1t-13.5 2q-6 1 -14.5 2.5t-17 4.5t-14.5 7.5t-6 10.5q0 14 4 17.5t14 3.5q11 0 17.5 -7.5t10.5 -9.5q2 0 4.5 0.5t8.5 0.5q2 0 6.5 -0.5t9.5 -1.5t12.5 -4.5t8.5 -2.5
q4 4 12.5 7.5t11.5 5.5q4 2 11 4t13 8q3 4 9.5 14t6.5 16q0 5 -7.5 9t-8.5 4q-5 0 -12.5 -3.5t-15.5 -5.5t-15.5 -3t-15.5 -1h-6q-6 1 -12 8t-6 8q0 5 3.5 5.5t3.5 5.5q0 6 -4 7t-4 9v4q0 7 1 16t1 8h5z" />
    <glyph glyph-name="uni00B9" unicode="&#xb9;" horiz-adv-x="180" 
d="M47.3828 643.062q-1.26367 -2.5293 -3.79004 -5.37598q-2.52734 -2.8457 -5.68652 -3.47754q-5.05371 0 -10.7402 5.05859q-5.68555 5.05957 -5.68555 8.85352q0 2.53027 2.84277 5.05957t7.26562 4.74219q4.42188 2.21387 8.84473 4.42773
q4.42285 2.21289 8.21289 4.74219q3.15918 2.5293 2.52734 2.8457t1.89551 3.47852q5.68555 5.05859 7.58105 8.53711t2.84277 5.69141q0.948242 2.21289 1.89551 4.42676q0.947266 2.21289 4.73828 4.74316v3.79395q2.52734 7.58887 6.31738 15.8096
q3.79102 8.2207 3.79102 12.6475q0 1.26465 -0.31543 2.53027q-0.316406 1.26465 -0.316406 2.5293q0 2.5293 2.52734 4.74219q2.52734 2.21387 6.00195 3.79492t6.00195 3.16211q2.52637 1.58105 2.52637 2.8457l5.68652 1.26465q2.52734 0 4.42188 0.631836
q1.89551 0.632812 3.15918 0.632812q3.15918 0 6.63379 -7.58887t3.47461 -16.4414q0 -12.6484 -0.631836 -18.9717q-0.631836 -6.32422 -1.89551 -11.3828q0 -3.16211 0.316406 -4.42676q0.31543 -1.26465 0.31543 -3.16211q0 -1.26465 -0.631836 -3.47852
q-0.631836 -2.21289 -3.79004 -11.0664q0 -1.89746 1.5791 -4.42676t1.5791 -8.85352q0 -5.05859 -0.947266 -9.48535t-2.21094 -7.58887q0 -8.85352 1.89551 -11.3828q-3.15918 -9.48633 -2.84375 -21.1855q0.316406 -11.6982 -0.947266 -21.1846v-31.9355v-20.8682
q0 -7.90527 0.31543 -11.6992q0.316406 -3.79492 0.316406 -5.69141q0 -0.632812 -1.5791 -4.74316q-1.58008 -4.11035 -1.58008 -7.27246q0 -0.632812 0.631836 -2.8457t0.631836 -3.47852l-2.52734 -2.5293q-2.52637 -2.5293 -2.52637 -3.79395
q0 -0.632812 2.84277 -1.58105q2.84277 -0.949219 3.47461 -0.949219q0 -5.05859 -0.947266 -8.85254q-0.948242 -3.79492 -0.948242 -6.32422q0 -6.95605 0.948242 -11.0664q0.947266 -4.11035 0.947266 -7.27246v-3.79492v-32.8838v-9.16992q0 -5.375 0.31543 -11.3828
q0.316406 -6.00781 0.316406 -12.0146v-9.80273v-20.8682q0.631836 0 1.26367 -3.16211t1.5791 -7.27246t2.52734 -7.58887q1.5791 -3.47754 4.73828 -4.11035q0 -7.58887 5.68555 -9.80176q5.68652 -2.21387 10.1084 -2.21387q4.42285 0 9.47656 0.632812
q5.05469 0.632812 12.0039 0.632812l1.26367 -3.16211q1.26367 -2.5293 1.26367 -5.05957q0 -8.2207 -5.37012 -10.4346q-5.37012 -2.21289 -11.6875 -2.21289q-11.3721 0 -27.167 5.69141q-6.94922 0 -9.47656 -1.26465q-3.79004 1.26465 -6.94922 1.26465
q-3.79102 0 -15.1631 -1.89746q-0.630859 0 -3.79004 0.316406t-4.42285 0.316406h-1.26367q-2.52637 1.26465 -5.05371 1.26465q-13.8994 -3.16211 -22.7441 -6.32422q-8.84473 -3.16113 -13.8994 -3.16113q-5.05371 0 -7.26465 3.16113q-2.21191 3.16211 -2.21191 7.58887
t3.47559 7.58887q3.47461 3.16211 7.26465 3.16211q2.52734 0 5.05469 -0.632812q2.52734 -0.631836 5.05371 -0.631836q1.89551 0 7.26562 2.21289q5.37012 2.21387 6.63379 2.8457q6.31738 3.16211 7.89746 9.16992q1.5791 6.00781 1.5791 12.3311v15.1777
q0 1.89648 1.26367 2.8457q1.26367 0.948242 1.89551 2.21289q-0.631836 0.632812 -0.631836 1.89746q-0.631836 1.26465 -0.631836 3.16211v69.5625q0 10.75 0.631836 20.5518q0.631836 9.80273 0.631836 20.5527q0 5.05957 -0.631836 9.80176
q-0.631836 4.74316 -0.631836 7.27246q0 0.632812 0.631836 1.89746q0 1.26465 0.31543 1.89746q0.316406 0.631836 0.316406 1.26465v5.05859q0 1.89746 -0.316406 4.11035q-0.31543 2.21387 -0.31543 5.37598v9.48535q0 1.26465 0.631836 3.16211t0.631836 3.79395
q0 1.26562 -0.631836 1.89746q-0.631836 0.632812 -1.26367 1.89746t-1.26367 1.89746q0 3.16113 1.26367 4.11035q1.26367 0.948242 1.26367 2.8457q0 1.26465 -2.52734 1.26465q0 0.631836 -0.31543 3.79395q-0.316406 3.16211 -0.316406 6.64062v6.95605v5.375
q0 11.3828 0.316406 18.9717q0.31543 7.58887 0.947266 13.5967q0.631836 6.00684 0.947266 11.0664q0.316406 5.05859 0.316406 10.75q0 3.16211 0.31543 8.53711q0.316406 5.37598 -0.31543 10.4346q-0.631836 5.05957 -1.89551 8.85352
q-1.26367 3.79492 -3.79102 3.79492q-3.1582 0 -4.10645 -2.53027q-0.947266 -2.5293 -6.00195 -3.79395l-1.26367 -3.16211z" />
    <glyph glyph-name="ordmasculine" unicode="&#xba;" horiz-adv-x="315" 
d="M166 746q4 2 12 2t15.5 -3.5t14.5 -3.5q11 -4 17 -7t12 -5q5 -2 9 -9.5t11 -16.5q6 -8 8.5 -26t3.5 -27t5 -28.5t4 -31.5q0 -3 -1 -7.5t-1 -9.5q0 -7 0.5 -15t0.5 -18q0 -4 -1 -12.5t-1.5 -18.5t-2 -19.5t-2.5 -13.5q-3 -9 -3.5 -22.5t-5.5 -27.5q-4 -14 -8 -21t-9 -16
q-5 -8 -10 -19.5t-12 -13.5q-6 0 -13 -2t-9 -6q-2 -11 -12.5 -14.5l-19.5 -6.5q-3 -1 -13 -1q-12 0 -27 2.5t-23 6.5q-11 6 -18.5 13.5t-14.5 15.5q-8 9 -9.5 13.5t-6.5 12.5q-3 7 -4.5 14.5t-1.5 21.5q0 8 -3 15t-5 22q-2 14 -3.5 24t-1.5 22q1 11 3 21.5t5 12.5q2 1 2 7
q0 5 -0.5 10.5t-1.5 13.5q0 7 1 16.5t5 15.5q4 8 8.5 15t6.5 19q3 23 13 38q6 7 7.5 13.5t12.5 9.5q9 3 16 11.5t11 13.5q3 5 16.5 10t23.5 10zM224 702q-9 16 -37 16q-13 0 -23.5 -10t-15.5 -12q-4 -2 -11 -8.5t-12 -17.5q-5 -10 -7.5 -20t-6.5 -23q-2 -8 -2 -13v-12v-12
t1 -16q0 -3 0.5 -6.5t0.5 -6.5q0 -17 -3 -33.5t-3 -30.5q0 -7 -2 -14t-2 -14q0 -8 4.5 -17.5t6.5 -18.5q3 -11 7 -18t6 -17q1 -9 9 -16l16 -14q6 -5 11 -7.5t14 -2.5q8 0 18 8.5t15 13.5t13 18.5t11 19.5q2 6 4.5 18.5t4.5 23.5t2.5 21.5t4.5 18.5q3 6 3 15q0 5 -0.5 10.5
t-0.5 12.5q0 2 0.5 7t0.5 10v10.5t-1 10.5t-1.5 15t-1 20.5t-1.5 19.5t-3 12q-3 7 -2.5 16t-5.5 17q-5 8 -5.5 12t-5.5 14z" />
    <glyph glyph-name="guillemotright" unicode="&#xbb;" horiz-adv-x="420" 
d="M183 450q7 8 14 8q3 0 5 -1q4 -2 13 -11t23 -18t18 -13.5t15 -14.5t15 -18t9 -13t15 -13t21 -18l10.5 -10.5t3.5 -4.5t6 -8.5t11 -9.5t22 -23.5t18 -41.5q1 -3 1 -6.5v-6.5q0 -18 -5.5 -29t-5.5 -13q0 -1 -3 -4.5t-7.5 -8l-8.5 -8.5t-7 -6q-5 -5 -8 -9.5l-5 -7.5t-6.5 -9
t-7.5 -8q-2 -2 -7.5 -7t-11.5 -11q-7 -7 -15 -16l-40 -36q-4 -4 -10 -11t-10 -10t-11 -6t-10 -10t-9 -8t-17 -9q-5 -3 -8 -3q-7 0 -11 7t-8 12q-2 2 -2 5q0 6 2.5 12t4.5 10q3 5 12.5 12.5t14.5 11.5q3 2 11 7t19 17q1 1 1.5 2.5t3.5 5.5q8 10 15.5 15.5t12.5 9.5t12.5 8
t17.5 4q4 0 3 9t4 14t8.5 6.5t5.5 6.5t8 12.5t14 19.5q10 17 10 29q0 5 -1 7q-2 5 -6 13t-11 16t-17.5 22t-17.5 21t-9.5 9t-9.5 7q-5 4 -10.5 10.5t-25.5 22.5q-11 9 -14.5 13.5t-7.5 6.5t-5 5.5t-5 5.5q1 0 -4 4.5t-11.5 10.5t-12 12t-5.5 9q0 2 2 5.5t3 3.5q-1 0 -1 1
q-1 1 -1 4q0 4 4 8zM33 450q7 8 14 8q3 0 5 -1q4 -2 13 -11t23 -18t18 -13.5t15 -14.5t15 -18t9 -13t15 -13t21 -18l10.5 -10.5t3.5 -4.5t6 -8.5t11 -9.5t22 -23.5t18 -41.5q1 -3 1 -6.5v-6.5q0 -18 -5.5 -29t-5.5 -13q0 -1 -3 -4.5t-7.5 -8l-8.5 -8.5t-7 -6q-5 -5 -8 -9.5
l-5 -7.5t-6.5 -9t-7.5 -8q-2 -2 -7.5 -7t-11.5 -11q-7 -7 -15 -16l-40 -36q-4 -4 -10 -11t-10 -10t-11 -6t-10 -10t-9 -8t-17 -9q-5 -3 -8 -3q-7 0 -11 7t-8 12q-2 2 -2 5q0 6 2.5 12t4.5 10q3 5 12.5 12.5t14.5 11.5q2 2 10 5.5t16 15.5q1 1 5.5 5t7.5 8q8 10 13.5 14.5
t10.5 8.5t12.5 8t17.5 4q4 0 3 9t4 14t8.5 6.5t5.5 6.5t8 12.5t14 19.5q10 17 10 29q0 5 -1 7q-2 5 -6 13t-11 16t-17.5 22t-17.5 21t-9.5 9t-9.5 7q-5 4 -10.5 10.5t-25.5 22.5q-11 9 -14.5 13.5t-7.5 6.5t-5 5.5t-5 5.5q1 0 -4 4.5t-11.5 10.5t-12 12t-5.5 9q0 2 2 5.5
t3 3.5q-1 0 -1 1q-1 1 -1 4q0 4 4 8z" />
    <glyph glyph-name="onequarter" unicode="&#xbc;" horiz-adv-x="510" 
d="M351.706 398.555q-0.633789 5.07031 -2.2168 7.92188q-1.58301 2.85254 -4.74805 7.92285q-2.5332 3.80273 -6.33203 4.43652t-7.28125 0.633789q-3.4834 0 -6.01562 1.26758t-2.53223 6.97168q0 5.07031 3.48242 10.7744t11.7129 5.7041q6.96582 0 12.3477 -3.16895
t9.18066 -6.97168q3.7998 -3.80273 5.69922 -7.60547t1.89941 -4.43652t1.89941 -3.16895t3.16602 -3.80273q0 -3.80273 0.632812 -5.07031q0.633789 -1.26758 1.58301 -4.11914q0.950195 -2.85254 1.89941 -8.55664q0.950195 -5.7041 0.950195 -17.7461v-7.60547
t-1.2666 -8.23926v-6.33789q-0.632812 -1.26758 -2.21582 -3.48535q-1.58301 -2.21875 -1.58301 -3.48633v-8.23926v-10.458q0 -5.38672 -0.633789 -10.457q-0.632812 -5.07031 -1.89941 -7.60547q-8.86426 -20.2812 -18.0449 -39.9287q-9.18164 -19.6475 -21.2119 -32.957
q-5.06543 -5.7041 -8.54785 -12.3584q-3.48242 -6.65527 -8.54785 -11.0918q4.43164 -0.633789 8.54785 -0.633789h8.54785q31.0254 0 50.0215 0.317383q18.9951 0.316406 30.0752 0.632812q11.0811 0.317383 15.1963 1.58496q4.11621 1.26758 5.38281 3.16895
q1.26562 3.16895 1.89941 9.50684q0.632812 6.33789 0.949219 13.9434q0.317383 7.60547 0.633789 15.5283q0.316406 7.92188 0.316406 14.2598q0.632812 10.7744 0.949219 19.3301q0.317383 8.55664 0.317383 17.4297q0 6.97168 -0.633789 11.7246
q-0.632812 4.75391 -0.632812 15.5283q0 7.60547 1.58301 14.2607q1.58301 6.6543 2.84863 6.02051q0 6.97168 -0.949219 12.9932q-0.950195 6.02051 -0.950195 12.3584v3.80273q0 6.97168 0.633789 13.9434q0.632812 6.97168 2.53223 12.6758t5.69922 9.19043
q3.79883 3.48535 10.7637 3.48535q1.89941 0 2.53223 -0.633789l1.90039 7.60547q3.79883 3.16895 6.01465 6.02148q2.21582 2.85156 7.28223 2.85156q5.06445 0 8.54785 -1.90137q3.48242 -1.90137 3.48242 -7.60547q0 -5.07031 -2.2168 -9.50684
q-2.21582 -4.43652 -2.21582 -8.87305q-3.16602 -12.6758 -2.5332 -22.5q0.633789 -9.82324 0.633789 -15.5273q0 -2.53516 -0.950195 -12.042q-0.949219 -9.50684 -0.949219 -17.1123v-3.16895q0 -10.1406 -2.2168 -22.499q-2.21582 -12.3594 -2.21582 -21.2324
q0 -5.07031 0.633789 -6.33789q-0.633789 -1.26758 -2.2168 -3.16895t-1.58301 -3.16895l3.7998 -5.07031q0 -6.33789 -0.950195 -12.3594q-0.950195 -6.02051 -0.950195 -11.0908q0 -3.16895 0.633789 -7.60547q0.632812 -4.43652 0.632812 -12.6758
q0 -9.50684 -0.316406 -19.0137t-1.58301 -14.5771q0 -0.633789 0.632812 -3.48633q0.633789 -2.85156 0.633789 -4.75293v-8.23926q0 -8.87305 -1.2666 -15.8447t-1.2666 -13.9434q0 -4.43652 0.633789 -8.55566q0.632812 -4.12012 1.89941 -7.92285
q-1.2666 -3.16895 -2.2168 -8.23926q-0.949219 -5.07031 -0.949219 -8.23926q0 -1.90137 0.316406 -4.43652t0.632812 -6.6543q0.317383 -4.12012 0.633789 -10.7754q0.316406 -6.6543 0.316406 -18.0625v-12.042v-8.55566q0 -0.951172 0.316406 0.316406t0.633789 1.58398
q0.316406 0.317383 0.949219 -5.07031q0.633789 -5.38672 1.58301 -19.6465q0.950195 -14.2607 2.21582 -41.5137q0 -5.07031 -2.21582 -6.02148q-2.21582 -0.950195 -6.64844 -0.950195q-3.16602 0 -3.48242 0.317383q-0.316406 0.316406 -4.74902 1.58398
l-6.96484 1.26758q-15.1963 7.60547 -16.7793 14.5771t-1.58301 14.5771q0 5.07031 0.316406 9.50684q0.317383 4.43652 0.317383 9.50684q0 4.43652 -0.633789 7.92188q-0.632812 3.48633 -0.632812 7.92285q0 9.50684 1.2666 22.499q1.26562 12.9932 1.26562 21.8662
q0 1.26758 -0.316406 7.28809q-0.316406 6.02148 -0.949219 12.6758q-0.633789 6.65527 -0.950195 12.3594t-0.316406 7.60547q0 3.16895 1.2666 6.02148q1.26562 2.85156 1.26562 6.02051q0 1.90137 -1.58301 4.43652q-1.58203 2.53516 -1.58203 5.07031
q0 3.16895 0.316406 5.38672q0.316406 2.21875 0.316406 4.12012q-1.2666 7.60547 -3.16602 14.2607q-1.89941 6.6543 -9.49805 6.6543q-1.89941 0 -3.48242 -0.951172q-1.58301 -0.950195 -3.48242 -0.950195q-0.632812 0 -2.84863 1.90137
q-2.2168 1.90137 -4.74902 1.90137q-1.89941 0 -2.5332 -0.950195q-0.632812 -0.951172 -1.89941 -0.951172l-4.43262 3.16895q-0.632812 0.633789 -2.53223 0.633789t-3.16602 -0.316406q-1.2666 -0.317383 -2.53223 -0.317383q-3.7998 0 -6.01562 0.317383
q-2.21582 0.316406 -7.91504 0.316406q-5.06543 0 -8.86426 -0.633789t-6.96484 -0.633789q-3.79883 0 -6.96484 0.633789t-6.33203 0.633789q-2.53223 0 -4.43164 -0.316406q-1.90039 -0.317383 -1.90039 -3.48633l-13.2969 1.90137l-6.96484 -3.80273
q-2.53223 -0.633789 -7.59766 -0.633789q-4.43262 0 -9.49805 -2.85156q-5.06543 -2.85254 -10.7637 -6.65527q-5.69922 -3.80273 -11.7139 -6.65527q-6.01562 -2.85156 -12.9805 -2.85156q-5.69824 0 -9.49707 5.7041q-3.7998 5.7041 -3.7998 10.7744
q0 2.53516 0.633789 6.97168q0.632812 4.43652 1.58301 8.55566q0.949219 4.12012 2.84863 7.28906q1.90039 3.16895 3.7998 3.80273q8.86426 5.07031 18.3623 14.8945q9.49707 9.82324 18.0449 20.2812q8.54785 10.457 14.8799 20.5977t8.23145 16.4785
q0.632812 2.53516 1.2666 5.07031q0.632812 2.53516 1.89941 5.7041l4.43164 3.80273q0.633789 1.26758 2.5332 12.3584q1.89941 11.0918 6.96484 21.8662v10.1406q3.16602 7.60547 5.69824 14.5771q2.5332 6.97168 2.5332 15.8447q0 5.07031 1.58301 7.60547
t1.58301 8.23926zM47.3828 643.062q-1.26367 -2.5293 -3.79004 -5.37598q-2.52734 -2.8457 -5.68652 -3.47754q-5.05371 0 -10.7402 5.05859q-5.68555 5.05957 -5.68555 8.85352q0 2.53027 2.84277 5.05957t7.26562 4.74219q4.42188 2.21387 8.84473 4.42773
q4.42285 2.21289 8.21289 4.74219q3.15918 2.5293 2.52734 2.8457t1.89551 3.47852q5.68555 5.05859 7.58105 8.53711t2.84277 5.69141q0.948242 2.21289 1.89551 4.42676q0.947266 2.21289 4.73828 4.74316v3.79395q2.52734 7.58887 6.31738 15.8096
q3.79102 8.2207 3.79102 12.6475q0 1.26465 -0.31543 2.53027q-0.316406 1.26465 -0.316406 2.5293q0 2.5293 2.52734 4.74219q2.52734 2.21387 6.00195 3.79492t6.00195 3.16211q2.52637 1.58105 2.52637 2.8457l5.68652 1.26465q2.52734 0 4.42188 0.631836
q1.89551 0.632812 3.15918 0.632812q3.15918 0 6.63379 -7.58887t3.47461 -16.4414q0 -12.6484 -0.631836 -18.9717q-0.631836 -6.32422 -1.89551 -11.3828q0 -3.16211 0.316406 -4.42676q0.31543 -1.26465 0.31543 -3.16211q0 -1.26465 -0.631836 -3.47852
q-0.631836 -2.21289 -3.79004 -11.0664q0 -1.89746 1.5791 -4.42676t1.5791 -8.85352q0 -5.05859 -0.947266 -9.48535t-2.21094 -7.58887q0 -8.85352 1.89551 -11.3828q-3.15918 -9.48633 -2.84375 -21.1855q0.316406 -11.6982 -0.947266 -21.1846v-31.9355v-20.8682
q0 -7.90527 0.31543 -11.6992q0.316406 -3.79492 0.316406 -5.69141q0 -0.632812 -1.5791 -4.74316q-1.58008 -4.11035 -1.58008 -7.27246q0 -0.632812 0.631836 -2.8457t0.631836 -3.47852l-2.52734 -2.5293q-2.52637 -2.5293 -2.52637 -3.79395
q0 -0.632812 2.84277 -1.58105q2.84277 -0.949219 3.47461 -0.949219q0 -5.05859 -0.947266 -8.85254q-0.948242 -3.79492 -0.948242 -6.32422q0 -6.95605 0.948242 -11.0664q0.947266 -4.11035 0.947266 -7.27246v-3.79492v-32.8838v-9.16992q0 -5.375 0.31543 -11.3828
q0.316406 -6.00781 0.316406 -12.0146v-9.80273v-20.8682q0.631836 0 1.26367 -3.16211t1.5791 -7.27246t2.52734 -7.58887q1.5791 -3.47754 4.73828 -4.11035q0 -7.58887 5.68555 -9.80176q5.68652 -2.21387 10.1084 -2.21387q4.42285 0 9.47656 0.632812
q5.05469 0.632812 12.0039 0.632812l1.26367 -3.16211q1.26367 -2.5293 1.26367 -5.05957q0 -8.2207 -5.37012 -10.4346q-5.37012 -2.21289 -11.6875 -2.21289q-11.3721 0 -27.167 5.69141q-6.94922 0 -9.47656 -1.26465q-3.79004 1.26465 -6.94922 1.26465
q-3.79102 0 -15.1631 -1.89746q-0.630859 0 -3.79004 0.316406t-4.42285 0.316406h-1.26367q-2.52637 1.26465 -5.05371 1.26465q-13.8994 -3.16211 -22.7441 -6.32422q-8.84473 -3.16113 -13.8994 -3.16113q-5.05371 0 -7.26465 3.16113q-2.21191 3.16211 -2.21191 7.58887
t3.47559 7.58887q3.47461 3.16211 7.26465 3.16211q2.52734 0 5.05469 -0.632812q2.52734 -0.631836 5.05371 -0.631836q1.89551 0 7.26562 2.21289q5.37012 2.21387 6.63379 2.8457q6.31738 3.16211 7.89746 9.16992q1.5791 6.00781 1.5791 12.3311v15.1777
q0 1.89648 1.26367 2.8457q1.26367 0.948242 1.89551 2.21289q-0.631836 0.632812 -0.631836 1.89746q-0.631836 1.26465 -0.631836 3.16211v69.5625q0 10.75 0.631836 20.5518q0.631836 9.80273 0.631836 20.5527q0 5.05957 -0.631836 9.80176
q-0.631836 4.74316 -0.631836 7.27246q0 0.632812 0.631836 1.89746q0 1.26465 0.31543 1.89746q0.316406 0.631836 0.316406 1.26465v5.05859q0 1.89746 -0.316406 4.11035q-0.31543 2.21387 -0.31543 5.37598v9.48535q0 1.26465 0.631836 3.16211t0.631836 3.79395
q0 1.26562 -0.631836 1.89746q-0.631836 0.632812 -1.26367 1.89746t-1.26367 1.89746q0 3.16113 1.26367 4.11035q1.26367 0.948242 1.26367 2.8457q0 1.26465 -2.52734 1.26465q0 0.631836 -0.31543 3.79395q-0.316406 3.16211 -0.316406 6.64062v6.95605v5.375
q0 11.3828 0.316406 18.9717q0.31543 7.58887 0.947266 13.5967q0.631836 6.00684 0.947266 11.0664q0.316406 5.05859 0.316406 10.75q0 3.16211 0.31543 8.53711q0.316406 5.37598 -0.31543 10.4346q-0.631836 5.05957 -1.89551 8.85352
q-1.26367 3.79492 -3.79102 3.79492q-3.1582 0 -4.10645 -2.53027q-0.947266 -2.5293 -6.00195 -3.79395l-1.26367 -3.16211zM382.251 732.654q5.41309 0 5.9541 2.16699q0.541016 2.16602 5.95312 2.16602q4.33008 0 6.49609 -2.16602q3.24707 -3.25 3.24707 -10.832
q0 -10.832 -6.49512 -18.4141q-5.41211 -6.49902 -10.2842 -9.20703q-4.87109 -2.70801 -4.87109 -8.12402q0 -1.08301 0.541016 -1.625q0.541992 -0.541992 0.541992 -1.625q2.16406 -6.49902 2.16406 -8.66504q0 -8.66602 -12.9902 -25.9971
q-5.41211 -7.58203 -7.03613 -12.998t-2.16504 -11.373q-0.541016 -5.95801 -1.08203 -12.999q-0.541016 -7.04004 -4.87109 -16.7891q-8.66016 -20.5811 -16.2383 -33.5791t-7.57812 -15.165q0 -2.16602 -8.66016 -5.95703t-8.66016 -12.457q0 -1.08301 0.541992 -1.625
q0.541016 -0.541016 0.541016 -1.62402q2.16504 -5.41602 3.24707 -9.74902q1.08301 -4.33301 1.08301 -7.58203q0 -2.16699 -2.16504 -8.66602q-2.16504 -3.24902 -7.03613 -7.04102q-4.87207 -3.79102 -10.2842 -7.04004q-6.49512 -4.33301 -14.0723 -7.58301
l15.1543 -12.998q-1.08203 -6.49902 -3.24707 -12.998q-2.16504 -5.41602 -3.24707 -11.374q-1.08301 -5.95703 -3.24805 -11.373q-4.33008 -9.74902 -8.11914 -13.54t-5.95312 -12.457q0 -1.08301 -0.541992 -1.62402q-0.541016 -0.541992 -0.541016 -1.625
q-2.16504 -8.66602 -4.87109 -22.7471t-4.87207 -19.4971q-1.08203 -2.16699 -4.87109 -9.20801q-3.78906 -7.04004 -8.11914 -15.7061q-4.33008 -8.66504 -8.11816 -17.3311q-3.78906 -8.66504 -5.9541 -15.1641q-7.57812 -21.6641 -18.9443 -45.4941t-26.5215 -57.4092
q-1.08301 -8.66602 -5.9541 -17.3311q-4.87109 -8.66602 -10.8252 -17.873t-10.2842 -16.7891q-4.33008 -7.58301 -4.33008 -14.082q1.08301 -4.33203 1.08301 -10.8311q0 -14.082 -6.49512 -24.3721t-11.9082 -25.4551q-5.41211 -17.3311 -14.6133 -33.0371
q-9.20117 -15.707 -11.3672 -24.3721q-2.16406 -8.66602 -7.57715 -13.54t-17.3203 -4.87402q-14.0732 0 -18.4033 1.08301q-4.33008 0 -7.57715 1.08301q-2.16504 1.08301 -4.33008 3.25q-3.24707 3.24902 -3.24707 10.832q0 5.41602 5.41211 12.998l20.5684 37.9111
q5.41211 8.66602 9.74219 19.498t4.33008 20.5801q2.16504 6.49902 6.49512 21.1221t9.74316 30.3301q5.41211 15.7061 11.9072 29.7871q6.49512 14.082 11.9072 19.498q10.8262 10.832 10.2842 17.8721q-0.541016 7.04102 5.9541 21.1221q11.9082 27.0801 13.5312 38.9951
q1.62402 11.915 9.20117 11.915q6.49609 0 13.5322 12.999q7.03613 12.998 7.03613 18.4141q-1.08203 3.24902 -1.08203 15.1641q0 5.41602 0.541016 9.74902t2.70605 8.66602q2.16504 3.24902 5.9541 12.4561t7.57715 20.0391q3.78906 10.832 8.11914 20.5811
q4.33008 9.74805 7.57715 15.1641l2.16602 3.25q6.49414 10.832 12.9902 22.2051q6.49414 11.374 8.66016 23.2891q2.16406 11.915 3.78809 15.1641q1.62402 3.25 4.87207 19.498q3.24707 16.248 11.3662 27.0801q8.11816 10.8311 15.6963 30.3291
q7.57812 19.4971 10.8252 33.5791q3.24707 14.0811 10.8252 32.4951t12.4492 28.1631t10.2832 23.8301q1.08301 3.25 3.24805 10.291q2.16504 7.04004 5.41211 14.623q3.24805 7.58203 7.03711 13.5391q3.78906 5.95801 7.03613 5.95801q4.33008 1.08301 10.2842 2.16602
q5.95312 1.08301 11.3662 1.08301z" />
    </font>
</defs>
</svg>
